<?xml version="1.0" standalone="no"?>
<!DOCTYPE svg PUBLIC "-//W3C//DTD SVG 1.1//EN" "http://www.w3.org/Graphics/SVG/1.1/DTD/svg11.dtd" >
<svg xmlns="http://www.w3.org/2000/svg" xmlns:xlink="http://www.w3.org/1999/xlink" version="1.1">
<metadata>
Created by FontForge 20161003 at Sun Aug 20 08:38:16 2017
 By www-data
(c) Copyright 2005 by Tong Duc Thinh. All Rights Reserved
</metadata>
<defs>
<font id="SFUFuturaHeavy" horiz-adv-x="578" >
  <font-face 
    font-family="SFUFuturaHeavy"
    font-weight="900"
    font-stretch="normal"
    units-per-em="1000"
    panose-1="0 0 9 0 0 0 0 0 0 0"
    ascent="800"
    descent="-200"
    x-height="491"
    cap-height="754"
    bbox="-148 -264 1178 1195"
    underline-thickness="75"
    underline-position="-261"
    unicode-range="U+0020-F002"
  />
<missing-glyph horiz-adv-x="500" 
d="M63 0v1145h375v-1145h-375zM125 63h250v1020h-250v-1020z" />
    <glyph glyph-name=".notdef" horiz-adv-x="500" 
d="M63 0v1145h375v-1145h-375zM125 63h250v1020h-250v-1020z" />
    <glyph glyph-name=".null" horiz-adv-x="0" 
 />
    <glyph glyph-name="glyph2" horiz-adv-x="289" 
 />
    <glyph glyph-name="space" unicode=" " horiz-adv-x="289" 
 />
    <glyph glyph-name="exclam" unicode="!" horiz-adv-x="325" 
d="M162 158q37 0 63 -25.5t26 -62.5t-26 -63.5t-63 -26.5t-63 26.5t-26 63.5t26 62.5t63 25.5zM91 217v537h142v-537h-142z" />
    <glyph glyph-name="quotedbl" unicode="&#x22;" horiz-adv-x="488" 
d="M88 754h120l-18 -328h-84zM280 754h120l-18 -328h-84z" />
    <glyph glyph-name="numbersign" unicode="#" 
d="M211 726h106l-39 -203h101l39 203h105l-39 -203h80v-113h-98l-24 -124h94v-113h-118l-33 -173h-106l33 173h-101l-33 -173h-106l33 173h-91v113h113l24 124h-96v113h117zM257 410l-24 -124h102l26 124h-104z" />
    <glyph glyph-name="dollar" unicode="$" 
d="M268 -100v95q-78 9 -127 43.5t-87 104.5l89 86q54 -107 140 -107q43 0 70 29t27 72q0 56 -74 94q-132 68 -136 72q-74 55 -74 153q0 84 45 141t127 72v93h73v-94q99 -12 159 -86l-67 -95q-47 61 -111 61q-34 0 -59.5 -22.5t-25.5 -56.5q0 -39 45 -68q6 -4 98 -49
q72 -35 105 -79q38 -49 38 -124q0 -89 -47 -152q-49 -66 -135 -83v-100h-73z" />
    <glyph glyph-name="percent" unicode="%" horiz-adv-x="772" 
d="M184 774q78 0 128.5 -50.5t50.5 -128.5q0 -77 -51 -127.5t-128 -50.5t-128 50.5t-51 127.5q0 78 50.5 128.5t128.5 50.5zM184 693q-36 0 -58 -30.5t-22 -67.5t22 -67t58 -30t58 30t22 67t-22 67.5t-58 30.5zM553 780l68 -34l-404 -777l-69 35zM587 337q78 0 128.5 -50.5
t50.5 -128.5q0 -77 -51 -127.5t-128 -50.5t-128 50.5t-51 127.5q0 78 50.5 128.5t128.5 50.5zM587 256q-36 0 -58 -30.5t-22 -67.5t22 -67t58 -30t58 30t22 67t-22 67.5t-58 30.5z" />
    <glyph glyph-name="ampersand" unicode="&#x26;" horiz-adv-x="702" 
d="M383 177l-117 157q-85 -64 -85 -121q0 -38 26.5 -69.5t63.5 -31.5q45 0 112 65zM283 543l36 -51l25 21q42 35 42 82q0 30 -14 50q-16 24 -45 24t-45.5 -20t-16.5 -50q0 -31 18 -56zM531 0l-61 76q-110 -96 -216 -96q-97 0 -159 62t-62 158q0 121 109 196l45 31
q-61 85 -61 160q0 84 54 135.5t138 51.5q85 0 139 -51t54 -135q0 -101 -124 -182l105 -135l76 97l93 -87l-81 -109l130 -172h-179z" />
    <glyph glyph-name="quotesingle" unicode="'" horiz-adv-x="296" 
d="M88 754h120l-18 -328h-84z" />
    <glyph glyph-name="parenleft" unicode="(" horiz-adv-x="271" 
d="M175 832l86 -58q-82 -186 -82 -450q0 -270 82 -449l-86 -59q-101 199 -101 514q0 297 101 502z" />
    <glyph glyph-name="parenright" unicode=")" horiz-adv-x="271" 
d="M10 774l86 58q101 -205 101 -502q0 -315 -101 -514l-86 59q82 179 82 449q0 264 -82 450z" />
    <glyph glyph-name="asterisk" unicode="*" horiz-adv-x="417" 
d="M166 754h86l-2 -101l77 52l36 -67l-81 -50l81 -50l-36 -67l-77 52l2 -99h-86l3 99l-78 -52l-36 67l79 50l-80 50l35 67l80 -52z" />
    <glyph glyph-name="plus" unicode="+" 
d="M230 512h118v-197h197v-118h-197v-197h-118v197h-197v118h197v197z" />
    <glyph glyph-name="comma" unicode="," horiz-adv-x="289" 
d="M135 156l128 -14l-144 -301l-93 11z" />
    <glyph glyph-name="hyphen" unicode="-" horiz-adv-x="330" 
d="M43 378h244v-115h-244v115z" />
    <glyph glyph-name="hyphen" unicode="&#x2010;" horiz-adv-x="330" 
d="M43 378h244v-115h-244v115z" />
    <glyph glyph-name="period" unicode="." horiz-adv-x="289" 
d="M145 158q37 0 63 -25.5t26 -62.5t-26 -63.5t-63 -26.5t-63 26.5t-26 63.5t26 62.5t63 25.5z" />
    <glyph glyph-name="slash" unicode="/" horiz-adv-x="539" 
d="M405 848l97 -35l-368 -975l-97 35z" />
    <glyph glyph-name="zero" unicode="0" 
d="M289 774q137 0 211 -138q59 -110 59 -260q0 -147 -60 -258q-74 -138 -210 -138t-210 138q-60 111 -60 258q0 150 59 260q74 138 211 138zM289 646q-68 0 -102 -105q-24 -74 -24 -163q0 -88 24 -163q34 -107 102 -107t102 107q24 76 24 163t-24 163q-33 105 -102 105z" />
    <glyph glyph-name="one" unicode="1" 
d="M244 626h-99v128h246v-754h-147v626z" />
    <glyph glyph-name="two" unicode="2" 
d="M289 128h247v-128h-508l192 242q78 98 102 134q62 92 62 148q0 46 -25 82q-28 40 -72 40q-46 0 -72 -43q-24 -38 -21 -86h-156q8 114 70 183q66 74 178 74q106 0 175.5 -69t69.5 -174q0 -75 -40 -149q-28 -52 -91 -125z" />
    <glyph glyph-name="three" unicode="3" 
d="M199 557h-140q10 100 70.5 158.5t160.5 58.5q99 0 158 -57t59 -156q0 -109 -72 -157q48 -21 74 -77q23 -49 23 -107q0 -110 -70 -175t-181 -65q-105 0 -174.5 66.5t-75.5 171.5h148q2 -47 32 -78.5t76 -31.5q47 0 75 38q26 35 26 83q0 49 -28 84q-31 40 -78 36l-27 -2
v105h16q96 0 96 104q0 41 -23 68.5t-63 27.5q-37 0 -60 -30q-20 -26 -22 -65z" />
    <glyph glyph-name="four" unicode="4" 
d="M473 251h80v-118h-80v-133h-138v133h-332v66l336 569h134v-517zM335 251v300h-2l-159 -300h161z" />
    <glyph glyph-name="five" unicode="5" 
d="M499 626h-224l-26 -115l38 2q111 6 179 -74q64 -75 64 -188q0 -122 -75.5 -196.5t-198.5 -74.5q-136 0 -224 100l44 126q68 -98 170 -98q61 0 99 45q36 42 36 104q0 63 -42 106.5t-105 43.5q-69 0 -121 -49h-23l81 396h328v-128z" />
    <glyph glyph-name="six" unicode="6" 
d="M313 785l108 -78l-155 -219l2 -2q24 10 59 10q101 0 164 -76q60 -71 60 -174q0 -119 -73.5 -192.5t-192.5 -73.5q-114 0 -189 71t-75 185q0 115 92 252zM284 100q53 0 87 45q32 41 32 95q0 55 -32 96q-34 45 -87 45t-86.5 -43.5t-33.5 -97.5q0 -55 32 -96q34 -44 88 -44z
" />
    <glyph glyph-name="seven" unicode="7" 
d="M359 626h-316v128h539l-413 -774l-121 69z" />
    <glyph glyph-name="eight" unicode="8" 
d="M289 333q-44 0 -70 -35.5t-26 -80.5q0 -44 25 -78q27 -37 71 -37q50 0 78 48q18 31 18 67q0 45 -26 80.5t-70 35.5zM167 393q-46 23 -72.5 68.5t-26.5 97.5q0 96 62 155.5t159 59.5t159 -59.5t62 -155.5q0 -52 -26.5 -97.5t-72.5 -68.5q122 -46 122 -192q0 -99 -74 -161
q-70 -60 -170 -60t-170 60q-74 62 -74 161q0 146 122 192zM289 664q-39 0 -64 -34q-23 -30 -23 -71t23 -72q25 -34 64 -34t64 34q23 31 23 72t-23 71q-25 34 -64 34z" />
    <glyph glyph-name="nine" unicode="9" 
d="M264 -32l-108 79l155 219l-2 2q-27 -11 -59 -11q-101 0 -164 76q-60 71 -60 174q0 119 74 193t192 74q115 0 189.5 -71.5t74.5 -185.5q0 -115 -92 -252zM293 654q-53 0 -87 -45q-32 -41 -32 -96t32 -96q34 -45 87 -45q54 0 88 45q32 41 32 96t-32 96q-34 45 -88 45z" />
    <glyph glyph-name="colon" unicode=":" horiz-adv-x="289" 
d="M145 158q37 0 63 -25.5t26 -62.5t-26 -63.5t-63 -26.5t-63 26.5t-26 63.5t26 62.5t63 25.5zM145 518q37 0 63 -25.5t26 -62.5t-26 -63.5t-63 -26.5t-63 26.5t-26 63.5t26 62.5t63 25.5z" />
    <glyph glyph-name="semicolon" unicode=";" horiz-adv-x="289" 
d="M125 156l128 -14l-144 -301l-93 11zM185 518q37 0 63 -25.5t26 -62.5t-26 -63.5t-63 -26.5t-63 26.5t-26 63.5t26 62.5t63 25.5z" />
    <glyph glyph-name="less" unicode="&#x3c;" 
d="M33 196v120l512 182v-126l-325 -115v-2l325 -115v-126z" />
    <glyph glyph-name="equal" unicode="=" 
d="M33 315v118h512v-118h-512zM33 79v118h512v-118h-512z" />
    <glyph glyph-name="greater" unicode="&#x3e;" 
d="M545 316v-120l-512 -182v126l325 115v2l-325 115v126z" />
    <glyph glyph-name="question" unicode="?" horiz-adv-x="487" 
d="M148 257v199q16 -4 36 -4q53 0 90.5 30t37.5 82q0 34 -17 59q-19 29 -52 29q-32 0 -49.5 -24.5t-17.5 -57.5v-12h-146q-4 92 58 154t154 62q93 0 154 -61t61 -154q0 -76 -44 -133t-117 -73l-8 -96h-140zM220 158q37 0 63 -25.5t26 -62.5t-26 -63.5t-63 -26.5t-63 26.5
t-26 63.5t26 62.5t63 25.5z" />
    <glyph glyph-name="at" unicode="@" horiz-adv-x="975" 
d="M590 372q1 8 1 23q0 98 -103 98q-57 0 -92 -46q-32 -42 -32 -101q0 -46 23.5 -77t68.5 -31q118 0 134 134zM615 507l14 63h71l-50 -260q-8 -42 -8 -55q0 -31 22 -31q46 0 77 77q25 63 25 117q0 123 -71 196.5t-193 73.5q-130 0 -213 -92q-80 -88 -80 -219
q0 -136 90 -223.5t226 -87.5q121 0 180 43l75 -60q-64 -34 -112 -49q-66 -20 -157 -20q-169 0 -278.5 113.5t-109.5 283.5q0 168 107.5 282.5t274.5 114.5q137 0 235 -88q112 -100 112 -232q0 -109 -52 -199q-62 -107 -164 -103q-44 2 -54 62q-62 -62 -136 -62
q-72 0 -121 59q-47 55 -47 128q0 95 54 164q58 76 150 76q79 0 133 -72z" />
    <glyph glyph-name="A" unicode="A" horiz-adv-x="676" 
d="M470 159h-262l-62 -159h-155l294 774h114l286 -774h-157zM429 279l-94 274h-2l-83 -274h179z" />
    <glyph glyph-name="B" unicode="B" horiz-adv-x="553" 
d="M201 328v-210h31q72 0 103 17q44 24 44 91q0 66 -49 88q-31 14 -105 14h-24zM54 0v754h183q226 0 226 -205q0 -104 -66 -146q63 -11 98 -69q31 -51 31 -120q0 -106 -69 -162q-64 -52 -172 -52h-231zM201 636v-196h18q57 0 82 21.5t25 77.5q0 97 -106 97h-19z" />
    <glyph glyph-name="C" unicode="C" horiz-adv-x="601" 
d="M558 730v-176q-66 80 -166 80q-103 0 -165 -81q-57 -73 -57 -179q0 -102 59 -175q63 -79 162 -79q97 0 167 80v-175q-95 -45 -171 -45q-159 0 -266 117q-103 113 -103 274q0 168 101 283q105 120 271 120q88 0 168 -44z" />
    <glyph glyph-name="D" unicode="D" horiz-adv-x="646" 
d="M54 0v754h210q165 0 264.5 -106t99.5 -272q0 -162 -102 -269t-263 -107h-209zM201 626v-498h24q251 0 251 249t-251 249h-24z" />
    <glyph glyph-name="E" unicode="E" horiz-adv-x="488" 
d="M444 626h-243v-166h234v-128h-234v-204h243v-128h-390v754h390v-128z" />
    <glyph glyph-name="F" unicode="F" horiz-adv-x="463" 
d="M428 626h-227v-166h213v-128h-213v-332h-147v754h374v-128z" />
    <glyph glyph-name="G" unicode="G" horiz-adv-x="739" 
d="M395 401h325v-19q0 -172 -84 -281q-92 -121 -259 -121q-162 0 -263 118q-96 111 -96 276q0 168 99 281q103 119 269 119q97 0 176 -47t122 -133l-130 -70q-23 54 -69 87t-103 33q-101 0 -160 -88q-52 -76 -52 -182t52 -180q59 -84 161 -84q70 0 120 50.5t52 120.5h-160
v120z" />
    <glyph glyph-name="H" unicode="H" horiz-adv-x="674" 
d="M201 457h272v297h147v-754h-147v337h-272v-337h-147v754h147v-297z" />
    <glyph glyph-name="I" unicode="I" horiz-adv-x="254" 
d="M201 754v-754h-147v754h147z" />
    <glyph glyph-name="J" unicode="J" horiz-adv-x="389" 
d="M339 754v-498q0 -66 -6 -99q-9 -50 -38 -92q-58 -85 -169 -85q-81 0 -148 71l94 108q6 -18 23 -33.5t34 -15.5q51 0 60 74q3 25 3 97v473h147z" />
    <glyph glyph-name="K" unicode="K" horiz-adv-x="620" 
d="M203 436l233 318h181l-286 -348l302 -406h-189l-241 339h-2v-339h-147v754h147v-318h2z" />
    <glyph glyph-name="L" unicode="L" horiz-adv-x="402" 
d="M201 754v-626h208v-128h-355v754h147z" />
    <glyph glyph-name="M" unicode="M" horiz-adv-x="836" 
d="M677 0l-60 468h-2l-171 -478h-51l-165 478h-2l-67 -468h-148l127 774h104l186 -497l178 497h106l113 -774h-148z" />
    <glyph glyph-name="N" unicode="N" horiz-adv-x="759" 
d="M54 0v774h106l397 -527h2v507h147v-769h-106l-397 527h-2v-512h-147z" />
    <glyph glyph-name="O" unicode="O" horiz-adv-x="782" 
d="M391 -20q-166 0 -271 117q-102 113 -102 281q0 165 104.5 280.5t268.5 115.5t270 -117q103 -114 103 -279q0 -168 -102 -281q-105 -117 -271 -117zM391 629q-96 0 -160 -76q-61 -71 -61 -169q0 -94 63 -174q67 -85 158 -85t158 85q63 80 63 174q0 98 -61 169
q-64 76 -160 76z" />
    <glyph glyph-name="P" unicode="P" horiz-adv-x="528" 
d="M201 282v-282h-147v754h200q261 0 261 -234q0 -238 -241 -238h-73zM201 632v-228h30q71 0 100 22q34 26 34 95q0 67 -38 92q-30 19 -100 19h-26z" />
    <glyph glyph-name="Q" unicode="Q" horiz-adv-x="782" 
d="M778 -17l-148 -15l-52 63q-76 -51 -187 -51q-166 0 -271 117q-102 113 -102 281q0 165 104.5 280.5t268.5 115.5t270 -117q103 -114 103 -279q0 -158 -89 -273zM498 302l67 -76q47 58 47 156t-61 172q-64 80 -160 80q-102 0 -164 -84q-57 -76 -57 -181q0 -104 58 -173
q61 -74 163 -74q41 0 79 25l-124 143z" />
    <glyph glyph-name="R" unicode="R" horiz-adv-x="558" 
d="M351 318l213 -318h-178l-183 304h-2v-304h-147v754h199q252 0 252 -227q0 -77 -39 -134q-42 -63 -115 -75zM201 634v-227h19q138 0 138 116q0 64 -39 90q-31 21 -98 21h-20z" />
    <glyph glyph-name="S" unicode="S" horiz-adv-x="526" 
d="M478 690l-69 -102q-46 62 -113 62q-38 0 -65 -24t-27 -61q0 -49 78 -85q120 -55 143 -73q78 -61 78 -169q0 -116 -65 -186q-68 -72 -183 -72q-144 0 -232 147l95 93q16 -47 51 -77q38 -33 85 -33q45 0 72 33q25 30 25 76q0 51 -43 82q-18 13 -88 41q-82 33 -121 75
q-47 51 -47 131q0 96 62 161t158 65q53 0 111 -23q62 -24 95 -61z" />
    <glyph glyph-name="T" unicode="T" horiz-adv-x="451" 
d="M299 626v-626h-147v626h-152v128h451v-128h-152z" />
    <glyph glyph-name="U" unicode="U" horiz-adv-x="660" 
d="M50 303v451h147v-422q0 -97 20 -147q31 -77 113 -77t113 77q20 50 20 147v422h147v-451q0 -149 -64 -231q-71 -92 -216 -92t-216 92q-64 82 -64 231z" />
    <glyph glyph-name="V" unicode="V" horiz-adv-x="639" 
d="M144 754l181 -508h2l168 508h158l-293 -774h-86l-288 774h158z" />
    <glyph glyph-name="W" unicode="W" horiz-adv-x="977" 
d="M140 754l152 -514h2l150 524h87l156 -524h2l148 514h154l-255 -769h-108l-150 493h-2l-142 -493h-108l-240 769h154z" />
    <glyph glyph-name="X" unicode="X" horiz-adv-x="623" 
d="M233 399l-203 355h174l120 -234l110 234h174l-209 -355l232 -399h-171l-152 276l-144 -276h-172z" />
    <glyph glyph-name="Y" unicode="Y" horiz-adv-x="587" 
d="M218 346l-234 408h171l132 -262l144 262h172l-238 -408v-346h-147v346z" />
    <glyph glyph-name="Z" unicode="Z" horiz-adv-x="575" 
d="M239 128h313v-128h-547l332 626h-281v128h514z" />
    <glyph glyph-name="bracketleft" unicode="[" horiz-adv-x="288" 
d="M151 754v-754h92v-91h-198v936h198v-91h-92z" />
    <glyph glyph-name="backslash" unicode="\" horiz-adv-x="539" 
d="M30 848h112l368 -848h-112z" />
    <glyph glyph-name="bracketright" unicode="]" horiz-adv-x="288" 
d="M137 0v754h-92v91h198v-936h-198v91h92z" />
    <glyph glyph-name="asciicircum" unicode="^" 
d="M33 329l193 425h124l195 -425h-129l-127 283l-127 -283h-129z" />
    <glyph glyph-name="underscore" unicode="_" horiz-adv-x="500" 
d="M500 -113v-75h-500v75h500z" />
    <glyph glyph-name="grave" unicode="`" horiz-adv-x="380" 
d="M79 712l102 62l120 -168l-71 -44z" />
    <glyph glyph-name="a" unicode="a" horiz-adv-x="565" 
d="M514 491v-491h-138v45h-2q-47 -61 -133 -61q-105 0 -168 82q-58 74 -58 182q0 104 59 178q64 81 165 81q84 0 137 -62v46h138zM273 108q52 0 86 44q31 40 31 94q0 55 -31 94q-33 43 -86 43q-52 0 -85 -44q-31 -40 -31 -93q0 -54 31 -94q33 -44 85 -44z" />
    <glyph glyph-name="b" unicode="b" horiz-adv-x="565" 
d="M50 0v848h140v-402q51 61 136 61q101 0 165 -81q59 -74 59 -178q0 -107 -59 -182q-64 -82 -168 -82q-88 0 -131 62h-2v-46h-140zM292 108q52 0 85 44q31 40 31 94q0 53 -31 93q-33 44 -85 44t-85 -44q-31 -40 -31 -93q0 -54 31 -94q33 -44 85 -44z" />
    <glyph glyph-name="c" unicode="c" horiz-adv-x="421" 
d="M384 476v-135q-48 48 -103 48q-57 0 -92 -46q-32 -41 -32 -100t35.5 -100t93.5 -41q56 0 98 47v-135q-54 -30 -121 -30q-109 0 -178.5 75t-69.5 185q0 112 71.5 187.5t183.5 75.5q64 0 114 -31z" />
    <glyph glyph-name="d" unicode="d" horiz-adv-x="565" 
d="M375 0v46h-2q-45 -62 -132 -62q-105 0 -168 82q-58 74 -58 182q0 104 59 178q64 81 165 81q86 0 134 -61h2v402h140v-848h-140zM273 108q52 0 85 44q31 40 31 94q0 53 -31 93q-33 44 -85 44t-85 -44q-31 -40 -31 -93q0 -54 31 -94q33 -44 85 -44z" />
    <glyph glyph-name="e" unicode="e" horiz-adv-x="501" 
d="M486 223h-323q0 -54 21 -89q26 -43 76 -43q61 0 94 67l129 -21q-25 -73 -85 -113t-138 -40q-112 0 -178.5 72t-66.5 185q0 118 59 189q63 77 179 77t177 -78q56 -71 56 -189v-17zM167 310h187q-6 40 -29 68q-26 31 -64 31q-80 0 -94 -99z" />
    <glyph glyph-name="f" unicode="f" horiz-adv-x="303" 
d="M195 373v-373h-140v373h-47v118h47v144q0 99 42 158q48 67 143 67q36 0 67 -16v-125q-34 17 -57 17q-40 0 -51 -45q-4 -17 -4 -76v-124h112v-118h-112z" />
    <glyph glyph-name="g" unicode="g" horiz-adv-x="562" 
d="M512 491v-461q0 -292 -238 -292q-97 0 -167 53q-76 57 -81 151h148q11 -86 97 -86q66 0 88 53q13 32 13 108v32h-2q-49 -65 -134 -65q-102 0 -164 80q-57 73 -57 178q0 108 59 183q64 82 169 82q81 0 127 -63h2v47h140zM273 108q52 0 85 44q31 40 31 93q0 54 -31 94
q-33 44 -85 44t-85 -44q-31 -40 -31 -94q0 -53 31 -93q33 -44 85 -44z" />
    <glyph glyph-name="h" unicode="h" horiz-adv-x="540" 
d="M50 848h140v-398h2q41 57 128 57q170 0 170 -207v-300h-140v260q0 66 -8 90q-15 45 -68 45q-54 0 -73 -54q-11 -31 -11 -98v-243h-140v848z" />
    <glyph glyph-name="i" unicode="i" horiz-adv-x="253" 
d="M197 491v-491h-140v491h140zM127 780q34 0 58.5 -24.5t24.5 -58.5q0 -35 -24 -59t-59 -24q-34 0 -58.5 24.5t-24.5 58.5t24.5 58.5t58.5 24.5z" />
    <glyph glyph-name="j" unicode="j" horiz-adv-x="253" 
d="M197 491v-753h-140v753h140zM127 780q34 0 58.5 -24.5t24.5 -58.5q0 -35 -24 -59t-59 -24q-34 0 -58.5 24.5t-24.5 58.5t24.5 58.5t58.5 24.5z" />
    <glyph glyph-name="k" unicode="k" horiz-adv-x="526" 
d="M190 848v-537h2l147 180h182l-207 -216l223 -275h-184l-161 209h-2v-209h-140v848h140z" />
    <glyph glyph-name="l" unicode="l" horiz-adv-x="239" 
d="M190 848v-848h-140v848h140z" />
    <glyph glyph-name="m" unicode="m" horiz-adv-x="802" 
d="M190 491v-44h2q42 60 120 60q94 0 141 -77q48 77 143 77q156 0 156 -201v-306h-140v258q0 62 -7 87q-14 50 -59 50q-49 0 -66 -58q-9 -31 -9 -96v-241h-140v249q0 67 -6 91q-14 55 -61 55q-51 0 -66 -57q-8 -30 -8 -97v-241h-140v491h140z" />
    <glyph glyph-name="n" unicode="n" horiz-adv-x="540" 
d="M190 491v-45h2q40 61 128 61q170 0 170 -207v-300h-140v260q0 66 -8 90q-15 45 -68 45q-54 0 -73 -54q-11 -31 -11 -98v-243h-140v491h140z" />
    <glyph glyph-name="o" unicode="o" horiz-adv-x="548" 
d="M274 507q116 0 187 -73t71 -189q0 -117 -71 -189t-187 -72t-187 72t-71 189q0 116 71 189t187 73zM274 383q-53 0 -86 -44q-30 -39 -30 -94q0 -53 31 -93q33 -44 85 -44t85 44q31 40 31 93q0 55 -30 94q-33 44 -86 44z" />
    <glyph glyph-name="p" unicode="p" horiz-adv-x="565" 
d="M190 491v-45q51 61 136 61q101 0 165 -81q59 -74 59 -178q0 -107 -59 -182q-64 -82 -168 -82q-88 0 -131 62h-2v-308h-140v753h140zM292 108q52 0 85 44q31 40 31 94q0 53 -31 93q-33 44 -85 44t-85 -44q-31 -40 -31 -93q0 -54 31 -94q33 -44 85 -44z" />
    <glyph glyph-name="q" unicode="q" horiz-adv-x="565" 
d="M273 108q52 0 85 44q31 40 31 94q0 53 -31 93q-33 44 -85 44t-85 -44q-31 -40 -31 -93q0 -54 31 -94q33 -44 85 -44zM515 491v-753h-140v308h-2q-45 -62 -132 -62q-105 0 -168 82q-58 74 -58 182q0 104 59 178q64 81 165 81q86 0 134 -61h2v45h140z" />
    <glyph glyph-name="r" unicode="r" horiz-adv-x="367" 
d="M190 491v-51h2q44 67 122 67q27 0 58 -12l-17 -130q-25 18 -58 18q-65 0 -90 -52q-17 -36 -17 -110v-221h-140v491h140z" />
    <glyph glyph-name="s" unicode="s" horiz-adv-x="410" 
d="M362 456l-60 -81q-36 34 -74 34q-18 0 -32 -12t-14 -30q0 -22 41 -43q15 -6 60 -25q101 -43 101 -141q0 -79 -57 -128q-53 -46 -134 -46q-105 0 -173 82l64 83q51 -57 104 -57q24 0 40 14.5t16 38.5q0 33 -51 55q-82 36 -94 44q-51 36 -51 104q0 69 43.5 114t112.5 45
q100 0 158 -51z" />
    <glyph glyph-name="t" unicode="t" horiz-adv-x="274" 
d="M207 373v-373h-140v373h-48v118h48v166h140v-166h86v-118h-86z" />
    <glyph glyph-name="u" unicode="u" horiz-adv-x="535" 
d="M47 491h140v-266q0 -123 80 -123t80 123v266h140v-289q0 -218 -220 -218t-220 218v289z" />
    <glyph glyph-name="v" unicode="v" horiz-adv-x="488" 
d="M136 491l115 -277l101 277h153l-226 -501h-72l-225 501h154z" />
    <glyph glyph-name="w" unicode="w" horiz-adv-x="783" 
d="M135 491l102 -283l120 299h67l121 -303l104 287h152l-228 -501h-71l-105 299l-117 -299h-72l-226 501h153z" />
    <glyph glyph-name="x" unicode="x" horiz-adv-x="549" 
d="M192 267l-169 224h170l91 -127l78 127h172l-174 -224l207 -267h-172l-126 171l-113 -171h-174z" />
    <glyph glyph-name="y" unicode="y" horiz-adv-x="520" 
d="M191 75l-209 416h159l117 -279l126 279h156l-357 -753h-154z" />
    <glyph glyph-name="z" unicode="z" horiz-adv-x="481" 
d="M232 118h233v-118h-466l251 373h-212v118h443z" />
    <glyph glyph-name="braceleft" unicode="{" horiz-adv-x="389" 
d="M68 300v73q75 33 75 151v182q0 40 22 82q26 50 63 50h92v-91h-40q-31 0 -31 -62v-177q0 -119 -76 -172q24 -14 43 -45q33 -52 33 -126v-177q0 -62 31 -62h40v-91h-92q-37 0 -63 50q-22 42 -22 82v182q0 118 -75 151z" />
    <glyph glyph-name="bar" unicode="|" horiz-adv-x="538" 
d="M328 848v-848h-118v848h118z" />
    <glyph glyph-name="braceright" unicode="}" horiz-adv-x="389" 
d="M321 373v-73q-75 -33 -75 -151v-182q0 -40 -22 -82q-26 -50 -63 -50h-92v91h40q31 0 31 62v177q0 74 33 126q19 31 43 45q-76 53 -76 172v177q0 62 -31 62h-40v91h92q37 0 63 -50q22 -42 22 -82v-182q0 -118 75 -151z" />
    <glyph glyph-name="asciitilde" unicode="~" 
d="M446 363v0l99 -90q-36 -63 -61 -92q-44 -51 -91 -51q-27 0 -58 15q-21 10 -49 29q-79 53 -98 53q-24 0 -56 -77l-99 88q53 80 64 92q45 53 89 53q37 0 109.5 -49t96.5 -49q26 0 54 78z" />
    <glyph glyph-name="euro" horiz-adv-x="498" 
d="M522 633l-23 -156l-48 6q0 157 -94 157q-103 0 -161 -211h172l-21 -48h-164q-6 -24 -16 -73h147l-21 -47h-134q-6 -41 -6 -74q0 -56 21 -91q26 -43 78 -43q58 0 101 68q24 38 51 119l55 -10l-54 -188q-77 -53 -159 -53q-111 0 -166 84q-47 71 -47 188h-74l21 47h56
q3 25 12 73h-66l21 48h59q41 112 108 183q83 88 187 88q94 0 165 -67z" />
    <glyph glyph-name="exclamdown" unicode="&#xa1;" horiz-adv-x="325" 
d="M162 514q37 0 63 -25.5t26 -62.5t-26 -63.5t-63 -26.5t-63 26.5t-26 63.5t26 62.5t63 25.5zM91 -264v537h142v-537h-142z" />
    <glyph glyph-name="cent" unicode="&#xa2;" 
d="M389 724v-87q56 -10 83 -25v-141q-45 50 -101 50q-57 0 -92 -45q-32 -41 -32 -100q0 -57 34.5 -98t90.5 -41q64 0 98 50h2v-141q-38 -20 -83 -25v-93h-73v91q-97 8 -156 87q-55 73 -55 173q0 102 55 173q57 75 156 88v84h73z" />
    <glyph glyph-name="sterling" unicode="&#xa3;" 
d="M119 0l-109 19q46 142 146 146q11 30 11 59q0 43 -22 84h-131v66h93q-41 82 -41 153q0 109 71.5 178t181.5 69q226 0 238 -258l-147 -17l2 34q3 44 -25 81t-72 37q-49 0 -78 -41q-26 -36 -26 -87q0 -55 42 -139l5 -10h136v-66h-112q6 -34 4 -78q-1 -26 -4 -76l67 -27
q40 -16 63 -16q38 0 55 59l104 -22q-39 -156 -154 -156q-40 0 -115.5 29t-115.5 29q-51 0 -67 -50z" />
    <glyph glyph-name="currency" unicode="&#xa4;" 
d="M289 550q86 0 141 -44l62 57l74 -74l-60 -55q38 -57 38 -134t-38 -134l60 -55l-74 -74l-62 57q-55 -44 -141 -44t-141 44l-62 -57l-74 74l60 55q-38 57 -38 134t38 134l-60 55l74 74l62 -57q55 44 141 44zM289 146q68 0 113.5 43.5t45.5 110.5q0 70 -44.5 112t-114.5 42
t-114.5 -42t-44.5 -112q0 -67 45.5 -110.5t113.5 -43.5z" />
    <glyph glyph-name="yen" unicode="&#xa5;" 
d="M288 492l139 262h171l-174 -305h134v-66h-175l-21 -37v-36h196v-66h-196v-244h-147v244h-196v66h196v36l-24 37h-172v66h134l-174 305h171z" />
    <glyph glyph-name="brokenbar" unicode="&#xa6;" horiz-adv-x="538" 
d="M328 339v-339h-118v339h118zM328 848v-339h-118v339h118z" />
    <glyph glyph-name="section" unicode="&#xa7;" horiz-adv-x="577" 
d="M236 342l139 -85q37 31 37 78q0 30 -20 51q-9 9 -46 32l-141 87q-40 -30 -40 -76q0 -33 22 -54q9 -8 49 -33zM482 684h-125q-4 32 -24.5 52.5t-51.5 20.5q-28 0 -45 -22.5t-17 -51.5q0 -34 26 -58q15 -14 56 -37l107 -60q66 -37 92 -66q37 -41 37 -104q0 -95 -70 -160
q40 -47 40 -123q0 -95 -65 -152q-61 -55 -157 -55q-106 0 -171 62q-68 64 -63 169h138q-1 -46 25 -80q28 -38 73 -38q36 0 58.5 26t22.5 63q0 34 -27 59q-16 15 -57 37l-133 72q-56 30 -81 63q-30 40 -30 98q0 91 74 163q-33 49 -33 112q0 84 59 136q56 50 141 50t139 -45
q58 -48 62 -131z" />
    <glyph glyph-name="dieresis" unicode="&#xa8;" horiz-adv-x="400" 
d="M95 762q33 0 56.5 -23.5t23.5 -56.5t-23.5 -56.5t-56.5 -23.5t-56.5 23.5t-23.5 56.5t23.5 56.5t56.5 23.5zM306 762q33 0 56.5 -23.5t23.5 -56.5t-23.5 -56.5t-56.5 -23.5t-56.5 23.5t-23.5 56.5t23.5 56.5t56.5 23.5z" />
    <glyph glyph-name="copyright" unicode="&#xa9;" horiz-adv-x="800" 
d="M400 -20q-168 0 -281 114t-113 283t113 283t281 114t281 -114t113 -283t-113 -283t-281 -114zM400 688q-133 0 -220.5 -89t-87.5 -222t87.5 -222t220.5 -89t220.5 89t87.5 222t-87.5 222t-220.5 89zM602 459h-88q-8 37 -43 58q-31 19 -71 19q-61 0 -100 -49
q-37 -45 -37 -107q0 -61 38 -107q40 -49 99 -49q40 0 71 19q35 21 43 58h88q-15 -76 -69.5 -119.5t-132.5 -43.5q-99 0 -162 73q-61 69 -61 169t61 169q63 73 162 73q78 0 132.5 -43.5t69.5 -119.5z" />
    <glyph glyph-name="ordfeminine" unicode="&#xaa;" horiz-adv-x="339" 
d="M332 406v-74h-324v74h324zM332 764v-294h-89v27h-2q-29 -37 -86 -37q-66 0 -107 47q-40 44 -40 111q0 65 41 110.5t105 45.5q55 0 89 -37v27h89zM176 534q33 0 54.5 25t21.5 58q0 34 -21.5 58.5t-54.5 24.5t-54.5 -24.5t-21.5 -58.5q0 -33 22 -58t54 -25z" />
    <glyph glyph-name="guillemotleft" unicode="&#xab;" horiz-adv-x="514" 
d="M339 320l125 -182l-87 -58l-159 240l159 243l86 -56zM139 320l125 -182l-87 -58l-159 240l159 243l86 -56z" />
    <glyph glyph-name="logicalnot" unicode="&#xac;" 
d="M427 142v173h-394v118h512v-291h-118z" />
    <glyph glyph-name="sfthyphen" unicode="&#xad;" horiz-adv-x="338" 
d="M8 174l33 122h246l-33 -122h-246z" />
    <glyph glyph-name="registered" unicode="&#xae;" horiz-adv-x="800" 
d="M400 -20q-168 0 -281 114t-113 283t113 283t281 114t281 -114t113 -283t-113 -283t-281 -114zM400 688q-133 0 -220.5 -89t-87.5 -222t87.5 -222t220.5 -89t220.5 89t87.5 222t-87.5 222t-220.5 89zM483 337l100 -164h-94l-96 164h-72v-164h-86v412h200q80 0 115 -22
q45 -29 45 -104q0 -114 -112 -122zM321 411h116q74 0 74 55q0 45 -95 45h-95v-100z" />
    <glyph glyph-name="macron" unicode="&#xaf;" horiz-adv-x="400" 
d="M9 754h382v-88h-382v88z" />
    <glyph glyph-name="macron" unicode="&#x2c9;" horiz-adv-x="400" 
d="M9 754h382v-88h-382v88z" />
    <glyph glyph-name="degree" unicode="&#xb0;" horiz-adv-x="400" 
d="M350 624q0 -62 -44 -106t-106 -44t-106 44t-44 106t44 106t106 44t106 -44t44 -106zM199 706q-34 0 -58 -24t-23 -58q1 -35 24.5 -58.5t58.5 -23.5q34 0 57.5 24t23.5 58t-24.5 58t-58.5 24z" />
    <glyph glyph-name="plusminus" unicode="&#xb1;" 
d="M33 0v118h512v-118h-512zM230 630h118v-172h197v-118h-197v-172h-118v172h-197v118h197v172z" />
    <glyph glyph-name="twosuperior" unicode="&#xb2;" horiz-adv-x="346" 
d="M178 379h160v-77h-330l125 145q106 123 106 169q0 74 -63 74q-30 0 -46 -23.5t-14 -54.5h-101q5 71 47.5 112.5t113.5 41.5q66 0 112.5 -40t46.5 -105q0 -74 -85 -165z" />
    <glyph glyph-name="threesuperior" unicode="&#xb3;" horiz-adv-x="346" 
d="M120 644h-91q6 62 46.5 96t103.5 34q62 0 101.5 -33t39.5 -94q0 -65 -47 -95q63 -25 63 -110q0 -69 -48 -108q-44 -36 -115 -36q-65 0 -111.5 39.5t-50.5 103.5h96q2 -29 21.5 -47.5t48.5 -18.5t47.5 21t18.5 51q0 32 -19 53t-50 19l-18 -1v63h11q62 0 62 63
q0 25 -15.5 41t-40.5 16q-23 0 -37.5 -16.5t-15.5 -40.5z" />
    <glyph glyph-name="acute" unicode="&#xb4;" horiz-adv-x="380" 
d="M199 774l102 -62l-151 -150l-71 44z" />
    <glyph glyph-name="mu" unicode="&#xb5;" horiz-adv-x="535" 
d="M47 491h140v-266q0 -123 80 -123t80 123v266h140v-289q0 -218 -220 -218q-35 0 -80 30v-276h-140v753z" />
    <glyph glyph-name="mu" unicode="&#x3bc;" horiz-adv-x="535" 
d="M47 491h140v-266q0 -123 80 -123t80 123v266h140v-289q0 -218 -220 -218q-35 0 -80 30v-276h-140v753z" />
    <glyph glyph-name="paragraph" unicode="&#xb6;" horiz-adv-x="577" 
d="M558 754v-94h-61v-813h-104v813h-62v-813h-104v436q-93 0 -148 62q-51 57 -58 152q-7 97 54 175q65 82 161 82h322z" />
    <glyph glyph-name="ch270" unicode="&#xb7;" horiz-adv-x="249" 
d="M38 348q0 34 23 57t57 23t57.5 -23t23.5 -57t-23.5 -57.5t-57.5 -23.5t-57 23.5t-23 57.5z" />
    <glyph glyph-name="ch270" unicode="&#x2219;" horiz-adv-x="249" 
d="M38 348q0 34 23 57t57 23t57.5 -23t23.5 -57t-23.5 -57.5t-57.5 -23.5t-57 23.5t-23 57.5z" />
    <glyph glyph-name="cedilla" unicode="&#xb8;" horiz-adv-x="380" 
d="M193 -20l92 -47l-116 -139l-74 38z" />
    <glyph glyph-name="onesuperior" unicode="&#xb9;" horiz-adv-x="346" 
d="M157 678h-64v76h160v-452h-96v376z" />
    <glyph glyph-name="ordmasculine" unicode="&#xba;" horiz-adv-x="339" 
d="M170 774q72 0 120 -43t48 -114q0 -72 -47.5 -114.5t-120.5 -42.5t-119 42q-49 43 -49 115q0 71 48 114t120 43zM170 700q-33 0 -54 -24t-21 -58q0 -33 21.5 -58.5t53.5 -25.5t53.5 25.5t21.5 58.5q0 34 -21 58t-54 24zM332 406v-74h-324v74h324z" />
    <glyph glyph-name="guillemotright" unicode="&#xbb;" horiz-adv-x="514" 
d="M50 138l125 182l-124 187l86 56l159 -243l-159 -240zM250 138l125 182l-124 187l86 56l159 -243l-159 -240z" />
    <glyph glyph-name="onequarter" unicode="&#xbc;" horiz-adv-x="867" 
d="M583 780l68 -34l-404 -777l-69 35zM104 678h-64v76h160v-452h-96v376zM775 151h52v-71h-52v-80h-90v80h-215v39l218 342h87v-310zM685 151v180h-2l-103 -180h105z" />
    <glyph glyph-name="onehalf" unicode="&#xbd;" horiz-adv-x="867" 
d="M537 780l68 -34l-404 -777l-69 35zM104 678h-64v76h160v-452h-96v376zM667 77h160v-77h-330l125 145q106 123 106 169q0 74 -63 74q-30 0 -46 -23.5t-14 -54.5h-101q5 71 47.5 112.5t113.5 41.5q66 0 112.5 -40t46.5 -105q0 -74 -85 -165z" />
    <glyph glyph-name="threequarters" unicode="&#xbe;" horiz-adv-x="867" 
d="M635 780l68 -34l-404 -777l-69 35zM775 151h52v-71h-52v-80h-90v80h-215v39l218 342h87v-310zM685 151v180h-2l-103 -180h105zM149 644h-91q6 62 46.5 96t103.5 34q62 0 101.5 -33t39.5 -94q0 -65 -47 -95q63 -25 63 -110q0 -69 -48 -108q-44 -36 -115 -36
q-65 0 -111.5 39.5t-50.5 103.5h96q2 -29 21.5 -47.5t48.5 -18.5t47.5 21t18.5 51q0 32 -19 53t-50 19l-18 -1v63h11q62 0 62 63q0 25 -15.5 41t-40.5 16q-23 0 -37.5 -16.5t-15.5 -40.5z" />
    <glyph glyph-name="questiondown" unicode="&#xbf;" horiz-adv-x="487" 
d="M339 253v-199q-16 4 -36 4q-53 0 -89 -29q-39 -31 -39 -83q0 -34 17 -59q19 -29 52 -29q31 0 50 26q17 23 17 56v12h146q4 -92 -58 -154t-154 -62q-93 0 -154 61t-61 154q0 76 44 133t117 73l8 96h140zM267 514q37 0 63 -25.5t26 -62.5t-26 -63.5t-63 -26.5t-63 26.5
t-26 63.5t26 62.5t63 25.5z" />
    <glyph glyph-name="Agrave" unicode="&#xc0;" horiz-adv-x="676" 
d="M341 840l-113 91q-14 0 -29 11t-19 24l23 32q9 13 26 13q19 0 30 -14v0l1 -1l81 -96v-60zM685 0h-157l-58 159h-262l-62 -159h-155l294 774h114zM429 279l-94 274h-2l-83 -274h179z" />
    <glyph glyph-name="Aacute" unicode="&#xc1;" horiz-adv-x="676" 
d="M470 159h-262l-62 -159h-155l294 774h114l286 -774h-157zM429 279l-94 274h-2l-83 -274h179zM502 966q-4 -13 -19 -24t-29 -11l-113 -91v60l82 97q12 14 30 14q17 0 26 -13z" />
    <glyph glyph-name="Acircumflex" unicode="&#xc2;" horiz-adv-x="676" 
d="M470 159h-262l-62 -159h-155l294 774h114l286 -774h-157zM429 279l-94 274h-2l-83 -274h179zM188 837l153 109l154 -109l-51 -37l-103 59l-103 -59z" />
    <glyph glyph-name="Atilde" unicode="&#xc3;" horiz-adv-x="676" 
d="M470 159h-262l-62 -159h-155l294 774h114l286 -774h-157zM429 279l-94 274h-2l-83 -274h179zM524 938q-54 -44 -71 -56q-51 -36 -78 -35q-13 1 -41.5 18t-43.5 16q-17 1 -49 -13.5t-47 -27.5q-5 3 -24 4q-15 1 -15 4q1 2 5 6l71 62q38 33 68 32q26 -1 49 -18
q27 -16 44 -15q17 -1 51 14q30 13 48 26q5 -5 22 -6.5t17 -4.5q-1 -2 -6 -6z" />
    <glyph glyph-name="Adieresis" unicode="&#xc4;" horiz-adv-x="676" 
d="M470 159h-262l-62 -159h-155l294 774h114l286 -774h-157zM429 279l-94 274h-2l-83 -274h179zM233 1025q33 0 56.5 -23.5t23.5 -56.5t-23.5 -56.5t-56.5 -23.5t-56.5 23.5t-23.5 56.5t23.5 56.5t56.5 23.5zM444 1025q33 0 56.5 -23.5t23.5 -56.5t-23.5 -56.5t-56.5 -23.5
t-56.5 23.5t-23.5 56.5t23.5 56.5t56.5 23.5z" />
    <glyph glyph-name="Aring" unicode="&#xc5;" horiz-adv-x="676" 
d="M470 159h-262l-62 -159h-155l294 774h114l286 -774h-157zM429 279l-94 274h-2l-83 -274h179zM338 1037q41 0 70.5 -29.5t29.5 -70.5q0 -42 -29 -71.5t-71 -29.5t-71 29.5t-29 71.5q0 41 29.5 70.5t70.5 29.5zM338 978q-17 0 -29 -12t-12 -29t12 -29.5t29 -12.5t29 12.5
t12 29.5t-12 29t-29 12z" />
    <glyph glyph-name="AE" unicode="&#xc6;" horiz-adv-x="921" 
d="M467 159h-261l-59 -159h-156l293 754h372l46 -128h-250l61 -167h246l46 -128h-246l75 -203h250l45 -128h-403zM427 279l-93 256h-2l-83 -256h178z" />
    <glyph glyph-name="Ccedilla" unicode="&#xc7;" horiz-adv-x="601" 
d="M558 730v-176q-66 80 -166 80q-103 0 -165 -81q-57 -73 -57 -179q0 -102 59 -175q63 -79 162 -79q97 0 167 80v-175q-95 -45 -171 -45q-159 0 -266 117q-103 113 -103 274q0 168 101 283q105 120 271 120q88 0 168 -44zM304 -20l92 -47l-116 -139l-74 38z" />
    <glyph glyph-name="Egrave" unicode="&#xc8;" horiz-adv-x="488" 
d="M444 626h-243v-166h234v-128h-234v-204h243v-128h-390v754h390v-128zM248 840l-113 91q-14 0 -29 11t-19 24l23 32q9 13 26 13q19 0 30 -14l1 -1l81 -96v-60z" />
    <glyph glyph-name="Eacute" unicode="&#xc9;" horiz-adv-x="488" 
d="M444 626h-243v-166h234v-128h-234v-204h243v-128h-390v754h390v-128zM409 966q-4 -13 -19 -24t-29 -11l-113 -91v60l82 97q12 14 30 14q17 0 26 -13z" />
    <glyph glyph-name="Ecircumflex" unicode="&#xca;" horiz-adv-x="488" 
d="M444 626h-243v-166h234v-128h-234v-204h243v-128h-390v754h390v-128zM95 837l153 109l154 -109l-51 -37l-103 59l-103 -59z" />
    <glyph glyph-name="Edieresis" unicode="&#xcb;" horiz-adv-x="488" 
d="M444 626h-243v-166h234v-128h-234v-204h243v-128h-390v754h390v-128zM139 1025q33 0 56.5 -23.5t23.5 -56.5t-23.5 -56.5t-56.5 -23.5t-56.5 23.5t-23.5 56.5t23.5 56.5t56.5 23.5zM350 1025q33 0 56.5 -23.5t23.5 -56.5t-23.5 -56.5t-56.5 -23.5t-56.5 23.5t-23.5 56.5
t23.5 56.5t56.5 23.5z" />
    <glyph glyph-name="Igrave" unicode="&#xcc;" horiz-adv-x="254" 
d="M201 754v-754h-147v754h147zM128 825l-113 91q-14 0 -29 11t-19 24l23 32q9 13 26 13q19 0 30 -14l1 -1l81 -96v-60z" />
    <glyph glyph-name="Iacute" unicode="&#xcd;" horiz-adv-x="254" 
d="M201 754v-754h-147v754h147zM289 951q-4 -13 -19 -24t-29 -11l-113 -91v60l82 97q12 14 30 14q17 0 26 -13z" />
    <glyph glyph-name="Icircumflex" unicode="&#xce;" horiz-adv-x="254" 
d="M201 754v-754h-147v754h147zM-43 883l170 154l170 -154l-60 -66l-110 104l-110 -104z" />
    <glyph glyph-name="Idieresis" unicode="&#xcf;" horiz-adv-x="254" 
d="M201 754v-754h-147v754h147zM22 1025q33 0 56.5 -23.5t23.5 -56.5t-23.5 -56.5t-56.5 -23.5t-56.5 23.5t-23.5 56.5t23.5 56.5t56.5 23.5zM233 1025q33 0 56.5 -23.5t23.5 -56.5t-23.5 -56.5t-56.5 -23.5t-56.5 23.5t-23.5 56.5t23.5 56.5t56.5 23.5z" />
    <glyph glyph-name="Eth" unicode="&#xd0;" horiz-adv-x="646" 
d="M54 0v337h-72v120h72v297h210q165 0 264.5 -106t99.5 -272q0 -162 -102 -269t-263 -107h-209zM201 626v-169h113v-120h-113v-209h24q251 0 251 249t-251 249h-24z" />
    <glyph glyph-name="Ntilde" unicode="&#xd1;" horiz-adv-x="759" 
d="M54 0v774h106l397 -527h2v507h147v-769h-106l-397 527h-2v-512h-147zM272 867v0h-82q4 51 31 91q31 48 78 48q24 0 73.5 -21.5t68.5 -21.5q27 0 47 42h83q-25 -141 -121 -141q-21 0 -68.5 22t-66.5 22q-31 0 -43 -41z" />
    <glyph glyph-name="Ograve" unicode="&#xd2;" horiz-adv-x="782" 
d="M391 -20q-167 0 -272 117q-101 113 -101 281q0 166 102 279q106 117 271 117t271 -117q102 -113 102 -279q0 -168 -101 -281q-105 -117 -272 -117zM391 629q-96 0 -160 -76q-61 -71 -61 -169q0 -95 62 -174q67 -85 159 -85t159 85q62 79 62 174q0 98 -61 169
q-64 76 -160 76zM391 841l-113 91q-14 0 -29 11t-19 24l23 32q9 13 26 13q19 0 30 -14l1 -1l81 -96v-60z" />
    <glyph glyph-name="Oacute" unicode="&#xd3;" horiz-adv-x="782" 
d="M391 -20q-167 0 -272 117q-101 113 -101 281q0 166 102 279q106 117 271 117t271 -117q102 -113 102 -279q0 -168 -101 -281q-105 -117 -272 -117zM391 629q-96 0 -160 -76q-61 -71 -61 -169q0 -95 62 -174q67 -85 159 -85t159 85q62 79 62 174q0 98 -61 169
q-64 76 -160 76zM552 966q-4 -13 -19 -24t-29 -11l-113 -91v60l82 97q12 14 30 14q17 0 26 -13z" />
    <glyph glyph-name="Ocircumflex" unicode="&#xd4;" horiz-adv-x="782" 
d="M391 -20q-167 0 -272 117q-101 113 -101 281q0 166 102 279q106 117 271 117t271 -117q102 -113 102 -279q0 -168 -101 -281q-105 -117 -272 -117zM391 629q-96 0 -160 -76q-61 -71 -61 -169q0 -95 62 -174q67 -85 159 -85t159 85q62 79 62 174q0 98 -61 169
q-64 76 -160 76zM238 837l153 109l154 -109l-51 -37l-103 59l-103 -59z" />
    <glyph glyph-name="Otilde" unicode="&#xd5;" horiz-adv-x="782" 
d="M391 -20q-167 0 -272 117q-101 113 -101 281q0 166 102 279q106 117 271 117t271 -117q102 -113 102 -279q0 -168 -101 -281q-105 -117 -272 -117zM391 629q-96 0 -160 -76q-61 -71 -61 -169q0 -95 62 -174q67 -85 159 -85t159 85q62 79 62 174q0 98 -61 169
q-64 76 -160 76zM574 938q-54 -44 -71 -56q-51 -36 -78 -35q-13 1 -41.5 18t-43.5 16q-17 1 -49 -13.5t-47 -27.5q-5 3 -24 4q-15 1 -15 4q1 2 5 6l71 62q38 33 68 32q26 -1 49 -18q27 -16 44 -15q17 -1 51 14q30 13 48 26q5 -5 22 -6.5t17 -4.5q-1 -2 -6 -6z" />
    <glyph glyph-name="Odieresis" unicode="&#xd6;" horiz-adv-x="782" 
d="M391 -20q-166 0 -271 117q-102 113 -102 281q0 165 104.5 280.5t268.5 115.5t270 -117q103 -114 103 -279q0 -168 -102 -281q-105 -117 -271 -117zM391 629q-96 0 -160 -76q-61 -71 -61 -169q0 -94 63 -174q67 -85 158 -85t158 85q63 80 63 174q0 98 -61 169
q-64 76 -160 76zM286 1025q33 0 56.5 -23.5t23.5 -56.5t-23.5 -56.5t-56.5 -23.5t-56.5 23.5t-23.5 56.5t23.5 56.5t56.5 23.5zM497 1025q33 0 56.5 -23.5t23.5 -56.5t-23.5 -56.5t-56.5 -23.5t-56.5 23.5t-23.5 56.5t23.5 56.5t56.5 23.5z" />
    <glyph glyph-name="multiply" unicode="&#xd7;" 
d="M33 428l84 84l173 -173l171 173l84 -84l-172 -172l172 -172l-84 -84l-172 173l-172 -173l-84 84l173 172z" />
    <glyph glyph-name="Oslash" unicode="&#xd8;" horiz-adv-x="782" 
d="M780 722l-89 -99q73 -113 73 -245q0 -168 -102 -281q-105 -117 -271 -117q-134 0 -235 81l-89 -96l-68 65l89 95q-70 97 -70 253q0 166 102 279q107 118 271 117q142 -1 231 -85l89 97zM201 241l314 340q-51 48 -124 48q-96 0 -160 -76q-61 -71 -61 -169q0 -89 31 -143z
M575 509l-314 -342q51 -42 130 -42q91 0 158 85q63 80 63 174q0 59 -37 125z" />
    <glyph glyph-name="Ugrave" unicode="&#xd9;" horiz-adv-x="660" 
d="M50 303v451h147v-422q0 -97 20 -147q31 -77 113 -77t113 77q20 50 20 147v422h147v-451q0 -149 -64 -231q-71 -92 -216 -92t-216 92q-64 82 -64 231zM330 800l-113 91q-14 0 -29 11t-19 24l23 32q9 13 26 13q19 0 30 -14l1 -1l81 -96v-60z" />
    <glyph glyph-name="Uacute" unicode="&#xda;" horiz-adv-x="660" 
d="M50 303v451h147v-422q0 -97 20 -147q31 -77 113 -77t113 77q20 50 20 147v422h147v-451q0 -149 -64 -231q-71 -92 -216 -92t-216 92q-64 82 -64 231zM491 926q-4 -13 -19 -24t-29 -11l-113 -91v60l82 97q12 14 30 14q17 0 26 -13z" />
    <glyph glyph-name="Ucircumflex" unicode="&#xdb;" horiz-adv-x="660" 
d="M50 303v451h147v-422q0 -97 20 -147q31 -77 113 -77t113 77q20 50 20 147v422h147v-451q0 -149 -64 -231q-71 -92 -216 -92t-216 92q-64 82 -64 231zM160 883l170 154l170 -154l-60 -66l-110 104l-110 -104z" />
    <glyph glyph-name="Udieresis" unicode="&#xdc;" horiz-adv-x="660" 
d="M50 303v451h147v-422q0 -97 20 -147q31 -77 113 -77t113 77q20 50 20 147v422h147v-451q0 -149 -64 -231q-71 -92 -216 -92t-216 92q-64 82 -64 231zM225 1025q33 0 56.5 -23.5t23.5 -56.5t-23.5 -56.5t-56.5 -23.5t-56.5 23.5t-23.5 56.5t23.5 56.5t56.5 23.5zM436 1025
q33 0 56.5 -23.5t23.5 -56.5t-23.5 -56.5t-56.5 -23.5t-56.5 23.5t-23.5 56.5t23.5 56.5t56.5 23.5z" />
    <glyph glyph-name="Yacute" unicode="&#xdd;" horiz-adv-x="587" 
d="M218 346l-234 408h171l132 -262l144 262h172l-238 -408v-346h-147v346zM449 916q-4 -13 -19 -24t-29 -11l-113 -91v60l82 97q12 14 30 14q17 0 26 -13z" />
    <glyph glyph-name="Thorn" unicode="&#xde;" horiz-adv-x="528" 
d="M201 162v-162h-147v754h147v-120h53q261 0 261 -234q0 -238 -241 -238h-73zM201 512v-228h30q71 0 100 22q34 26 34 95q0 67 -38 92q-30 19 -100 19h-26z" />
    <glyph glyph-name="germandbls" unicode="&#xdf;" horiz-adv-x="561" 
d="M50 0v604q0 256 222 256q98 0 159 -60t61 -158q0 -102 -76 -162q65 -28 99 -92q31 -58 31 -134q0 -124 -75 -197t-199 -73h-20v122q66 -2 106.5 43t40.5 111t-40.5 108t-106.5 43v118q50 -1 78 30t28 81q0 41 -23.5 69.5t-63.5 28.5q-60 0 -75 -73q-6 -29 -6 -119v-546
h-140z" />
    <glyph glyph-name="agrave" unicode="&#xe0;" horiz-adv-x="565" 
d="M514 491v-491h-138v45h-2q-47 -61 -133 -61q-105 0 -168 82q-58 74 -58 182q0 104 59 178q64 81 165 81q84 0 137 -62v46h138zM273 108q52 0 86 44q31 40 31 94t-32 95.5t-85 41.5q-52 0 -85 -44q-31 -40 -31 -93q0 -54 31 -94q33 -44 85 -44zM267 589l-107 87
q-13 0 -27.5 10.5t-18.5 22.5l22 30q10 13 25 13q17 0 28 -13v0v0l1 -1l77 -92v-57z" />
    <glyph glyph-name="aacute" unicode="&#xe1;" horiz-adv-x="565" 
d="M514 491v-491h-138v45h-2q-47 -61 -133 -61q-105 0 -168 82q-58 74 -58 182q0 104 59 178q64 81 165 81q84 0 137 -62v46h138zM273 108q52 0 86 44q31 40 31 94t-32 95.5t-85 41.5q-52 0 -85 -44q-31 -40 -31 -93q0 -54 31 -94q33 -44 85 -44zM421 708
q-4 -12 -18.5 -22.5t-27.5 -10.5l-107 -87v57l78 93q11 13 28 13q15 0 25 -13z" />
    <glyph glyph-name="acircumflex" unicode="&#xe2;" horiz-adv-x="565" 
d="M514 491v-491h-138v45h-2q-47 -61 -133 -61q-105 0 -168 82q-58 74 -58 182q0 104 59 178q64 81 165 81q84 0 137 -62v46h138zM273 108q52 0 86 44q31 40 31 94t-32 95.5t-85 41.5q-52 0 -85 -44q-31 -40 -31 -93q0 -54 31 -94q33 -44 85 -44zM123 576l145 104l146 -104
l-48 -35l-98 56l-98 -56z" />
    <glyph glyph-name="atilde" unicode="&#xe3;" horiz-adv-x="565" 
d="M514 491v-491h-138v45h-2q-47 -61 -133 -61q-105 0 -168 82q-58 74 -58 182q0 104 59 178q64 81 165 81q84 0 137 -62v46h138zM273 108q52 0 86 44q31 40 31 94t-32 95.5t-85 41.5q-52 0 -85 -44q-31 -40 -31 -93q0 -54 31 -94q33 -44 85 -44zM442 683l-72 -57
q-39 -31 -70 -30q-16 0 -40 17q-18 16 -40 15q-17 1 -47.5 -12.5t-44.5 -26.5q-16 7 -29 6q-8 -1 -8 2q1 2 5 6q31 27 62 55q45 35 70 34q12 -1 44 -16.5t44 -14.5q17 -1 49 13q28 12 45 25q19 -4 37 -10q0 -3 -5 -6z" />
    <glyph glyph-name="adieresis" unicode="&#xe4;" horiz-adv-x="565" 
d="M514 491v-491h-138v45h-2q-47 -61 -133 -61q-105 0 -168 82q-58 74 -58 182q0 104 59 178q64 81 165 81q84 0 137 -62v46h138zM273 108q52 0 86 44q31 40 31 94q0 55 -31 94q-33 43 -86 43q-52 0 -85 -44q-31 -40 -31 -93q0 -54 31 -94q33 -44 85 -44zM178 762
q33 0 56.5 -23.5t23.5 -56.5t-23.5 -56.5t-56.5 -23.5t-56.5 23.5t-23.5 56.5t23.5 56.5t56.5 23.5zM389 762q33 0 56.5 -23.5t23.5 -56.5t-23.5 -56.5t-56.5 -23.5t-56.5 23.5t-23.5 56.5t23.5 56.5t56.5 23.5z" />
    <glyph glyph-name="aring" unicode="&#xe5;" horiz-adv-x="565" 
d="M514 491v-491h-138v45h-2q-47 -61 -133 -61q-105 0 -168 82q-58 74 -58 182q0 104 59 178q64 81 165 81q84 0 137 -62v46h138zM273 108q52 0 86 44q31 40 31 94q0 55 -31 94q-33 43 -86 43q-52 0 -85 -44q-31 -40 -31 -93q0 -54 31 -94q33 -44 85 -44zM283 774
q41 0 70.5 -29.5t29.5 -70.5q0 -42 -29 -71.5t-71 -29.5t-71 29.5t-29 71.5q0 41 29.5 70.5t70.5 29.5zM283 715q-17 0 -29 -12t-12 -29t12 -29.5t29 -12.5t29 12.5t12 29.5t-12 29t-29 12z" />
    <glyph glyph-name="ae" unicode="&#xe6;" horiz-adv-x="792" 
d="M456 310h187q-6 40 -29 68q-26 31 -64 31q-80 0 -94 -99zM222 217q-32 0 -53 -17q-24 -19 -24 -50q0 -33 26 -51q23 -16 57 -16q31 0 57 19t26 49q0 32 -30 50q-25 16 -59 16zM777 223h-323q0 -54 21 -89q26 -43 76 -43q61 0 94 67l129 -21q-25 -73 -85 -113t-138 -40
q-122 0 -175 81q-63 -81 -175 -81q-82 0 -133 39q-57 43 -57 122q0 77 57 121q51 40 130 40q64 0 114 -27v16q0 105 -113 105q-60 0 -120 -22v109q80 20 137 20q117 0 161 -75q59 75 167 75q116 0 177 -78q56 -71 56 -189v-17z" />
    <glyph glyph-name="ccedilla" unicode="&#xe7;" horiz-adv-x="421" 
d="M384 476v-135q-48 48 -103 48q-57 0 -92 -46q-32 -41 -32 -100t35.5 -100t93.5 -41q56 0 98 47v-135q-54 -30 -121 -30q-109 0 -178.5 75t-69.5 185q0 112 71.5 187.5t183.5 75.5q64 0 114 -31zM214 -20l92 -47l-116 -139l-74 38z" />
    <glyph glyph-name="egrave" unicode="&#xe8;" horiz-adv-x="501" 
d="M486 223h-323q0 -54 21 -89q26 -43 76 -43q61 0 94 67l129 -21q-25 -73 -85 -113t-138 -40q-112 0 -178.5 72t-66.5 185q0 118 59 189q63 77 179 77t177 -78q56 -70 56 -189v-17zM167 310h187q-6 41 -29 68q-26 31 -64 31q-80 0 -94 -99zM252 589l-107 87
q-13 0 -27.5 10.5t-18.5 22.5l22 30q10 13 25 13q17 0 28 -13v0v0l1 -1l77 -92v-57z" />
    <glyph glyph-name="eacute" unicode="&#xe9;" horiz-adv-x="501" 
d="M486 223h-323q0 -54 21 -89q26 -43 76 -43q61 0 94 67l129 -21q-25 -73 -85 -113t-138 -40q-112 0 -178.5 72t-66.5 185q0 118 59 189q63 77 179 77t177 -78q56 -70 56 -189v-17zM167 310h187q-6 41 -29 68q-26 31 -64 31q-80 0 -94 -99zM406 708q-4 -12 -18.5 -22.5
t-27.5 -10.5l-107 -87v57l78 93q11 13 28 13q15 0 25 -13z" />
    <glyph glyph-name="ecircumflex" unicode="&#xea;" horiz-adv-x="501" 
d="M486 223h-323q0 -54 21 -89q26 -43 76 -43q61 0 94 67l129 -21q-25 -73 -85 -113t-138 -40q-112 0 -178.5 72t-66.5 185q0 118 59 189q63 77 179 77t177 -78q56 -70 56 -189v-17zM167 310h187q-6 41 -29 68q-26 31 -64 31q-80 0 -94 -99zM108 575l145 104l146 -104
l-48 -35l-98 56l-98 -56z" />
    <glyph glyph-name="edieresis" unicode="&#xeb;" horiz-adv-x="501" 
d="M486 223h-323q0 -54 21 -89q26 -43 76 -43q61 0 94 67l129 -21q-25 -73 -85 -113t-138 -40q-112 0 -178.5 72t-66.5 185q0 118 59 189q63 77 179 77t177 -78q56 -71 56 -189v-17zM167 310h187q-6 40 -29 68q-26 31 -64 31q-80 0 -94 -99zM146 762q33 0 56.5 -23.5
t23.5 -56.5t-23.5 -56.5t-56.5 -23.5t-56.5 23.5t-23.5 56.5t23.5 56.5t56.5 23.5zM357 762q33 0 56.5 -23.5t23.5 -56.5t-23.5 -56.5t-56.5 -23.5t-56.5 23.5t-23.5 56.5t23.5 56.5t56.5 23.5z" />
    <glyph glyph-name="igrave" unicode="&#xec;" horiz-adv-x="253" 
d="M197 491v-491h-140v491h140zM128 578l-107 87q-13 0 -27.5 10.5t-18.5 22.5l22 30q10 13 25 13t28 -13l1 -1l77 -92v-57z" />
    <glyph glyph-name="iacute" unicode="&#xed;" horiz-adv-x="253" 
d="M197 491v-491h-140v491h140zM281 698q-4 -12 -18.5 -22.5t-27.5 -10.5l-107 -87v57l78 93q11 13 28 13q15 0 25 -13z" />
    <glyph glyph-name="icircumflex" unicode="&#xee;" horiz-adv-x="253" 
d="M197 491v-491h-140v491h140zM-43 620l170 154l170 -154l-60 -66l-110 104l-110 -104z" />
    <glyph glyph-name="idieresis" unicode="&#xef;" horiz-adv-x="253" 
d="M197 491v-491h-140v491h140zM22 762q33 0 56.5 -23.5t23.5 -56.5t-23.5 -56.5t-56.5 -23.5t-56.5 23.5t-23.5 56.5t23.5 56.5t56.5 23.5zM233 762q33 0 56.5 -23.5t23.5 -56.5t-23.5 -56.5t-56.5 -23.5t-56.5 23.5t-23.5 56.5t23.5 56.5t56.5 23.5z" />
    <glyph glyph-name="eth" unicode="&#xf0;" horiz-adv-x="548" 
d="M274 383q-53 0 -86 -44q-30 -39 -30 -94q0 -53 31 -93q33 -44 85 -44t85 44q31 40 31 93q0 55 -30 94q-33 44 -86 44zM34 613l116 86q-35 37 -78 79l94 70q35 -35 77 -80l107 80l66 -68l-111 -82q227 -264 227 -453q0 -117 -71 -189t-187 -72t-187 72t-71 189
q0 116 71 189t187 73q9 0 9 9q0 23 -47 82l-24 30l-112 -83z" />
    <glyph glyph-name="ntilde" unicode="&#xf1;" horiz-adv-x="540" 
d="M190 491v-45h2q40 61 128 61q170 0 170 -207v-300h-140v260q0 66 -8 90q-15 45 -68 45q-54 0 -73 -54q-11 -31 -11 -98v-243h-140v491h140zM162 604v0h-82q4 51 31 91q31 48 78 48q24 0 73.5 -21.5t68.5 -21.5q27 0 47 42h83q-25 -141 -121 -141q-21 0 -68.5 22t-66.5 22
q-31 0 -43 -41z" />
    <glyph glyph-name="ograve" unicode="&#xf2;" horiz-adv-x="548" 
d="M274 507q116 0 187 -72.5t71 -189.5t-70.5 -189t-187.5 -72t-187.5 72t-70.5 189t71 189.5t187 72.5zM274 383q-53 0 -86 -44q-30 -39 -30 -94q0 -53 31 -93q33 -44 85 -44t85 44q31 40 31 93q0 55 -30 94q-33 44 -86 44zM273 589l-107 87q-13 0 -27.5 10.5t-18.5 22.5
l22 30q10 13 25 13t28 -13l1 -1l77 -92v-57z" />
    <glyph glyph-name="oacute" unicode="&#xf3;" horiz-adv-x="548" 
d="M274 507q116 0 187 -72.5t71 -189.5t-70.5 -189t-187.5 -72t-187.5 72t-70.5 189t71 189.5t187 72.5zM274 383q-53 0 -86 -44q-30 -39 -30 -94q0 -53 31 -93q33 -44 85 -44t85 44q31 40 31 93q0 55 -30 94q-33 44 -86 44zM427 708q-4 -12 -18.5 -22.5t-27.5 -10.5
l-107 -87v57l78 93q11 13 28 13q15 0 25 -13z" />
    <glyph glyph-name="ocircumflex" unicode="&#xf4;" horiz-adv-x="548" 
d="M274 507q116 0 187 -72.5t71 -189.5t-70.5 -189t-187.5 -72t-187.5 72t-70.5 189t71 189.5t187 72.5zM274 383q-53 0 -86 -44q-30 -39 -30 -94q0 -53 31 -93q33 -44 85 -44t85 44q31 40 31 93q0 55 -30 94q-33 44 -86 44zM129 575l145 104l146 -104l-48 -35l-98 56
l-98 -56z" />
    <glyph glyph-name="otilde" unicode="&#xf5;" horiz-adv-x="548" 
d="M274 507q116 0 187 -72.5t71 -189.5t-70.5 -189t-187.5 -72t-187.5 72t-70.5 189t71 189.5t187 72.5zM274 383q-53 0 -86 -44q-30 -39 -30 -94q0 -53 31 -93q33 -44 85 -44t85 44q31 40 31 93q0 55 -30 94q-33 44 -86 44zM448 683l-72 -57q-39 -31 -70 -30q-16 0 -40 17
q-18 16 -40 15q-17 1 -47.5 -12.5t-44.5 -26.5q-16 7 -29 6q-8 -1 -8 2q1 2 5 6q31 27 62 55q45 35 70 34q12 -1 44 -16.5t44 -14.5q17 -1 49 13q28 12 45 25q19 -4 37 -10q0 -3 -5 -6z" />
    <glyph glyph-name="odieresis" unicode="&#xf6;" horiz-adv-x="548" 
d="M274 507q116 0 187 -73t71 -189q0 -117 -71 -189t-187 -72t-187 72t-71 189q0 116 71 189t187 73zM274 383q-53 0 -86 -44q-30 -39 -30 -94q0 -53 31 -93q33 -44 85 -44t85 44q31 40 31 93q0 55 -30 94q-33 44 -86 44zM169 762q33 0 56.5 -23.5t23.5 -56.5t-23.5 -56.5
t-56.5 -23.5t-56.5 23.5t-23.5 56.5t23.5 56.5t56.5 23.5zM380 762q33 0 56.5 -23.5t23.5 -56.5t-23.5 -56.5t-56.5 -23.5t-56.5 23.5t-23.5 56.5t23.5 56.5t56.5 23.5z" />
    <glyph glyph-name="divide" unicode="&#xf7;" 
d="M289 146q34 0 58.5 -24.5t24.5 -58.5q0 -35 -24 -59t-59 -24q-34 0 -58.5 24.5t-24.5 58.5t24.5 58.5t58.5 24.5zM289 532q34 0 58.5 -24.5t24.5 -58.5q0 -35 -24 -59t-59 -24q-34 0 -58.5 24.5t-24.5 58.5t24.5 58.5t58.5 24.5zM33 197v118h512v-118h-512z" />
    <glyph glyph-name="oslash" unicode="&#xf8;" horiz-adv-x="564" 
d="M566 485l-68 -74q39 -66 39 -166q0 -117 -71 -189t-187 -72q-100 0 -166 54l-69 -73l-47 45l67 71q-43 70 -43 164q0 116 71 189t187 73q110 0 169 -51l70 74zM177 185l168 175q-24 23 -66 23q-53 0 -86 -44q-30 -39 -30 -94q0 -29 14 -60zM383 306l-166 -173
q28 -25 62 -25q52 0 85 44q31 40 31 93q0 36 -12 61z" />
    <glyph glyph-name="ugrave" unicode="&#xf9;" horiz-adv-x="535" 
d="M47 491h140v-266q0 -123 80 -123t80 123v266h140v-289q0 -218 -220 -218t-220 218v289zM267 554l-107 87q-13 0 -27.5 10.5t-18.5 22.5l22 30q10 13 25 13t28 -13l1 -1l77 -92v-57z" />
    <glyph glyph-name="uacute" unicode="&#xfa;" horiz-adv-x="535" 
d="M47 491h140v-266q0 -123 80 -123t80 123v266h140v-289q0 -218 -220 -218t-220 218v289zM421 674q-4 -12 -18.5 -22.5t-27.5 -10.5l-107 -87v57l78 93q11 13 28 13q15 0 25 -13z" />
    <glyph glyph-name="ucircumflex" unicode="&#xfb;" horiz-adv-x="535" 
d="M47 491h140v-266q0 -123 80 -123t80 123v266h140v-289q0 -218 -220 -218t-220 218v289zM98 620l170 154l170 -154l-60 -66l-110 104l-110 -104z" />
    <glyph glyph-name="udieresis" unicode="&#xfc;" horiz-adv-x="535" 
d="M47 491h140v-266q0 -123 80 -123t80 123v266h140v-289q0 -218 -220 -218t-220 218v289zM163 762q33 0 56.5 -23.5t23.5 -56.5t-23.5 -56.5t-56.5 -23.5t-56.5 23.5t-23.5 56.5t23.5 56.5t56.5 23.5zM374 762q33 0 56.5 -23.5t23.5 -56.5t-23.5 -56.5t-56.5 -23.5
t-56.5 23.5t-23.5 56.5t23.5 56.5t56.5 23.5z" />
    <glyph glyph-name="yacute" unicode="&#xfd;" horiz-adv-x="520" 
d="M191 75l-209 416h159l117 -279l126 279h156l-357 -753h-154zM416 660q-4 -12 -18.5 -22.5t-27.5 -10.5l-107 -87v57l78 93q11 13 28 13q15 0 25 -13z" />
    <glyph glyph-name="thorn" unicode="&#xfe;" horiz-adv-x="565" 
d="M190 848v-402q51 61 136 61q101 0 165 -81q59 -74 59 -178q0 -107 -59 -182q-64 -82 -168 -82q-88 0 -131 62h-2v-308h-140v1110h140zM292 108q52 0 85 44q31 40 31 94q0 53 -31 93q-33 44 -85 44t-85 -44q-31 -40 -31 -93q0 -54 31 -94q33 -44 85 -44z" />
    <glyph glyph-name="ydieresis" unicode="&#xff;" horiz-adv-x="520" 
d="M191 75l-209 416h159l117 -279l126 279h156l-357 -753h-154zM155 762q33 0 56.5 -23.5t23.5 -56.5t-23.5 -56.5t-56.5 -23.5t-56.5 23.5t-23.5 56.5t23.5 56.5t56.5 23.5zM366 762q33 0 56.5 -23.5t23.5 -56.5t-23.5 -56.5t-56.5 -23.5t-56.5 23.5t-23.5 56.5t23.5 56.5
t56.5 23.5z" />
    <glyph glyph-name="glyph271" unicode="&#x102;" horiz-adv-x="676" 
d="M470 159h-262l-62 -159h-155l294 774h114l286 -774h-157zM429 279l-94 274h-2l-83 -274h179zM189 921l68 -5q12 -52 84 -52q29 0 52 12q28 14 34 40l68 5q-11 -105 -156 -105q-139 0 -150 105z" />
    <glyph glyph-name="glyph272" unicode="&#x103;" horiz-adv-x="565" 
d="M514 491v-491h-138v45h-2q-47 -61 -133 -61q-105 0 -168 82q-58 74 -58 182q0 104 59 178q64 81 165 81q84 0 137 -62v46h138zM273 108q52 0 86 44q31 40 31 94t-32 95.5t-85 41.5q-52 0 -85 -44q-31 -40 -31 -93q0 -54 31 -94q33 -44 85 -44zM122 663l65 -4
q5 -24 31 -38q22 -12 49 -12t51.5 13t29.5 37l65 4q-11 -99 -148 -99q-132 0 -143 99z" />
    <glyph glyph-name="Cacute" unicode="&#x106;" horiz-adv-x="711" 
d="M558 730v-176q-66 80 -166 80q-103 0 -165 -81q-57 -73 -57 -179q0 -102 59 -175q63 -79 162 -79q97 0 167 80v-175q-95 -45 -171 -45q-159 0 -266 117q-103 113 -103 274q0 168 101 283q105 120 271 120q88 0 168 -44zM376 1029l102 -62l-151 -150l-71 44z" />
    <glyph glyph-name="cacute" unicode="&#x107;" horiz-adv-x="441" 
d="M384 476v-135q-48 48 -103 48q-57 0 -92 -46q-32 -41 -32 -100t35.5 -100t93.5 -41q56 0 98 47v-135q-54 -30 -121 -30q-109 0 -178.5 75t-69.5 185q0 112 71.5 187.5t183.5 75.5q64 0 114 -31zM177 774l102 -62l-151 -150l-71 44z" />
    <glyph glyph-name="Ccaron" unicode="&#x10c;" horiz-adv-x="711" 
d="M558 730v-176q-66 80 -166 80q-103 0 -165 -81q-57 -73 -57 -179q0 -102 59 -175q63 -79 162 -79q97 0 167 80v-175q-95 -45 -171 -45q-159 0 -266 117q-103 113 -103 274q0 168 101 283q105 120 271 120q88 0 168 -44zM198 964l60 65l118 -104l119 104l60 -65l-179 -155
z" />
    <glyph glyph-name="ccaron" unicode="&#x10d;" horiz-adv-x="441" 
d="M384 476v-135q-48 48 -103 48q-57 0 -92 -46q-32 -41 -32 -100t35.5 -100t93.5 -41q56 0 98 47v-135q-54 -30 -121 -30q-109 0 -178.5 75t-69.5 185q0 112 71.5 187.5t183.5 75.5q64 0 114 -31zM-1 709l60 65l118 -104l119 104l60 -65l-179 -155z" />
    <glyph glyph-name="Dslash" unicode="&#x110;" horiz-adv-x="646" 
d="M54 0v337h-72v120h72v297h210q166 0 265 -105.5t99 -272.5q0 -163 -101 -268q-102 -108 -264 -108h-209zM201 626v-169h113v-120h-113v-209h24q251 0 251 249t-251 249h-24z" />
    <glyph glyph-name="dcroat" unicode="&#x111;" horiz-adv-x="565" 
d="M273 108q52 0 85 44q31 40 31 94q0 53 -31 93q-33 44 -85 44t-85 -44q-31 -40 -31 -93q0 -54 31 -94q33 -44 85 -44zM375 545h-134v118h134v185h140v-185h48v-118h-48v-545h-140v46h-2q-45 -62 -132 -62q-105 0 -168 82q-58 74 -58 182q0 104 59 178q64 81 165 81
q86 0 134 -61h2v99z" />
    <glyph glyph-name="Gbreve" unicode="&#x11e;" horiz-adv-x="767" 
d="M395 401h325v-19q0 -172 -84 -281q-92 -121 -259 -121q-162 0 -263 118q-96 111 -96 276q0 168 99 281q103 119 269 119q97 0 176 -47t122 -133l-130 -70q-23 54 -69 87t-103 33q-101 0 -160 -88q-52 -76 -52 -182t52 -180q59 -84 161 -84q70 0 120 50.5t52 120.5h-160
v120zM223 1009h98q16 -71 75 -71t75 71h98q-7 -71 -54.5 -113.5t-118.5 -42.5t-118.5 42.5t-54.5 113.5z" />
    <glyph glyph-name="gbreve" unicode="&#x11f;" horiz-adv-x="492" 
d="M512 491v-461q0 -292 -238 -292q-97 0 -167 53q-76 57 -81 151h148q11 -86 97 -86q66 0 88 53q13 32 13 108v32h-2q-49 -65 -134 -65q-102 0 -164 80q-57 73 -57 178q0 108 59 183q64 82 169 82q81 0 127 -63h2v47h140zM273 108q52 0 85 44q31 40 31 93q0 54 -31 94
q-33 44 -85 44t-85 -44q-31 -40 -31 -94q0 -53 31 -93q33 -44 85 -44zM23 754h98q16 -71 75 -71t75 71h98q-7 -71 -54.5 -113.5t-118.5 -42.5t-118.5 42.5t-54.5 113.5z" />
    <glyph glyph-name="glyph273" unicode="&#x128;" horiz-adv-x="254" 
d="M201 754v-754h-147v754h147zM311 923q-54 -44 -71 -56q-51 -36 -78 -35q-13 1 -41.5 18t-43.5 16q-17 1 -49 -13.5t-47 -27.5q-5 3 -24 4q-15 1 -15 4q1 2 5 6l71 62q38 33 68 32q26 -1 49 -18q27 -16 44 -15q17 -1 51 14q30 13 48 26q5 -5 22 -6.5t17 -4.5q-1 -2 -6 -6z
" />
    <glyph glyph-name="glyph274" unicode="&#x129;" horiz-adv-x="253" 
d="M197 491v-491h-140v491h140zM302 672l-72 -57q-39 -31 -70 -30q-16 0 -40 17q-18 16 -40 15q-17 1 -47.5 -12.5t-44.5 -26.5q-16 7 -29 6q-8 -1 -8 2q1 2 5 6q31 27 62 55q45 35 70 34q12 -1 44 -16.5t44 -14.5q17 -1 49 13q28 12 45 25q19 -4 37 -10q0 -3 -5 -6z" />
    <glyph glyph-name="Idotaccent" unicode="&#x130;" horiz-adv-x="429" 
d="M201 754v-754h-147v754h147zM217 1017q33 0 56.5 -23.5t23.5 -56.5t-23.5 -56.5t-56.5 -23.5t-56.5 23.5t-23.5 56.5t23.5 56.5t56.5 23.5z" />
    <glyph glyph-name="dotlessi" unicode="&#x131;" horiz-adv-x="253" 
d="M197 491v-491h-140v491h140z" />
    <glyph glyph-name="Lslash" unicode="&#x141;" horiz-adv-x="437" 
d="M234 754v-230l105 83v-139l-105 -79v-261h211v-128h-358v305l-73 -59v137l73 54v317h147z" />
    <glyph glyph-name="lslash" unicode="&#x142;" horiz-adv-x="283" 
d="M213 848v-266l74 61v-130l-74 -59v-454h-140v380l-74 -60v130l74 56v342h140z" />
    <glyph glyph-name="OE" unicode="&#x152;" horiz-adv-x="1039" 
d="M757 626v-167h227v-128h-227v-203h238v-128h-384v85q-91 -105 -231 -105q-155 0 -261 122q-101 116 -101 273q0 159 100 276q105 123 262 123q146 0 229 -105h2v85h384v-128h-238zM377 629q-98 0 -161 -79q-58 -74 -58 -175q0 -100 59 -172q62 -78 160 -78t161 78
q60 72 60 172t-60 174q-64 80 -161 80z" />
    <glyph glyph-name="oe" unicode="&#x153;" horiz-adv-x="873" 
d="M535 310h187q-6 40 -29 68q-26 31 -64 31q-80 0 -94 -99zM272 383q-53 0 -86 -44q-30 -39 -30 -94q0 -53 31 -93q33 -44 85 -44t85 44q31 40 31 93q0 55 -30 94q-33 44 -86 44zM859 223h-323q0 -54 21 -89q26 -43 76 -43q61 0 94 67l129 -21q-25 -73 -85 -113t-138 -40
q-124 0 -182 85q-63 -85 -179 -85t-187 72t-71 189q0 116 71 189t187 73q107 0 179 -82q59 82 175 82t177 -78q56 -71 56 -189v-17z" />
    <glyph glyph-name="Scedilla" unicode="&#x15e;" horiz-adv-x="656" 
d="M478 690l-69 -102q-46 62 -113 62q-38 0 -65 -24t-27 -61q0 -49 78 -85q120 -55 143 -73q78 -61 78 -169q0 -116 -65 -186q-68 -72 -183 -72q-144 0 -232 147l95 93q16 -47 51 -77q38 -33 85 -33q45 0 72 33q25 30 25 76q0 51 -43 82q-18 13 -88 41q-82 33 -121 75
q-47 51 -47 131q0 96 62 161t158 65q53 0 111 -23q62 -24 95 -61zM232 -20l92 -47l-116 -139l-74 38z" />
    <glyph glyph-name="scedilla" unicode="&#x15f;" horiz-adv-x="383" 
d="M362 456l-60 -81q-36 34 -74 34q-18 0 -32 -12t-14 -30q0 -22 41 -43q15 -6 60 -25q101 -43 101 -141q0 -79 -57 -128q-53 -46 -134 -46q-105 0 -173 82l64 83q51 -57 104 -57q24 0 40 14.5t16 38.5q0 33 -51 55q-82 36 -94 44q-51 36 -51 104q0 69 43.5 114t112.5 45
q100 0 158 -51zM135 -20l92 -47l-116 -139l-74 38z" />
    <glyph glyph-name="Scaron" unicode="&#x160;" horiz-adv-x="526" 
d="M478 690l-69 -102q-46 62 -113 62q-38 0 -65 -24t-27 -61q0 -49 78 -85q120 -55 143 -73q78 -61 78 -169q0 -116 -65 -186q-68 -72 -183 -72q-144 0 -232 147l95 93q16 -47 51 -77q38 -33 85 -33q45 0 72 33q25 30 25 76q0 51 -43 82q-18 13 -88 41q-82 33 -121 75
q-47 51 -47 131q0 96 62 161t158 65q53 0 111 -23q62 -24 95 -61zM84 972l60 65l118 -104l119 104l60 -65l-179 -155z" />
    <glyph glyph-name="scaron" unicode="&#x161;" horiz-adv-x="410" 
d="M362 456l-60 -81q-36 34 -74 34q-18 0 -32 -12t-14 -30q0 -22 41 -43q15 -6 60 -25q101 -43 101 -141q0 -79 -57 -128q-53 -46 -134 -46q-105 0 -173 82l64 83q51 -57 104 -57q24 0 40 14.5t16 38.5q0 33 -51 55q-82 36 -94 44q-51 36 -51 104q0 69 43.5 114t112.5 45
q100 0 158 -51zM26 709l60 65l118 -104l119 104l60 -65l-179 -155z" />
    <glyph glyph-name="ch903" unicode="&#x168;" horiz-adv-x="660" 
d="M50 303v451h147v-422q0 -97 20 -147q31 -77 113 -77t113 77q20 50 20 147v422h147v-451q0 -149 -64 -231q-71 -92 -216 -92t-216 92q-64 82 -64 231zM512 908q-54 -44 -71 -56q-51 -36 -78 -35q-13 1 -41.5 18t-43.5 16q-17 1 -49 -13.5t-47 -27.5q-5 3 -24 4
q-15 1 -15 4q1 2 5 6l71 62q38 33 68 32q26 -1 49 -18q27 -16 44 -15q17 -1 51 14q30 13 48 26q5 -5 22 -6.5t17 -4.5q-1 -2 -6 -6z" />
    <glyph glyph-name="ch904" unicode="&#x169;" horiz-adv-x="535" 
d="M47 491h140v-266q0 -123 80 -123t80 123v266h140v-289q0 -218 -220 -218t-220 218v289zM442 658l-72 -57q-39 -31 -70 -30q-16 0 -40 17q-18 16 -40 15q-17 1 -47.5 -12.5t-44.5 -26.5q-16 7 -29 6q-8 -1 -8 2q1 2 5 6q31 27 62 55q45 35 70 34q12 -1 44 -16.5t44 -14.5
q17 -1 49 13q28 12 45 25q19 -4 37 -10q0 -3 -5 -6z" />
    <glyph glyph-name="Ydieresis" unicode="&#x178;" horiz-adv-x="587" 
d="M218 346l-234 408h171l132 -262l144 262h172l-238 -408v-346h-147v346zM189 1025q33 0 56.5 -23.5t23.5 -56.5t-23.5 -56.5t-56.5 -23.5t-56.5 23.5t-23.5 56.5t23.5 56.5t56.5 23.5zM400 1025q33 0 56.5 -23.5t23.5 -56.5t-23.5 -56.5t-56.5 -23.5t-56.5 23.5
t-23.5 56.5t23.5 56.5t56.5 23.5z" />
    <glyph glyph-name="Zcaron" unicode="&#x17d;" horiz-adv-x="575" 
d="M239 128h313v-128h-547l332 626h-281v128h514zM109 972l60 65l118 -104l119 104l60 -65l-179 -155z" />
    <glyph glyph-name="zcaron" unicode="&#x17e;" horiz-adv-x="481" 
d="M232 118h233v-118h-466l251 373h-212v118h443zM62 709l60 65l118 -104l119 104l60 -65l-179 -155z" />
    <glyph glyph-name="florin" unicode="&#x192;" 
d="M381 504h107l-10 -72h-108l-47 -291q-26 -158 -70 -223q-64 -94 -201 -84l-56 4l20 126l33 -2q68 -4 98 49q19 35 38 151l43 270h-60l10 72h62l19 115q35 212 203 212q50 0 88 -21l-20 -121q-29 17 -59 17q-38 0 -57 -43q-10 -22 -19 -76z" />
    <glyph glyph-name="glyph277" unicode="&#x1a0;" horiz-adv-x="782" 
d="M391 629q-96 0 -160 -76q-61 -71 -61 -169q0 -95 62 -174q67 -85 159 -85t159 85q62 79 62 174q0 98 -61 169q-64 76 -160 76zM615 697q72 -56 110.5 -140.5t38.5 -178.5q0 -168 -101 -281q-105 -117 -272 -117t-272 117q-101 113 -101 281q0 166 102 279
q106 117 271 117q84 0 155 -34l64 4h25q9 9 15 14q2 5 2 10q0 15 -19 28q-22 15 -23 20q-4 15 22 19q23 4 37 -1q46 -16 46 -56q0 -27 -25 -49q-21 -19 -50 -26z" />
    <glyph glyph-name="glyph278" unicode="&#x1a1;" horiz-adv-x="548" 
d="M274 383q-53 0 -86 -44q-30 -39 -30 -94q0 -53 31 -93q33 -44 85 -44t85 44q31 40 31 93q0 55 -30 94q-33 44 -86 44zM452 441q80 -72 80 -196q0 -117 -70.5 -189t-187.5 -72t-187.5 72t-70.5 189t71 189.5t187 72.5q65 0 122 -27l47 2q10 6 16 8q6 8 6 15q0 9 -9 16
q-12 12 -10 22q1 10 14 10q22 0 35 -13q22 -17 22 -47q0 -24 -19.5 -37.5t-45.5 -14.5z" />
    <glyph glyph-name="glyph279" unicode="&#x1af;" horiz-adv-x="660" 
d="M622 768q0 -5 -2 -10q-6 -5 -15 -14l-25 5l-117 5v-422q0 -97 -20 -147q-31 -77 -113 -77t-113 77q-20 50 -20 147v422h-147v-451q0 -149 64 -231q71 -92 216 -92t216 92q64 82 64 231v400q75 21 75 75q0 40 -46 56q-14 5 -37 1q-26 -4 -22 -19q4 -14 23 -21t19 -27z" />
    <glyph glyph-name="glyph280" unicode="&#x1b0;" horiz-adv-x="535" 
d="M487 441v-239q0 -218 -220 -218t-220 218v289h140v-266q0 -123 80 -123t80 123v266l143 -10q10 5 16 7q6 8 6 16q0 9 -10 17q-12 12 -10 22q1 10 14 10q22 0 35 -13q22 -17 22 -47q0 -27 -26 -41q-21 -12 -50 -11z" />
    <glyph glyph-name="circumflex" unicode="&#x2c6;" horiz-adv-x="400" 
d="M30 620l170 154l170 -154l-60 -66l-110 104l-110 -104z" />
    <glyph glyph-name="caron" unicode="&#x2c7;" horiz-adv-x="400" 
d="M21 709l60 65l118 -104l119 104l60 -65l-179 -155z" />
    <glyph glyph-name="breve" unicode="&#x2d8;" horiz-adv-x="400" 
d="M27 754h98q16 -71 75 -71t75 71h98q-7 -71 -54.5 -113.5t-118.5 -42.5t-118.5 42.5t-54.5 113.5z" />
    <glyph glyph-name="dotaccent" unicode="&#x2d9;" horiz-adv-x="380" 
d="M190 762q33 0 56.5 -23.5t23.5 -56.5t-23.5 -56.5t-56.5 -23.5t-56.5 23.5t-23.5 56.5t23.5 56.5t56.5 23.5z" />
    <glyph glyph-name="ring" unicode="&#x2da;" horiz-adv-x="380" 
d="M190 774q41 0 70.5 -29.5t29.5 -70.5q0 -42 -29 -71.5t-71 -29.5t-71 29.5t-29 71.5q0 41 29.5 70.5t70.5 29.5zM190 715q-17 0 -29 -12t-12 -29t12 -29.5t29 -12.5t29 12.5t12 29.5t-12 29t-29 12z" />
    <glyph glyph-name="ogonek" unicode="&#x2db;" horiz-adv-x="380" 
d="M173 -20h70v-2q-54 -35 -54 -80q0 -19 12.5 -32.5t31.5 -13.5q24 0 48 16l-14 -75q-26 -18 -69 -18q-40 0 -69.5 23.5t-29.5 62.5q0 70 74 119z" />
    <glyph glyph-name="tilde" unicode="&#x2dc;" horiz-adv-x="400" 
d="M92 604v0h-82q4 51 31 91q31 48 78 48q24 0 73.5 -21.5t68.5 -21.5q27 0 47 42h83q-25 -141 -121 -141q-21 0 -68.5 22t-66.5 22q-31 0 -43 -41z" />
    <glyph glyph-name="hungarumlaut" unicode="&#x2dd;" horiz-adv-x="420" 
d="M125 774l102 -62l-151 -150l-71 44zM314 774l102 -62l-151 -150l-71 44z" />
    <glyph glyph-name="glyph281" unicode="&#x1ea0;" horiz-adv-x="676" 
d="M470 159h-262l-62 -159h-155l294 774h114l286 -774h-157zM429 279l-94 274h-2l-83 -274h179zM342 -32q28 0 47.5 -19t19.5 -47t-19.5 -48t-47.5 -20t-47.5 20t-19.5 48t19.5 47t47.5 19z" />
    <glyph glyph-name="glyph282" unicode="&#x1ea1;" horiz-adv-x="565" 
d="M514 491v-491h-138v45h-2q-47 -61 -133 -61q-105 0 -168 82q-58 74 -58 182q0 104 59 178q64 81 165 81q84 0 137 -62v46h138zM273 108q52 0 86 44q31 40 31 94t-32 95.5t-85 41.5q-52 0 -85 -44q-31 -40 -31 -93q0 -54 31 -94q33 -44 85 -44zM268 -51q26 0 45 -18.5
t19 -44.5t-19 -45.5t-45 -19.5t-45 19.5t-19 45.5t19 44.5t45 18.5z" />
    <glyph glyph-name="glyph283" unicode="&#x1ea2;" horiz-adv-x="676" 
d="M470 159h-262l-62 -159h-155l294 774h114l286 -774h-157zM429 279l-94 274h-2l-83 -274h179zM268 955q-3 35 25 67t63 32q36 0 60.5 -24.5t24.5 -60.5q0 -28 -20 -52.5t-48 -31.5l-3 -41l-29 -14l-27 18l28 56q5 0 -15 20q22 0 42 12.5t20 33.5q0 12 -12.5 20.5
t-25.5 8.5q-12 0 -22.5 -11.5t-10.5 -23.5z" />
    <glyph glyph-name="glyph284" unicode="&#x1ea3;" horiz-adv-x="565" 
d="M514 491v-491h-138v45h-2q-47 -61 -133 -61q-105 0 -168 82q-58 74 -58 182q0 104 59 178q64 81 165 81q84 0 137 -62v46h138zM273 108q52 0 86 44q31 40 31 94t-32 95.5t-85 41.5q-52 0 -85 -44q-31 -40 -31 -93q0 -54 31 -94q33 -44 85 -44zM195 703q-3 35 25 67t63 32
q36 0 60.5 -24.5t24.5 -60.5q0 -28 -20 -52.5t-48 -31.5l-3 -41l-29 -14l-27 18l28 56q5 0 -15 20q22 0 42 12.5t20 33.5q0 12 -12.5 20.5t-25.5 8.5q-12 0 -22.5 -11.5t-10.5 -23.5z" />
    <glyph glyph-name="glyph285" unicode="&#x1ea4;" horiz-adv-x="676" 
d="M470 159h-262l-62 -159h-155l294 774h114l286 -774h-157zM429 279l-94 274h-2l-83 -274h179zM188 837l153 109l154 -109l-51 -37l-103 59l-103 -59zM647 996q-4 -13 -19 -24t-29 -11l-113 -91v60l82 97q12 14 30 14q17 0 26 -13z" />
    <glyph glyph-name="glyph286" unicode="&#x1ea5;" horiz-adv-x="565" 
d="M514 491v-491h-138v45h-2q-47 -61 -133 -61q-105 0 -168 82q-58 74 -58 182q0 104 59 178q64 81 165 81q84 0 137 -62v46h138zM273 108q52 0 86 44q31 40 31 94t-32 95.5t-85 41.5q-52 0 -85 -44q-31 -40 -31 -93q0 -54 31 -94q33 -44 85 -44zM123 575l145 104l146 -104
l-48 -35l-98 56l-98 -56zM539 746q-4 -12 -18.5 -22.5t-27.5 -10.5l-107 -87v57l78 93q11 13 28 13q15 0 25 -13z" />
    <glyph glyph-name="glyph287" unicode="&#x1ea6;" horiz-adv-x="676" 
d="M470 159h-262l-62 -159h-155l294 774h114l286 -774h-157zM429 279l-94 274h-2l-83 -274h179zM188 837l153 109l154 -109l-51 -37l-103 59l-103 -59zM198 869l-113 91q-14 0 -29 11t-19 24l23 32q9 13 26 13q19 0 30 -14v0l1 -1l81 -96v-60z" />
    <glyph glyph-name="glyph288" unicode="&#x1ea7;" horiz-adv-x="565" 
d="M514 491v-491h-138v45h-2q-47 -61 -133 -61q-105 0 -168 82q-58 74 -58 182q0 104 59 178q64 81 165 81q84 0 137 -62v46h138zM273 108q52 0 86 44q31 40 31 94t-32 95.5t-85 41.5q-52 0 -85 -44q-31 -40 -31 -93q0 -54 31 -94q33 -44 85 -44zM123 576l145 104l146 -104
l-48 -35l-98 56l-98 -56zM152 626l-107 87q-13 0 -27.5 10.5t-18.5 22.5l22 30q10 13 25 13t28 -13l1 -1l77 -92v-57z" />
    <glyph glyph-name="glyph289" unicode="&#x1ea8;" horiz-adv-x="676" 
d="M470 159h-262l-62 -159h-155l294 774h114l286 -774h-157zM429 279l-94 274h-2l-83 -274h179zM188 837l153 109l154 -109l-51 -37l-103 59l-103 -59zM450 984q-3 35 25 67t63 32q36 0 60.5 -24.5t24.5 -60.5q0 -28 -20 -52.5t-48 -31.5l-3 -41l-29 -14l-27 18l28 56
q5 0 -15 20q22 0 42 12.5t20 33.5q0 12 -12.5 20.5t-25.5 8.5q-12 0 -22.5 -11.5t-10.5 -23.5z" />
    <glyph glyph-name="glyph290" unicode="&#x1ea9;" horiz-adv-x="565" 
d="M514 491v-491h-138v45h-2q-47 -61 -133 -61q-105 0 -168 82q-58 74 -58 182q0 104 59 178q64 81 165 81q84 0 137 -62v46h138zM273 108q52 0 86 44q31 40 31 94t-32 95.5t-85 41.5q-52 0 -85 -44q-31 -40 -31 -93q0 -54 31 -94q33 -44 85 -44zM123 576l145 104l146 -104
l-48 -35l-98 56l-98 -56zM357 743q-3 35 25 67t63 32q36 0 60.5 -24.5t24.5 -60.5q0 -28 -20 -52.5t-48 -31.5l-3 -41l-29 -14l-27 18l28 56q5 0 -15 20q22 0 42 12.5t20 33.5q0 12 -12.5 20.5t-25.5 8.5q-12 0 -22.5 -11.5t-10.5 -23.5z" />
    <glyph glyph-name="glyph291" unicode="&#x1eaa;" horiz-adv-x="676" 
d="M470 159h-262l-62 -159h-155l294 774h114l286 -774h-157zM429 279l-94 274h-2l-83 -274h179zM188 837l153 109l154 -109l-51 -37l-103 59l-103 -59zM524 1065q-54 -44 -71 -56q-51 -36 -78 -35q-13 1 -41.5 18t-43.5 16q-17 1 -49 -13.5t-47 -27.5q-5 3 -24 4
q-15 1 -15 4q1 2 5 6l71 62q38 33 68 32q26 -1 49 -18q27 -16 44 -15q17 -1 51 14q30 13 48 26q5 -5 22 -6.5t17 -4.5q-1 -2 -6 -6z" />
    <glyph glyph-name="glyph292" unicode="&#x1eab;" horiz-adv-x="565" 
d="M514 491v-491h-138v45h-2q-47 -61 -133 -61q-105 0 -168 82q-58 74 -58 182q0 104 59 178q64 81 165 81q84 0 137 -62v46h138zM273 108q52 0 86 44q31 40 31 94t-32 95.5t-85 41.5q-52 0 -85 -44q-31 -40 -31 -93q0 -54 31 -94q33 -44 85 -44zM122 575l145 104l146 -104
l-48 -35l-98 56l-98 -56zM441 792l-72 -57q-39 -31 -70 -30q-16 0 -40 17q-18 16 -40 15q-17 1 -47.5 -12.5t-44.5 -26.5q-16 7 -29 6q-8 -1 -8 2q1 2 5 6q31 27 62 55q45 35 70 34q12 -1 44 -16.5t44 -14.5q17 -1 49 13q28 12 45 25q19 -4 37 -10q0 -3 -5 -6z" />
    <glyph glyph-name="glyph293" unicode="&#x1eac;" horiz-adv-x="676" 
d="M470 159h-262l-62 -159h-155l294 774h114l286 -774h-157zM429 279l-94 274h-2l-83 -274h179zM188 837l153 109l154 -109l-51 -37l-103 59l-103 -59zM342 -32q28 0 47.5 -19t19.5 -47t-19.5 -48t-47.5 -20t-47.5 20t-19.5 48t19.5 47t47.5 19z" />
    <glyph glyph-name="glyph294" unicode="&#x1ead;" horiz-adv-x="565" 
d="M514 491v-491h-138v45h-2q-47 -61 -133 -61q-105 0 -168 82q-58 74 -58 182q0 104 59 178q64 81 165 81q84 0 137 -62v46h138zM273 108q52 0 86 44q31 40 31 94t-32 95.5t-85 41.5q-52 0 -85 -44q-31 -40 -31 -93q0 -54 31 -94q33 -44 85 -44zM123 576l145 104l146 -104
l-48 -35l-98 56l-98 -56zM268 -51q26 0 45 -18.5t19 -44.5t-19 -45.5t-45 -19.5t-45 19.5t-19 45.5t19 44.5t45 18.5z" />
    <glyph glyph-name="glyph295" unicode="&#x1eae;" horiz-adv-x="676" 
d="M470 159h-262l-62 -159h-155l294 774h114l286 -774h-157zM429 279l-94 274h-2l-83 -274h179zM189 921l68 -5q12 -52 84 -52q29 0 52 12q28 14 34 40l68 5q-11 -105 -156 -105q-139 0 -150 105zM502 1047q-4 -13 -19 -24t-29 -11l-113 -91v60l82 97q12 14 30 14
q17 0 26 -13z" />
    <glyph glyph-name="glyph296" unicode="&#x1eaf;" horiz-adv-x="565" 
d="M514 491v-491h-138v45h-2q-47 -61 -133 -61q-105 0 -168 82q-58 74 -58 182q0 104 59 178q64 81 165 81q84 0 137 -62v46h138zM273 108q52 0 86 44q31 40 31 94t-32 95.5t-85 41.5q-52 0 -85 -44q-31 -40 -31 -93q0 -54 31 -94q33 -44 85 -44zM122 663l65 -4
q5 -24 31 -38q22 -12 49 -12t51.5 13t29.5 37l65 4q-11 -99 -148 -99q-132 0 -143 99zM420 783q-4 -12 -18.5 -22.5t-27.5 -10.5l-107 -87v57l78 92q9 14 28 14q15 0 25 -13z" />
    <glyph glyph-name="glyph297" unicode="&#x1eb0;" horiz-adv-x="676" 
d="M470 159h-262l-62 -159h-155l294 774h114l286 -774h-157zM429 279l-94 274h-2l-83 -274h179zM189 921l68 -5q12 -52 84 -52q29 0 52 12q28 14 34 40l68 5q-11 -105 -156 -105q-139 0 -150 105zM341 922l-113 91q-14 0 -29 11t-19 24l23 32q9 13 26 13q19 0 30 -14v0l1 -1
l81 -96v-60z" />
    <glyph glyph-name="glyph298" unicode="&#x1eb1;" horiz-adv-x="565" 
d="M514 491v-491h-138v45h-2q-47 -61 -133 -61q-105 0 -168 82q-58 74 -58 182q0 104 59 178q64 81 165 81q84 0 137 -62v46h138zM273 108q52 0 86 44q31 40 31 94t-32 95.5t-85 41.5q-52 0 -85 -44q-31 -40 -31 -93q0 -54 31 -94q33 -44 85 -44zM124 663l65 -4
q10 -50 79 -50q27 0 51.5 13t30.5 37l65 4q-11 -99 -149 -99q-131 0 -142 99zM268 664l-107 87q-13 0 -27.5 10.5t-18.5 22.5l22 30q10 13 25 13q19 0 28 -14l1 -1l77 -91v-57z" />
    <glyph glyph-name="glyph299" unicode="&#x1eb2;" horiz-adv-x="676" 
d="M470 159h-262l-62 -159h-155l294 774h114l286 -774h-157zM429 279l-94 274h-2l-83 -274h179zM189 921l68 -5q12 -52 84 -52q29 0 52 12q28 14 34 40l68 5q-11 -105 -156 -105q-139 0 -150 105zM268 1046q-3 35 25 67t63 32q36 0 60.5 -24.5t24.5 -60.5q0 -28 -20 -52.5
t-48 -31.5l-3 -41l-29 -14l-27 18l28 56q5 0 -15 20q22 0 42 12.5t20 33.5q0 12 -12.5 20.5t-25.5 8.5q-12 0 -22.5 -11.5t-10.5 -23.5z" />
    <glyph glyph-name="glyph300" unicode="&#x1eb3;" horiz-adv-x="565" 
d="M514 491v-491h-138v45h-2q-47 -61 -133 -61q-105 0 -168 82q-58 74 -58 182q0 104 59 178q64 81 165 81q84 0 137 -62v46h138zM273 108q52 0 86 44q31 40 31 94t-32 95.5t-85 41.5q-52 0 -85 -44q-31 -40 -31 -93q0 -54 31 -94q33 -44 85 -44zM124 663l64 -5
q13 -49 80 -49q27 0 51.5 12.5t30.5 36.5l65 5q-11 -100 -149 -100q-133 0 -142 100zM199 782q-3 33 23.5 63.5t59.5 30.5q34 0 57.5 -23.5t23.5 -57.5q0 -27 -19 -50t-45 -30l-3 -39l-28 -13l-25 17l26 53q5 0 -14 19q21 0 40 12t19 32q0 27 -36 27q-12 0 -22 -10.5
t-10 -22.5z" />
    <glyph glyph-name="glyph301" unicode="&#x1eb4;" horiz-adv-x="676" 
d="M470 159h-262l-62 -159h-155l294 774h114l286 -774h-157zM429 279l-94 274h-2l-83 -274h179zM189 921l68 -5q12 -52 84 -52q29 0 52 12q28 14 34 40l68 5q-11 -105 -156 -105q-139 0 -150 105zM686 1045q-54 -44 -71 -56q-51 -36 -78 -35q-13 1 -41.5 18t-43.5 16
q-17 1 -49 -13.5t-47 -27.5q-5 3 -24 4q-15 1 -15 4q1 2 5 6l71 62q38 33 68 32q26 -1 49 -18q27 -16 44 -15q17 -1 51 14q30 13 48 26q5 -5 22 -6.5t17 -4.5q-1 -2 -6 -6z" />
    <glyph glyph-name="glyph302" unicode="&#x1eb5;" horiz-adv-x="565" 
d="M514 491v-491h-138v45h-2q-47 -61 -133 -61q-105 0 -168 82q-58 74 -58 182q0 104 59 178q64 81 165 81q84 0 137 -62v46h138zM273 108q52 0 86 44q31 40 31 94t-32 95.5t-85 41.5q-52 0 -85 -44q-31 -40 -31 -93q0 -54 31 -94q33 -44 85 -44zM124 663l64 -5
q13 -49 80 -49q27 0 51.5 12.5t30.5 36.5l64 5q-9 -100 -148 -100q-133 0 -142 100zM596 781l-72 -57q-39 -31 -70 -30q-15 0 -40 17q-19 17 -41 16q-15 1 -46 -13t-45 -26q-1 1 -18.5 3t-17.5 5q1 3 4 5q101 90 132 89q25 -1 47 -17q26 -15 41 -14q17 -1 49 13q28 12 45 25
q14 -11 28 -11q4 0 9 1q0 -2 -5 -6z" />
    <glyph glyph-name="glyph303" unicode="&#x1eb6;" horiz-adv-x="676" 
d="M470 159h-262l-62 -159h-155l294 774h114l286 -774h-157zM429 279l-94 274h-2l-83 -274h179zM188 837l153 109l154 -109l-51 -37l-103 59l-103 -59zM342 -32q28 0 47.5 -19t19.5 -47t-19.5 -48t-47.5 -20t-47.5 20t-19.5 48t19.5 47t47.5 19z" />
    <glyph glyph-name="glyph304" unicode="&#x1eb7;" horiz-adv-x="565" 
d="M514 491v-491h-138v45h-2q-47 -61 -133 -61q-105 0 -168 82q-58 74 -58 182q0 104 59 178q64 81 165 81q84 0 137 -62v46h138zM273 108q52 0 86 44q31 40 31 94t-32 95.5t-85 41.5q-52 0 -85 -44q-31 -40 -31 -93q0 -54 31 -94q33 -44 85 -44zM268 -51q26 0 45 -18.5
t19 -44.5t-19 -45.5t-45 -19.5t-45 19.5t-19 45.5t19 44.5t45 18.5zM122 663l65 -4q5 -24 31 -38q22 -12 49 -12t51.5 13t29.5 37l65 4q-11 -99 -148 -99q-132 0 -143 99z" />
    <glyph glyph-name="glyph305" unicode="&#x1eb8;" horiz-adv-x="488" 
d="M444 626h-243v-166h234v-128h-234v-204h243v-128h-390v754h390v-128zM249 -52q28 0 47.5 -19t19.5 -47t-19.5 -48t-47.5 -20t-47.5 20t-19.5 48t19.5 47t47.5 19z" />
    <glyph glyph-name="glyph306" unicode="&#x1eb9;" horiz-adv-x="501" 
d="M486 223h-323q0 -54 21 -89q26 -43 76 -43q61 0 94 67l129 -21q-25 -73 -85 -113t-138 -40q-112 0 -178.5 72t-66.5 185q0 118 59 189q63 77 179 77t177 -78q56 -70 56 -189v-17zM167 310h187q-6 41 -29 68q-26 31 -64 31q-80 0 -94 -99zM253 -71q26 0 45 -18.5t19 -44.5
t-19 -45.5t-45 -19.5t-45 19.5t-19 45.5t19 44.5t45 18.5z" />
    <glyph glyph-name="glyph307" unicode="&#x1eba;" horiz-adv-x="488" 
d="M444 626h-243v-166h234v-128h-234v-204h243v-128h-390v754h390v-128zM175 955q-3 35 25 67t63 32q36 0 60.5 -24.5t24.5 -60.5q0 -28 -20 -52.5t-48 -31.5l-3 -41l-29 -14l-27 18l28 56q5 0 -15 20q22 0 42 12.5t20 33.5q0 12 -12.5 20.5t-25.5 8.5q-12 0 -22.5 -11.5
t-10.5 -23.5z" />
    <glyph glyph-name="glyph308" unicode="&#x1ebb;" horiz-adv-x="501" 
d="M486 223h-323q0 -54 21 -89q26 -43 76 -43q61 0 94 67l129 -21q-25 -73 -85 -113t-138 -40q-112 0 -178.5 72t-66.5 185q0 118 59 189q63 77 179 77t177 -78q56 -70 56 -189v-17zM167 310h187q-6 41 -29 68q-26 31 -64 31q-80 0 -94 -99zM180 703q-3 35 25 67t63 32
q36 0 60.5 -24.5t24.5 -60.5q0 -28 -20 -52.5t-48 -31.5l-3 -41l-29 -14l-27 18l28 56q5 0 -15 20q22 0 42 12.5t20 33.5q0 12 -12.5 20.5t-25.5 8.5q-12 0 -22.5 -11.5t-10.5 -23.5z" />
    <glyph glyph-name="glyph309" unicode="&#x1ebc;" horiz-adv-x="488" 
d="M444 626h-243v-166h234v-128h-234v-204h243v-128h-390v754h390v-128zM431 938q-54 -44 -71 -56q-51 -36 -78 -35q-13 1 -41.5 18t-43.5 16q-17 1 -49 -13.5t-47 -27.5q-5 3 -24 4q-15 1 -15 4q1 2 5 6l71 62q38 33 68 32q26 -1 49 -18q27 -16 44 -15q17 -1 51 14
q30 13 48 26q5 -5 22 -6.5t17 -4.5q-1 -2 -6 -6z" />
    <glyph glyph-name="glyph310" unicode="&#x1ebd;" horiz-adv-x="501" 
d="M486 223h-323q0 -54 21 -89q26 -43 76 -43q61 0 94 67l129 -21q-25 -73 -85 -113t-138 -40q-112 0 -178.5 72t-66.5 185q0 118 59 189q63 77 179 77t177 -78q56 -70 56 -189v-17zM167 310h187q-6 41 -29 68q-26 31 -64 31q-80 0 -94 -99zM427 683l-72 -57
q-39 -31 -70 -30q-16 0 -40 17q-18 16 -40 15q-17 1 -47.5 -12.5t-44.5 -26.5q-16 7 -29 6q-8 -1 -8 2q1 2 5 6q31 27 62 55q45 35 70 34q12 -1 44 -16.5t44 -14.5q17 -1 49 13q28 12 45 25q19 -4 37 -10q0 -3 -5 -6z" />
    <glyph glyph-name="glyph311" unicode="&#x1ebe;" horiz-adv-x="488" 
d="M444 626h-243v-166h234v-128h-234v-204h243v-128h-390v754h390v-128zM95 837l153 109l154 -109l-51 -37l-103 59l-103 -59zM554 996q-4 -13 -19 -24t-29 -11l-113 -91v60l82 97q12 14 30 14q17 0 26 -13z" />
    <glyph glyph-name="glyph312" unicode="&#x1ebf;" horiz-adv-x="501" 
d="M486 223h-323q0 -54 21 -89q26 -43 76 -43q61 0 94 67l129 -21q-25 -73 -85 -113t-138 -40q-112 0 -178.5 72t-66.5 185q0 118 59 189q63 77 179 77t177 -78q56 -70 56 -189v-17zM167 310h187q-6 41 -29 68q-26 31 -64 31q-80 0 -94 -99zM108 575l145 104l146 -104
l-48 -35l-98 56l-98 -56zM524 746q-4 -12 -18.5 -22.5t-27.5 -10.5l-107 -87v57l78 93q11 13 28 13q15 0 25 -13z" />
    <glyph glyph-name="glyph313" unicode="&#x1ec0;" horiz-adv-x="488" 
d="M444 626h-243v-166h234v-128h-234v-204h243v-128h-390v754h390v-128zM95 837l153 109l154 -109l-51 -37l-103 59l-103 -59zM105 869l-113 91q-14 0 -29 11t-19 24l23 32q9 13 26 13q19 0 30 -14v0l1 -1l81 -96v-60z" />
    <glyph glyph-name="glyph314" unicode="&#x1ec1;" horiz-adv-x="501" 
d="M486 223h-323q0 -54 21 -89q26 -43 76 -43q61 0 94 67l129 -21q-25 -73 -85 -113t-138 -40q-112 0 -178.5 72t-66.5 185q0 118 59 189q63 77 179 77t177 -78q56 -70 56 -189v-17zM167 310h187q-6 41 -29 68q-26 31 -64 31q-80 0 -94 -99zM108 575l145 104l146 -104
l-48 -35l-98 56l-98 -56zM137 625l-107 87q-13 0 -27.5 10.5t-18.5 22.5l22 30q10 13 25 13t28 -13l1 -1l77 -92v-57z" />
    <glyph glyph-name="glyph315" unicode="&#x1ec2;" horiz-adv-x="488" 
d="M444 626h-243v-166h234v-128h-234v-204h243v-128h-390v754h390v-128zM95 837l153 109l154 -109l-51 -37l-103 59l-103 -59zM357 984q-3 35 25 67t63 32q36 0 60.5 -24.5t24.5 -60.5q0 -28 -20 -52.5t-48 -31.5l-3 -41l-29 -14l-27 18l28 56q5 0 -15 20q22 0 42 12.5
t20 33.5q0 12 -12.5 20.5t-25.5 8.5q-12 0 -22.5 -11.5t-10.5 -23.5z" />
    <glyph glyph-name="glyph316" unicode="&#x1ec3;" horiz-adv-x="501" 
d="M486 223h-323q0 -54 21 -89q26 -43 76 -43q61 0 94 67l129 -21q-25 -73 -85 -113t-138 -40q-112 0 -178.5 72t-66.5 185q0 118 59 189q63 77 179 77t177 -78q56 -70 56 -189v-17zM167 310h187q-6 41 -29 68q-26 31 -64 31q-80 0 -94 -99zM108 576l145 104l146 -104
l-48 -35l-98 56l-98 -56zM342 743q-3 35 25 67t63 32q36 0 60.5 -24.5t24.5 -60.5q0 -28 -20 -52.5t-48 -31.5l-3 -41l-29 -14l-27 18l28 56q5 0 -15 20q22 0 42 12.5t20 33.5q0 12 -12.5 20.5t-25.5 8.5q-12 0 -22.5 -11.5t-10.5 -23.5z" />
    <glyph glyph-name="glyph317" unicode="&#x1ec4;" horiz-adv-x="488" 
d="M444 626h-243v-166h234v-128h-234v-204h243v-128h-390v754h390v-128zM94 837l153 109l154 -109l-51 -37l-103 59l-103 -59zM430 1065q-54 -44 -71 -56q-51 -36 -78 -35q-13 1 -41.5 18t-43.5 16q-17 1 -49 -13.5t-47 -27.5q-5 3 -24 4q-15 1 -15 4q1 2 5 6l71 62
q38 33 68 32q26 -1 49 -18q27 -16 44 -15q17 -1 51 14q30 13 48 26q5 -5 22 -6.5t17 -4.5q-1 -2 -6 -6z" />
    <glyph glyph-name="glyph318" unicode="&#x1ec5;" horiz-adv-x="501" 
d="M486 223h-323q0 -54 21 -89q26 -43 76 -43q61 0 94 67l129 -21q-25 -73 -85 -113t-138 -40q-112 0 -178.5 72t-66.5 185q0 118 59 189q63 77 179 77t177 -78q56 -70 56 -189v-17zM167 310h187q-6 41 -29 68q-26 31 -64 31q-80 0 -94 -99zM107 575l145 104l146 -104
l-48 -35l-98 56l-98 -56zM426 792l-72 -57q-39 -31 -70 -30q-16 0 -40 17q-18 16 -40 15q-17 1 -47.5 -12.5t-44.5 -26.5q-16 7 -29 6q-8 -1 -8 2q1 2 5 6q31 27 62 55q45 35 70 34q12 -1 44 -16.5t44 -14.5q17 -1 49 13q28 12 45 25q19 -4 37 -10q0 -3 -5 -6z" />
    <glyph glyph-name="glyph319" unicode="&#x1ec6;" horiz-adv-x="488" 
d="M444 626h-243v-166h234v-128h-234v-204h243v-128h-390v754h390v-128zM95 837l153 109l154 -109l-51 -37l-103 59l-103 -59zM249 -52q28 0 47.5 -19t19.5 -47t-19.5 -48t-47.5 -20t-47.5 20t-19.5 48t19.5 47t47.5 19z" />
    <glyph glyph-name="glyph320" unicode="&#x1ec7;" horiz-adv-x="501" 
d="M486 223h-323q0 -54 21 -89q26 -43 76 -43q61 0 94 67l129 -21q-25 -73 -85 -113t-138 -40q-112 0 -178.5 72t-66.5 185q0 118 59 189q63 77 179 77t177 -78q56 -70 56 -189v-17zM167 310h187q-6 41 -29 68q-26 31 -64 31q-80 0 -94 -99zM108 575l145 104l146 -104
l-48 -35l-98 56l-98 -56zM253 -71q26 0 45 -18.5t19 -44.5t-19 -45.5t-45 -19.5t-45 19.5t-19 45.5t19 44.5t45 18.5z" />
    <glyph glyph-name="glyph321" unicode="&#x1ec8;" horiz-adv-x="254" 
d="M201 754v-754h-147v754h147zM55 940q-3 35 25 67t63 32q36 0 60.5 -24.5t24.5 -60.5q0 -28 -20 -52.5t-48 -31.5l-3 -41l-29 -14l-27 18l28 56q5 0 -15 20q22 0 42 12.5t20 33.5q0 12 -12.5 20.5t-25.5 8.5q-12 0 -22.5 -11.5t-10.5 -23.5z" />
    <glyph glyph-name="glyph322" unicode="&#x1ec9;" horiz-adv-x="253" 
d="M197 491v-491h-140v491h140zM55 693q-3 35 25 67t63 32q36 0 60.5 -24.5t24.5 -60.5q0 -28 -20 -52.5t-48 -31.5l-3 -41l-29 -14l-27 18l28 56q5 0 -15 20q22 0 42 12.5t20 33.5q0 12 -12.5 20.5t-25.5 8.5q-12 0 -22.5 -11.5t-10.5 -23.5z" />
    <glyph glyph-name="glyph323" unicode="&#x1eca;" horiz-adv-x="254" 
d="M201 754v-754h-147v754h147zM128 -52q28 0 47.5 -19t19.5 -47t-19.5 -48t-47.5 -20t-47.5 20t-19.5 48t19.5 47t47.5 19z" />
    <glyph glyph-name="glyph324" unicode="&#x1ecb;" horiz-adv-x="253" 
d="M197 491v-491h-140v491h140zM128 706q26 0 45 -18.5t19 -44.5t-19 -45.5t-45 -19.5t-45 19.5t-19 45.5t19 44.5t45 18.5zM128 -52q26 0 45 -18.5t19 -44.5t-19 -45.5t-45 -19.5t-45 19.5t-19 45.5t19 44.5t45 18.5z" />
    <glyph glyph-name="glyph325" unicode="&#x1ecc;" horiz-adv-x="782" 
d="M391 -20q-167 0 -272 117q-101 113 -101 281q0 166 102 279q106 117 271 117t271 -117q102 -113 102 -279q0 -168 -101 -281q-105 -117 -272 -117zM391 629q-96 0 -160 -76q-61 -71 -61 -169q0 -95 62 -174q67 -85 159 -85t159 85q62 79 62 174q0 98 -61 169
q-64 76 -160 76zM391 -72q28 0 47.5 -19t19.5 -47t-19.5 -48t-47.5 -20t-47.5 20t-19.5 48t19.5 47t47.5 19z" />
    <glyph glyph-name="glyph326" unicode="&#x1ecd;" horiz-adv-x="548" 
d="M274 507q116 0 187 -72.5t71 -189.5t-70.5 -189t-187.5 -72t-187.5 72t-70.5 189t71 189.5t187 72.5zM274 383q-53 0 -86 -44q-30 -39 -30 -94q0 -53 31 -93q33 -44 85 -44t85 44q31 40 31 93q0 55 -30 94q-33 44 -86 44zM273 -71q26 0 45 -18.5t19 -44.5t-19 -45.5
t-45 -19.5t-45 19.5t-19 45.5t19 44.5t45 18.5z" />
    <glyph glyph-name="glyph327" unicode="&#x1ece;" horiz-adv-x="782" 
d="M391 -20q-167 0 -272 117q-101 113 -101 281q0 166 102 279q106 117 271 117t271 -117q102 -113 102 -279q0 -168 -101 -281q-105 -117 -272 -117zM391 629q-96 0 -160 -76q-61 -71 -61 -169q0 -95 62 -174q67 -85 159 -85t159 85q62 79 62 174q0 98 -61 169
q-64 76 -160 76zM318 955q-3 35 25 67t63 32q36 0 60.5 -24.5t24.5 -60.5q0 -28 -20 -52.5t-48 -31.5l-3 -41l-29 -14l-27 18l28 56q5 0 -15 20q22 0 42 12.5t20 33.5q0 12 -12.5 20.5t-25.5 8.5q-12 0 -22.5 -11.5t-10.5 -23.5z" />
    <glyph glyph-name="glyph328" unicode="&#x1ecf;" horiz-adv-x="548" 
d="M274 507q116 0 187 -72.5t71 -189.5t-70.5 -189t-187.5 -72t-187.5 72t-70.5 189t71 189.5t187 72.5zM274 383q-53 0 -86 -44q-30 -39 -30 -94q0 -53 31 -93q33 -44 85 -44t85 44q31 40 31 93q0 55 -30 94q-33 44 -86 44zM201 703q-3 35 25 67t63 32q36 0 60.5 -24.5
t24.5 -60.5q0 -28 -20 -52.5t-48 -31.5l-3 -41l-29 -14l-27 18l28 56q5 0 -15 20q22 0 42 12.5t20 33.5q0 12 -12.5 20.5t-25.5 8.5q-12 0 -22.5 -11.5t-10.5 -23.5z" />
    <glyph glyph-name="glyph329" unicode="&#x1ed0;" horiz-adv-x="782" 
d="M391 -20q-167 0 -272 117q-101 113 -101 281q0 166 102 279q106 117 271 117t271 -117q102 -113 102 -279q0 -168 -101 -281q-105 -117 -272 -117zM391 629q-96 0 -160 -76q-61 -71 -61 -169q0 -95 62 -174q67 -85 159 -85t159 85q62 79 62 174q0 98 -61 169
q-64 76 -160 76zM238 837l153 109l154 -109l-51 -37l-103 59l-103 -59zM697 996q-4 -13 -19 -24t-29 -11l-113 -91v60l82 97q12 14 30 14q17 0 26 -13z" />
    <glyph glyph-name="glyph330" unicode="&#x1ed1;" horiz-adv-x="548" 
d="M274 507q116 0 187 -72.5t71 -189.5t-70.5 -189t-187.5 -72t-187.5 72t-70.5 189t71 189.5t187 72.5zM274 383q-53 0 -86 -44q-30 -39 -30 -94q0 -53 31 -93q33 -44 85 -44t85 44q31 40 31 93q0 55 -30 94q-33 44 -86 44zM129 575l145 104l146 -104l-48 -35l-98 56
l-98 -56zM545 746q-4 -12 -18.5 -22.5t-27.5 -10.5l-107 -87v57l78 93q11 13 28 13q15 0 25 -13z" />
    <glyph glyph-name="glyph331" unicode="&#x1ed2;" horiz-adv-x="782" 
d="M391 -20q-167 0 -272 117q-101 113 -101 281q0 166 102 279q106 117 271 117t271 -117q102 -113 102 -279q0 -168 -101 -281q-105 -117 -272 -117zM391 629q-96 0 -160 -76q-61 -71 -61 -169q0 -95 62 -174q67 -85 159 -85t159 85q62 79 62 174q0 98 -61 169
q-64 76 -160 76zM238 837l153 109l154 -109l-51 -37l-103 59l-103 -59zM248 869l-113 91q-14 0 -29 11t-19 24l23 32q9 13 26 13q19 0 30 -14l1 -1l81 -96v-60z" />
    <glyph glyph-name="glyph332" unicode="&#x1ed3;" horiz-adv-x="548" 
d="M274 507q116 0 187 -72.5t71 -189.5t-70.5 -189t-187.5 -72t-187.5 72t-70.5 189t71 189.5t187 72.5zM274 383q-53 0 -86 -44q-30 -39 -30 -94q0 -53 31 -93q33 -44 85 -44t85 44q31 40 31 93q0 55 -30 94q-33 44 -86 44zM129 575l145 104l146 -104l-48 -35l-98 56
l-98 -56zM158 625l-107 87q-13 0 -27.5 10.5t-18.5 22.5l22 30q10 13 25 13t28 -13l1 -1l77 -92v-57z" />
    <glyph glyph-name="glyph333" unicode="&#x1ed4;" horiz-adv-x="782" 
d="M391 -20q-167 0 -272 117q-101 113 -101 281q0 166 102 279q106 117 271 117t271 -117q102 -113 102 -279q0 -168 -101 -281q-105 -117 -272 -117zM391 629q-96 0 -160 -76q-61 -71 -61 -169q0 -95 62 -174q67 -85 159 -85t159 85q62 79 62 174q0 98 -61 169
q-64 76 -160 76zM238 837l153 109l154 -109l-51 -37l-103 59l-103 -59zM500 984q-3 35 25 67t63 32q36 0 60.5 -24.5t24.5 -60.5q0 -28 -20 -52.5t-48 -31.5l-3 -41l-29 -14l-27 18l28 56q5 0 -15 20q22 0 42 12.5t20 33.5q0 12 -12.5 20.5t-25.5 8.5q-12 0 -22.5 -11.5
t-10.5 -23.5z" />
    <glyph glyph-name="glyph334" unicode="&#x1ed5;" horiz-adv-x="548" 
d="M274 507q116 0 187 -72.5t71 -189.5t-70.5 -189t-187.5 -72t-187.5 72t-70.5 189t71 189.5t187 72.5zM274 383q-53 0 -86 -44q-30 -39 -30 -94q0 -53 31 -93q33 -44 85 -44t85 44q31 40 31 93q0 55 -30 94q-33 44 -86 44zM129 576l145 104l146 -104l-48 -35l-98 56
l-98 -56zM363 743q-3 35 25 67t63 32q36 0 60.5 -24.5t24.5 -60.5q0 -28 -20 -52.5t-48 -31.5l-3 -41l-29 -14l-27 18l28 56q5 0 -15 20q22 0 42 12.5t20 33.5q0 12 -12.5 20.5t-25.5 8.5q-12 0 -22.5 -11.5t-10.5 -23.5z" />
    <glyph glyph-name="glyph335" unicode="&#x1ed6;" horiz-adv-x="782" 
d="M391 -20q-167 0 -272 117q-101 113 -101 281q0 166 102 279q106 117 271 117t271 -117q102 -113 102 -279q0 -168 -101 -281q-105 -117 -272 -117zM391 629q-96 0 -160 -76q-61 -71 -61 -169q0 -95 62 -174q67 -85 159 -85t159 85q62 79 62 174q0 98 -61 169
q-64 76 -160 76zM238 837l153 109l154 -109l-51 -37l-103 59l-103 -59zM574 1065q-54 -44 -71 -56q-51 -36 -78 -35q-13 1 -41.5 18t-43.5 16q-17 1 -49 -13.5t-47 -27.5q-5 3 -24 4q-15 1 -15 4q1 2 5 6l71 62q38 33 68 32q26 -1 49 -18q27 -16 44 -15q17 -1 51 14
q30 13 48 26q5 -5 22 -6.5t17 -4.5q-1 -2 -6 -6z" />
    <glyph glyph-name="glyph336" unicode="&#x1ed7;" horiz-adv-x="548" 
d="M274 507q116 0 187 -72.5t71 -189.5t-70.5 -189t-187.5 -72t-187.5 72t-70.5 189t71 189.5t187 72.5zM274 383q-53 0 -86 -44q-30 -39 -30 -94q0 -53 31 -93q33 -44 85 -44t85 44q31 40 31 93q0 55 -30 94q-33 44 -86 44zM128 575l145 104l146 -104l-48 -35l-98 56
l-98 -56zM447 792l-72 -57q-39 -31 -70 -30q-16 0 -40 17q-18 16 -40 15q-17 1 -47.5 -12.5t-44.5 -26.5q-16 7 -29 6q-8 -1 -8 2q1 2 5 6q31 27 62 55q45 35 70 34q12 -1 44 -16.5t44 -14.5q17 -1 49 13q28 12 45 25q19 -4 37 -10q0 -3 -5 -6z" />
    <glyph glyph-name="glyph337" unicode="&#x1ed8;" horiz-adv-x="782" 
d="M391 -20q-167 0 -272 117q-101 113 -101 281q0 166 102 279q106 117 271 117t271 -117q102 -113 102 -279q0 -168 -101 -281q-105 -117 -272 -117zM391 629q-96 0 -160 -76q-61 -71 -61 -169q0 -95 62 -174q67 -85 159 -85t159 85q62 79 62 174q0 98 -61 169
q-64 76 -160 76zM238 837l153 109l154 -109l-51 -37l-103 59l-103 -59zM391 -72q28 0 47.5 -19t19.5 -47t-19.5 -48t-47.5 -20t-47.5 20t-19.5 48t19.5 47t47.5 19z" />
    <glyph glyph-name="glyph338" unicode="&#x1ed9;" horiz-adv-x="548" 
d="M274 507q116 0 187 -72.5t71 -189.5t-70.5 -189t-187.5 -72t-187.5 72t-70.5 189t71 189.5t187 72.5zM274 383q-53 0 -86 -44q-30 -39 -30 -94q0 -53 31 -93q33 -44 85 -44t85 44q31 40 31 93q0 55 -30 94q-33 44 -86 44zM129 575l145 104l146 -104l-48 -35l-98 56
l-98 -56zM273 -71q26 0 45 -18.5t19 -44.5t-19 -45.5t-45 -19.5t-45 19.5t-19 45.5t19 44.5t45 18.5z" />
    <glyph glyph-name="glyph339" unicode="&#x1eda;" horiz-adv-x="782" 
d="M391 629q-96 0 -160 -76q-61 -71 -61 -169q0 -95 62 -174q67 -85 159 -85t159 85q62 79 62 174q0 98 -61 169q-64 76 -160 76zM615 697q72 -56 110.5 -140.5t38.5 -178.5q0 -168 -101 -281q-105 -117 -272 -117t-272 117q-101 113 -101 281q0 166 102 279
q106 117 271 117q84 0 155 -34l64 4h25q9 9 15 14q2 5 2 10q0 15 -19 28q-22 15 -23 20q-4 15 22 19q23 4 37 -1q46 -16 46 -56q0 -27 -25 -49q-21 -19 -50 -26zM552 966q-4 -13 -19 -24t-29 -11l-113 -91v60l82 97q12 14 30 14q17 0 26 -13z" />
    <glyph glyph-name="glyph340" unicode="&#x1edb;" horiz-adv-x="548" 
d="M274 383q-53 0 -86 -44q-30 -39 -30 -94q0 -53 31 -93q33 -44 85 -44t85 44q31 40 31 93q0 55 -30 94q-33 44 -86 44zM451 442l1 -1q80 -72 80 -196q0 -117 -70.5 -189t-187.5 -72t-187.5 72t-70.5 189t71 189.5t187 72.5q65 0 121 -27l38 2q10 6 16 8q6 8 6 15
q0 9 -9 16q-12 12 -10 22q1 10 14 10q22 0 35 -13q22 -17 22 -47q0 -44 -56 -51zM427 708q-4 -12 -18.5 -22.5t-27.5 -10.5l-107 -87v57l78 93q11 13 28 13q15 0 25 -13z" />
    <glyph glyph-name="glyph341" unicode="&#x1edc;" horiz-adv-x="782" 
d="M391 841l-113 91q-14 0 -29 11t-19 24l23 32q9 13 26 13q19 0 30 -14l1 -1l81 -96v-60zM391 629q-96 0 -160 -76q-61 -71 -61 -169q0 -95 62 -174q67 -85 159 -85t159 85q62 79 62 174q0 98 -61 169q-64 76 -160 76zM615 697q72 -56 110.5 -140.5t38.5 -178.5
q0 -168 -101 -281q-105 -117 -272 -117t-272 117q-101 113 -101 281q0 166 102 279q106 117 271 117q84 0 155 -34l64 4h25q9 9 15 14q2 5 2 10q0 15 -19 28q-22 15 -23 20q-4 15 22 19q23 4 37 -1q46 -16 46 -56q0 -27 -25 -49q-21 -19 -50 -26z" />
    <glyph glyph-name="glyph342" unicode="&#x1edd;" horiz-adv-x="548" 
d="M274 383q-53 0 -86 -44q-30 -39 -30 -94q0 -53 31 -93q33 -44 85 -44t85 44q31 40 31 93q0 55 -30 94q-33 44 -86 44zM452 441q80 -72 80 -196q0 -117 -70.5 -189t-187.5 -72t-187.5 72t-70.5 189t71 189.5t187 72.5q65 0 122 -27l47 2q10 6 16 8q6 8 6 15q0 9 -9 16
q-12 12 -10 22q1 10 14 10q22 0 35 -13q22 -17 22 -47q0 -24 -19.5 -37.5t-45.5 -14.5zM273 589l-107 87q-13 0 -27.5 10.5t-18.5 22.5l22 30q10 13 25 13t28 -13l1 -1l77 -92v-57z" />
    <glyph glyph-name="glyph343" unicode="&#x1ede;" horiz-adv-x="782" 
d="M318 955q-3 35 25 67t63 32q36 0 60.5 -24.5t24.5 -60.5q0 -28 -20 -52.5t-48 -31.5l-3 -41l-29 -14l-27 18l28 56q5 0 -15 20q22 0 42 12.5t20 33.5q0 12 -12.5 20.5t-25.5 8.5q-12 0 -22.5 -11.5t-10.5 -23.5zM391 629q-96 0 -160 -76q-61 -71 -61 -169q0 -95 62 -174
q67 -85 159 -85t159 85q62 79 62 174q0 98 -61 169q-64 76 -160 76zM615 697q72 -56 110.5 -140.5t38.5 -178.5q0 -168 -101 -281q-105 -117 -272 -117t-272 117q-101 113 -101 281q0 166 102 279q106 117 271 117q84 0 155 -34l64 4h25q9 9 15 14q2 5 2 10q0 15 -19 28
q-22 15 -23 20q-4 15 22 19q23 4 37 -1q46 -16 46 -56q0 -27 -25 -49q-21 -19 -50 -26z" />
    <glyph glyph-name="glyph344" unicode="&#x1edf;" horiz-adv-x="548" 
d="M274 383q-53 0 -86 -44q-30 -39 -30 -94q0 -53 31 -93q33 -44 85 -44t85 44q31 40 31 93q0 55 -30 94q-33 44 -86 44zM452 441q80 -72 80 -196q0 -117 -70.5 -189t-187.5 -72t-187.5 72t-70.5 189t71 189.5t187 72.5q65 0 122 -27l47 2q10 6 16 8q6 8 6 15q0 9 -9 16
q-12 12 -10 22q1 10 14 10q22 0 35 -13q22 -17 22 -47q0 -24 -19.5 -37.5t-45.5 -14.5zM201 703q-3 35 25 67t63 32q36 0 60.5 -24.5t24.5 -60.5q0 -28 -20 -52.5t-48 -31.5l-3 -41l-29 -14l-27 18l28 56q5 0 -15 20q22 0 42 12.5t20 33.5q0 12 -12.5 20.5t-25.5 8.5
q-12 0 -22.5 -11.5t-10.5 -23.5z" />
    <glyph glyph-name="glyph345" unicode="&#x1ee0;" horiz-adv-x="782" 
d="M391 629q-96 0 -160 -76q-61 -71 -61 -169q0 -95 62 -174q67 -85 159 -85t159 85q62 79 62 174q0 98 -61 169q-64 76 -160 76zM615 697q72 -56 110.5 -140.5t38.5 -178.5q0 -168 -101 -281q-105 -117 -272 -117t-272 117q-101 113 -101 281q0 166 102 279
q106 117 271 117q84 0 155 -34l64 4h25q9 9 15 14q2 5 2 10q0 15 -19 28q-22 15 -23 20q-4 15 22 19q23 4 37 -1q46 -16 46 -56q0 -27 -25 -49q-21 -19 -50 -26zM574 938q-54 -44 -71 -56q-51 -36 -78 -35q-13 1 -41.5 18t-43.5 16q-17 1 -49 -13.5t-47 -27.5q-5 3 -24 4
q-15 1 -15 4q1 2 5 6l71 62q38 33 68 32q26 -1 49 -18q27 -16 44 -15q17 -1 51 14q30 13 48 26q5 -5 22 -6.5t17 -4.5q-1 -2 -6 -6z" />
    <glyph glyph-name="glyph346" unicode="&#x1ee1;" horiz-adv-x="548" 
d="M274 383q-53 0 -86 -44q-30 -39 -30 -94q0 -53 31 -93q33 -44 85 -44t85 44q31 40 31 93q0 55 -30 94q-33 44 -86 44zM452 441q80 -72 80 -196q0 -117 -70.5 -189t-187.5 -72t-187.5 72t-70.5 189t71 189.5t187 72.5q65 0 122 -27l47 2q10 6 16 8q6 8 6 15q0 9 -9 16
q-12 12 -10 22q1 10 14 10q22 0 35 -13q22 -17 22 -47q0 -24 -19.5 -37.5t-45.5 -14.5zM448 683l-72 -57q-39 -31 -70 -30q-16 0 -40 17q-18 16 -40 15q-17 1 -47.5 -12.5t-44.5 -26.5q-16 7 -29 6q-8 -1 -8 2q1 2 5 6q31 27 62 55q45 35 70 34q12 -1 44 -16.5t44 -14.5
q17 -1 49 13q28 12 45 25q19 -4 37 -10q0 -3 -5 -6z" />
    <glyph glyph-name="glyph347" unicode="&#x1ee2;" horiz-adv-x="782" 
d="M391 629q-96 0 -160 -76q-61 -71 -61 -169q0 -95 62 -174q67 -85 159 -85t159 85q62 79 62 174q0 98 -61 169q-64 76 -160 76zM615 697q72 -56 110.5 -140.5t38.5 -178.5q0 -168 -101 -281q-105 -117 -272 -117t-272 117q-101 113 -101 281q0 166 102 279
q106 117 271 117q84 0 155 -34l64 4h25q9 9 15 14q2 5 2 10q0 15 -19 28q-22 15 -23 20q-4 15 22 19q23 4 37 -1q46 -16 46 -56q0 -27 -25 -49q-21 -19 -50 -26zM391 -72q28 0 47.5 -19t19.5 -47t-19.5 -48t-47.5 -20t-47.5 20t-19.5 48t19.5 47t47.5 19z" />
    <glyph glyph-name="glyph348" unicode="&#x1ee3;" horiz-adv-x="548" 
d="M274 383q-53 0 -86 -44q-30 -39 -30 -94q0 -53 31 -93q33 -44 85 -44t85 44q31 40 31 93q0 55 -30 94q-33 44 -86 44zM452 441q80 -72 80 -196q0 -117 -70.5 -189t-187.5 -72t-187.5 72t-70.5 189t71 189.5t187 72.5q65 0 122 -27l47 2q10 6 16 8q6 8 6 15q0 9 -9 16
q-12 12 -10 22q1 10 14 10q22 0 35 -13q22 -17 22 -47q0 -24 -19.5 -37.5t-45.5 -14.5zM273 -71q26 0 45 -18.5t19 -44.5t-19 -45.5t-45 -19.5t-45 19.5t-19 45.5t19 44.5t45 18.5z" />
    <glyph glyph-name="glyph349" unicode="&#x1ee4;" horiz-adv-x="660" 
d="M50 303v451h147v-422q0 -97 20 -147q31 -77 113 -77t113 77q20 50 20 147v422h147v-451q0 -149 -64 -231q-71 -92 -216 -92t-216 92q-64 82 -64 231zM330 -72q28 0 47.5 -19t19.5 -47t-19.5 -48t-47.5 -20t-47.5 20t-19.5 48t19.5 47t47.5 19z" />
    <glyph glyph-name="glyph350" unicode="&#x1ee5;" horiz-adv-x="535" 
d="M47 491h140v-266q0 -123 80 -123t80 123v266h140v-289q0 -218 -220 -218t-220 218v289zM267 -71q26 0 45 -18.5t19 -44.5t-19 -45.5t-45 -19.5t-45 19.5t-19 45.5t19 44.5t45 18.5z" />
    <glyph glyph-name="glyph351" unicode="&#x1ee6;" horiz-adv-x="660" 
d="M50 303v451h147v-422q0 -97 20 -147q31 -77 113 -77t113 77q20 50 20 147v422h147v-451q0 -149 -64 -231q-71 -92 -216 -92t-216 92q-64 82 -64 231zM257 915q-3 35 25 67t63 32q36 0 60.5 -24.5t24.5 -60.5q0 -28 -20 -52.5t-48 -31.5l-3 -41l-29 -14l-27 18l28 56
q5 0 -15 20q22 0 42 12.5t20 33.5q0 12 -12.5 20.5t-25.5 8.5q-12 0 -22.5 -11.5t-10.5 -23.5z" />
    <glyph glyph-name="glyph352" unicode="&#x1ee7;" horiz-adv-x="535" 
d="M47 491h140v-266q0 -123 80 -123t80 123v266h140v-289q0 -218 -220 -218t-220 218v289zM195 669q-3 35 25 67t63 32q36 0 60.5 -24.5t24.5 -60.5q0 -28 -20 -52.5t-48 -31.5l-3 -41l-29 -14l-27 18l28 56q5 0 -15 20q22 0 42 12.5t20 33.5q0 12 -12.5 20.5t-25.5 8.5
q-12 0 -22.5 -11.5t-10.5 -23.5z" />
    <glyph glyph-name="glyph353" unicode="&#x1ee8;" horiz-adv-x="660" 
d="M622 768q0 -5 -2 -10q-6 -5 -15 -14l-25 5l-117 5v-422q0 -97 -20 -147q-31 -77 -113 -77t-113 77q-20 50 -20 147v422h-147v-451q0 -149 64 -231q71 -92 216 -92t216 92q64 82 64 231v400q75 21 75 75q0 40 -46 56q-14 5 -37 1q-26 -4 -22 -19q4 -14 23 -21t19 -27z
M491 926q-4 -13 -19 -24t-29 -11l-113 -91v60l82 97q12 14 30 14q17 0 26 -13z" />
    <glyph glyph-name="glyph354" unicode="&#x1ee9;" horiz-adv-x="535" 
d="M487 441v-239q0 -218 -220 -218t-220 218v289h140v-266q0 -123 80 -123t80 123v266l143 -10q10 5 16 7q6 8 6 16q0 9 -10 17q-12 12 -10 22q1 10 14 10q22 0 35 -13q22 -17 22 -47q0 -27 -26 -41q-21 -12 -50 -11zM421 673q-4 -12 -18.5 -22.5t-27.5 -10.5l-107 -87v57
l78 93q11 13 28 13q15 0 25 -13z" />
    <glyph glyph-name="glyph355" unicode="&#x1eea;" horiz-adv-x="660" 
d="M580 816q-4 15 22 19q23 4 37 -1q46 -16 46 -56q0 -54 -75 -75v-400q0 -149 -64 -231q-71 -92 -216 -92t-216 92q-64 82 -64 231v451h147v-422q0 -97 20 -147q31 -77 113 -77t113 77q20 50 20 147v422l117 -5l25 -5q9 9 15 14q2 5 2 10q0 20 -19 27t-23 21zM330 800
l-113 91q-14 0 -29 11t-19 24l23 32q9 13 26 13q19 0 30 -14l1 -1l81 -96v-60z" />
    <glyph glyph-name="glyph356" unicode="&#x1eeb;" horiz-adv-x="535" 
d="M487 441v-239q0 -218 -220 -218t-220 218v289h140v-266q0 -123 80 -123t80 123v266l143 -10q10 5 16 7q6 8 6 16q0 9 -10 17q-12 12 -10 22q1 10 14 10q22 0 35 -13q22 -17 22 -47q0 -27 -26 -41q-21 -12 -50 -11zM267 554l-107 87q-13 0 -27.5 10.5t-18.5 22.5l22 30
q10 13 25 13t28 -13l1 -1l77 -92v-57z" />
    <glyph glyph-name="glyph357" unicode="&#x1eec;" horiz-adv-x="660" 
d="M622 768q0 -5 -2 -10q-6 -5 -15 -14l-25 5l-117 5v-422q0 -97 -20 -147q-31 -77 -113 -77t-113 77q-20 50 -20 147v422h-147v-451q0 -149 64 -231q71 -92 216 -92t216 92q64 82 64 231v400q75 21 75 75q0 40 -46 56q-14 5 -37 1q-26 -4 -22 -19q4 -14 23 -21t19 -27z
M257 915q-3 35 25 67t63 32q36 0 60.5 -24.5t24.5 -60.5q0 -28 -20 -52.5t-48 -31.5l-3 -41l-29 -14l-27 18l28 56q5 0 -15 20q22 0 42 12.5t20 33.5q0 12 -12.5 20.5t-25.5 8.5q-12 0 -22.5 -11.5t-10.5 -23.5z" />
    <glyph glyph-name="glyph358" unicode="&#x1eed;" horiz-adv-x="535" 
d="M487 441v-239q0 -218 -220 -218t-220 218v289h140v-266q0 -123 80 -123t80 123v266l143 -10q10 5 16 7q6 8 6 16q0 9 -10 17q-12 12 -10 22q1 10 14 10q22 0 35 -13q22 -17 22 -47q0 -27 -26 -41q-21 -12 -50 -11zM195 669q-3 35 25 67t63 32q36 0 60.5 -24.5t24.5 -60.5
q0 -28 -20 -52.5t-48 -31.5l-3 -41l-29 -14l-27 18l28 56q5 0 -15 20q22 0 42 12.5t20 33.5q0 12 -12.5 20.5t-25.5 8.5q-12 0 -22.5 -11.5t-10.5 -23.5z" />
    <glyph glyph-name="glyph359" unicode="&#x1eee;" horiz-adv-x="660" 
d="M622 768q0 -5 -2 -10q-6 -5 -15 -14l-25 5l-117 5v-422q0 -97 -20 -147q-31 -77 -113 -77t-113 77q-20 50 -20 147v422h-147v-451q0 -149 64 -231q71 -92 216 -92t216 92q64 82 64 231v400q75 21 75 75q0 40 -46 56q-14 5 -37 1q-26 -4 -22 -19q4 -14 23 -21t19 -27z
M512 908q-54 -44 -71 -56q-51 -36 -78 -35q-13 1 -41.5 18t-43.5 16q-17 1 -49 -13.5t-47 -27.5q-5 3 -24 4q-15 1 -15 4q1 2 5 6l71 62q38 33 68 32q26 -1 49 -18q27 -16 44 -15q17 -1 51 14q30 13 48 26q5 -5 22 -6.5t17 -4.5q-1 -2 -6 -6z" />
    <glyph glyph-name="glyph360" unicode="&#x1eef;" horiz-adv-x="535" 
d="M487 441v-239q0 -218 -220 -218t-220 218v289h140v-266q0 -123 80 -123t80 123v266l143 -10q10 5 16 7q6 8 6 16q0 9 -10 17q-12 12 -10 22q1 10 14 10q22 0 35 -13q22 -17 22 -47q0 -27 -26 -41q-21 -12 -50 -11zM442 658l-72 -57q-39 -31 -70 -30q-16 0 -40 17
q-18 16 -40 15q-17 1 -47.5 -12.5t-44.5 -26.5q-16 7 -29 6q-8 -1 -8 2q1 2 5 6q31 27 62 55q45 35 70 34q12 -1 44 -16.5t44 -14.5q17 -1 49 13q28 12 45 25q19 -4 37 -10q0 -3 -5 -6z" />
    <glyph glyph-name="glyph361" unicode="&#x1ef0;" horiz-adv-x="660" 
d="M622 768q0 -5 -2 -10q-6 -5 -15 -14l-25 5l-117 5v-422q0 -97 -20 -147q-31 -77 -113 -77t-113 77q-20 50 -20 147v422h-147v-451q0 -149 64 -231q71 -92 216 -92t216 92q64 82 64 231v400q75 21 75 75q0 40 -46 56q-14 5 -37 1q-26 -4 -22 -19q4 -14 23 -21t19 -27z
M330 -72q28 0 47.5 -19t19.5 -47t-19.5 -48t-47.5 -20t-47.5 20t-19.5 48t19.5 47t47.5 19z" />
    <glyph glyph-name="glyph362" unicode="&#x1ef1;" horiz-adv-x="535" 
d="M487 441v-239q0 -218 -220 -218t-220 218v289h140v-266q0 -123 80 -123t80 123v266l143 -10q10 5 16 7q6 8 6 16q0 9 -10 17q-12 12 -10 22q1 10 14 10q22 0 35 -13q22 -17 22 -47q0 -27 -26 -41q-21 -12 -50 -11zM267 -71q26 0 45 -18.5t19 -44.5t-19 -45.5t-45 -19.5
t-45 19.5t-19 45.5t19 44.5t45 18.5z" />
    <glyph glyph-name="glyph363" unicode="&#x1ef2;" horiz-adv-x="587" 
d="M218 346l-234 408h171l132 -262l144 262h172l-238 -408v-346h-147v346zM288 790l-113 91q-14 0 -29 11t-19 24l23 32q9 13 26 13q19 0 30 -14l1 -1l81 -96v-60z" />
    <glyph glyph-name="glyph364" unicode="&#x1ef3;" horiz-adv-x="520" 
d="M191 75l-209 416h159l117 -279l126 279h156l-357 -753h-154zM262 540l-107 87q-13 0 -27.5 10.5t-18.5 22.5l22 30q10 13 25 13t28 -13l1 -1l77 -92v-57z" />
    <glyph glyph-name="glyph365" unicode="&#x1ef4;" horiz-adv-x="587" 
d="M218 346l-234 408h171l132 -262l144 262h172l-238 -408v-346h-147v346zM289 -52q28 0 47.5 -19t19.5 -47t-19.5 -48t-47.5 -20t-47.5 20t-19.5 48t19.5 47t47.5 19z" />
    <glyph glyph-name="glyph366" unicode="&#x1ef5;" horiz-adv-x="520" 
d="M191 75l-209 416h159l117 -279l126 279h156l-357 -753h-154zM377 -52q26 0 45 -18.5t19 -44.5t-19 -45.5t-45 -19.5t-45 19.5t-19 45.5t19 44.5t45 18.5z" />
    <glyph glyph-name="glyph367" unicode="&#x1ef6;" horiz-adv-x="587" 
d="M218 346l-234 408h171l132 -262l144 262h172l-238 -408v-346h-147v346zM215 905q-3 35 25 67t63 32q36 0 60.5 -24.5t24.5 -60.5q0 -28 -20 -52.5t-48 -31.5l-3 -41l-29 -14l-27 18l28 56q5 0 -15 20q22 0 42 12.5t20 33.5q0 12 -12.5 20.5t-25.5 8.5q-12 0 -22.5 -11.5
t-10.5 -23.5z" />
    <glyph glyph-name="glyph368" unicode="&#x1ef7;" horiz-adv-x="520" 
d="M191 75l-209 416h159l117 -279l126 279h156l-357 -753h-154zM190 654q-3 35 25 67t63 32q36 0 60.5 -24.5t24.5 -60.5q0 -28 -20 -52.5t-48 -31.5l-3 -41l-29 -14l-27 18l28 56q5 0 -15 20q22 0 42 12.5t20 33.5q0 12 -12.5 20.5t-25.5 8.5q-12 0 -22.5 -11.5
t-10.5 -23.5z" />
    <glyph glyph-name="glyph369" unicode="&#x1ef8;" horiz-adv-x="587" 
d="M218 346l-234 408h171l132 -262l144 262h172l-238 -408v-346h-147v346zM471 898q-54 -44 -71 -56q-51 -36 -78 -35q-13 1 -41.5 18t-43.5 16q-17 1 -49 -13.5t-47 -27.5q-5 3 -24 4q-15 1 -15 4q1 2 5 6l71 62q38 33 68 32q26 -1 49 -18q27 -16 44 -15q17 -1 51 14
q30 13 48 26q5 -5 22 -6.5t17 -4.5q-1 -2 -6 -6z" />
    <glyph glyph-name="glyph370" unicode="&#x1ef9;" horiz-adv-x="520" 
d="M191 75l-209 416h159l117 -279l126 279h156l-357 -753h-154zM436 648l-72 -57q-39 -31 -70 -30q-16 0 -40 17q-18 16 -40 15q-17 1 -47.5 -12.5t-44.5 -26.5q-16 7 -29 6q-8 -1 -8 2q1 2 5 6q31 27 62 55q45 35 70 34q12 -1 44 -16.5t44 -14.5q17 -1 49 13q28 12 45 25
q19 -4 37 -10q0 -3 -5 -6z" />
    <glyph glyph-name="endash" unicode="&#x2013;" horiz-adv-x="500" 
d="M0 378h500v-115h-500v115z" />
    <glyph glyph-name="emdash" unicode="&#x2014;" horiz-adv-x="1000" 
d="M0 378h1000v-115h-1000v115z" />
    <glyph glyph-name="quoteleft" unicode="&#x2018;" horiz-adv-x="296" 
d="M159 459l-129 14l144 301l93 -11z" />
    <glyph glyph-name="quoteright" unicode="&#x2019;" horiz-adv-x="296" 
d="M139 774l128 -15l-144 -300l-93 11z" />
    <glyph glyph-name="quotesinglbase" unicode="&#x201a;" horiz-adv-x="296" 
d="M139 156l128 -14l-144 -301l-93 11z" />
    <glyph glyph-name="quotedblleft" unicode="&#x201c;" horiz-adv-x="488" 
d="M350 459l-129 14l144 301l93 -11zM159 459l-129 14l144 301l93 -11z" />
    <glyph glyph-name="quotedblright" unicode="&#x201d;" horiz-adv-x="488" 
d="M139 774l128 -15l-144 -300l-93 11zM330 774l128 -15l-144 -300l-93 11z" />
    <glyph glyph-name="quotedblbase" unicode="&#x201e;" horiz-adv-x="488" 
d="M139 156l128 -14l-144 -301l-93 11zM330 156l128 -14l-144 -301l-93 11z" />
    <glyph glyph-name="dagger" unicode="&#x2020;" horiz-adv-x="577" 
d="M223 848h131v-240h162v-116h-162v-589h-131v589h-162v116h162v240z" />
    <glyph glyph-name="daggerdbl" unicode="&#x2021;" horiz-adv-x="577" 
d="M223 848h131v-211h162v-116h-162v-133h162v-116h-162v-368h-131v368h-162v116h162v133h-162v116h162v211z" />
    <glyph glyph-name="bullet" unicode="&#x2022;" horiz-adv-x="577" 
d="M288 189q-79 0 -133.5 54.5t-54.5 133.5q0 81 54 135t134 54t134.5 -54.5t54.5 -134.5t-54.5 -134t-134.5 -54z" />
    <glyph glyph-name="ellipsis" unicode="&#x2026;" horiz-adv-x="1000" 
d="M167 161q37 0 63 -25.5t26 -62.5t-26 -63.5t-63 -26.5t-63 26.5t-26 63.5t26 62.5t63 25.5zM500 158q37 0 63 -25.5t26 -62.5t-26 -63.5t-63 -26.5t-63 26.5t-26 63.5t26 62.5t63 25.5zM833 158q37 0 63 -25.5t26 -62.5t-26 -63.5t-63 -26.5t-63 26.5t-26 63.5t26 62.5
t63 25.5z" />
    <glyph glyph-name="perthousand" unicode="&#x2030;" horiz-adv-x="1200" 
d="M202 774q78 0 128.5 -50.5t50.5 -128.5q0 -77 -51 -127.5t-128 -50.5t-128 50.5t-51 127.5q0 78 50.5 128.5t128.5 50.5zM202 693q-36 0 -58 -30.5t-22 -67.5t22 -67t58 -30t58 30t22 67t-22 67.5t-58 30.5zM570 780l68 -34l-404 -777l-69 35zM604 337q78 0 128.5 -50.5
t50.5 -128.5q0 -77 -51 -127.5t-128 -50.5t-128 50.5t-51 127.5q0 78 50.5 128.5t128.5 50.5zM604 256q-36 0 -58 -30.5t-22 -67.5t22 -67t58 -30t58 30t22 67t-22 67.5t-58 30.5zM999 337q78 0 128.5 -50.5t50.5 -128.5q0 -77 -51 -127.5t-128 -50.5t-128 50.5t-51 127.5
q0 78 50.5 128.5t128.5 50.5zM999 256q-36 0 -58 -30.5t-22 -67.5t22 -67t58 -30t58 30t22 67t-22 67.5t-58 30.5z" />
    <glyph glyph-name="guilsinglleft" unicode="&#x2039;" horiz-adv-x="314" 
d="M139 320l125 -182l-87 -58l-159 240l159 243l86 -56z" />
    <glyph glyph-name="guilsinglright" unicode="&#x203a;" horiz-adv-x="314" 
d="M50 138l125 182l-124 187l86 56l159 -243l-159 -240z" />
    <glyph glyph-name="fraction" unicode="&#x2044;" horiz-adv-x="179" 
d="M257 780l68 -34l-404 -777l-69 35z" />
    <glyph glyph-name="franc" unicode="&#x20a3;" horiz-adv-x="1035" 
d="M428 626h-227v-166h213v-128h-213v-332h-147v754h374v-128zM842 491v-51h2q44 67 122 67q27 0 58 -12l-17 -130q-25 18 -58 18q-65 0 -90 -52q-17 -36 -17 -110v-221h-140v491h140z" />
    <glyph glyph-name="u20AB" unicode="&#x20ab;" horiz-adv-x="393" 
d="M197 501q-48 0 -84 -88q-20 -49 -20 -90q0 -51 39 -51q41 0 74 71q28 60 28 107q0 51 -37 51zM200 267q-53 -62 -106 -62q-91 0 -91 102q0 81 54 153q59 78 137 78q34 0 61 -24l20 75h-100l10 36h100l2 16q0 31 -48 32l7 33q68 2 128 14l15 3q6 0 6 -9q-1 -2 -3 -12
l-19 -77h65l-10 -36h-65l-69 -280q-5 -20 -5 -27q0 -15 12 -15q6 0 49 42l20 -18q-70 -86 -117 -86q-43 0 -53 62zM9 160h221v-56h-221v56z" />
    <glyph glyph-name="trademark" unicode="&#x2122;" horiz-adv-x="1000" 
d="M382 754v-75h-127v-346h-86v346h-127v75h340zM958 754v-421h-86v335h-2l-122 -335h-83l-118 335h-2v-335h-86v421h149l98 -275h2l102 275h148z" />
    <glyph glyph-name="minus" unicode="&#x2212;" 
d="M33 197v118h512v-118h-512z" />
    <glyph glyph-name="SF370000" unicode="&#x255f;" horiz-adv-x="718" 
d="M470 159h-262l-62 -159h-155l294 774h114l286 -774h-157zM429 279l-94 274h-2l-83 -274h179z" />
    <glyph glyph-name="SF420000" unicode="&#x2560;" horiz-adv-x="681" 
d="M444 626h-243v-166h234v-128h-234v-204h243v-128h-390v754h390v-128z" />
    <glyph glyph-name="SF190000" unicode="&#x2561;" horiz-adv-x="429" 
d="M201 754v-754h-147v754h147z" />
    <glyph glyph-name="SF200000" unicode="&#x2562;" horiz-adv-x="773" 
d="M391 -20q-166 0 -271 117q-102 113 -102 281q0 165 104.5 280.5t268.5 115.5t270 -117q103 -114 103 -279q0 -168 -102 -281q-105 -117 -271 -117zM391 629q-96 0 -160 -76q-61 -71 -61 -169q0 -94 63 -174q67 -85 158 -85t158 85q63 80 63 174q0 98 -61 169
q-64 76 -160 76z" />
    <glyph glyph-name="SF230000" unicode="&#x2563;" horiz-adv-x="811" 
d="M50 303v451h147v-422q0 -97 20 -147q31 -77 113 -77t113 77q20 50 20 147v422h147v-451q0 -149 -64 -231q-71 -92 -216 -92t-216 92q-64 82 -64 231z" />
    <glyph glyph-name="SF470000" unicode="&#x2564;" horiz-adv-x="699" 
d="M218 346l-234 408h171l132 -262l144 262h172l-238 -408v-346h-147v346z" />
    <glyph glyph-name="SF480000" unicode="&#x2565;" horiz-adv-x="541" 
d="M514 491v-491h-138v45h-2q-47 -61 -133 -61q-105 0 -168 82q-58 74 -58 182q0 104 59 178q64 81 165 81q84 0 137 -62v46h138zM273 108q52 0 86 44q31 40 31 94q0 55 -31 94q-33 43 -86 43q-52 0 -85 -44q-31 -40 -31 -93q0 -54 31 -94q33 -44 85 -44z" />
    <glyph glyph-name="SF410000" unicode="&#x2566;" horiz-adv-x="431" 
d="M486 223h-323q0 -54 21 -89q26 -43 76 -43q61 0 94 67l129 -21q-25 -73 -85 -113t-138 -40q-112 0 -178.5 72t-66.5 185q0 118 59 189q63 77 179 77t177 -78q56 -71 56 -189v-17zM167 310h187q-6 40 -29 68q-26 31 -64 31q-80 0 -94 -99z" />
    <glyph glyph-name="SF450000" unicode="&#x2567;" horiz-adv-x="314" 
d="M197 491v-491h-140v491h140zM127 780q34 0 58.5 -24.5t24.5 -58.5q0 -35 -24 -59t-59 -24q-34 0 -58.5 24.5t-24.5 58.5t24.5 58.5t58.5 24.5z" />
    <glyph glyph-name="SF460000" unicode="&#x2568;" horiz-adv-x="314" 
d="M197 491v-491h-140v491h140z" />
    <glyph glyph-name="SF400000" unicode="&#x2569;" horiz-adv-x="498" 
d="M274 507q116 0 187 -73t71 -189q0 -117 -71 -189t-187 -72t-187 72t-71 189q0 116 71 189t187 73zM274 383q-53 0 -86 -44q-30 -39 -30 -94q0 -53 31 -93q33 -44 85 -44t85 44q31 40 31 93q0 55 -30 94q-33 44 -86 44z" />
    <glyph glyph-name="SF540000" unicode="&#x256a;" horiz-adv-x="557" 
d="M47 491h140v-266q0 -123 80 -123t80 123v266h140v-289q0 -218 -220 -218t-220 218v289z" />
    <glyph glyph-name="SF530000" unicode="&#x256b;" horiz-adv-x="497" 
d="M191 75l-209 416h159l117 -279l126 279h156l-357 -753h-154z" />
    <glyph glyph-name="circle" unicode="&#x25cb;" horiz-adv-x="718" 
d="M258 852l170 154l170 -154l-60 -66l-110 104l-110 -104zM401 1194l102 -62l-151 -150l-71 44z" />
    <glyph glyph-name="H18533" unicode="&#x25cf;" horiz-adv-x="718" 
d="M258 852l170 154l170 -154l-60 -66l-110 104l-110 -104zM390 1133l102 62l120 -168l-71 -44z" />
    <glyph glyph-name="invbullet" unicode="&#x25d8;" horiz-adv-x="718" 
d="M258 852l170 154l170 -154l-60 -66l-110 104l-110 -104zM614 903q9 26 11 64q1 11 8 13q2 0 8 1q67 11 67 54q0 35 -28 35q-5 0 -14 -1t-14 -1q-21 0 -21 18q0 28 32 28q47 0 76.5 -25t25.5 -71q-6 -59 -87 -81q-25 -7 -31 -34h-33z" />
    <glyph glyph-name="invcircle" unicode="&#x25d9;" horiz-adv-x="718" 
d="M258 852l170 154l170 -154l-60 -66l-110 104l-110 -104zM367 1024v0h-82q4 51 31 91q31 48 78 48q24 0 73.5 -21.5t68.5 -21.5q27 0 47 42h83q-25 -141 -121 -141q-21 0 -68.5 22t-66.5 22q-31 0 -43 -41z" />
    <glyph glyph-name="fi" unicode="&#xf001;" horiz-adv-x="544" 
d="M195 373v-373h-140v373h-47v118h47v144q0 99 42 158q48 67 143 67q36 0 67 -16v-125q-34 17 -57 17q-40 0 -51 -45q-4 -17 -4 -76v-124h112v-118h-112zM487 491v-491h-140v491h140zM417 780q34 0 58.5 -24.5t24.5 -58.5q0 -35 -24 -59t-59 -24q-34 0 -58.5 24.5
t-24.5 58.5t24.5 58.5t58.5 24.5z" />
    <glyph glyph-name="fl" unicode="&#xf002;" horiz-adv-x="543" 
d="M493 848v-848h-140v848h140zM195 373v-373h-140v373h-47v118h47v144q0 99 42 158q48 67 143 67q36 0 67 -16v-125q-34 17 -57 17q-40 0 -51 -45q-4 -17 -4 -76v-124h112v-118h-112z" />
    <glyph glyph-name="periodcentered" horiz-adv-x="289" 
d="M145 345q37 0 63 -25.5t26 -62.5t-26 -63.5t-63 -26.5t-63 26.5t-26 63.5t26 62.5t63 25.5z" />
    <glyph glyph-name="HT" horiz-adv-x="289" 
 />
    <glyph glyph-name="nonmarkingreturn" horiz-adv-x="289" 
 />
    <glyph glyph-name="glyph233" horiz-adv-x="289" 
 />
    <glyph glyph-name="glyph234" horiz-adv-x="289" 
 />
    <glyph glyph-name="glyph231" horiz-adv-x="289" 
 />
    <glyph glyph-name="glyph232" horiz-adv-x="289" 
 />
    <glyph glyph-name="glyph258" horiz-adv-x="278" 
 />
    <glyph glyph-name="glyph259" horiz-adv-x="278" 
 />
    <glyph glyph-name="glyph275" horiz-adv-x="249" 
 />
    <glyph glyph-name="glyph276" horiz-adv-x="249" 
 />
    <glyph glyph-name="glyph261" horiz-adv-x="500" 
d="M253 522q9 26 11 64q1 11 8 13q2 0 8 1q67 11 67 54q0 35 -28 35q-5 0 -14 -1t-14 -1q-21 0 -21 18q0 28 32 28q47 0 76.5 -25t25.5 -71q-6 -59 -87 -81q-25 -7 -31 -34h-33z" />
    <glyph glyph-name="glyph262" horiz-adv-x="541" 
d="M55 620l170 154l170 -154l-60 -66l-110 104l-110 -104zM197 963l102 -62l-151 -150l-71 44z" />
    <glyph glyph-name="glyph263" horiz-adv-x="541" 
d="M55 620l170 154l170 -154l-60 -66l-110 104l-110 -104zM187 901l102 62l120 -168l-71 -44z" />
    <glyph glyph-name="glyph264" horiz-adv-x="541" 
d="M55 620l170 154l170 -154l-60 -66l-110 104l-110 -104zM411 671q9 26 11 64q1 11 8 13q2 0 8 1q67 11 67 54q0 35 -28 35q-5 0 -14 -1t-14 -1q-21 0 -21 18q0 28 32 28q47 0 76.5 -25t25.5 -71q-6 -59 -87 -81q-25 -7 -31 -34h-33z" />
    <glyph glyph-name="glyph265" horiz-adv-x="541" 
d="M55 620l170 154l170 -154l-60 -66l-110 104l-110 -104zM164 792v0h-82q4 51 31 91q31 48 78 48q24 0 73.5 -21.5t68.5 -21.5q27 0 47 42h83q-25 -141 -121 -141q-21 0 -68.5 22t-66.5 22q-31 0 -43 -41z" />
    <glyph glyph-name="glyph266" horiz-adv-x="541" 
d="M57 753h98q16 -71 75 -71t75 71h98q-7 -71 -54.5 -113.5t-118.5 -42.5t-118.5 42.5t-54.5 113.5zM276 963l102 -62l-151 -150l-71 44z" />
    <glyph glyph-name="glyph267" horiz-adv-x="541" 
d="M57 753h98q16 -71 75 -71t75 71h98q-7 -71 -54.5 -113.5t-118.5 -42.5t-118.5 42.5t-54.5 113.5zM134 901l102 62l120 -168l-71 -44z" />
    <glyph glyph-name="glyph268" horiz-adv-x="541" 
d="M57 753h98q16 -71 75 -71t75 71h98q-7 -71 -54.5 -113.5t-118.5 -42.5t-118.5 42.5t-54.5 113.5zM306 671q9 26 11 64q1 11 8 13q2 0 8 1q67 11 67 54q0 35 -28 35q-5 0 -14 -1t-14 -1q-21 0 -21 18q0 28 32 28q47 0 76.5 -25t25.5 -71q-6 -59 -87 -81q-25 -7 -31 -34
h-33z" />
    <glyph glyph-name="glyph269" horiz-adv-x="541" 
d="M57 753h98q16 -71 75 -71t75 71h98q-7 -71 -54.5 -113.5t-118.5 -42.5t-118.5 42.5t-54.5 113.5zM164 792v0h-82q4 51 31 91q31 48 78 48q24 0 73.5 -21.5t68.5 -21.5q27 0 47 42h83q-25 -141 -121 -141q-21 0 -68.5 22t-66.5 22q-31 0 -43 -41z" />
    <glyph glyph-name="glyph270" horiz-adv-x="249" 
 />
  </font>
</defs>
</svg>
