<?xml version="1.0" standalone="no"?>
<!DOCTYPE svg PUBLIC "-//W3C//DTD SVG 1.1//EN" "http://www.w3.org/Graphics/SVG/1.1/DTD/svg11.dtd" >
<svg xmlns="http://www.w3.org/2000/svg" xmlns:xlink="http://www.w3.org/1999/xlink" version="1.1">
<metadata>
Created by FontForge 20190801 at Fri Oct 21 18:50:24 2005
 By www-data
(c) Copyright 2005 by Tong Duc Thinh. All Rights Reserved
</metadata>
<defs>
<font id="SFUTradeGothicBoldCondensedTwenty" horiz-adv-x="444" >
  <font-face 
    font-family="SFUTradeGothicBoldCondensedTwenty"
    font-weight="400"
    font-stretch="normal"
    units-per-em="1000"
    panose-1="0 0 4 0 0 0 0 0 0 0"
    ascent="800"
    descent="-200"
    x-height="538"
    cap-height="722"
    bbox="-167 -236 1000 1167"
    underline-thickness="50"
    underline-position="-125"
    unicode-range="U+0020-F002"
  />
<missing-glyph horiz-adv-x="500" 
d="M63 0v827h375v-827h-375zM125 63h250v702h-250v-702z" />
    <glyph glyph-name=".notdef" horiz-adv-x="500" 
d="M63 0v827h375v-827h-375zM125 63h250v702h-250v-702z" />
    <glyph glyph-name=".null" horiz-adv-x="0" 
 />
    <glyph glyph-name="glyph2" horiz-adv-x="222" 
 />
    <glyph glyph-name="space" unicode=" " horiz-adv-x="222" 
 />
    <glyph glyph-name="exclam" unicode="!" horiz-adv-x="278" 
d="M98 212l-22 510h126l-22 -510h-82zM198 0h-118v118h118v-118z" />
    <glyph glyph-name="quotedbl" unicode="&#x22;" horiz-adv-x="333" 
d="M40 448v274h94v-274h-94zM199 448v274h94v-274h-94z" />
    <glyph glyph-name="numbersign" unicode="#" 
d="M408 292v-78h-72l-24 -214h-90l25 214h-81l-24 -214h-91l25 214h-66v78h76l15 138h-66v78h76l25 214h89l-25 -214h81l25 214h89l-25 -214h64v-78h-72l-16 -138h62zM272 430h-80l-16 -138h80z" />
    <glyph glyph-name="dollar" unicode="$" 
d="M192 722v88h60v-88q87 -17 139 -91l-76 -65q-30 51 -63 58v-207q79 -50 113 -90q49 -57 49 -133q0 -78 -42 -131q-44 -56 -120 -63v-116h-60v116q-96 10 -162 113l83 63q24 -64 79 -80v235q-152 93 -152 206q0 72 40.5 124t111.5 61zM192 450v174q-50 -16 -50 -74
q0 -55 50 -100zM252 293v-197q56 22 56 93q0 53 -56 104z" />
    <glyph glyph-name="percent" unicode="%" horiz-adv-x="778" 
d="M50 558q0 68 48 116t116 48t116 -48t48 -116t-48 -116t-116 -48t-116 48t-48 116zM130 558q0 -34 25 -59t59 -25q35 0 59.5 25t24.5 59q0 35 -24.5 59.5t-59.5 24.5q-34 0 -59 -24.5t-25 -59.5zM480 164q0 -34 25 -59t59 -25q35 0 59.5 25t24.5 59q0 35 -24.5 59.5
t-59.5 24.5q-34 0 -59 -24.5t-25 -59.5zM400 164q0 68 48 116t116 48t116 -48t48 -116t-48 -116t-116 -48t-116 48t-48 116zM557 732h75l-409 -742h-75z" />
    <glyph glyph-name="ampersand" unicode="&#x26;" horiz-adv-x="556" 
d="M192 589q0 -55 34 -139q60 79 60 132q0 78 -45 78q-49 0 -49 -71zM404 350l102 -27q-12 -54 -68 -189q31 -28 69 -34v-110q-82 2 -140 55q-58 -55 -142 -55q-78 0 -125.5 47t-47.5 122q0 101 95 204q-57 127 -57 199q0 76 40.5 123t116.5 47q68 0 107.5 -41t39.5 -109
q0 -59 -41 -120q-19 -28 -83 -99q39 -82 90 -147q34 88 44 134zM166 175q0 -32 20.5 -54.5t52.5 -22.5q31 0 57 21q-66 79 -99 145q-31 -47 -31 -89z" />
    <glyph glyph-name="quotesingle" unicode="'" horiz-adv-x="222" 
d="M64 448v274h94v-274h-94z" />
    <glyph glyph-name="parenleft" unicode="(" horiz-adv-x="278" 
d="M150 732h96q-118 -183 -118 -409t118 -409h-96q-118 184 -118 409t118 409z" />
    <glyph glyph-name="parenright" unicode=")" horiz-adv-x="278" 
d="M32 732h96q118 -184 118 -409t-118 -409h-96q118 183 118 409t-118 409z" />
    <glyph glyph-name="asterisk" unicode="*" 
d="M372 645v0l30 -89q-14 -1 -151 -17q64 -69 111 -107l-79 -55q-10 28 -61 140q-22 -46 -61 -140l-79 55q47 38 111 107q-50 8 -151 17l30 89q60 -36 127 -67q-5 64 -24 144h94q-19 -80 -24 -144q67 31 127 67z" />
    <glyph glyph-name="plus" unicode="+" horiz-adv-x="600" 
d="M251 302v204h98v-204h204v-98h-204v-204h-98v204h-204v98h204z" />
    <glyph glyph-name="comma" unicode="," horiz-adv-x="222" 
d="M170 118v-118l-69 -124h-53l49 124h-45v118h118z" />
    <glyph glyph-name="hyphen" unicode="-" horiz-adv-x="333" 
d="M289 223h-245v92h245v-92z" />
    <glyph glyph-name="hyphen" unicode="&#x2010;" horiz-adv-x="333" 
d="M289 223h-245v92h245v-92z" />
    <glyph glyph-name="period" unicode="." horiz-adv-x="222" 
d="M170 0h-118v118h118v-118z" />
    <glyph glyph-name="slash" unicode="/" horiz-adv-x="278" 
d="M-21 -10l222 742h98l-222 -742h-98z" />
    <glyph glyph-name="zero" unicode="0" 
d="M280 157v408q0 69 -58 69t-58 -69v-408q0 -69 58 -69t58 69zM46 188v346q0 103 42 150.5t134 47.5t134 -47.5t42 -150.5v-346q0 -103 -42 -150.5t-134 -47.5t-134 47.5t-42 150.5z" />
    <glyph glyph-name="one" unicode="1" 
d="M177 0v572h-98v67q94 48 147 93h63v-732h-112z" />
    <glyph glyph-name="two" unicode="2" 
d="M389 0h-345v97q136 198 177 272q61 110 61 183q0 82 -56 82q-60 0 -60 -75v-49h-118v34q0 82 49.5 135t134.5 53q74 0 121 -47.5t47 -112.5q0 -88 -42 -176q-46 -95 -188 -294h219v-102z" />
    <glyph glyph-name="three" unicode="3" 
d="M46 209h112v-49q0 -72 56 -72q59 0 59 85v55q0 58 -24 80t-82 22v98q56 0 78.5 23.5t22.5 86.5q0 96 -50 96q-56 0 -56 -74v-30h-112v34q0 75 45 121.5t124 46.5q76 0 121 -56q40 -52 40 -129q0 -67 -15 -101q-17 -40 -63 -65q53 -28 71 -65.5t18 -113.5
q0 -212 -180 -212q-165 0 -165 176v43z" />
    <glyph glyph-name="four" unicode="4" 
d="M111 266h123v282h-2zM232 0v174h-216v92l210 456h120v-456h66v-92h-66v-174h-114z" />
    <glyph glyph-name="five" unicode="5" 
d="M50 209h112v-58q0 -63 55 -63q61 0 61 88v164q0 66 -52 66q-47 0 -67 -55h-96q9 252 9 371h301l-4 -102h-195l-7 -156l2 -2q35 42 95 42q132 0 132 -190v-100q0 -116 -39.5 -170t-128.5 -54q-178 0 -178 164v55z" />
    <glyph glyph-name="six" unicode="6" 
d="M383 528h-108v37q0 69 -53 69q-58 0 -58 -69v-169q27 27 44 36q23 12 58 12q58 0 93 -34q39 -39 39 -114v-86q0 -115 -41.5 -167.5t-134.5 -52.5q-92 0 -134 47.5t-42 150.5v346q0 102 41.5 149.5t134.5 48.5q72 1 116.5 -44.5t44.5 -115.5v-44zM164 313v-156
q0 -69 58 -69t58 69v120q0 69 -52 69q-23 0 -64 -33z" />
    <glyph glyph-name="seven" unicode="7" 
d="M263 620h-207v102h326v-70l-147 -652h-117z" />
    <glyph glyph-name="eight" unicode="8" 
d="M46 200q0 71 15 111q17 46 60 74q-65 47 -65 144q0 203 166 203t166 -203q0 -97 -65 -144q43 -28 60 -74q15 -40 15 -111q0 -210 -176 -210t-176 210zM222 88q64 0 64 120t-64 120t-64 -120t64 -120zM222 436q54 0 54 99t-54 99t-54 -99t54 -99z" />
    <glyph glyph-name="nine" unicode="9" 
d="M61 194h108v-37q0 -69 53 -69q58 0 58 69v169q-27 -27 -44 -36q-23 -12 -58 -12q-58 0 -93 34q-39 39 -39 114v86q0 115 41.5 167.5t134.5 52.5q92 0 134 -47.5t42 -150.5v-346q0 -102 -41.5 -149.5t-134.5 -48.5q-72 -1 -116.5 44.5t-44.5 115.5v44zM280 409v156
q0 69 -58 69t-58 -69v-120q0 -69 52 -69q23 0 64 33z" />
    <glyph glyph-name="colon" unicode=":" horiz-adv-x="222" 
d="M170 0h-118v118h118v-118zM170 278h-118v118h118v-118z" />
    <glyph glyph-name="semicolon" unicode=";" horiz-adv-x="222" 
d="M170 118v-118l-69 -124h-53l49 124h-45v118h118zM170 278h-118v118h118v-118z" />
    <glyph glyph-name="less" unicode="&#x3c;" horiz-adv-x="600" 
d="M553 104v-104l-506 211v84l506 211v-104l-365 -149z" />
    <glyph glyph-name="equal" unicode="=" horiz-adv-x="600" 
d="M553 406v-98h-506v98h506zM553 198v-98h-506v98h506z" />
    <glyph glyph-name="greater" unicode="&#x3e;" horiz-adv-x="600" 
d="M47 0v104l365 149l-365 149v104l506 -211v-84z" />
    <glyph glyph-name="question" unicode="?" horiz-adv-x="389" 
d="M233 212h-96v84q0 57 27 120q5 11 50 98q27 52 27 81q0 18 -12 31.5t-30 13.5q-51 0 -71 -76l-96 36q47 132 181 132q58 0 101 -38.5t43 -95.5q0 -59 -32 -112q-30 -44 -60 -89q-32 -58 -32 -131v-54zM242 0h-118v118h118v-118z" />
    <glyph glyph-name="at" unicode="@" horiz-adv-x="800" 
d="M369 233q52 0 89 50q34 46 34 101q0 37 -22 62t-55 25q-52 0 -89 -50q-35 -46 -35 -99q0 -38 21.5 -63.5t56.5 -25.5zM523 496l16 52h81l-63 -257q-7 -29 -7 -39q0 -27 16 -27q44 0 80 53t36 130q0 116 -78 183q-73 63 -189 63q-127 0 -206 -83.5t-79 -211.5t84 -209.5
t213 -81.5q130 0 213 83h83q-51 -77 -130 -119t-172 -42q-162 0 -270 102q-111 105 -111 269q0 159 109.5 265t266.5 106q139 0 239 -83q105 -88 105 -220q0 -136 -96 -220q-77 -66 -151 -66q-54 0 -57 54l-2 1q-49 -55 -108 -55q-64 0 -109.5 49t-45.5 117q0 99 59 173
q62 79 156 79q77 0 117 -65z" />
    <glyph glyph-name="A" unicode="A" 
d="M221 578l-49 -310h100l-49 310h-2zM154 160l-22 -160h-120l133 722h154l133 -722h-120l-22 160h-136z" />
    <glyph glyph-name="B" unicode="B" horiz-adv-x="500" 
d="M184 324v-222h52q90 0 90 111t-102 111h-40zM184 620v-194h45q37 0 60 24t23 68q0 102 -81 102h-47zM60 0v722h184q192 0 192 -191q0 -50 -20 -90q-23 -44 -66 -61q100 -44 100 -171q0 -209 -194 -209h-196z" />
    <glyph glyph-name="C" unicode="C" horiz-adv-x="500" 
d="M434 481h-124v56q0 87 -60 87q-66 0 -66 -80v-366q0 -80 66 -80q60 0 60 73v87h124v-83q0 -81 -45 -131q-50 -54 -139 -54q-93 0 -144 54q-46 50 -46 131v372q0 81 46 131q51 54 144 54q89 0 139 -58q45 -54 45 -140v-53z" />
    <glyph glyph-name="D" unicode="D" horiz-adv-x="500" 
d="M184 620v-518h43q50 0 69.5 22t19.5 79v316q0 57 -19.5 79t-69.5 22h-43zM60 0v722h184q196 0 196 -218v-286q0 -218 -196 -218h-184z" />
    <glyph glyph-name="E" unicode="E" 
d="M406 0h-346v722h332v-108h-208v-186h160v-108h-160v-212h222v-108z" />
    <glyph glyph-name="F" unicode="F" 
d="M184 0h-124v722h346v-108h-222v-186h166v-108h-166v-320z" />
    <glyph glyph-name="G" unicode="G" horiz-adv-x="500" 
d="M231 268v98h203v-366h-60l-23 54q-29 -35 -55 -48q-28 -16 -70 -16q-74 0 -120 50t-46 135v372q0 81 45 131q49 54 137 54q89 0 140 -58q46 -54 46 -140v-46h-118q0 78 -17 109q-16 27 -54 27q-55 0 -55 -79v-371q0 -76 58 -76q37 0 52.5 23t15.5 77v70h-79z" />
    <glyph glyph-name="H" unicode="H" horiz-adv-x="500" 
d="M184 0h-124v722h124v-294h132v294h124v-722h-124v320h-132v-320z" />
    <glyph glyph-name="I" unicode="I" horiz-adv-x="278" 
d="M201 0h-124v722h124v-722z" />
    <glyph glyph-name="J" unicode="J" horiz-adv-x="278" 
d="M3 -10v108h26q65 0 65 60v564h124v-578q0 -75 -36 -111q-41 -43 -138 -43h-41z" />
    <glyph glyph-name="K" unicode="K" 
d="M178 0h-124v722h124v-267h2l130 267h124l-134 -269l151 -453h-126l-101 336h-2l-44 -80v-256z" />
    <glyph glyph-name="L" unicode="L" horiz-adv-x="389" 
d="M373 0h-319v722h124v-614h195v-108z" />
    <glyph glyph-name="M" unicode="M" horiz-adv-x="611" 
d="M394 722h163v-722h-108v564h-2l-112 -564h-60l-112 564h-2v-564h-108v722h163l88 -422h2z" />
    <glyph glyph-name="N" unicode="N" horiz-adv-x="500" 
d="M172 0h-112v722h115l151 -413h2v413h112v-722h-108l-158 451h-2v-451z" />
    <glyph glyph-name="O" unicode="O" horiz-adv-x="500" 
d="M60 175v372q0 81 46 131q51 54 144 54t144 -54q46 -50 46 -131v-372q0 -81 -46 -131q-51 -54 -144 -54t-144 54q-46 50 -46 131zM184 544v-366q0 -80 66 -80t66 80v366q0 80 -66 80t-66 -80z" />
    <glyph glyph-name="P" unicode="P" horiz-adv-x="500" 
d="M184 620v-222h48q61 0 83.5 23.5t22.5 87.5t-22.5 87.5t-83.5 23.5h-48zM184 0h-124v722h178q117 0 170.5 -49.5t53.5 -163.5t-53.5 -163.5t-170.5 -49.5h-54v-296z" />
    <glyph glyph-name="Q" unicode="Q" horiz-adv-x="500" 
d="M477 54v-108q-43 0 -70.5 15t-55.5 52q-41 -23 -101 -23q-93 0 -144 54q-46 50 -46 131v372q0 81 46 131q51 54 144 54t144 -54q46 -50 46 -131v-372q0 -52 -21 -93q30 -26 58 -28zM259 148v110q16 -9 24 -14q17 -12 33 -30v330q0 80 -66 80t-66 -80v-366q0 -80 66 -80
q28 0 42 11q-13 24 -33 39z" />
    <glyph glyph-name="R" unicode="R" horiz-adv-x="500" 
d="M184 620v-222h44q51 0 71.5 24t20.5 87t-20.5 87t-71.5 24h-44zM184 296v-296h-124v722h174q107 0 158.5 -50t51.5 -163q0 -143 -87 -182l105 -327h-126l-88 299q-24 -3 -64 -3z" />
    <glyph glyph-name="S" unicode="S" 
d="M404 557l-118 -13q-6 80 -66 80q-62 0 -62 -71q0 -49 65 -109q61 -56 122 -111q65 -74 65 -158q0 -88 -53.5 -136.5t-142.5 -48.5q-83 0 -134 60q-48 55 -52 140l118 17q7 -109 74 -109q72 0 72 66q0 58 -65 118q-61 55 -122 109q-65 73 -65 161q0 86 50 133t142 47
q74 0 120 -49q43 -47 52 -126z" />
    <glyph glyph-name="T" unicode="T" horiz-adv-x="389" 
d="M132 0v614h-120v108h364v-108h-120v-614h-124z" />
    <glyph glyph-name="U" unicode="U" horiz-adv-x="500" 
d="M60 182v540h124v-545q0 -79 66 -79t66 79v545h124v-540q0 -92 -50.5 -142t-139.5 -50t-139.5 50t-50.5 142z" />
    <glyph glyph-name="V" unicode="V" 
d="M223 221l90 501h122l-151 -722h-124l-151 722h122l90 -501h2z" />
    <glyph glyph-name="W" unicode="W" horiz-adv-x="667" 
d="M194 262l81 460h102l84 -460h2l69 460h116l-127 -722h-104l-90 477h-2l-84 -477h-104l-137 722h116l76 -460h2z" />
    <glyph glyph-name="X" unicode="X" 
d="M14 0l142 378l-132 344h122l76 -229h2l69 229h122l-125 -344l140 -378h-122l-84 263h-2l-86 -263h-122z" />
    <glyph glyph-name="Y" unicode="Y" 
d="M284 300v-300h-124v300l-150 422h126l87 -275h2l83 275h126z" />
    <glyph glyph-name="Z" unicode="Z" 
d="M275 614h-203v108h328v-118l-228 -496h228v-108h-356v118z" />
    <glyph glyph-name="bracketleft" unicode="[" horiz-adv-x="278" 
d="M250 722v-48h-118v-702h118v-48h-214v798h214z" />
    <glyph glyph-name="backslash" unicode="\" horiz-adv-x="278" 
d="M77 732l222 -742h-98l-222 742h98z" />
    <glyph glyph-name="bracketright" unicode="]" horiz-adv-x="278" 
d="M28 674v48h214v-798h-214v48h118v702h-118z" />
    <glyph glyph-name="asciicircum" unicode="^" horiz-adv-x="600" 
d="M163 302h-107l190 420h108l190 -420h-109l-136 302z" />
    <glyph glyph-name="underscore" unicode="_" horiz-adv-x="500" 
d="M500 -125h-500v50h500v-50z" />
    <glyph glyph-name="grave" unicode="`" horiz-adv-x="222" 
d="M99 602l-131 144h135l79 -144h-83z" />
    <glyph glyph-name="a" unicode="a" 
d="M154 380h-112q4 81 52 124.5t128 43.5q163 0 163 -146v-345q0 -15 7 -57h-107q-2 15 -6 42q-64 -52 -131 -52q-55 0 -85 35q-29 32 -29 86q0 86 59 143q55 53 180 101v32q0 69 -55 69q-36 0 -50 -21q-12 -17 -14 -55zM273 132v141q-73 -42 -102 -75q-25 -30 -25 -67
q0 -49 52 -49q40 0 75 50z" />
    <glyph glyph-name="b" unicode="b" 
d="M160 0h-106v722h112v-230q40 33 56 42q27 14 60 14q53 0 83.5 -39t30.5 -111v-258q0 -72 -30.5 -111t-83.5 -39q-41 0 -66 14.5t-54 51.5h-2v-56zM166 428v-318q39 -28 64 -28q54 0 54 87v200q0 87 -54 87q-25 0 -64 -28z" />
    <glyph glyph-name="c" unicode="c" 
d="M396 354h-112v14q0 88 -62 88t-62 -88v-198q0 -88 62 -88t62 88v34h112v-14q0 -200 -174 -200t-174 200v158q0 200 174 200q171 0 174 -194z" />
    <glyph glyph-name="d" unicode="d" 
d="M390 0h-106v56h-2q-29 -37 -54 -51.5t-66 -14.5q-53 0 -83.5 39t-30.5 111v258q0 72 30.5 111t83.5 39q33 0 60 -14q16 -9 56 -42v230h112v-722zM278 110v318q-38 28 -64 28q-54 0 -54 -87v-200q0 -87 54 -87q26 0 64 28z" />
    <glyph glyph-name="e" unicode="e" 
d="M160 340h124v28q0 88 -62 88t-62 -88v-28zM396 348v-100h-236v-78q0 -88 62 -88t62 88v12h112q-3 -192 -174 -192q-174 0 -174 200v158q0 200 174 200t174 -200z" />
    <glyph glyph-name="f" unicode="f" horiz-adv-x="278" 
d="M76 0v446h-66v92h66v67q0 127 125 127h56v-92h-32q-37 0 -37 -36v-66h64v-92h-64v-446h-112z" />
    <glyph glyph-name="g" unicode="g" 
d="M426 548v-93q-6 1 -18 1q-33 0 -54 -17q12 -42 12 -85q0 -119 -40.5 -167.5t-129.5 -48.5h-36q-22 -5 -22 -25q0 -27 75 -30q105 -5 138 -17q75 -26 75 -108q0 -128 -230 -128q-178 0 -178 86q0 30 21.5 53.5t51.5 30.5v2q-51 20 -51 68t68 87q-44 30 -57 64
q-15 38 -15 129q0 110 39.5 154t134.5 44q74 0 124 -58q24 35 41 46.5t51 11.5zM231 -90q55 0 75 9t20 31t-20 31t-75 9t-75 -9t-20 -31t20 -31t75 -9zM198 230q33 0 44.5 22.5t11.5 90.5t-11.5 90.5t-44.5 22.5q-29 0 -41 -22q-15 -26 -15 -91t15 -91q12 -22 41 -22z" />
    <glyph glyph-name="h" unicode="h" 
d="M166 0h-112v722h112v-234q39 34 56 44q30 16 74 16t69 -30t25 -83v-435h-112v417q0 39 -40 39q-25 0 -72 -34v-422z" />
    <glyph glyph-name="i" unicode="i" horiz-adv-x="222" 
d="M167 0h-112v538h112v-538zM167 620h-112v102h112v-102z" />
    <glyph glyph-name="j" unicode="j" horiz-adv-x="222" 
d="M0 -170v102h19q42 0 42 42v563h112v-568q0 -139 -130 -139h-43zM173 620h-112v102h112v-102z" />
    <glyph glyph-name="k" unicode="k" 
d="M411 538l-117 -170l130 -368h-113l-90 267h-2l-53 -79v-188h-112v722h112v-374h2l123 190h120z" />
    <glyph glyph-name="l" unicode="l" horiz-adv-x="222" 
d="M167 0h-112v722h112v-722z" />
    <glyph glyph-name="m" unicode="m" horiz-adv-x="667" 
d="M389 0h-112v417q0 39 -39 39q-25 0 -72 -34v-422h-112v538h106v-54q45 38 60 47q28 17 64 17q40 0 61 -15q17 -13 37 -49q66 64 125 64q105 0 105 -113v-435h-112v417q0 39 -40 39q-26 0 -71 -34v-422z" />
    <glyph glyph-name="n" unicode="n" 
d="M166 0h-112v538h106v-54q44 38 61 47q31 17 75 17t69 -30t25 -83v-435h-112v417q0 39 -40 39q-25 0 -72 -34v-422z" />
    <glyph glyph-name="o" unicode="o" 
d="M284 170v198q0 88 -62 88t-62 -88v-198q0 -88 62 -88t62 88zM48 190v158q0 200 174 200t174 -200v-158q0 -200 -174 -200t-174 200z" />
    <glyph glyph-name="p" unicode="p" 
d="M54 538h106v-56h2q29 37 54 51.5t66 14.5q53 0 83.5 -39t30.5 -111v-258q0 -72 -30.5 -111t-83.5 -39q-33 0 -60 15q-16 8 -56 41v-216h-112v708zM166 428v-318q39 -28 64 -28q54 0 54 87v200q0 87 -54 87q-25 0 -64 -28z" />
    <glyph glyph-name="q" unicode="q" 
d="M284 538h106v-708h-112v216q-40 -33 -56 -41q-27 -15 -60 -15q-53 0 -83.5 39t-30.5 111v258q0 72 30.5 111t83.5 39q41 0 66 -14.5t54 -51.5h2v56zM278 110v318q-38 28 -64 28q-54 0 -54 -87v-200q0 -87 54 -87q26 0 64 28z" />
    <glyph glyph-name="r" unicode="r" horiz-adv-x="333" 
d="M166 0h-112v538h107v-63h2q43 73 127 73h23v-117q-44 11 -72 11q-31 0 -53 -19t-22 -53v-370z" />
    <glyph glyph-name="s" unicode="s" horiz-adv-x="389" 
d="M353 405l-95 -16q-12 67 -64 67q-49 0 -49 -43q0 -33 54 -74q88 -66 102 -79q54 -56 54 -125q0 -70 -43 -107.5t-114 -37.5q-144 0 -171 150l98 27q13 -85 74 -85q50 0 50 47q0 37 -54 80q-51 39 -102 79q-54 53 -54 116t43 103.5t107 40.5t109 -40q42 -38 55 -103z" />
    <glyph glyph-name="t" unicode="t" horiz-adv-x="278" 
d="M72 446h-62v92h62v145h112v-145h75v-92h-75v-310q0 -44 38 -44h37v-96q-22 -6 -56 -6q-131 0 -131 121v335z" />
    <glyph glyph-name="u" unicode="u" 
d="M278 538h112v-538h-106v54q-44 -38 -61 -47q-31 -17 -75 -17t-69 30t-25 83v435h112v-417q0 -39 40 -39q25 0 72 34v422z" />
    <glyph glyph-name="v" unicode="v" horiz-adv-x="389" 
d="M195 178l70 360h114l-130 -538h-109l-130 538h114l69 -360h2z" />
    <glyph glyph-name="w" unicode="w" horiz-adv-x="556" 
d="M165 202l71 335h83l60 -335h2l61 336h108l-124 -538h-90l-61 340h-2l-73 -340h-90l-104 538h108l49 -336h2z" />
    <glyph glyph-name="x" unicode="x" horiz-adv-x="389" 
d="M12 0l120 285l-111 253h116l57 -150l60 150h116l-116 -251l122 -287h-116l-65 182h-2l-65 -182h-116z" />
    <glyph glyph-name="y" unicode="y" horiz-adv-x="389" 
d="M198 194l68 344h113l-141 -578q-18 -72 -53 -100.5t-100 -28.5h-47v92h27q74 0 74 87q0 24 -12 71l-117 457h114l72 -344h2z" />
    <glyph glyph-name="z" unicode="z" horiz-adv-x="389" 
d="M235 446h-191v92h315v-92l-209 -354h209v-92h-329v92z" />
    <glyph glyph-name="braceleft" unicode="{" horiz-adv-x="278" 
d="M0 296v58q56 0 56 80v202q0 50 23 73t81 23h110v-48h-82q-36 0 -36 -50v-194q0 -54 -29 -86q-22 -25 -47 -28v-3q26 -4 47 -27q29 -33 29 -90v-194q0 -50 36 -50h82v-48h-110q-58 0 -81 23t-23 73v206q0 80 -56 80z" />
    <glyph glyph-name="bar" unicode="|" horiz-adv-x="222" 
d="M62 -10v742h98v-742h-98z" />
    <glyph glyph-name="braceright" unicode="}" horiz-adv-x="278" 
d="M278 350v-58q-56 0 -56 -80v-202q0 -50 -23 -73t-81 -23h-110v48h82q36 0 36 50v194q0 54 29 86q22 25 47 28v3q-26 4 -47 27q-29 33 -29 90v194q0 50 -36 50h-82v48h110q58 0 81 -23t23 -73v-206q0 -80 56 -80z" />
    <glyph glyph-name="asciitilde" unicode="~" horiz-adv-x="600" 
d="M495 335v0l44 -86q-29 -26 -57 -52q-36 -26 -76 -26q-43 0 -100.5 32t-116.5 32q-51 0 -84 -64l-44 86q33 38 53 52q36 26 80 26q38 0 111 -32t102 -32q41 0 88 64z" />
    <glyph glyph-name="euro" horiz-adv-x="498" 
d="M522 633l-23 -156l-48 6q0 157 -94 157q-103 0 -161 -211h172l-21 -48h-164q-6 -24 -16 -73h147l-21 -47h-134q-6 -41 -6 -74q0 -56 21 -91q26 -43 78 -43q58 0 101 68q24 38 51 119l55 -10l-54 -188q-77 -53 -159 -53q-111 0 -166 84q-47 71 -47 188h-74l21 47h56
q3 25 12 73h-66l21 48h59q41 112 108 183q83 88 187 88q94 0 165 -67z" />
    <glyph glyph-name="nonbreakingspace" unicode="&#xa0;" horiz-adv-x="1000" 
 />
    <glyph glyph-name="exclamdown" unicode="&#xa1;" horiz-adv-x="278" 
d="M180 326l22 -510h-126l22 510h82zM80 538h118v-118h-118v118z" />
    <glyph glyph-name="cent" unicode="&#xa2;" 
d="M158 148l81 317q-5 1 -16 1q-73 0 -73 -88v-198q0 -5 6 -32h2zM401 364h-104v14q0 38 -15 59l-91 -337q12 -8 32 -8q71 0 71 88v34h112v-14q0 -200 -183 -200q-26 0 -43 4l-33 -120h-75l40 145q-74 46 -74 171v158q0 200 185 200q12 0 32 -2l35 128h74l-41 -150
q76 -45 78 -170z" />
    <glyph glyph-name="sterling" unicode="&#xa3;" 
d="M35 -10v107q46 15 62 65q15 45 15 157h-77v84h63q-28 122 -28 164q0 165 165 165q161 0 161 -202h-102q-2 53 -9 72q-14 38 -53 38q-50 0 -50 -64q0 -35 10 -84q10 -45 19 -89h99v-84h-90q-2 -80 -7 -115q-7 -51 -28 -88q34 -24 70 -24q51 0 51 107h100v-59
q0 -71 -35 -110.5t-98 -39.5q-68 0 -128 48q-63 -43 -110 -48z" />
    <glyph glyph-name="currency" unicode="&#xa4;" 
d="M436 199l-50 -53l-48 48q-52 -36 -116 -36q-65 0 -117 36l-47 -48l-50 53l47 46q-37 51 -37 116t37 116l-47 46l50 53l47 -48q52 36 117 36q64 0 116 -36l48 48l50 -53l-47 -46q37 -51 37 -116t-37 -116zM110 361q0 -49 32.5 -83t79.5 -34t79.5 34t32.5 83t-32.5 83
t-79.5 34t-79.5 -34t-32.5 -83z" />
    <glyph glyph-name="yen" unicode="&#xa5;" 
d="M418 468v-84h-121l-27 -80h148v-84h-148v-220h-96v220h-148v84h148l-27 80h-121v84h87l-91 254h100l101 -299h2l97 299h100l-91 -254h87z" />
    <glyph glyph-name="brokenbar" unicode="&#xa6;" horiz-adv-x="222" 
d="M160 296v-306h-98v306h98zM160 732v-306h-98v306h98z" />
    <glyph glyph-name="section" unicode="&#xa7;" horiz-adv-x="500" 
d="M402 652l-69 -50q-47 52 -76 52q-52 0 -52 -46q0 -34 63 -93q58 -55 117 -109q63 -68 63 -126q0 -50 -29 -83.5t-79 -34.5q50 -48 50 -108q0 -59 -37 -96.5t-95 -37.5q-86 0 -170 81l73 57q32 -60 79 -60q58 0 58 50q0 35 -64 98q-59 59 -118 117q-64 72 -64 128
q0 49 30.5 79t80.5 35q-50 38 -50 105q0 55 37 88.5t107 33.5q89 0 145 -80zM144 399q0 -24 69.5 -98.5t96.5 -74.5q19 0 32.5 13t13.5 31q0 23 -67 96q-70 75 -101 75q-44 0 -44 -42z" />
    <glyph glyph-name="dieresis" unicode="&#xa8;" horiz-adv-x="222" 
d="M244 614h-108v108h108v-108zM-22 722h108v-108h-108v108z" />
    <glyph glyph-name="copyright" unicode="&#xa9;" horiz-adv-x="800" 
d="M400 -10q-156 0 -265 101q-115 106 -115 270t115 270q109 101 265 101t265 -101q115 -106 115 -270t-115 -270q-109 -101 -265 -101zM682 361q0 127 -81.5 210t-200.5 83q-120 0 -201 -83t-81 -210t81 -210t201 -83q119 0 200.5 83t81.5 210zM514 299h81
q-12 -73 -62.5 -115t-118.5 -42q-94 0 -153 63t-59 158q0 97 57 159t153 62q70 0 119.5 -40t60.5 -114h-78q-15 76 -102 76q-55 0 -85.5 -38.5t-30.5 -102.5q0 -61 33 -103t85 -42q91 0 100 79z" />
    <glyph glyph-name="ordfeminine" unicode="&#xaa;" horiz-adv-x="266" 
d="M92 631h-78q6 101 122 101q106 0 106 -88v-208q0 -6 5 -34h-70q0 4 -2 11t-2 10q-36 -27 -85 -27q-74 0 -74 73q0 51 38 86q34 32 112 61v19q0 37 -34 37q-36 0 -38 -41zM164 486v73q-44 -22 -58 -38.5t-14 -38.5q0 -26 29 -26q30 0 43 30z" />
    <glyph glyph-name="guillemotleft" unicode="&#xab;" horiz-adv-x="500" 
d="M160 269l114 -154h-96l-115 155l115 153h99zM327 269l114 -154h-96l-115 155l115 153h99z" />
    <glyph glyph-name="logicalnot" unicode="&#xac;" horiz-adv-x="600" 
d="M455 99v209h-408v98h506v-307h-98z" />
    <glyph glyph-name="sfthyphen" unicode="&#xad;" horiz-adv-x="338" 
d="M8 174l33 122h246l-33 -122h-246z" />
    <glyph glyph-name="registered" unicode="&#xae;" horiz-adv-x="800" 
d="M334 331v-177h-82v415h157q161 0 161 -123q0 -102 -100 -111l100 -181h-91l-93 177h-52zM334 505v-110h71q81 0 81 58q0 29 -19.5 40.5t-65.5 11.5h-67zM400 -10q-156 0 -265 101q-115 106 -115 270t115 270q109 101 265 101t265 -101q115 -106 115 -270t-115 -270
q-109 -101 -265 -101zM682 361q0 127 -81.5 210t-200.5 83q-120 0 -201 -83t-81 -210t81 -210t201 -83q119 0 200.5 83t81.5 210z" />
    <glyph glyph-name="macron" unicode="&#xaf;" horiz-adv-x="222" 
d="M-36 637v64h294v-64h-294z" />
    <glyph glyph-name="macron" unicode="&#x2c9;" horiz-adv-x="222" 
d="M-36 637v64h294v-64h-294z" />
    <glyph glyph-name="degree" unicode="&#xb0;" horiz-adv-x="400" 
d="M200 502q36 0 59 25t23 62t-23 62t-59 25t-59 -25t-23 -62t23 -62t59 -25zM200 446q-61 0 -102.5 41.5t-41.5 101.5t41.5 101.5t102.5 41.5t102.5 -41.5t41.5 -101.5t-41.5 -101.5t-102.5 -41.5z" />
    <glyph glyph-name="plusminus" unicode="&#xb1;" horiz-adv-x="600" 
d="M251 369v137h98v-137h204v-98h-204v-137h-98v137h-204v98h204zM47 0v98h506v-98h-506z" />
    <glyph glyph-name="twosuperior" unicode="&#xb2;" horiz-adv-x="266" 
d="M249 292h-235v81q146 167 146 251q0 28 -28 28q-32 0 -32 -34v-19h-86v20q0 48 36.5 80.5t92.5 32.5q48 0 78.5 -28t30.5 -68q0 -61 -22 -111q-29 -65 -107 -153h126v-80z" />
    <glyph glyph-name="threesuperior" unicode="&#xb3;" horiz-adv-x="266" 
d="M20 418h86v-21q0 -31 27 -31t27 39v25q0 33 -12.5 43.5t-44.5 10.5v74q31 0 43 12.5t12 45.5q0 40 -26 40q-25 0 -25 -28v-17h-84v20q0 45 30.5 73t82.5 28q55 0 86 -34q28 -30 28 -77q0 -73 -47 -99q34 -18 45 -45q8 -20 8 -63q0 -128 -125 -128q-111 0 -111 107v25z
" />
    <glyph glyph-name="acute" unicode="&#xb4;" horiz-adv-x="222" 
d="M254 746l-131 -144h-83l79 144h135z" />
    <glyph glyph-name="mu" unicode="&#xb5;" 
d="M278 538h112v-538h-106v54q-40 -34 -55 -44q-28 -17 -63 -20v-160h-112v708h112v-417q0 -39 40 -39q25 0 72 34v422z" />
    <glyph glyph-name="mu" unicode="&#x3bc;" 
d="M278 538h112v-538h-106v54q-40 -34 -55 -44q-28 -17 -63 -20v-160h-112v708h112v-417q0 -39 40 -39q25 0 72 34v422z" />
    <glyph glyph-name="paragraph" unicode="&#xb6;" horiz-adv-x="500" 
d="M195 -80v432q-86 0 -137.5 51t-51.5 131q0 188 208 188h288v-64h-56v-738h-82v738h-87v-738h-82z" />
    <glyph glyph-name="ch270" unicode="&#xb7;" horiz-adv-x="249" 
d="M38 348q0 34 23 57t57 23t57.5 -23t23.5 -57t-23.5 -57.5t-57.5 -23.5t-57 23.5t-23 57.5z" />
    <glyph glyph-name="ch270" unicode="&#x2219;" horiz-adv-x="249" 
d="M38 348q0 34 23 57t57 23t57.5 -23t23.5 -57t-23.5 -57.5t-57.5 -23.5t-57 23.5t-23 57.5z" />
    <glyph glyph-name="cedilla" unicode="&#xb8;" horiz-adv-x="222" 
d="M-9 -213l17 50q34 -17 65 -17q26 0 42.5 12t16.5 29q0 36 -47 36q-20 0 -36 -7l-22 18l68 92h48l-41 -60q16 2 21 2q37 -1 62 -20q29 -21 29 -56q0 -46 -36.5 -74t-87.5 -28q-50 0 -99 23z" />
    <glyph glyph-name="onesuperior" unicode="&#xb9;" horiz-adv-x="266" 
d="M94 292v335h-52v48q55 21 99 57h49v-440h-96z" />
    <glyph glyph-name="ordmasculine" unicode="&#xba;" horiz-adv-x="266" 
d="M164 509v110q0 49 -31 49t-31 -49v-110q0 -49 31 -49t31 49zM20 517v95q0 120 113 120t113 -120v-95q0 -121 -113 -121t-113 121z" />
    <glyph glyph-name="guillemotright" unicode="&#xbb;" horiz-adv-x="500" 
d="M226 115l114 154l-117 154h99l115 -153l-115 -155h-96zM59 115l114 154l-117 154h99l115 -153l-115 -155h-96z" />
    <glyph glyph-name="onequarter" unicode="&#xbc;" horiz-adv-x="666" 
d="M448 176h64v133h-2zM512 0v100h-142v80l129 253h95v-257h38v-76h-38v-100h-82zM165 -10h-91l410 742h91zM102 292v335h-52v48q53 21 99 56h49v-439h-96z" />
    <glyph glyph-name="onehalf" unicode="&#xbd;" horiz-adv-x="666" 
d="M157 -10h-91l410 742h91zM100 292v335h-52v48q55 21 99 57h49v-440h-96zM633 0h-235v81q146 167 146 251q0 28 -28 28q-32 0 -32 -34v-19h-86v20q0 48 36.5 80.5t92.5 32.5q48 0 78.5 -28t30.5 -68q0 -61 -22 -111q-29 -65 -107 -153h126v-80z" />
    <glyph glyph-name="threequarters" unicode="&#xbe;" horiz-adv-x="666" 
d="M448 176h64v133h-2zM512 0v100h-142v80l129 253h95v-257h38v-76h-38v-100h-82zM184 -10h-91l410 742h91zM30 418h86v-21q0 -31 27 -31t27 39v25q0 33 -12.5 43.5t-44.5 10.5v74q31 0 43 12.5t12 45.5q0 40 -26 40q-25 0 -25 -28v-17h-84v20q0 45 30.5 73t82.5 28
q55 0 86 -34q28 -30 28 -77q0 -73 -47 -99q34 -18 45 -45q8 -20 8 -63q0 -128 -125 -128q-111 0 -111 107v25z" />
    <glyph glyph-name="questiondown" unicode="&#xbf;" horiz-adv-x="389" 
d="M156 326h96v-84q0 -57 -27 -120q-5 -11 -50 -98q-27 -52 -27 -81q0 -18 12 -31.5t30 -13.5q51 0 71 76l96 -36q-46 -132 -181 -132q-58 0 -101 38.5t-43 95.5q0 59 32 112q30 44 60 89q32 58 32 131v54zM147 538h118v-118h-118v118z" />
    <glyph glyph-name="Agrave" unicode="&#xc0;" 
d="M172 268h100l-49 310zM154 160l-22 -160h-120l133 722h154l133 -722h-120l-22 160h-136zM196 760l-92 100h94l56 -100h-58z" />
    <glyph glyph-name="Aacute" unicode="&#xc1;" 
d="M172 268h100l-49 310zM154 160l-22 -160h-120l133 722h154l133 -722h-120l-22 160h-136zM344 859l-92 -100h-58l56 100h94z" />
    <glyph glyph-name="Acircumflex" unicode="&#xc2;" 
d="M172 268h100l-49 310zM154 160l-22 -160h-120l133 722h154l133 -722h-120l-22 160h-136zM117 759l68 101h76l68 -101h-65l-41 62l-41 -62h-65z" />
    <glyph glyph-name="Atilde" unicode="&#xc3;" 
d="M172 268h100l-49 310zM154 160l-22 -160h-120l133 722h154l133 -722h-120l-22 160h-136zM301 846h39q-13 -80 -72 -82q-17 -1 -45 13t-42 14q-30 0 -30 -31h-39q14 83 72 83q19 0 45 -14q35 -13 42 -13q30 0 30 30z" />
    <glyph glyph-name="Adieresis" unicode="&#xc4;" 
d="M221 578l-49 -310h100l-49 310h-2zM154 160l-22 -160h-120l133 722h154l133 -722h-120l-22 160h-136zM355 772h-108v108h108v-108zM89 880h108v-108h-108v108z" />
    <glyph glyph-name="Aring" unicode="&#xc5;" 
d="M221 578l-49 -310h100l-49 310h-2zM154 160l-22 -160h-120l133 722h154l133 -722h-120l-22 160h-136zM120 862q0 42 30 72t72 30t72 -30t30 -72t-30 -72t-72 -30t-72 30t-30 72zM170 862q0 -22 15 -37t37 -15t37 15t15 37t-15 37t-37 15t-37 -15t-15 -37z" />
    <glyph glyph-name="AE" unicode="&#xc6;" horiz-adv-x="722" 
d="M224 278h110v354h-2zM12 0l233 722h425v-108h-212v-186h164v-108h-164v-212h226v-108h-350v170h-144l-52 -170h-126z" />
    <glyph glyph-name="Ccedilla" unicode="&#xc7;" horiz-adv-x="500" 
d="M434 481h-124v56q0 87 -60 87q-66 0 -66 -80v-366q0 -80 66 -80q60 0 60 73v87h124v-83q0 -81 -45 -131q-50 -54 -139 -54q-93 0 -144 54q-46 50 -46 131v372q0 81 46 131q51 54 144 54q89 0 139 -58q45 -54 45 -140v-53zM130 -213l17 50q34 -17 65 -17q26 0 42.5 12
t16.5 29q0 36 -47 36q-20 0 -36 -7l-22 18l68 92h48l-41 -60q16 2 21 2q37 -1 62 -20q29 -21 29 -56q0 -46 -36.5 -74t-87.5 -28q-50 0 -99 23z" />
    <glyph glyph-name="Egrave" unicode="&#xc8;" 
d="M406 0h-346v722h332v-108h-208v-186h160v-108h-160v-212h222v-108zM196 760l-92 100h94l56 -100h-58z" />
    <glyph glyph-name="Eacute" unicode="&#xc9;" 
d="M406 0h-346v722h332v-108h-208v-186h160v-108h-160v-212h222v-108zM347 859l-92 -100h-58l56 100h94z" />
    <glyph glyph-name="Ecircumflex" unicode="&#xca;" 
d="M406 0h-346v722h332v-108h-208v-186h160v-108h-160v-212h222v-108zM120 766l68 101h76l68 -101h-65l-41 62l-41 -62h-65z" />
    <glyph glyph-name="Edieresis" unicode="&#xcb;" 
d="M406 0h-346v722h332v-108h-208v-186h160v-108h-160v-212h222v-108zM367 772h-108v108h108v-108zM101 880h108v-108h-108v108z" />
    <glyph glyph-name="Igrave" unicode="&#xcc;" horiz-adv-x="278" 
d="M201 0h-124v722h124v-722zM114 760l-92 100h94l56 -100h-58z" />
    <glyph glyph-name="Iacute" unicode="&#xcd;" horiz-adv-x="278" 
d="M201 0h-124v722h124v-722zM264 859l-92 -100h-58l56 100h94z" />
    <glyph glyph-name="Icircumflex" unicode="&#xce;" horiz-adv-x="278" 
d="M201 0h-124v722h124v-722zM-12 760l96 144h110l96 -144h-92l-59 89l-59 -89h-92z" />
    <glyph glyph-name="Idieresis" unicode="&#xcf;" horiz-adv-x="278" 
d="M201 0h-124v722h124v-722zM272 772h-108v108h108v-108zM6 880h108v-108h-108v108z" />
    <glyph glyph-name="Eth" unicode="&#xd0;" horiz-adv-x="500" 
d="M20 320v108h40v294h184q196 0 196 -218v-286q0 -218 -196 -218h-184v320h-40zM258 428v-108h-74v-218h43q50 0 69.5 22t19.5 79v316q0 57 -19.5 79t-69.5 22h-43v-192h74z" />
    <glyph glyph-name="Ntilde" unicode="&#xd1;" horiz-adv-x="500" 
d="M172 0h-112v722h115l151 -413h2v413h112v-722h-108l-158 451h-2v-451zM357 891v0h56q-23 -118 -103 -118q-24 0 -63.5 19.5t-61.5 19.5q-40 0 -42 -44h-56q23 118 103 118q24 0 65.5 -19.5t59.5 -19.5q40 0 42 44z" />
    <glyph glyph-name="Ograve" unicode="&#xd2;" horiz-adv-x="500" 
d="M60 175v372q0 87 51 136t139 49t139 -48.5t51 -136.5v-372q0 -87 -51 -136t-139 -49t-139 48.5t-51 136.5zM184 544v-366q0 -41 12 -58q15 -21 54 -22q66 -1 66 80v366q0 40 -14 59.5t-52 20.5q-39 1 -54 -21q-12 -18 -12 -59zM221 760l-92 100h94l56 -100h-58z" />
    <glyph glyph-name="Oacute" unicode="&#xd3;" horiz-adv-x="500" 
d="M60 175v372q0 87 51 136t139 49t139 -48.5t51 -136.5v-372q0 -87 -51 -136t-139 -49t-139 48.5t-51 136.5zM184 544v-366q0 -41 12 -58q15 -21 54 -22q66 -1 66 80v366q0 40 -14 59.5t-52 20.5q-39 1 -54 -21q-12 -18 -12 -59zM371 859l-92 -100h-58l56 100h94z" />
    <glyph glyph-name="Ocircumflex" unicode="&#xd4;" horiz-adv-x="500" 
d="M60 175v372q0 87 51 136t139 49t139 -48.5t51 -136.5v-372q0 -87 -51 -136t-139 -49t-139 48.5t-51 136.5zM184 544v-366q0 -41 12 -58q15 -21 54 -22q66 -1 66 80v366q0 40 -14 59.5t-52 20.5q-39 1 -54 -21q-12 -18 -12 -59zM143 759l68 101h76l68 -101h-65l-41 62
l-41 -62h-65z" />
    <glyph glyph-name="Otilde" unicode="&#xd5;" horiz-adv-x="500" 
d="M60 175v372q0 87 51 136t139 49t139 -48.5t51 -136.5v-372q0 -87 -51 -136t-139 -49t-139 48.5t-51 136.5zM184 544v-366q0 -41 12 -58q15 -21 54 -22q66 -1 66 80v366q0 40 -14 59.5t-52 20.5q-39 1 -54 -21q-12 -18 -12 -59zM325 851h39q-13 -80 -72 -82q-17 -1 -45 13
t-42 14q-30 0 -30 -31h-39q14 83 72 83q19 0 45 -14q35 -13 42 -13q30 0 30 30z" />
    <glyph glyph-name="Odieresis" unicode="&#xd6;" horiz-adv-x="500" 
d="M60 175v372q0 81 46 131q51 54 144 54t144 -54q46 -50 46 -131v-372q0 -81 -46 -131q-51 -54 -144 -54t-144 54q-46 50 -46 131zM184 544v-366q0 -80 66 -80t66 80v366q0 80 -66 80t-66 -80zM383 772h-108v108h108v-108zM117 880h108v-108h-108v108z" />
    <glyph glyph-name="multiply" unicode="&#xd7;" horiz-adv-x="600" 
d="M553 437l-183 -184l183 -183l-69 -70l-184 184l-184 -184l-69 70l184 183l-184 184l69 69l184 -184l184 184z" />
    <glyph glyph-name="Oslash" unicode="&#xd8;" horiz-adv-x="500" 
d="M186 257l126 325q-11 42 -62 42q-66 0 -66 -80v-287h2zM314 424l-117 -303q12 -23 53 -23q66 0 66 80v246h-2zM160 7l-50 -127h-82l69 176q-37 47 -37 119v372q0 81 46 131q51 54 144 54q61 0 103 -24l38 96h81l-59 -152q27 -43 27 -105v-372q0 -81 -46 -131
q-51 -54 -144 -54q-51 0 -90 17z" />
    <glyph glyph-name="Ugrave" unicode="&#xd9;" horiz-adv-x="500" 
d="M60 182v540h124v-545q0 -78 66 -79t66 79v545h124v-540q0 -92 -49 -141.5t-141 -50.5t-141 49.5t-49 142.5zM221 760l-92 100h94l56 -100h-58z" />
    <glyph glyph-name="Uacute" unicode="&#xda;" horiz-adv-x="500" 
d="M60 182v540h124v-545q0 -78 66 -79t66 79v545h124v-540q0 -92 -49 -141.5t-141 -50.5t-141 49.5t-49 142.5zM371 859l-92 -100h-58l56 100h94z" />
    <glyph glyph-name="Ucircumflex" unicode="&#xdb;" horiz-adv-x="500" 
d="M60 182v540h124v-545q0 -79 66 -79t66 79v545h124v-540q0 -92 -50.5 -142t-139.5 -50t-139.5 50t-50.5 142zM99 760l96 144h110l96 -144h-92l-59 89l-59 -89h-92z" />
    <glyph glyph-name="Udieresis" unicode="&#xdc;" horiz-adv-x="500" 
d="M60 182v540h124v-545q0 -79 66 -79t66 79v545h124v-540q0 -92 -50.5 -142t-139.5 -50t-139.5 50t-50.5 142zM383 772h-108v108h108v-108zM117 880h108v-108h-108v108z" />
    <glyph glyph-name="Yacute" unicode="&#xdd;" 
d="M284 300v-300h-124v300l-150 422h126l87 -275l85 275h126zM348 852l-92 -100h-58l56 100h94z" />
    <glyph glyph-name="Thorn" unicode="&#xde;" horiz-adv-x="500" 
d="M184 722v-140h54q117 0 170.5 -49.5t53.5 -163.5t-53.5 -163.5t-170.5 -49.5h-54v-156h-124v722h124zM184 480v-222h48q61 0 83.5 23.5t22.5 87.5t-22.5 87.5t-83.5 23.5h-48z" />
    <glyph glyph-name="germandbls" unicode="&#xdf;" 
d="M166 0h-112v540q0 188 159 188q170 0 170 -197q0 -124 -73 -134v-2q92 -29 92 -191q0 -113 -30 -161q-27 -43 -86 -43h-66v95q12 -3 27 -3q39 0 39 67v101q0 78 -62 78v92q32 5 41 23q6 12 6 49v70q0 64 -52 64q-53 0 -53 -74v-562z" />
    <glyph glyph-name="agrave" unicode="&#xe0;" 
d="M154 380h-112q0 81 49 124t131 44q163 1 163 -146v-345q0 -29 7 -57h-107l-6 42q-64 -52 -131 -52q-113 0 -114 121q-1 95 76 159q51 42 163 85v32q0 69 -55 69q-36 0 -51 -21q-11 -16 -13 -55zM273 132v141q-61 -35 -84 -56q-42 -38 -43 -86t52 -49q34 -1 75 50z
M188 573l-83 90h85l50 -90h-52z" />
    <glyph glyph-name="aacute" unicode="&#xe1;" 
d="M154 380h-112q0 81 49 124t131 44q163 1 163 -146v-345q0 -29 7 -57h-107l-6 42q-64 -52 -131 -52q-113 0 -114 121q-1 95 76 159q51 42 163 85v32q0 69 -55 69q-36 0 -51 -21q-11 -16 -13 -55zM273 132v141q-61 -35 -84 -56q-42 -38 -43 -86t52 -49q34 -1 75 50z
M323 667l-83 -90h-52l50 90h85z" />
    <glyph glyph-name="acircumflex" unicode="&#xe2;" 
d="M154 380h-112q0 81 49 124t131 44q163 1 163 -146v-345q0 -29 7 -57h-107l-6 42q-64 -52 -131 -52q-113 0 -114 121q-1 95 76 159q51 42 163 85v32q0 69 -55 69q-36 0 -51 -21q-11 -16 -13 -55zM273 132v141q-61 -35 -84 -56q-42 -38 -43 -86t52 -49q34 -1 75 50z
M118 572l61 91h68l61 -91h-58l-37 55l-37 -55h-58z" />
    <glyph glyph-name="atilde" unicode="&#xe3;" 
d="M154 380h-112q0 81 49 124t131 44q163 1 163 -146v-345q0 -29 7 -57h-107l-6 42q-64 -52 -131 -52q-113 0 -114 121q-1 95 76 159q51 42 163 85v32q0 69 -55 69q-36 0 -51 -21q-11 -16 -13 -55zM273 132v141q-61 -35 -84 -56q-42 -38 -43 -86t52 -49q34 -1 75 50z
M280 656h36q-17 -74 -65 -74q-15 0 -32 8q-25 12 -30 14t-16 2q-27 0 -27 -28h-36q16 75 65 75q12 0 22 -3q2 0 18.5 -8.5t19.5 -9.5q8 -3 18 -3q27 0 27 27z" />
    <glyph glyph-name="adieresis" unicode="&#xe4;" 
d="M154 380h-112q4 81 52 124.5t128 43.5q163 0 163 -146v-345q0 -15 7 -57h-107q-2 15 -6 42q-64 -52 -131 -52q-55 0 -85 35q-29 32 -29 86q0 86 59 143q55 53 180 101v32q0 69 -55 69q-36 0 -50 -21q-12 -17 -14 -55zM273 132v141q-73 -42 -102 -75q-25 -30 -25 -67
q0 -49 52 -49q40 0 75 50zM355 614h-108v108h108v-108zM89 722h108v-108h-108v108z" />
    <glyph glyph-name="aring" unicode="&#xe5;" 
d="M154 380h-112q4 81 52 124.5t128 43.5q163 0 163 -146v-345q0 -15 7 -57h-107q-2 15 -6 42q-64 -52 -131 -52q-55 0 -85 35q-29 32 -29 86q0 86 59 143q55 53 180 101v32q0 69 -55 69q-36 0 -50 -21q-12 -17 -14 -55zM273 132v141q-73 -42 -102 -75q-25 -30 -25 -67
q0 -49 52 -49q40 0 75 50zM120 704q0 42 30 72t72 30t72 -30t30 -72t-30 -72t-72 -30t-72 30t-30 72zM170 704q0 -22 15 -37t37 -15t37 15t15 37t-15 37t-37 15t-37 -15t-15 -37z" />
    <glyph glyph-name="ae" unicode="&#xe6;" horiz-adv-x="667" 
d="M272 132v141q-73 -42 -99.5 -73.5t-26.5 -68.5q0 -49 52 -49q41 0 74 50zM384 340h123v28q0 88 -62 88q-61 0 -61 -88v-28zM619 248h-235v-78q0 -88 61 -88q62 0 62 88v12h112q-3 -192 -174 -192q-94 0 -136 70q-79 -70 -149 -70q-63 0 -96 35q-30 31 -30 86q0 86 59 143
q54 53 179 101v32q0 69 -54 69q-36 0 -50 -21q-12 -17 -14 -55h-112q4 80 51 125q44 43 113 43q87 0 129 -50q39 50 119 50q165 0 165 -200v-100z" />
    <glyph glyph-name="ccedilla" unicode="&#xe7;" 
d="M396 354h-112v14q0 88 -62 88t-62 -88v-198q0 -88 62 -88t62 88v34h112v-14q0 -200 -174 -200t-174 200v158q0 200 174 200q171 0 174 -194zM102 -213l17 50q34 -17 65 -17q26 0 42.5 12t16.5 29q0 36 -47 36q-20 0 -36 -7l-22 18l68 92h48l-41 -60q16 2 21 2
q37 -1 62 -20q29 -21 29 -56q0 -46 -36.5 -74t-87.5 -28q-50 0 -99 23z" />
    <glyph glyph-name="egrave" unicode="&#xe8;" 
d="M160 340h124v28q0 86 -62 88q-28 1 -47 -21q-15 -21 -15 -67v-28zM396 348v-100h-236v-78q0 -88 62 -88t62 88v12h112q0 -191 -174 -192t-174 200v158q0 199 174 200t174 -200zM199 573l-83 90h85l50 -90h-52z" />
    <glyph glyph-name="eacute" unicode="&#xe9;" 
d="M160 340h124v28q0 86 -62 88q-28 1 -47 -21q-15 -21 -15 -67v-28zM396 348v-100h-236v-78q0 -88 62 -88t62 88v12h112q0 -191 -174 -192t-174 200v158q0 199 174 200t174 -200zM333 663l-83 -90h-52l50 90h85z" />
    <glyph glyph-name="ecircumflex" unicode="&#xea;" 
d="M160 340h124v28q0 86 -62 88q-28 1 -47 -21q-15 -21 -15 -67v-28zM396 348v-100h-236v-78q0 -88 62 -88t62 88v12h112q0 -191 -174 -192t-174 200v158q0 199 174 200t174 -200zM127 572l61 91h68l61 -91h-58l-37 55l-37 -55h-58z" />
    <glyph glyph-name="edieresis" unicode="&#xeb;" 
d="M160 340h124v28q0 88 -62 88t-62 -88v-28zM396 348v-100h-236v-78q0 -88 62 -88t62 88v12h112q-3 -192 -174 -192q-174 0 -174 200v158q0 200 174 200t174 -200zM355 614h-108v108h108v-108zM89 722h108v-108h-108v108z" />
    <glyph glyph-name="igrave" unicode="&#xec;" horiz-adv-x="200" 
d="M150 0h-101v536h101v-536zM76 573l-83 90h85l50 -90h-52z" />
    <glyph glyph-name="iacute" unicode="&#xed;" horiz-adv-x="200" 
d="M209 664l-83 -90h-52l50 90h85zM150 0h-101v536h101v-536z" />
    <glyph glyph-name="icircumflex" unicode="&#xee;" horiz-adv-x="222" 
d="M167 0h-112v538h112v-538zM-40 602l96 144h110l96 -144h-92l-59 89l-59 -89h-92z" />
    <glyph glyph-name="idieresis" unicode="&#xef;" horiz-adv-x="222" 
d="M167 0h-112v538h112v-538zM244 614h-108v108h108v-108zM-22 722h108v-108h-108v108z" />
    <glyph glyph-name="eth" unicode="&#xf0;" 
d="M284 163v162q0 81 -62 81t-62 -81v-162q0 -81 62 -81t62 81zM386 718l30 -70l-95 -37q75 -133 75 -297v-140q0 -184 -174 -184t-174 184v140q0 184 174 184q9 0 37 -2q-3 33 -29 80l-105 -40l-27 72l93 35q-23 34 -47 55l86 24q25 -18 47 -46z" />
    <glyph glyph-name="ntilde" unicode="&#xf1;" 
d="M166 0h-112v538h106v-54q44 38 61 47q31 17 75 17t69 -30t25 -83v-435h-112v417q0 39 -40 39q-25 0 -72 -34v-422zM329 733v0h56q-23 -118 -103 -118q-24 0 -63.5 19.5t-61.5 19.5q-40 0 -42 -44h-56q23 118 103 118q24 0 65.5 -19.5t59.5 -19.5q40 0 42 44z" />
    <glyph glyph-name="ograve" unicode="&#xf2;" 
d="M284 170v198q0 86 -62 88q-28 1 -47 -21q-15 -21 -15 -67v-198q0 -88 62 -88t62 88zM48 190v158q0 199 174 200t174 -200v-158q0 -199 -174 -200t-174 200zM195 573l-83 90h85l50 -90h-52z" />
    <glyph glyph-name="oacute" unicode="&#xf3;" 
d="M284 170v198q0 86 -62 88q-28 1 -47 -21q-15 -21 -15 -67v-198q0 -88 62 -88t62 88zM48 190v158q0 199 174 200t174 -200v-158q0 -199 -174 -200t-174 200zM331 662l-83 -90h-52l50 90h85z" />
    <glyph glyph-name="ocircumflex" unicode="&#xf4;" 
d="M284 170v198q0 86 -62 88q-28 1 -47 -21q-15 -21 -15 -67v-198q0 -88 62 -88t62 88zM48 190v158q0 199 174 200t174 -200v-158q0 -199 -174 -200t-174 200zM127 572l61 91h68l61 -91h-58l-37 55l-37 -55h-58z" />
    <glyph glyph-name="otilde" unicode="&#xf5;" 
d="M284 170v198q0 86 -62 88q-28 1 -47 -21q-15 -21 -15 -67v-198q0 -88 62 -88t62 88zM48 190v158q0 199 174 200t174 -200v-158q0 -199 -174 -200t-174 200zM290 656h36q-17 -74 -65 -74q-15 0 -32 8q-25 12 -30 14t-16 2q-27 0 -27 -28h-36q16 75 65 75q12 0 22 -3
q2 0 18.5 -8.5t19.5 -9.5q8 -3 18 -3q27 0 27 27z" />
    <glyph glyph-name="odieresis" unicode="&#xf6;" 
d="M284 170v198q0 88 -62 88t-62 -88v-198q0 -88 62 -88t62 88zM48 190v158q0 200 174 200t174 -200v-158q0 -200 -174 -200t-174 200zM355 614h-108v108h108v-108zM89 722h108v-108h-108v108z" />
    <glyph glyph-name="divide" unicode="&#xf7;" horiz-adv-x="600" 
d="M553 204h-506v98h506v-98zM220 460q0 33 23.5 56.5t56.5 23.5t56.5 -23.5t23.5 -56.5t-23.5 -56.5t-56.5 -23.5t-56.5 23.5t-23.5 56.5zM220 46q0 33 23.5 56.5t56.5 23.5t56.5 -23.5t23.5 -56.5t-23.5 -56.5t-56.5 -23.5t-56.5 23.5t-23.5 56.5z" />
    <glyph glyph-name="oslash" unicode="&#xf8;" 
d="M282 353l-98 -259q17 -12 38 -12q62 0 62 88v183h-2zM153 1l-45 -121h-66l58 153q-52 51 -52 157v158q0 200 174 200q38 0 71 -11l41 109h68l-54 -143q48 -51 48 -155v-158q0 -200 -174 -200q-39 0 -69 11zM162 173l100 269q-14 14 -40 14q-62 0 -62 -88v-195h2z" />
    <glyph glyph-name="ugrave" unicode="&#xf9;" 
d="M278 538h112v-538h-106v54q-47 -39 -61 -47q-28 -16 -75 -17t-72 34q-22 30 -22 79v435h112v-417q0 -39 40 -39q21 0 52 20q9 6 20 14v422zM196 573l-83 90h85l50 -90h-52z" />
    <glyph glyph-name="uacute" unicode="&#xfa;" 
d="M278 538h112v-538h-106v54q-47 -39 -61 -47q-28 -16 -75 -17t-72 34q-22 30 -22 79v435h112v-417q0 -39 40 -39q21 0 52 20q9 6 20 14v422zM331 662l-83 -90h-52l50 90h85z" />
    <glyph glyph-name="ucircumflex" unicode="&#xfb;" 
d="M278 538h112v-538h-106v54q-44 -38 -61 -47q-31 -17 -75 -17t-69 30t-25 83v435h112v-417q0 -39 40 -39q25 0 72 34v422zM71 602l96 144h110l96 -144h-92l-59 89l-59 -89h-92z" />
    <glyph glyph-name="udieresis" unicode="&#xfc;" 
d="M278 538h112v-538h-106v54q-44 -38 -61 -47q-31 -17 -75 -17t-69 30t-25 83v435h112v-417q0 -39 40 -39q25 0 72 34v422zM355 614h-108v108h108v-108zM89 722h108v-108h-108v108z" />
    <glyph glyph-name="yacute" unicode="&#xfd;" horiz-adv-x="389" 
d="M266 538h113l-141 -578q-16 -67 -51 -98t-102 -31h-47v92h27q42 0 59 23q14 20 15 64q0 13 -4 37q-2 9 -8 34l-117 457h114l72 -344zM302 662l-83 -90h-52l50 90h85z" />
    <glyph glyph-name="thorn" unicode="&#xfe;" 
d="M54 722h112v-235h2q24 33 49 47t65 14q53 0 83.5 -39t30.5 -111v-258q0 -72 -30.5 -111t-83.5 -39q-33 0 -60 15q-16 8 -56 41v-216h-112v892zM166 428v-318q39 -28 64 -28q54 0 54 87v200q0 87 -54 87q-25 0 -64 -28z" />
    <glyph glyph-name="ydieresis" unicode="&#xff;" horiz-adv-x="389" 
d="M198 194l68 344h113l-141 -578q-18 -72 -53 -100.5t-100 -28.5h-47v92h27q74 0 74 87q0 24 -12 71l-117 457h114l72 -344h2zM328 614h-108v108h108v-108zM62 722h108v-108h-108v108z" />
    <glyph glyph-name="glyph271" unicode="&#x102;" 
d="M172 268h100l-49 310zM154 160l-22 -160h-120l133 722h154l133 -722h-120l-22 160h-136zM287 858h41q0 -45 -28.5 -71.5t-74.5 -27.5t-74.5 26t-28.5 73h41q6 -51 62 -52q54 -1 62 52z" />
    <glyph glyph-name="glyph272" unicode="&#x103;" 
d="M154 380h-112q0 81 49 124t131 44q163 1 163 -146v-345q0 -29 7 -57h-107l-6 42q-64 -52 -131 -52q-113 0 -114 121q-1 95 76 159q51 42 163 85v32q0 69 -55 69q-36 0 -51 -21q-11 -16 -13 -55zM273 132v141q-61 -35 -84 -56q-42 -38 -43 -86t52 -49q34 -1 75 50z
M272 661h37q-7 -87 -93 -89q-83 -1 -93 89h37q6 -45 56 -46q48 -1 56 46z" />
    <glyph glyph-name="Cacute" unicode="&#x106;" horiz-adv-x="711" 
d="M434 481h-124v56q0 87 -60 87q-66 0 -66 -80v-366q0 -80 66 -80q60 0 60 73v87h124v-83q0 -81 -45 -131q-50 -54 -139 -54q-93 0 -144 54q-46 50 -46 131v372q0 81 46 131q51 54 144 54q89 0 139 -58q45 -54 45 -140v-53zM431 1001l-131 -144h-83l79 144h135z" />
    <glyph glyph-name="cacute" unicode="&#x107;" horiz-adv-x="441" 
d="M396 354h-112v14q0 88 -62 88t-62 -88v-198q0 -88 62 -88t62 88v34h112v-14q0 -200 -174 -200t-174 200v158q0 200 174 200q171 0 174 -194zM232 746l-131 -144h-83l79 144h135z" />
    <glyph glyph-name="Ccaron" unicode="&#x10c;" horiz-adv-x="711" 
d="M434 481h-124v56q0 87 -60 87q-66 0 -66 -80v-366q0 -80 66 -80q60 0 60 73v87h124v-83q0 -81 -45 -131q-50 -54 -139 -54q-93 0 -144 54q-46 50 -46 131v372q0 81 46 131q51 54 144 54q89 0 139 -58q45 -54 45 -140v-53zM439 1001l-96 -144h-110l-96 144h92l59 -89
l59 89h92z" />
    <glyph glyph-name="ccaron" unicode="&#x10d;" horiz-adv-x="441" 
d="M396 354h-112v14q0 88 -62 88t-62 -88v-198q0 -88 62 -88t62 88v34h112v-14q0 -200 -174 -200t-174 200v158q0 200 174 200q171 0 174 -194zM240 746l-96 -144h-110l-96 144h92l59 -89l59 89h92z" />
    <glyph glyph-name="Dslash" unicode="&#x110;" horiz-adv-x="500" 
d="M20 320v108h40v294h184q196 0 196 -218v-286q0 -218 -196 -218h-184v320h-40zM258 428v-108h-74v-218h43q51 0 71 26q18 22 18 75v316q0 54 -17 76q-20 25 -72 25h-43v-192h74z" />
    <glyph glyph-name="dcroat" unicode="&#x111;" 
d="M278 110v318q-33 25 -64 28q-54 0 -54 -87v-200q0 -87 54 -87q28 0 64 28zM390 634h43v-54h-43v-580h-106v56q-55 -66 -122 -66q-114 0 -114 150v258q0 150 114 150q35 0 60 -14q9 -5 56 -42v88h-111v54h111v88h112v-88z" />
    <glyph glyph-name="Gbreve" unicode="&#x11e;" horiz-adv-x="767" 
d="M231 268v98h203v-366h-60l-23 54q-29 -35 -55 -48q-28 -16 -70 -16q-74 0 -120 50t-46 135v372q0 81 45 131q49 54 137 54q89 0 140 -58q46 -54 46 -140v-46h-118q0 78 -17 109q-16 27 -54 27q-55 0 -55 -79v-371q0 -76 58 -76q37 0 52.5 23t15.5 77v70h-79zM396 1004h58
q-5 -62 -39 -99q-39 -43 -108 -43t-108 43q-34 37 -39 99h58q9 -74 89 -74t89 74z" />
    <glyph glyph-name="gbreve" unicode="&#x11f;" horiz-adv-x="492" 
d="M426 548v-93q-6 1 -18 1q-33 0 -54 -17q12 -42 12 -85q0 -119 -40.5 -167.5t-129.5 -48.5h-36q-22 -5 -22 -25q0 -27 75 -30q105 -5 138 -17q75 -26 75 -108q0 -128 -230 -128q-178 0 -178 86q0 30 21.5 53.5t51.5 30.5v2q-51 20 -51 68t68 87q-44 30 -57 64
q-15 38 -15 129q0 110 39.5 154t134.5 44q74 0 124 -58q24 35 41 46.5t51 11.5zM231 -90q55 0 75 9t20 31t-20 31t-75 9t-75 -9t-20 -31t20 -31t75 -9zM198 230q33 0 44.5 22.5t11.5 90.5t-11.5 90.5t-44.5 22.5q-29 0 -41 -22q-15 -26 -15 -91t15 -91q12 -22 41 -22z
M196 749h58q-5 -62 -39 -99q-39 -43 -108 -43t-108 43q-34 37 -39 99h58q9 -74 89 -74t89 74z" />
    <glyph glyph-name="glyph273" unicode="&#x128;" horiz-adv-x="278" 
d="M201 0h-124v722h124v-722zM215 851h39q-13 -80 -72 -82q-17 -1 -45 13t-42 14q-30 0 -30 -31h-39q14 83 72 83q19 0 45 -14q35 -13 42 -13q30 0 30 30z" />
    <glyph glyph-name="glyph274" unicode="&#x129;" horiz-adv-x="200" 
d="M167 656h36q-17 -74 -65 -74q-15 0 -32 8q-25 12 -30 14t-16 2q-27 0 -27 -28h-36q16 75 65 75q12 0 22 -3q2 0 18.5 -8.5t19.5 -9.5q8 -3 18 -3q27 0 27 27zM150 0h-101v536h101v-536z" />
    <glyph glyph-name="Idotaccent" unicode="&#x130;" horiz-adv-x="429" 
d="M201 0h-124v722h124v-722zM84 977h108v-108h-108v108z" />
    <glyph glyph-name="dotlessi" unicode="&#x131;" horiz-adv-x="222" 
d="M167 0h-112v538h112v-538z" />
    <glyph glyph-name="Lslash" unicode="&#x141;" horiz-adv-x="389" 
d="M178 339v-231h195v-108h-319v290l-54 -22v82l54 22v350h124v-301l116 47v-82z" />
    <glyph glyph-name="lslash" unicode="&#x142;" horiz-adv-x="222" 
d="M167 390v-390h-112v333l-70 -36v74l70 36v315h112v-258l70 36v-74z" />
    <glyph glyph-name="OE" unicode="&#x152;" horiz-adv-x="722" 
d="M330 185v355q0 75 -69 75q-77 0 -77 -95v-315q0 -95 77 -95q69 0 69 75zM684 0h-414q-210 0 -210 220v282q0 220 210 220h400v-108h-216v-186h168v-108h-168v-212h230v-108z" />
    <glyph glyph-name="oe" unicode="&#x153;" horiz-adv-x="667" 
d="M278 170v198q0 88 -56 88q-62 0 -62 -88v-198q0 -88 62 -88q56 0 56 88zM390 340h117v28q0 88 -62 88q-55 0 -55 -88v-28zM619 248h-229v-78q0 -88 55 -88q62 0 62 88v12h112q-3 -192 -162 -192q-86 0 -121 62q-33 -62 -126 -62q-162 0 -162 200v158q0 200 162 200
q97 0 128 -61q36 61 119 61q162 0 162 -200v-100z" />
    <glyph glyph-name="Scedilla" unicode="&#x15e;" horiz-adv-x="656" 
d="M404 557l-118 -13q-6 80 -66 80q-62 0 -62 -71q0 -49 65 -109q61 -56 122 -111q65 -74 65 -158q0 -88 -53.5 -136.5t-142.5 -48.5q-83 0 -134 60q-48 55 -52 140l118 17q7 -109 74 -109q72 0 72 66q0 58 -65 118q-61 55 -122 109q-65 73 -65 161q0 86 50 133t142 47
q74 0 120 -49q43 -47 52 -126zM30 -213l17 50q34 -17 65 -17q26 0 42.5 12t16.5 29q0 36 -47 36q-20 0 -36 -7l-22 18l68 92h48l-41 -60q16 2 21 2q37 -1 62 -20q29 -21 29 -56q0 -46 -36.5 -74t-87.5 -28q-50 0 -99 23z" />
    <glyph glyph-name="scedilla" unicode="&#x15f;" horiz-adv-x="383" 
d="M353 405l-95 -16q-12 67 -64 67q-49 0 -49 -43q0 -33 54 -74q88 -66 102 -79q54 -56 54 -125q0 -70 -43 -107.5t-114 -37.5q-144 0 -171 150l98 27q13 -85 74 -85q50 0 50 47q0 37 -54 80q-51 39 -102 79q-54 53 -54 116t43 103.5t107 40.5t109 -40q42 -38 55 -103z
M-67 -213l17 50q34 -17 65 -17q26 0 42.5 12t16.5 29q0 36 -47 36q-20 0 -36 -7l-22 18l68 92h48l-41 -60q16 2 21 2q37 -1 62 -20q29 -21 29 -56q0 -46 -36.5 -74t-87.5 -28q-50 0 -99 23z" />
    <glyph glyph-name="Scaron" unicode="&#x160;" 
d="M404 557l-118 -13q-6 80 -66 80q-62 0 -62 -71q0 -49 65 -109q61 -56 122 -111q65 -74 65 -158q0 -88 -53.5 -136.5t-142.5 -48.5q-83 0 -134 60q-48 55 -52 140l118 17q7 -109 74 -109q72 0 72 66q0 58 -65 118q-61 55 -122 109q-65 73 -65 161q0 86 50 133t142 47
q74 0 120 -49q43 -47 52 -126zM373 904l-96 -144h-110l-96 144h92l59 -89l59 89h92z" />
    <glyph glyph-name="scaron" unicode="&#x161;" horiz-adv-x="389" 
d="M353 405l-95 -16q-12 67 -64 67q-49 0 -49 -43q0 -33 54 -74q88 -66 102 -79q54 -56 54 -125q0 -70 -43 -107.5t-114 -37.5q-144 0 -171 150l98 27q13 -85 74 -85q50 0 50 47q0 37 -54 80q-51 39 -102 79q-54 53 -54 116t43 103.5t107 40.5t109 -40q42 -38 55 -103z
M346 746l-96 -144h-110l-96 144h92l59 -89l59 89h92z" />
    <glyph glyph-name="ch903" unicode="&#x168;" horiz-adv-x="500" 
d="M60 182v540h124v-545q0 -78 66 -79t66 79v545h124v-540q0 -92 -49 -141.5t-141 -50.5t-141 49.5t-49 142.5zM325 851h39q-13 -80 -72 -82q-17 -1 -45 13t-42 14q-30 0 -30 -31h-39q14 83 72 83q19 0 45 -14q35 -13 42 -13q30 0 30 30z" />
    <glyph glyph-name="ch904" unicode="&#x169;" 
d="M278 538h112v-538h-106v54q-47 -39 -61 -47q-28 -16 -75 -17t-72 34q-22 30 -22 79v435h112v-417q0 -39 40 -39q21 0 52 20q9 6 20 14v422zM290 656h36q-17 -74 -65 -74q-15 0 -32 8q-25 12 -30 14t-16 2q-27 0 -27 -28h-36q16 75 65 75q12 0 22 -3q2 0 18.5 -8.5
t19.5 -9.5q8 -3 18 -3q27 0 27 27z" />
    <glyph glyph-name="Ydieresis" unicode="&#x178;" 
d="M284 300v-300h-124v300l-150 422h126l87 -275h2l83 275h126zM355 772h-108v108h108v-108zM89 880h108v-108h-108v108z" />
    <glyph glyph-name="Zcaron" unicode="&#x17d;" 
d="M275 614h-203v108h328v-118l-228 -496h228v-108h-356v118zM373 904l-96 -144h-110l-96 144h92l59 -89l59 89h92z" />
    <glyph glyph-name="zcaron" unicode="&#x17e;" horiz-adv-x="389" 
d="M235 446h-191v92h315v-92l-209 -354h209v-92h-329v92zM346 746l-96 -144h-110l-96 144h92l59 -89l59 89h92z" />
    <glyph glyph-name="florin" unicode="&#x192;" 
d="M34 -165v92q10 -5 29 -5q36 0 53.5 31.5t28.5 127.5q8 74 22 281h-93v84h100q16 286 189 286q7 0 47 -5v-94q-23 13 -51 13q-74 0 -79 -200h102v-84h-106q-17 -288 -50 -393q-44 -139 -153 -139q-19 0 -39 5z" />
    <glyph glyph-name="glyph277" unicode="&#x1a0;" horiz-adv-x="500" 
d="M184 544v-366q0 -41 12 -58q15 -21 54 -22q66 -1 66 80v366q0 40 -14 59.5t-52 20.5q-39 1 -54 -21q-12 -18 -12 -59zM372 697l18 44h-23v59h59v-59l-34 -62q48 -49 48 -132v-372q0 -87 -51 -136t-139 -49t-139 48.5t-51 136.5v372q0 87 51 136t139 49q75 0 122 -35z" />
    <glyph glyph-name="glyph278" unicode="&#x1a1;" 
d="M284 170v198q0 86 -62 88q-28 1 -47 -21q-15 -21 -15 -67v-198q0 -88 62 -88t62 88zM338 512l14 35h-21v53h53v-53l-29 -53q41 -47 41 -146v-158q0 -199 -174 -200t-174 200v158q0 198 174 200q72 1 116 -36z" />
    <glyph glyph-name="glyph279" unicode="&#x1af;" horiz-adv-x="500" 
d="M440 182q-1 -190 -190 -192q-92 -1 -141 49.5t-49 142.5v540h124v-545q0 -78 66 -79t66 79v545h116l8 19h-23v59h59v-59l-34 -62z" />
    <glyph glyph-name="glyph280" unicode="&#x1b0;" 
d="M390 493v-493h-106v54q-47 -39 -61 -47q-28 -16 -75 -17t-72 34q-22 30 -22 79v435h112v-417q0 -39 40 -39q21 0 52 20q9 6 20 14v422h105l4 9h-21v53h53v-53z" />
    <glyph glyph-name="circumflex" unicode="&#x2c6;" horiz-adv-x="222" 
d="M-40 602l96 144h110l96 -144h-92l-59 89l-59 -89h-92z" />
    <glyph glyph-name="caron" unicode="&#x2c7;" horiz-adv-x="222" 
d="M262 746l-96 -144h-110l-96 144h92l59 -89l59 89h92z" />
    <glyph glyph-name="breve" unicode="&#x2d8;" horiz-adv-x="222" 
d="M200 749h58q-5 -62 -39 -99q-39 -43 -108 -43t-108 43q-34 37 -39 99h58q9 -74 89 -74t89 74z" />
    <glyph glyph-name="dotaccent" unicode="&#x2d9;" horiz-adv-x="222" 
d="M57 722h108v-108h-108v108z" />
    <glyph glyph-name="ring" unicode="&#x2da;" horiz-adv-x="222" 
d="M9 704q0 42 30 72t72 30t72 -30t30 -72t-30 -72t-72 -30t-72 30t-30 72zM59 704q0 -22 15 -37t37 -15t37 15t15 37t-15 37t-37 15t-37 -15t-15 -37z" />
    <glyph glyph-name="ogonek" unicode="&#x2db;" horiz-adv-x="222" 
d="M243 21v-12q-133 -53 -133 -125q0 -47 49 -47q34 0 90 40l19 -36q-84 -60 -142 -60q-42 0 -70 24.5t-28 67.5q0 111 215 148z" />
    <glyph glyph-name="tilde" unicode="&#x2dc;" horiz-adv-x="222" 
d="M218 733v0h56q-23 -118 -103 -118q-24 0 -63.5 19.5t-61.5 19.5q-40 0 -42 -44h-56q23 118 103 118q24 0 65.5 -19.5t59.5 -19.5q40 0 42 44z" />
    <glyph glyph-name="hungarumlaut" unicode="&#x2dd;" horiz-adv-x="222" 
d="M158 746l-125 -144h-79l69 144h135zM334 746l-131 -144h-83l79 144h135z" />
    <glyph glyph-name="Delta" unicode="&#x394;" horiz-adv-x="1000" 
 />
    <glyph glyph-name="Delta" unicode="&#x2206;" horiz-adv-x="1000" 
 />
    <glyph glyph-name="Omega" unicode="&#x3a9;" horiz-adv-x="1000" 
 />
    <glyph glyph-name="Omega" unicode="&#x2126;" horiz-adv-x="1000" 
 />
    <glyph glyph-name="pi" unicode="&#x3c0;" horiz-adv-x="1000" 
 />
    <glyph glyph-name="glyph281" unicode="&#x1ea0;" 
d="M172 268h100l-49 310zM154 160l-22 -160h-120l133 722h154l133 -722h-120l-22 160h-136zM186 -27h76v-76h-76v76z" />
    <glyph glyph-name="glyph282" unicode="&#x1ea1;" 
d="M154 380h-112q0 81 49 124t131 44q163 1 163 -146v-345q0 -29 7 -57h-107l-6 42q-64 -52 -131 -52q-113 0 -114 121q-1 95 76 159q51 42 163 85v32q0 69 -55 69q-36 0 -51 -21q-11 -16 -13 -55zM273 132v141q-61 -35 -84 -56q-42 -38 -43 -86t52 -49q34 -1 75 50z
M180 -32h68v-68h-68v68z" />
    <glyph glyph-name="glyph283" unicode="&#x1ea2;" 
d="M172 268h100l-49 310zM154 160l-22 -160h-120l133 722h154l133 -722h-120l-22 160h-136zM201 760v13q0 32 21 72q23 44 26 63q0 19 -19 20q-16 1 -25 -15q-3 -7 -6 -19l-44 16q19 59 81 59q25 0 44.5 -17.5t20.5 -42.5q1 -23 -8 -40q-3 -9 -20 -29q-25 -35 -28 -80h-43z
" />
    <glyph glyph-name="glyph284" unicode="&#x1ea3;" 
d="M154 380h-112q0 81 49 124t131 44q163 1 163 -146v-345q0 -29 7 -57h-107l-6 42q-64 -52 -131 -52q-113 0 -114 121q-1 95 76 159q51 42 163 85v32q0 69 -55 69q-36 0 -51 -21q-11 -16 -13 -55zM273 132v141q-61 -35 -84 -56q-42 -38 -43 -86t52 -49q34 -1 75 50z
M195 572v11q0 29 21 70q4 8 14 27q5 13 7 25q0 18 -17 18t-28 -31l-39 14q18 54 72 54q23 0 41 -16t18 -38q0 -23 -7 -36q-13 -18 -35 -55q-9 -19 -9 -43h-38z" />
    <glyph glyph-name="glyph285" unicode="&#x1ea4;" 
d="M172 268h100l-49 310zM154 160l-22 -160h-120l133 722h154l133 -722h-120l-22 160h-136zM117 759l68 101h76l68 -101h-65l-41 62l-41 -62h-65zM475 922l-92 -100h-58l56 100h94z" />
    <glyph glyph-name="glyph286" unicode="&#x1ea5;" 
d="M154 380h-112q0 81 49 124t131 44q163 1 163 -146v-345q0 -29 7 -57h-107l-6 42q-64 -52 -131 -52q-113 0 -114 121q-1 95 76 159q51 42 163 85v32q0 69 -55 69q-36 0 -51 -21q-11 -16 -13 -55zM273 132v141q-61 -35 -84 -56q-42 -38 -43 -86t52 -49q34 -1 75 50z
M118 572l61 91h68l61 -91h-58l-37 55l-37 -55h-58zM436 718l-83 -90h-52l50 90h85z" />
    <glyph glyph-name="glyph287" unicode="&#x1ea6;" 
d="M172 268h100l-49 310zM154 160l-22 -160h-120l133 722h154l133 -722h-120l-22 160h-136zM117 759l68 101h76l68 -101h-65l-41 62l-41 -62h-65zM68 822l-92 100h94l56 -100h-58z" />
    <glyph glyph-name="glyph288" unicode="&#x1ea7;" 
d="M154 380h-112q0 81 49 124t131 44q163 1 163 -146v-345q0 -29 7 -57h-107l-6 42q-64 -52 -131 -52q-113 0 -114 121q-1 95 76 159q51 42 163 85v32q0 69 -55 69q-36 0 -51 -21q-11 -16 -13 -55zM273 132v141q-61 -35 -84 -56q-42 -38 -43 -86t52 -49q34 -1 75 50z
M118 572l61 91h68l61 -91h-58l-37 55l-37 -55h-58zM74 627l-83 90h85l50 -90h-52z" />
    <glyph glyph-name="glyph289" unicode="&#x1ea8;" 
d="M172 268h100l-49 310zM154 160l-22 -160h-120l133 722h154l133 -722h-120l-22 160h-136zM117 759l68 101h76l68 -101h-65l-41 62l-41 -62h-65zM335 800v13q0 32 21 72q23 44 26 63q0 19 -19 20q-16 1 -25 -15q-3 -7 -6 -19l-44 16q19 59 81 59q25 0 44.5 -17.5
t20.5 -42.5q1 -23 -8 -40q-3 -9 -20 -29q-25 -35 -28 -80h-43z" />
    <glyph glyph-name="glyph290" unicode="&#x1ea9;" 
d="M154 380h-112q0 81 49 124t131 44q163 1 163 -146v-345q0 -29 7 -57h-107l-6 42q-64 -52 -131 -52q-113 0 -114 121q-1 95 76 159q51 42 163 85v32q0 69 -55 69q-36 0 -51 -21q-11 -16 -13 -55zM273 132v141q-61 -35 -84 -56q-42 -38 -43 -86t52 -49q34 -1 75 50z
M118 572l61 91h68l61 -91h-58l-37 55l-37 -55h-58zM308 609v11q0 29 21 70q4 8 14 27q5 13 7 25q0 18 -17 18t-28 -31l-39 14q18 54 72 54q23 0 41 -16t18 -38q0 -23 -7 -36q-13 -18 -35 -55q-9 -19 -9 -43h-38z" />
    <glyph glyph-name="glyph291" unicode="&#x1eaa;" 
d="M172 268h100l-49 310zM154 160l-22 -160h-120l133 722h154l133 -722h-120l-22 160h-136zM117 759l68 101h76l68 -101h-65l-41 62l-41 -62h-65zM301 961h39q-13 -80 -72 -82q-17 -1 -45 13t-42 14q-30 0 -30 -31h-39q14 83 72 83q19 0 45 -14q35 -13 42 -13q30 0 30 30z
" />
    <glyph glyph-name="glyph292" unicode="&#x1eab;" 
d="M154 380h-112q0 81 49 124t131 44q163 1 163 -146v-345q0 -29 7 -57h-107l-6 42q-64 -52 -131 -52q-113 0 -114 121q-1 95 76 159q51 42 163 85v32q0 69 -55 69q-36 0 -51 -21q-11 -16 -13 -55zM273 132v141q-61 -35 -84 -56q-42 -38 -43 -86t52 -49q34 -1 75 50z
M118 572l61 91h68l61 -91h-58l-37 55l-37 -55h-58zM280 753h36q-17 -74 -65 -74q-15 0 -32 8q-25 12 -30 14t-16 2q-27 0 -27 -28h-36q16 75 65 75q12 0 22 -3q2 0 18.5 -8.5t19.5 -9.5q8 -3 18 -3q27 0 27 27z" />
    <glyph glyph-name="glyph293" unicode="&#x1eac;" 
d="M172 268h100l-49 310zM154 160l-22 -160h-120l133 722h154l133 -722h-120l-22 160h-136zM117 759l68 101h76l68 -101h-65l-41 62l-41 -62h-65zM186 -27h76v-76h-76v76z" />
    <glyph glyph-name="glyph294" unicode="&#x1ead;" 
d="M154 380h-112q0 81 49 124t131 44q163 1 163 -146v-345q0 -29 7 -57h-107l-6 42q-64 -52 -131 -52q-113 0 -114 121q-1 95 76 159q51 42 163 85v32q0 69 -55 69q-36 0 -51 -21q-11 -16 -13 -55zM273 132v141q-61 -35 -84 -56q-42 -38 -43 -86t52 -49q34 -1 75 50z
M118 572l61 91h68l61 -91h-58l-37 55l-37 -55h-58zM180 -32h68v-68h-68v68z" />
    <glyph glyph-name="glyph295" unicode="&#x1eae;" 
d="M172 268h100l-49 310zM154 160l-22 -160h-120l133 722h154l133 -722h-120l-22 160h-136zM287 858h41q0 -45 -28.5 -71.5t-74.5 -27.5t-74.5 26t-28.5 73h41q6 -51 62 -52q54 -1 62 52zM345 964l-92 -100h-58l56 100h94z" />
    <glyph glyph-name="glyph296" unicode="&#x1eaf;" 
d="M154 380h-112q0 81 49 124t131 44q163 1 163 -146v-345q0 -29 7 -57h-107l-6 42q-64 -52 -131 -52q-113 0 -114 121q-1 95 76 159q51 42 163 85v32q0 69 -55 69q-36 0 -51 -21q-11 -16 -13 -55zM273 132v141q-61 -35 -84 -56q-42 -38 -43 -86t52 -49q34 -1 75 50z
M272 661h37q-7 -87 -93 -89q-83 -1 -93 89h37q6 -45 56 -46q48 -1 56 46zM323 756l-83 -90h-52l50 90h85z" />
    <glyph glyph-name="glyph297" unicode="&#x1eb0;" 
d="M172 268h100l-49 310zM154 160l-22 -160h-120l133 722h154l133 -722h-120l-22 160h-136zM287 858h41q0 -45 -28.5 -71.5t-74.5 -27.5t-74.5 26t-28.5 73h41q6 -51 62 -52q54 -1 62 52zM196 863l-92 100h94l56 -100h-58z" />
    <glyph glyph-name="glyph298" unicode="&#x1eb1;" 
d="M154 380h-112q0 81 49 124t131 44q163 1 163 -146v-345q0 -29 7 -57h-107l-6 42q-64 -52 -131 -52q-113 0 -114 121q-1 95 76 159q51 42 163 85v32q0 69 -55 69q-36 0 -51 -21q-11 -16 -13 -55zM273 132v141q-61 -35 -84 -56q-42 -38 -43 -86t52 -49q34 -1 75 50z
M272 661h37q-7 -87 -93 -89q-83 -1 -93 89h37q6 -45 56 -46q48 -1 56 46zM188 665l-83 90h85l50 -90h-52z" />
    <glyph glyph-name="glyph299" unicode="&#x1eb2;" 
d="M172 268h100l-49 310zM154 160l-22 -160h-120l133 722h154l133 -722h-120l-22 160h-136zM287 858h41q0 -45 -28.5 -71.5t-74.5 -27.5t-74.5 26t-28.5 73h41q6 -51 62 -52q54 -1 62 52zM201 858v13q0 32 21 72q23 44 26 63q0 19 -19 20q-16 1 -25 -15q-3 -7 -6 -19l-44 16
q19 59 81 59q25 0 44.5 -17.5t20.5 -42.5q1 -23 -8 -40q-3 -9 -20 -29q-25 -35 -28 -80h-43z" />
    <glyph glyph-name="glyph300" unicode="&#x1eb3;" 
d="M154 380h-112q0 81 49 124t131 44q163 1 163 -146v-345q0 -29 7 -57h-107l-6 42q-64 -52 -131 -52q-113 0 -114 121q-1 95 76 159q51 42 163 85v32q0 69 -55 69q-36 0 -51 -21q-11 -16 -13 -55zM273 132v141q-61 -35 -84 -56q-42 -38 -43 -86t52 -49q34 -1 75 50z
M272 661h37q-7 -87 -93 -89q-83 -1 -93 89h37q6 -45 56 -46q48 -1 56 46zM195 665v11q0 29 21 70q4 8 14 27q5 13 7 25q0 18 -17 18t-28 -31l-39 14q18 54 72 54q23 0 41 -16t18 -38q0 -23 -7 -36q-13 -18 -35 -55q-9 -19 -9 -43h-38z" />
    <glyph glyph-name="glyph301" unicode="&#x1eb4;" 
d="M172 268h100l-49 310zM154 160l-22 -160h-120l133 722h154l133 -722h-120l-22 160h-136zM287 858h41q0 -45 -28.5 -71.5t-74.5 -27.5t-74.5 26t-28.5 73h41q6 -51 62 -52q54 -1 62 52zM394 953h39q-13 -80 -72 -82q-17 -1 -45 13t-42 14q-30 0 -30 -31h-39q14 83 72 83
q19 0 45 -14q35 -13 42 -13q30 0 30 30z" />
    <glyph glyph-name="glyph302" unicode="&#x1eb5;" 
d="M154 380h-112q0 81 49 124t131 44q163 1 163 -146v-345q0 -29 7 -57h-107l-6 42q-64 -52 -131 -52q-113 0 -114 121q-1 95 76 159q51 42 163 85v32q0 69 -55 69q-36 0 -51 -21q-11 -16 -13 -55zM273 132v141q-61 -35 -84 -56q-42 -38 -43 -86t52 -49q34 -1 75 50z
M272 661h37q-7 -87 -93 -89q-83 -1 -93 89h37q6 -45 56 -46q48 -1 56 46zM366 744h36q-17 -74 -65 -74q-15 0 -32 8q-25 12 -30 14t-16 2q-27 0 -27 -28h-36q16 75 65 75q12 0 22 -3q2 0 18.5 -8.5t19.5 -9.5q8 -3 18 -3q27 0 27 27z" />
    <glyph glyph-name="glyph303" unicode="&#x1eb6;" 
d="M172 268h100l-49 310zM154 160l-22 -160h-120l133 722h154l133 -722h-120l-22 160h-136zM287 858h41q0 -45 -28.5 -71.5t-74.5 -27.5t-74.5 26t-28.5 73h41q6 -51 62 -52q54 -1 62 52zM186 -27h76v-76h-76v76z" />
    <glyph glyph-name="glyph304" unicode="&#x1eb7;" 
d="M154 380h-112q0 81 49 124t131 44q163 1 163 -146v-345q0 -29 7 -57h-107l-6 42q-64 -52 -131 -52q-113 0 -114 121q-1 95 76 159q51 42 163 85v32q0 69 -55 69q-36 0 -51 -21q-11 -16 -13 -55zM273 132v141q-61 -35 -84 -56q-42 -38 -43 -86t52 -49q34 -1 75 50z
M272 661h37q-7 -87 -93 -89q-83 -1 -93 89h37q6 -45 56 -46q48 -1 56 46zM180 -32h68v-68h-68v68z" />
    <glyph glyph-name="glyph305" unicode="&#x1eb8;" 
d="M406 0h-346v722h332v-108h-208v-186h160v-108h-160v-212h222v-108zM188 -39h76v-76h-76v76z" />
    <glyph glyph-name="glyph306" unicode="&#x1eb9;" 
d="M160 340h124v28q0 86 -62 88q-28 1 -47 -21q-15 -21 -15 -67v-28zM396 348v-100h-236v-78q0 -88 62 -88t62 88v12h112q0 -191 -174 -192t-174 200v158q0 199 174 200t174 -200zM190 -43h68v-68h-68v68z" />
    <glyph glyph-name="glyph307" unicode="&#x1eba;" 
d="M406 0h-346v722h332v-108h-208v-186h160v-108h-160v-212h222v-108zM206 760v13q0 32 21 72q23 44 26 63q0 19 -19 20q-16 1 -25 -15q-3 -7 -6 -19l-44 16q19 59 81 59q25 0 44.5 -17.5t20.5 -42.5q1 -23 -8 -40q-3 -9 -20 -29q-25 -35 -28 -80h-43z" />
    <glyph glyph-name="glyph308" unicode="&#x1ebb;" 
d="M160 340h124v28q0 86 -62 88q-28 1 -47 -21q-15 -21 -15 -67v-28zM396 348v-100h-236v-78q0 -88 62 -88t62 88v12h112q0 -191 -174 -192t-174 200v158q0 199 174 200t174 -200zM205 572v11q0 29 21 70q4 8 14 27q5 13 7 25q0 18 -17 18t-28 -31l-39 14q18 54 72 54
q23 0 41 -16t18 -38q0 -23 -7 -36q-13 -18 -35 -55q-9 -19 -9 -43h-38z" />
    <glyph glyph-name="glyph309" unicode="&#x1ebc;" 
d="M406 0h-346v722h332v-108h-208v-186h160v-108h-160v-212h222v-108zM303 851h39q-13 -80 -72 -82q-17 -1 -45 13t-42 14q-30 0 -30 -31h-39q14 83 72 83q19 0 45 -14q35 -13 42 -13q30 0 30 30z" />
    <glyph glyph-name="glyph310" unicode="&#x1ebd;" 
d="M160 340h124v28q0 86 -62 88q-28 1 -47 -21q-15 -21 -15 -67v-28zM396 348v-100h-236v-78q0 -88 62 -88t62 88v12h112q0 -191 -174 -192t-174 200v158q0 199 174 200t174 -200zM290 656h36q-17 -74 -65 -74q-15 0 -32 8q-25 12 -30 14t-16 2q-27 0 -27 -28h-36
q16 75 65 75q12 0 22 -3q2 0 18.5 -8.5t19.5 -9.5q8 -3 18 -3q27 0 27 27z" />
    <glyph glyph-name="glyph311" unicode="&#x1ebe;" 
d="M406 0h-346v722h332v-108h-208v-186h160v-108h-160v-212h222v-108zM120 766l68 101h76l68 -101h-65l-41 62l-41 -62h-65zM477 922l-92 -100h-58l56 100h94z" />
    <glyph glyph-name="glyph312" unicode="&#x1ebf;" 
d="M160 340h124v28q0 86 -62 88q-28 1 -47 -21q-15 -21 -15 -67v-28zM396 348v-100h-236v-78q0 -88 62 -88t62 88v12h112q0 -191 -174 -192t-174 200v158q0 199 174 200t174 -200zM128 572l61 91h68l61 -91h-58l-37 55l-37 -55h-58zM444 718l-83 -90h-52l50 90h85z" />
    <glyph glyph-name="glyph313" unicode="&#x1ec0;" 
d="M406 0h-346v722h332v-108h-208v-186h160v-108h-160v-212h222v-108zM120 766l68 101h76l68 -101h-65l-41 62l-41 -62h-65zM70 822l-92 100h94l56 -100h-58z" />
    <glyph glyph-name="glyph314" unicode="&#x1ec1;" 
d="M160 340h124v28q0 86 -62 88q-28 1 -47 -21q-15 -21 -15 -67v-28zM396 348v-100h-236v-78q0 -88 62 -88t62 88v12h112q0 -191 -174 -192t-174 200v158q0 199 174 200t174 -200zM128 572l61 91h68l61 -91h-58l-37 55l-37 -55h-58zM84 627l-83 90h85l50 -90h-52z" />
    <glyph glyph-name="glyph315" unicode="&#x1ec2;" 
d="M406 0h-346v722h332v-108h-208v-186h160v-108h-160v-212h222v-108zM120 766l68 101h76l68 -101h-65l-41 62l-41 -62h-65zM336 800v13q0 32 21 72q23 44 26 63q0 19 -19 20q-16 1 -25 -15q-3 -7 -6 -19l-44 16q19 59 81 59q25 0 44.5 -17.5t20.5 -42.5q1 -23 -8 -40
q-3 -9 -20 -29q-25 -35 -28 -80h-43z" />
    <glyph glyph-name="glyph316" unicode="&#x1ec3;" 
d="M160 340h124v28q0 86 -62 88q-28 1 -47 -21q-15 -21 -15 -67v-28zM396 348v-100h-236v-78q0 -88 62 -88t62 88v12h112q0 -191 -174 -192t-174 200v158q0 199 174 200t174 -200zM127 572l61 91h68l61 -91h-58l-37 55l-37 -55h-58zM316 608v11q0 29 21 70q4 8 14 27
q5 13 7 25q0 18 -17 18t-28 -31l-39 14q18 54 72 54q23 0 41 -16t18 -38q0 -23 -7 -36q-13 -18 -35 -55q-9 -19 -9 -43h-38z" />
    <glyph glyph-name="glyph317" unicode="&#x1ec4;" 
d="M406 0h-346v722h332v-108h-208v-186h160v-108h-160v-212h222v-108zM121 766l68 101h76l68 -101h-65l-41 62l-41 -62h-65zM303 961h39q-13 -80 -72 -82q-17 -1 -45 13t-42 14q-30 0 -30 -31h-39q14 83 72 83q19 0 45 -14q35 -13 42 -13q30 0 30 30z" />
    <glyph glyph-name="glyph318" unicode="&#x1ec5;" 
d="M160 340h124v28q0 86 -62 88q-28 1 -47 -21q-15 -21 -15 -67v-28zM396 348v-100h-236v-78q0 -88 62 -88t62 88v12h112q0 -191 -174 -192t-174 200v158q0 199 174 200t174 -200zM127 572l61 91h68l61 -91h-58l-37 55l-37 -55h-58zM290 753h36q-17 -74 -65 -74q-15 0 -32 8
q-25 12 -30 14t-16 2q-27 0 -27 -28h-36q16 75 65 75q12 0 22 -3q2 0 18.5 -8.5t19.5 -9.5q8 -3 18 -3q27 0 27 27z" />
    <glyph glyph-name="glyph319" unicode="&#x1ec6;" 
d="M406 0h-346v722h332v-108h-208v-186h160v-108h-160v-212h222v-108zM121 766l68 101h76l68 -101h-65l-41 62l-41 -62h-65zM188 -39h76v-76h-76v76z" />
    <glyph glyph-name="glyph320" unicode="&#x1ec7;" 
d="M160 340h124v28q0 86 -62 88q-28 1 -47 -21q-15 -21 -15 -67v-28zM396 348v-100h-236v-78q0 -88 62 -88t62 88v12h112q0 -191 -174 -192t-174 200v158q0 199 174 200t174 -200zM127 572l61 91h68l61 -91h-58l-37 55l-37 -55h-58zM190 -43h68v-68h-68v68z" />
    <glyph glyph-name="glyph321" unicode="&#x1ec8;" horiz-adv-x="278" 
d="M201 0h-124v722h124v-722zM121 762v13q0 32 21 72q23 44 26 63q0 19 -19 20q-16 1 -25 -15q-3 -7 -6 -19l-44 16q19 59 81 59q25 0 44.5 -17.5t20.5 -42.5q1 -23 -8 -40q-3 -9 -20 -29q-25 -35 -28 -80h-43z" />
    <glyph glyph-name="glyph322" unicode="&#x1ec9;" horiz-adv-x="200" 
d="M82 572v11q0 29 21 70q4 8 14 27q5 13 7 25q0 18 -17 18t-28 -31l-39 14q18 54 72 54q23 0 41 -16t18 -38q0 -23 -7 -36q-13 -18 -35 -55q-9 -19 -9 -43h-38zM150 0h-101v536h101v-536z" />
    <glyph glyph-name="glyph323" unicode="&#x1eca;" horiz-adv-x="278" 
d="M201 0h-124v722h124v-722zM104 -40h76v-76h-76v76z" />
    <glyph glyph-name="glyph324" unicode="&#x1ecb;" horiz-adv-x="200" 
d="M150 0h-101v536h101v-536zM65 640h68v-68h-68v68zM66 -40h68v-68h-68v68z" />
    <glyph glyph-name="glyph325" unicode="&#x1ecc;" horiz-adv-x="500" 
d="M60 175v372q0 87 51 136t139 49t139 -48.5t51 -136.5v-372q0 -87 -51 -136t-139 -49t-139 48.5t-51 136.5zM184 544v-366q0 -41 12 -58q15 -21 54 -22q66 -1 66 80v366q0 40 -14 59.5t-52 20.5q-39 1 -54 -21q-12 -18 -12 -59zM213 -40h76v-76h-76v76z" />
    <glyph glyph-name="glyph326" unicode="&#x1ecd;" 
d="M284 170v198q0 86 -62 88q-28 1 -47 -21q-15 -21 -15 -67v-198q0 -88 62 -88t62 88zM48 190v158q0 199 174 200t174 -200v-158q0 -199 -174 -200t-174 200zM190 -43h68v-68h-68v68z" />
    <glyph glyph-name="glyph327" unicode="&#x1ece;" horiz-adv-x="500" 
d="M60 175v372q0 87 51 136t139 49t139 -48.5t51 -136.5v-372q0 -87 -51 -136t-139 -49t-139 48.5t-51 136.5zM184 544v-366q0 -41 12 -58q15 -21 54 -22q66 -1 66 80v366q0 40 -14 59.5t-52 20.5q-39 1 -54 -21q-12 -18 -12 -59zM229 760v13q0 32 21 72q23 44 26 63
q0 19 -19 20q-16 1 -25 -15q-3 -7 -6 -19l-44 16q19 59 81 59q25 0 44.5 -17.5t20.5 -42.5q1 -23 -8 -40q-3 -9 -20 -29q-25 -35 -28 -80h-43z" />
    <glyph glyph-name="glyph328" unicode="&#x1ecf;" 
d="M284 170v198q0 86 -62 88q-28 1 -47 -21q-15 -21 -15 -67v-198q0 -88 62 -88t62 88zM48 190v158q0 199 174 200t174 -200v-158q0 -199 -174 -200t-174 200zM203 572v11q0 29 21 70q4 8 14 27q5 13 7 25q0 18 -17 18t-28 -31l-39 14q18 54 72 54q23 0 41 -16t18 -38
q0 -23 -7 -36q-13 -18 -35 -55q-9 -19 -9 -43h-38z" />
    <glyph glyph-name="glyph329" unicode="&#x1ed0;" horiz-adv-x="500" 
d="M60 175v372q0 87 51 136t139 49t139 -48.5t51 -136.5v-372q0 -87 -51 -136t-139 -49t-139 48.5t-51 136.5zM184 544v-366q0 -41 12 -58q15 -21 54 -22q66 -1 66 80v366q0 40 -14 59.5t-52 20.5q-39 1 -54 -21q-12 -18 -12 -59zM143 759l68 101h76l68 -101h-65l-41 62
l-41 -62h-65zM499 922l-92 -100h-58l56 100h94z" />
    <glyph glyph-name="glyph330" unicode="&#x1ed1;" 
d="M284 170v198q0 86 -62 88q-28 1 -47 -21q-15 -21 -15 -67v-198q0 -88 62 -88t62 88zM48 190v158q0 199 174 200t174 -200v-158q0 -199 -174 -200t-174 200zM127 572l61 91h68l61 -91h-58l-37 55l-37 -55h-58zM447 718l-83 -90h-52l50 90h85z" />
    <glyph glyph-name="glyph331" unicode="&#x1ed2;" horiz-adv-x="500" 
d="M60 175v372q0 87 51 136t139 49t139 -48.5t51 -136.5v-372q0 -87 -51 -136t-139 -49t-139 48.5t-51 136.5zM184 544v-366q0 -41 12 -58q15 -21 54 -22q66 -1 66 80v366q0 40 -14 59.5t-52 20.5q-39 1 -54 -21q-12 -18 -12 -59zM143 759l68 101h76l68 -101h-65l-41 62
l-41 -62h-65zM94 822l-92 100h94l56 -100h-58z" />
    <glyph glyph-name="glyph332" unicode="&#x1ed3;" 
d="M284 170v198q0 86 -62 88q-28 1 -47 -21q-15 -21 -15 -67v-198q0 -88 62 -88t62 88zM48 190v158q0 199 174 200t174 -200v-158q0 -199 -174 -200t-174 200zM127 572l61 91h68l61 -91h-58l-37 55l-37 -55h-58zM84 627l-83 90h85l50 -90h-52z" />
    <glyph glyph-name="glyph333" unicode="&#x1ed4;" horiz-adv-x="500" 
d="M60 175v372q0 87 51 136t139 49t139 -48.5t51 -136.5v-372q0 -87 -51 -136t-139 -49t-139 48.5t-51 136.5zM184 544v-366q0 -41 12 -58q15 -21 54 -22q66 -1 66 80v366q0 40 -14 59.5t-52 20.5q-39 1 -54 -21q-12 -18 -12 -59zM143 759l68 101h76l68 -101h-65l-41 62
l-41 -62h-65zM359 800v13q0 32 21 72q23 44 26 63q0 19 -19 20q-16 1 -25 -15q-3 -7 -6 -19l-44 16q19 59 81 59q25 0 44.5 -17.5t20.5 -42.5q1 -23 -8 -40q-3 -9 -20 -29q-25 -35 -28 -80h-43z" />
    <glyph glyph-name="glyph334" unicode="&#x1ed5;" 
d="M284 170v198q0 86 -62 88q-28 1 -47 -21q-15 -21 -15 -67v-198q0 -88 62 -88t62 88zM48 190v158q0 199 174 200t174 -200v-158q0 -199 -174 -200t-174 200zM127 572l61 91h68l61 -91h-58l-37 55l-37 -55h-58zM318 609v11q0 29 21 70q4 8 14 27q5 13 7 25q0 18 -17 18
t-28 -31l-39 14q18 54 72 54q23 0 41 -16t18 -38q0 -23 -7 -36q-13 -18 -35 -55q-9 -19 -9 -43h-38z" />
    <glyph glyph-name="glyph335" unicode="&#x1ed6;" horiz-adv-x="500" 
d="M60 175v372q0 87 51 136t139 49t139 -48.5t51 -136.5v-372q0 -87 -51 -136t-139 -49t-139 48.5t-51 136.5zM184 544v-366q0 -41 12 -58q15 -21 54 -22q66 -1 66 80v366q0 40 -14 59.5t-52 20.5q-39 1 -54 -21q-12 -18 -12 -59zM143 759l68 101h76l68 -101h-65l-41 62
l-41 -62h-65zM325 957h39q-13 -80 -72 -82q-17 -1 -45 13t-42 14q-30 0 -30 -31h-39q14 83 72 83q19 0 45 -14q35 -13 42 -13q30 0 30 30z" />
    <glyph glyph-name="glyph336" unicode="&#x1ed7;" 
d="M284 170v198q0 86 -62 88q-28 1 -47 -21q-15 -21 -15 -67v-198q0 -88 62 -88t62 88zM48 190v158q0 199 174 200t174 -200v-158q0 -199 -174 -200t-174 200zM127 572l61 91h68l61 -91h-58l-37 55l-37 -55h-58zM290 753h36q-17 -74 -65 -74q-15 0 -32 8q-25 12 -30 14
t-16 2q-27 0 -27 -28h-36q16 75 65 75q12 0 22 -3q2 0 18.5 -8.5t19.5 -9.5q8 -3 18 -3q27 0 27 27z" />
    <glyph glyph-name="glyph337" unicode="&#x1ed8;" horiz-adv-x="500" 
d="M60 175v372q0 87 51 136t139 49t139 -48.5t51 -136.5v-372q0 -87 -51 -136t-139 -49t-139 48.5t-51 136.5zM184 544v-366q0 -41 12 -58q15 -21 54 -22q66 -1 66 80v366q0 40 -14 59.5t-52 20.5q-39 1 -54 -21q-12 -18 -12 -59zM143 759l68 101h76l68 -101h-65l-41 62
l-41 -62h-65zM213 -40h76v-76h-76v76z" />
    <glyph glyph-name="glyph338" unicode="&#x1ed9;" 
d="M284 170v198q0 86 -62 88q-28 1 -47 -21q-15 -21 -15 -67v-198q0 -88 62 -88t62 88zM48 190v158q0 199 174 200t174 -200v-158q0 -199 -174 -200t-174 200zM127 572l61 91h68l61 -91h-58l-37 55l-37 -55h-58zM190 -43h68v-68h-68v68z" />
    <glyph glyph-name="glyph339" unicode="&#x1eda;" horiz-adv-x="500" 
d="M184 544v-366q0 -41 12 -58q15 -21 54 -22q66 -1 66 80v366q0 40 -14 59.5t-52 20.5q-39 1 -54 -21q-12 -18 -12 -59zM372 697l18 44h-23v59h59v-59l-34 -62q48 -49 48 -132v-372q0 -87 -51 -136t-139 -49t-139 48.5t-51 136.5v372q0 87 51 136t139 49q75 0 122 -35z
M371 859l-92 -100h-58l56 100h94z" />
    <glyph glyph-name="glyph340" unicode="&#x1edb;" 
d="M284 170v198q0 86 -62 88q-28 1 -47 -21q-15 -21 -15 -67v-198q0 -88 62 -88t62 88zM338 512l14 35h-21v53h53v-53l-29 -53q41 -47 41 -146v-158q0 -199 -174 -200t-174 200v158q0 198 174 200q72 1 116 -36zM331 662l-83 -90h-52l50 90h85z" />
    <glyph glyph-name="glyph341" unicode="&#x1edc;" horiz-adv-x="500" 
d="M184 544v-366q0 -41 12 -58q15 -21 54 -22q66 -1 66 80v366q0 40 -14 59.5t-52 20.5q-39 1 -54 -21q-12 -18 -12 -59zM372 697l18 44h-23v59h59v-59l-34 -62q48 -49 48 -132v-372q0 -87 -51 -136t-139 -49t-139 48.5t-51 136.5v372q0 87 51 136t139 49q75 0 122 -35z
M221 760l-92 100h94l56 -100h-58z" />
    <glyph glyph-name="glyph342" unicode="&#x1edd;" 
d="M284 170v198q0 86 -62 88q-28 1 -47 -21q-15 -21 -15 -67v-198q0 -88 62 -88t62 88zM338 512l14 35h-21v53h53v-53l-29 -53q41 -47 41 -146v-158q0 -199 -174 -200t-174 200v158q0 198 174 200q72 1 116 -36zM195 573l-83 90h85l50 -90h-52z" />
    <glyph glyph-name="glyph343" unicode="&#x1ede;" horiz-adv-x="500" 
d="M184 544v-366q0 -41 12 -58q15 -21 54 -22q66 -1 66 80v366q0 40 -14 59.5t-52 20.5q-39 1 -54 -21q-12 -18 -12 -59zM372 697l18 44h-23v59h59v-59l-34 -62q48 -49 48 -132v-372q0 -87 -51 -136t-139 -49t-139 48.5t-51 136.5v372q0 87 51 136t139 49q75 0 122 -35z
M229 760v13q0 32 21 72q23 44 26 63q0 19 -19 20q-16 1 -25 -15q-3 -7 -6 -19l-44 16q19 59 81 59q25 0 44.5 -17.5t20.5 -42.5q1 -23 -8 -40q-3 -9 -20 -29q-25 -35 -28 -80h-43z" />
    <glyph glyph-name="glyph344" unicode="&#x1edf;" 
d="M284 170v198q0 86 -62 88q-28 1 -47 -21q-15 -21 -15 -67v-198q0 -88 62 -88t62 88zM338 512l14 35h-21v53h53v-53l-29 -53q41 -47 41 -146v-158q0 -199 -174 -200t-174 200v158q0 198 174 200q72 1 116 -36zM203 572v11q0 29 21 70q4 8 14 27q5 13 7 25q0 18 -17 18
t-28 -31l-39 14q18 54 72 54q23 0 41 -16t18 -38q0 -23 -7 -36q-13 -18 -35 -55q-9 -19 -9 -43h-38z" />
    <glyph glyph-name="glyph345" unicode="&#x1ee0;" horiz-adv-x="500" 
d="M184 544v-366q0 -41 12 -58q15 -21 54 -22q66 -1 66 80v366q0 40 -14 59.5t-52 20.5q-39 1 -54 -21q-12 -18 -12 -59zM372 697l18 44h-23v59h59v-59l-34 -62q48 -49 48 -132v-372q0 -87 -51 -136t-139 -49t-139 48.5t-51 136.5v372q0 87 51 136t139 49q75 0 122 -35z
M325 861h39q-13 -80 -72 -82q-17 -1 -45 13t-42 14q-30 0 -30 -31h-39q14 83 72 83q19 0 45 -14q35 -13 42 -13q30 0 30 30z" />
    <glyph glyph-name="glyph346" unicode="&#x1ee1;" 
d="M284 170v198q0 86 -62 88q-28 1 -47 -21q-15 -21 -15 -67v-198q0 -88 62 -88t62 88zM338 512l14 35h-21v53h53v-53l-29 -53q41 -47 41 -146v-158q0 -199 -174 -200t-174 200v158q0 198 174 200q72 1 116 -36zM290 661h36q-17 -74 -65 -74q-15 0 -32 8q-25 12 -30 14
t-16 2q-27 0 -27 -28h-36q16 75 65 75q12 0 22 -3q2 0 18.5 -8.5t19.5 -9.5q8 -3 18 -3q27 0 27 27z" />
    <glyph glyph-name="glyph347" unicode="&#x1ee2;" horiz-adv-x="500" 
d="M184 544v-366q0 -41 12 -58q15 -21 54 -22q66 -1 66 80v366q0 40 -14 59.5t-52 20.5q-39 1 -54 -21q-12 -18 -12 -59zM372 697l18 44h-23v59h59v-59l-34 -62q48 -49 48 -132v-372q0 -87 -51 -136t-139 -49t-139 48.5t-51 136.5v372q0 87 51 136t139 49q75 0 122 -35z
M213 -40h76v-76h-76v76z" />
    <glyph glyph-name="glyph348" unicode="&#x1ee3;" 
d="M284 170v198q0 86 -62 88q-28 1 -47 -21q-15 -21 -15 -67v-198q0 -88 62 -88t62 88zM338 512l14 35h-21v53h53v-53l-29 -53q41 -47 41 -146v-158q0 -199 -174 -200t-174 200v158q0 198 174 200q72 1 116 -36zM190 -43h68v-68h-68v68z" />
    <glyph glyph-name="glyph349" unicode="&#x1ee4;" horiz-adv-x="500" 
d="M60 182v540h124v-545q0 -78 66 -79t66 79v545h124v-540q0 -92 -49 -141.5t-141 -50.5t-141 49.5t-49 142.5zM213 -40h76v-76h-76v76z" />
    <glyph glyph-name="glyph350" unicode="&#x1ee5;" 
d="M278 538h112v-538h-106v54q-47 -39 -61 -47q-28 -16 -75 -17t-72 34q-22 30 -22 79v435h112v-417q0 -39 40 -39q21 0 52 20q9 6 20 14v422zM188 -32h68v-68h-68v68z" />
    <glyph glyph-name="glyph351" unicode="&#x1ee6;" horiz-adv-x="500" 
d="M60 182v540h124v-545q0 -78 66 -79t66 79v545h124v-540q0 -92 -49 -141.5t-141 -50.5t-141 49.5t-49 142.5zM229 760v13q0 32 21 72q23 44 26 63q0 19 -19 20q-16 1 -25 -15q-3 -7 -6 -19l-44 16q19 59 81 59q25 0 44.5 -17.5t20.5 -42.5q1 -23 -8 -40q-3 -9 -20 -29
q-25 -35 -28 -80h-43z" />
    <glyph glyph-name="glyph352" unicode="&#x1ee7;" 
d="M278 538h112v-538h-106v54q-47 -39 -61 -47q-28 -16 -75 -17t-72 34q-22 30 -22 79v435h112v-417q0 -39 40 -39q21 0 52 20q9 6 20 14v422zM204 564v11q0 29 21 70q4 8 14 27q5 13 7 25q0 18 -17 18t-28 -31l-39 14q18 54 72 54q23 0 41 -16t18 -38q0 -23 -7 -36
q-13 -18 -35 -55q-9 -19 -9 -43h-38z" />
    <glyph glyph-name="glyph353" unicode="&#x1ee8;" horiz-adv-x="500" 
d="M440 182q-1 -190 -190 -192q-92 -1 -141 49.5t-49 142.5v540h124v-545q0 -78 66 -79t66 79v545h116l8 19h-23v59h59v-59l-34 -62zM371 859l-92 -100h-58l56 100h94z" />
    <glyph glyph-name="glyph354" unicode="&#x1ee9;" 
d="M390 493v-493h-106v54q-47 -39 -61 -47q-28 -16 -75 -17t-72 34q-22 30 -22 79v435h112v-417q0 -39 40 -39q21 0 52 20q9 6 20 14v422h105l4 9h-21v53h53v-53zM331 662l-83 -90h-52l50 90h85z" />
    <glyph glyph-name="glyph355" unicode="&#x1eea;" horiz-adv-x="500" 
d="M440 182q-1 -190 -190 -192q-92 -1 -141 49.5t-49 142.5v540h124v-545q0 -78 66 -79t66 79v545h116l8 19h-23v59h59v-59l-34 -62zM221 760l-92 100h94l56 -100h-58z" />
    <glyph glyph-name="glyph356" unicode="&#x1eeb;" 
d="M390 493v-493h-106v54q-47 -39 -61 -47q-28 -16 -75 -17t-72 34q-22 30 -22 79v435h112v-417q0 -39 40 -39q21 0 52 20q9 6 20 14v422h105l4 9h-21v53h53v-53zM196 573l-83 90h85l50 -90h-52z" />
    <glyph glyph-name="glyph357" unicode="&#x1eec;" horiz-adv-x="500" 
d="M440 182q-1 -190 -190 -192q-92 -1 -141 49.5t-49 142.5v540h124v-545q0 -78 66 -79t66 79v545h116l8 19h-23v59h59v-59l-34 -62zM229 760v13q0 32 21 72q23 44 26 63q0 19 -19 20q-16 1 -25 -15q-3 -7 -6 -19l-44 16q19 59 81 59q25 0 44.5 -17.5t20.5 -42.5
q1 -23 -8 -40q-3 -9 -20 -29q-25 -35 -28 -80h-43z" />
    <glyph glyph-name="glyph358" unicode="&#x1eed;" 
d="M390 493v-493h-106v54q-47 -39 -61 -47q-28 -16 -75 -17t-72 34q-22 30 -22 79v435h112v-417q0 -39 40 -39q21 0 52 20q9 6 20 14v422h105l4 9h-21v53h53v-53zM204 564v11q0 29 21 70q4 8 14 27q5 13 7 25q0 18 -17 18t-28 -31l-39 14q18 54 72 54q23 0 41 -16t18 -38
q0 -23 -7 -36q-13 -18 -35 -55q-9 -19 -9 -43h-38z" />
    <glyph glyph-name="glyph359" unicode="&#x1eee;" horiz-adv-x="500" 
d="M440 182q-1 -190 -190 -192q-92 -1 -141 49.5t-49 142.5v540h124v-545q0 -78 66 -79t66 79v545h116l8 19h-23v59h59v-59l-34 -62zM325 861h39q-13 -80 -72 -82q-17 -1 -45 13t-42 14q-30 0 -30 -31h-39q14 83 72 83q19 0 45 -14q35 -13 42 -13q30 0 30 30z" />
    <glyph glyph-name="glyph360" unicode="&#x1eef;" 
d="M390 493v-493h-106v54q-47 -39 -61 -47q-28 -16 -75 -17t-72 34q-22 30 -22 79v435h112v-417q0 -39 40 -39q21 0 52 20q9 6 20 14v422h105l4 9h-21v53h53v-53zM290 656h36q-17 -74 -65 -74q-15 0 -32 8q-25 12 -30 14t-16 2q-27 0 -27 -28h-36q16 75 65 75q12 0 22 -3
q2 0 18.5 -8.5t19.5 -9.5q8 -3 18 -3q27 0 27 27z" />
    <glyph glyph-name="glyph361" unicode="&#x1ef0;" horiz-adv-x="500" 
d="M440 182q-1 -190 -190 -192q-92 -1 -141 49.5t-49 142.5v540h124v-545q0 -78 66 -79t66 79v545h116l8 19h-23v59h59v-59l-34 -62zM213 -40h76v-76h-76v76z" />
    <glyph glyph-name="glyph362" unicode="&#x1ef1;" 
d="M390 493v-493h-106v54q-47 -39 -61 -47q-28 -16 -75 -17t-72 34q-22 30 -22 79v435h112v-417q0 -39 40 -39q21 0 52 20q9 6 20 14v422h105l4 9h-21v53h53v-53zM188 -32h68v-68h-68v68z" />
    <glyph glyph-name="glyph363" unicode="&#x1ef2;" 
d="M284 300v-300h-124v300l-150 422h126l87 -275l85 275h126zM198 752l-92 100h94l56 -100h-58z" />
    <glyph glyph-name="glyph364" unicode="&#x1ef3;" horiz-adv-x="389" 
d="M266 538h113l-141 -578q-16 -67 -51 -98t-102 -31h-47v92h27q42 0 59 23q14 20 15 64q0 13 -4 37q-2 9 -8 34l-117 457h114l72 -344zM169 572l-83 90h85l50 -90h-52z" />
    <glyph glyph-name="glyph365" unicode="&#x1ef4;" 
d="M284 300v-300h-124v300l-150 422h126l87 -275l85 275h126zM186 -40h76v-76h-76v76z" />
    <glyph glyph-name="glyph366" unicode="&#x1ef5;" horiz-adv-x="389" 
d="M266 538h113l-141 -578q-16 -67 -51 -98t-102 -31h-47v92h27q42 0 59 23q14 20 15 64q0 13 -4 37q-2 9 -8 34l-117 457h114l72 -344zM266 -32h68v-68h-68v68z" />
    <glyph glyph-name="glyph367" unicode="&#x1ef6;" 
d="M284 300v-300h-124v300l-150 422h126l87 -275l85 275h126zM206 753v13q0 32 21 72q23 44 26 63q0 19 -19 20q-16 1 -25 -15q-3 -7 -6 -19l-44 16q19 59 81 59q25 0 44.5 -17.5t20.5 -42.5q1 -23 -8 -40q-3 -9 -20 -29q-25 -35 -28 -80h-43z" />
    <glyph glyph-name="glyph368" unicode="&#x1ef7;" horiz-adv-x="389" 
d="M266 538h113l-141 -578q-16 -67 -51 -98t-102 -31h-47v92h27q42 0 59 23q14 20 15 64q0 13 -4 37q-2 9 -8 34l-117 457h114l72 -344zM176 563v11q0 29 21 70q4 8 14 27q5 13 7 25q0 18 -17 18t-28 -31l-39 14q18 54 72 54q23 0 41 -16t18 -38q0 -23 -7 -36
q-13 -18 -35 -55q-9 -19 -9 -43h-38z" />
    <glyph glyph-name="glyph369" unicode="&#x1ef8;" 
d="M284 300v-300h-124v300l-150 422h126l87 -275l85 275h126zM297 846h39q-13 -80 -72 -82q-17 -1 -45 13t-42 14q-30 0 -30 -31h-39q14 83 72 83q19 0 45 -14q35 -13 42 -13q30 0 30 30z" />
    <glyph glyph-name="glyph370" unicode="&#x1ef9;" horiz-adv-x="389" 
d="M266 538h113l-141 -578q-16 -67 -51 -98t-102 -31h-47v92h27q42 0 59 23q14 20 15 64q0 13 -4 37q-2 9 -8 34l-117 457h114l72 -344zM262 650h36q-17 -74 -65 -74q-15 0 -32 8q-25 12 -30 14t-16 2q-27 0 -27 -28h-36q16 75 65 75q12 0 22 -3q2 0 18.5 -8.5t19.5 -9.5
q8 -3 18 -3q27 0 27 27z" />
    <glyph glyph-name="endash" unicode="&#x2013;" horiz-adv-x="500" 
d="M500 233h-500v72h500v-72z" />
    <glyph glyph-name="emdash" unicode="&#x2014;" horiz-adv-x="1000" 
d="M1000 233h-1000v72h1000v-72z" />
    <glyph glyph-name="quoteleft" unicode="&#x2018;" horiz-adv-x="222" 
d="M52 490v118l69 124h53l-49 -124h45v-118h-118z" />
    <glyph glyph-name="quoteright" unicode="&#x2019;" horiz-adv-x="222" 
d="M170 722v-118l-69 -124h-53l49 124h-45v118h118z" />
    <glyph glyph-name="quotesinglbase" unicode="&#x201a;" horiz-adv-x="222" 
d="M170 118v-118l-69 -124h-53l49 124h-45v118h118z" />
    <glyph glyph-name="quotedblleft" unicode="&#x201c;" 
d="M70 490v118l69 124h53l-49 -124h45v-118h-118zM255 490v118l69 124h53l-49 -124h45v-118h-118z" />
    <glyph glyph-name="quotedblright" unicode="&#x201d;" 
d="M374 722v-118l-69 -124h-53l49 124h-45v118h118zM189 722v-118l-69 -124h-53l49 124h-45v118h118z" />
    <glyph glyph-name="quotedblbase" unicode="&#x201e;" 
d="M374 118v-118l-69 -124h-53l49 124h-45v118h118zM189 118v-118l-69 -124h-53l49 124h-45v118h118z" />
    <glyph glyph-name="dagger" unicode="&#x2020;" horiz-adv-x="500" 
d="M434 574v-124l-167 42l45 -169q-21 -70 -43 -403h-38q-22 333 -43 403l45 169l-167 -42v124l163 -42l-39 200h120l-39 -200z" />
    <glyph glyph-name="daggerdbl" unicode="&#x2021;" horiz-adv-x="500" 
d="M434 574v-124l-167 42l45 -166l-45 -166l167 42v-124l-163 42l39 -200h-120l39 200l-163 -42v124l167 -42l-45 166l45 166l-167 -42v124l163 -42l-39 200h120l-39 -200z" />
    <glyph glyph-name="bullet" unicode="&#x2022;" horiz-adv-x="500" 
d="M69 361q0 75 52.5 127.5t127.5 52.5t128 -52.5t53 -127.5t-53 -128t-128 -53t-127.5 53t-52.5 128z" />
    <glyph glyph-name="ellipsis" unicode="&#x2026;" horiz-adv-x="1000" 
d="M224 0h-114v118h114v-118zM557 0h-114v118h114v-118zM890 0h-114v118h114v-118z" />
    <glyph glyph-name="perthousand" unicode="&#x2030;" horiz-adv-x="1000" 
d="M14 572q0 62 44 106t106 44t106 -44t44 -106t-44 -106t-106 -44t-106 44t-44 106zM94 572q0 -29 20.5 -49.5t49.5 -20.5t49.5 20.5t20.5 49.5t-20.5 49.5t-49.5 20.5t-49.5 -20.5t-20.5 -49.5zM332 150q0 62 44 106t106 44t106 -44t44 -106t-44 -106t-106 -44t-106 44
t-44 106zM412 150q0 -29 20.5 -49.5t49.5 -20.5t49.5 20.5t20.5 49.5t-20.5 49.5t-49.5 20.5t-49.5 -20.5t-20.5 -49.5zM686 150q0 62 44 106t106 44t106 -44t44 -106t-44 -106t-106 -44t-106 44t-44 106zM766 150q0 -29 20.5 -49.5t49.5 -20.5t49.5 20.5t20.5 49.5
t-20.5 49.5t-49.5 20.5t-49.5 -20.5t-20.5 -49.5zM96 -10l411 742h70l-411 -742h-70z" />
    <glyph glyph-name="guilsinglleft" unicode="&#x2039;" horiz-adv-x="333" 
d="M160 269l114 -154h-96l-115 155l115 153h99z" />
    <glyph glyph-name="guilsinglright" unicode="&#x203a;" horiz-adv-x="333" 
d="M59 115l114 154l-117 154h99l115 -153l-115 -155h-96z" />
    <glyph glyph-name="fraction" unicode="&#x2044;" horiz-adv-x="167" 
d="M-76 -10h-91l410 742h91z" />
    <glyph glyph-name="franc" unicode="&#x20a3;" horiz-adv-x="1035" 
d="M184 0h-124v722h346v-108h-222v-186h166v-108h-166v-320zM818 0h-112v538h107v-63h2q43 73 127 73h23v-117q-44 11 -72 11q-31 0 -53 -19t-22 -53v-370z" />
    <glyph glyph-name="u20AB" unicode="&#x20ab;" horiz-adv-x="393" 
d="M197 501q-48 0 -84 -88q-20 -49 -20 -90q0 -51 39 -51q41 0 74 71q28 60 28 107q0 51 -37 51zM200 267q-53 -62 -106 -62q-45 0 -68 28t-23 74q0 80 55 153q59 78 136 78q34 0 61 -24l20 75h-100l10 36h100l2 16q0 31 -48 32l7 33q67 2 128 14l15 3q6 0 6 -9l-3 -12
l-19 -77h65l-10 -36h-65l-69 -280q-5 -20 -5 -27q0 -15 12 -15q6 0 49 42l20 -18q-70 -86 -117 -86q-43 0 -53 62zM9 160h221v-56h-221v56z" />
    <glyph glyph-name="trademark" unicode="&#x2122;" horiz-adv-x="990" 
d="M559 722l103 -271l103 271h135v-412h-92v302h-2l-110 -302h-69l-110 302h-2v-302h-92v412h136zM370 722v-75h-120v-337h-96v337h-120v75h336z" />
    <glyph glyph-name="partialdiff" unicode="&#x2202;" horiz-adv-x="1000" 
 />
    <glyph glyph-name="product" unicode="&#x220f;" horiz-adv-x="1000" 
 />
    <glyph glyph-name="summation" unicode="&#x2211;" horiz-adv-x="1000" 
 />
    <glyph glyph-name="minus" unicode="&#x2212;" horiz-adv-x="600" 
d="M553 204h-506v98h506v-98z" />
    <glyph glyph-name="radical" unicode="&#x221a;" horiz-adv-x="1000" 
 />
    <glyph glyph-name="infinity" unicode="&#x221e;" horiz-adv-x="1000" 
 />
    <glyph glyph-name="integral" unicode="&#x222b;" horiz-adv-x="1000" 
 />
    <glyph glyph-name="approxequal" unicode="&#x2248;" horiz-adv-x="1000" 
 />
    <glyph glyph-name="approxequal" unicode="&#x22f2;" horiz-adv-x="1000" 
 />
    <glyph glyph-name="notequal" unicode="&#x2260;" horiz-adv-x="1000" 
 />
    <glyph glyph-name="lessequal" unicode="&#x2264;" horiz-adv-x="1000" 
 />
    <glyph glyph-name="greaterequal" unicode="&#x2265;" horiz-adv-x="1000" 
 />
    <glyph glyph-name="SF370000" unicode="&#x255f;" horiz-adv-x="718" 
d="M221 578l-49 -310h100l-49 310h-2zM154 160l-22 -160h-120l133 722h154l133 -722h-120l-22 160h-136z" />
    <glyph glyph-name="SF420000" unicode="&#x2560;" horiz-adv-x="681" 
d="M406 0h-346v722h332v-108h-208v-186h160v-108h-160v-212h222v-108z" />
    <glyph glyph-name="SF190000" unicode="&#x2561;" horiz-adv-x="429" 
d="M201 0h-124v722h124v-722z" />
    <glyph glyph-name="SF200000" unicode="&#x2562;" horiz-adv-x="773" 
d="M60 175v372q0 81 46 131q51 54 144 54t144 -54q46 -50 46 -131v-372q0 -81 -46 -131q-51 -54 -144 -54t-144 54q-46 50 -46 131zM184 544v-366q0 -80 66 -80t66 80v366q0 80 -66 80t-66 -80z" />
    <glyph glyph-name="SF230000" unicode="&#x2563;" horiz-adv-x="811" 
d="M60 182v540h124v-545q0 -79 66 -79t66 79v545h124v-540q0 -92 -50.5 -142t-139.5 -50t-139.5 50t-50.5 142z" />
    <glyph glyph-name="SF470000" unicode="&#x2564;" horiz-adv-x="699" 
d="M284 300v-300h-124v300l-150 422h126l87 -275h2l83 275h126z" />
    <glyph glyph-name="SF480000" unicode="&#x2565;" horiz-adv-x="541" 
d="M154 380h-112q4 81 52 124.5t128 43.5q163 0 163 -146v-345q0 -15 7 -57h-107q-2 15 -6 42q-64 -52 -131 -52q-55 0 -85 35q-29 32 -29 86q0 86 59 143q55 53 180 101v32q0 69 -55 69q-36 0 -50 -21q-12 -17 -14 -55zM273 132v141q-73 -42 -102 -75q-25 -30 -25 -67
q0 -49 52 -49q40 0 75 50z" />
    <glyph glyph-name="SF410000" unicode="&#x2566;" horiz-adv-x="431" 
d="M160 340h124v28q0 88 -62 88t-62 -88v-28zM396 348v-100h-236v-78q0 -88 62 -88t62 88v12h112q-3 -192 -174 -192q-174 0 -174 200v158q0 200 174 200t174 -200z" />
    <glyph glyph-name="SF450000" unicode="&#x2567;" horiz-adv-x="314" 
d="M167 0h-112v538h112v-538zM167 620h-112v102h112v-102z" />
    <glyph glyph-name="SF460000" unicode="&#x2568;" horiz-adv-x="314" 
d="M167 0h-112v538h112v-538z" />
    <glyph glyph-name="SF400000" unicode="&#x2569;" horiz-adv-x="498" 
d="M284 170v198q0 88 -62 88t-62 -88v-198q0 -88 62 -88t62 88zM48 190v158q0 200 174 200t174 -200v-158q0 -200 -174 -200t-174 200z" />
    <glyph glyph-name="SF540000" unicode="&#x256a;" horiz-adv-x="557" 
d="M278 538h112v-538h-106v54q-44 -38 -61 -47q-31 -17 -75 -17t-69 30t-25 83v435h112v-417q0 -39 40 -39q25 0 72 34v422z" />
    <glyph glyph-name="SF530000" unicode="&#x256b;" horiz-adv-x="497" 
d="M198 194l68 344h113l-141 -578q-18 -72 -53 -100.5t-100 -28.5h-47v92h27q74 0 74 87q0 24 -12 71l-117 457h114l72 -344h2z" />
    <glyph glyph-name="lozenge" unicode="&#x25ca;" horiz-adv-x="1000" 
 />
    <glyph glyph-name="circle" unicode="&#x25cb;" horiz-adv-x="718" 
d="M188 834l96 144h110l96 -144h-92l-59 89l-59 -89h-92zM456 1166l-131 -144h-83l79 144h135z" />
    <glyph glyph-name="H18533" unicode="&#x25cf;" horiz-adv-x="718" 
d="M188 834l96 144h110l96 -144h-92l-59 89l-59 -89h-92zM410 1023l-131 144h135l79 -144h-83z" />
    <glyph glyph-name="invbullet" unicode="&#x25d8;" horiz-adv-x="718" 
d="M188 834l96 144h110l96 -144h-92l-59 89l-59 -89h-92zM614 903q9 29 11 64q1 11 8 13q3 0 8 1q67 11 67 54q0 35 -28 35q-5 0 -14 -1t-14 -1q-21 0 -21 18q0 28 32 28q46 0 76 -25.5t26 -70.5q-6 -59 -87 -81q-25 -7 -31 -34h-33z" />
    <glyph glyph-name="invcircle" unicode="&#x25d9;" horiz-adv-x="718" 
d="M188 834l96 144h110l96 -144h-92l-59 89l-59 -89h-92zM493 1153v0h56q-23 -118 -103 -118q-24 0 -63.5 19.5t-61.5 19.5q-40 0 -42 -44h-56q23 118 103 118q24 0 65.5 -19.5t59.5 -19.5q40 0 42 44z" />
    <glyph glyph-name="apple" unicode="&#xf000;" horiz-adv-x="1000" 
 />
    <glyph glyph-name="fi" unicode="&#xf001;" 
d="M62 0v446h-66v92h66v67q0 127 125 127h56v-92h-32q-37 0 -37 -36v-66h64v-92h-64v-446h-112zM389 0h-112v538h112v-538zM389 620h-112v102h112v-102z" />
    <glyph glyph-name="fl" unicode="&#xf002;" 
d="M62 0v446h-66v92h66v67q0 127 125 127h56v-92h-32q-37 0 -37 -36v-66h64v-92h-64v-446h-112zM389 0h-112v722h112v-722z" />
    <glyph glyph-name="periodcentered" horiz-adv-x="222" 
d="M44 253q0 28 19.5 47.5t47.5 19.5t47.5 -19.5t19.5 -47.5t-19.5 -47.5t-47.5 -19.5t-47.5 19.5t-19.5 47.5z" />
    <glyph glyph-name="HT" horiz-adv-x="1000" 
 />
    <glyph glyph-name="LF" horiz-adv-x="1000" 
 />
    <glyph glyph-name="nonmarkingreturn" horiz-adv-x="1000" 
 />
    <glyph glyph-name="DLE" horiz-adv-x="1000" 
 />
    <glyph glyph-name="DC1" horiz-adv-x="1000" 
 />
    <glyph glyph-name="DC2" horiz-adv-x="1000" 
 />
    <glyph glyph-name="DC3" horiz-adv-x="1000" 
 />
    <glyph glyph-name="DC4" horiz-adv-x="1000" 
 />
    <glyph glyph-name="RS" horiz-adv-x="1000" 
 />
    <glyph glyph-name="US" horiz-adv-x="1000" 
 />
    <glyph glyph-name="DEL" horiz-adv-x="1000" 
 />
    <glyph glyph-name="glyph258" horiz-adv-x="278" 
 />
    <glyph glyph-name="glyph259" horiz-adv-x="278" 
 />
    <glyph glyph-name="glyph275" horiz-adv-x="249" 
 />
    <glyph glyph-name="glyph276" horiz-adv-x="249" 
 />
    <glyph glyph-name="glyph261" horiz-adv-x="500" 
d="M253 522q9 29 11 64q1 11 8 13q3 0 8 1q67 11 67 54q0 35 -28 35q-5 0 -14 -1t-14 -1q-21 0 -21 18q0 28 32 28q46 0 76 -25.5t26 -70.5q-6 -59 -87 -81q-25 -7 -31 -34h-33z" />
    <glyph glyph-name="glyph262" horiz-adv-x="541" 
d="M-15 602l96 144h110l96 -144h-92l-59 89l-59 -89h-92zM252 935l-131 -144h-83l79 144h135z" />
    <glyph glyph-name="glyph263" horiz-adv-x="541" 
d="M-15 602l96 144h110l96 -144h-92l-59 89l-59 -89h-92zM207 791l-131 144h135l79 -144h-83z" />
    <glyph glyph-name="glyph264" horiz-adv-x="541" 
d="M-15 602l96 144h110l96 -144h-92l-59 89l-59 -89h-92zM411 671q9 29 11 64q1 11 8 13q3 0 8 1q67 11 67 54q0 35 -28 35q-5 0 -14 -1t-14 -1q-21 0 -21 18q0 28 32 28q46 0 76 -25.5t26 -70.5q-6 -59 -87 -81q-25 -7 -31 -34h-33z" />
    <glyph glyph-name="glyph265" horiz-adv-x="541" 
d="M-15 602l96 144h110l96 -144h-92l-59 89l-59 -89h-92zM290 921v0h56q-23 -118 -103 -118q-24 0 -63.5 19.5t-61.5 19.5q-40 0 -42 -44h-56q23 118 103 118q24 0 65.5 -19.5t59.5 -19.5q40 0 42 44z" />
    <glyph glyph-name="glyph266" horiz-adv-x="541" 
d="M230 748h58q-5 -62 -39 -99q-39 -43 -108 -43t-108 43q-34 37 -39 99h58q9 -74 89 -74t89 74zM331 935l-131 -144h-83l79 144h135z" />
    <glyph glyph-name="glyph267" horiz-adv-x="541" 
d="M230 748h58q-5 -62 -39 -99q-39 -43 -108 -43t-108 43q-34 37 -39 99h58q9 -74 89 -74t89 74zM154 791l-131 144h135l79 -144h-83z" />
    <glyph glyph-name="glyph268" horiz-adv-x="541" 
d="M230 748h58q-5 -62 -39 -99q-39 -43 -108 -43t-108 43q-34 37 -39 99h58q9 -74 89 -74t89 74zM306 671q9 29 11 64q1 11 8 13q3 0 8 1q67 11 67 54q0 35 -28 35q-5 0 -14 -1t-14 -1q-21 0 -21 18q0 28 32 28q46 0 76 -25.5t26 -70.5q-6 -59 -87 -81q-25 -7 -31 -34h-33z
" />
    <glyph glyph-name="glyph269" horiz-adv-x="541" 
d="M230 748h58q-5 -62 -39 -99q-39 -43 -108 -43t-108 43q-34 37 -39 99h58q9 -74 89 -74t89 74zM290 921v0h56q-23 -118 -103 -118q-24 0 -63.5 19.5t-61.5 19.5q-40 0 -42 -44h-56q23 118 103 118q24 0 65.5 -19.5t59.5 -19.5q40 0 42 44z" />
    <glyph glyph-name="glyph270" horiz-adv-x="249" 
 />
  </font>
</defs>
</svg>
