<?xml version="1.0" standalone="no"?>
<!DOCTYPE svg PUBLIC "-//W3C//DTD SVG 1.1//EN" "http://www.w3.org/Graphics/SVG/1.1/DTD/svg11.dtd" >
<svg xmlns="http://www.w3.org/2000/svg" xmlns:xlink="http://www.w3.org/1999/xlink" version="1.1">
<metadata>
Created by FontForge 20190801 at Thu May 11 05:24:43 2017
 By www-data
</metadata>
<defs>
<font id="SVNAvobold" horiz-adv-x="1311" >
  <font-face 
    font-family="SVNAvobold"
    font-weight="700"
    font-stretch="normal"
    units-per-em="2048"
    panose-1="2 4 6 3 5 5 6 2 2 4"
    ascent="1638"
    descent="-410"
    x-height="1135"
    cap-height="1513"
    bbox="-100 -461 1839 2396"
    underline-thickness="109"
    underline-position="-250"
    unicode-range="U+0020-2026"
  />
<missing-glyph horiz-adv-x="573" 
 />
    <glyph glyph-name=".notdef" horiz-adv-x="573" 
 />
    <glyph glyph-name=".null" horiz-adv-x="0" 
 />
    <glyph glyph-name="nonmarkingreturn" horiz-adv-x="571" 
 />
    <glyph glyph-name="space" unicode=" " horiz-adv-x="573" 
 />
    <glyph glyph-name="exclam" unicode="!" horiz-adv-x="573" 
d="M147 385v1128h273v-1128h-273zM147 0v260h273v-260h-273z" />
    <glyph glyph-name="quotedbl" unicode="&#x22;" horiz-adv-x="737" 
d="M152 1051v462h153v-462h-153zM426 1051v462h154v-462h-154z" />
    <glyph glyph-name="numbersign" unicode="#" horiz-adv-x="1147" 
d="M1024 678v-201h-209l-65 -477h-183l64 477h-174l-66 -477h-180l63 477h-204v201h233l27 188h-203v201h227l62 449h178l-59 -449h176l59 449h184l-61 -449h184v-201h-211l-24 -188h182zM684 866h-176l-25 -188h174z" />
    <glyph glyph-name="dollar" unicode="$" horiz-adv-x="1147" 
d="M123 510h268q0 -73 51.5 -124.5t126.5 -51.5q73 0 124.5 51.5t51.5 126.5q0 33 -14 62q-11 28 -34.5 55t-61.5 43q-19 8 -70 22q-186 54 -273 137q-112 104 -112 279q0 81 24 147.5t79 122.5q38 44 75 69q51 34 95 34v268h256v-268q113 -44 184.5 -138t71.5 -210h-256
q-12 54 -48 89q-36 33 -92 33q-53 0 -93 -41.5t-40 -93.5q0 -74 63 -121q39 -27 132 -57l126 -43q66 -27 115 -67q69 -58 104.5 -143.5t35.5 -180.5q0 -88 -25 -156.5t-82 -134.5q-40 -43 -92 -77q-48 -30 -104 -44v-272h-256v272q-136 23 -234 137.5t-98 249.5z" />
    <glyph glyph-name="percent" unicode="%" horiz-adv-x="1761" 
d="M457 0l626 1513h209l-626 -1513h-209zM412 1542q152 0 259 -107t107 -261t-107 -261.5t-259 -107.5q-153 0 -261 108t-108 261t107.5 260.5t261.5 107.5zM412 1315q-60 0 -101 -41t-41 -100q0 -55 42.5 -98.5t97.5 -43.5q58 0 99.5 41t41.5 101q0 59 -39.5 100t-99.5 41z
M1341 700q154 0 261.5 -107t107.5 -261q0 -152 -107.5 -260.5t-261.5 -108.5q-153 0 -260.5 108.5t-107.5 260.5q0 154 107 261t261 107zM1341 473q-60 0 -100.5 -37.5t-40.5 -95.5q0 -61 41 -105.5t100 -44.5q56 0 99 45t43 105q0 57 -40.5 95t-101.5 38z" />
    <glyph glyph-name="ampersand" unicode="&#x26;" horiz-adv-x="1393" 
d="M1051 893h301l-260 -457l268 -291l-199 -174l-207 217q-72 -102 -162 -159q-102 -66 -217 -66q-203 0 -353 137t-150 340q0 150 78 263q68 97 206 174q-61 64 -92 124q-35 70 -35 150q0 165 109.5 278t275.5 113q160 0 273.5 -106t113.5 -267q0 -126 -60.5 -218
t-176.5 -154l139 -156zM592 985q92 42 123 84q14 19 21 39.5t7 46.5q0 59 -35 91t-96 32q-54 0 -88.5 -34t-34.5 -87t51 -116zM764 395l-236 264q-82 -34 -128 -85q-56 -62 -56 -146q0 -88 60 -143.5t147 -55.5q72 0 129 51q45 41 84 115z" />
    <glyph glyph-name="quotesingle" unicode="'" horiz-adv-x="451" 
d="M152 1051v462h155v-462h-155z" />
    <glyph glyph-name="parenleft" unicode="(" horiz-adv-x="778" 
d="M715 25v-287q-58 9 -111.5 37t-111.5 79q-89 77 -166 195q-174 266 -174 578q0 145 39.5 282.5t116.5 261.5t173 209q109 98 234 131v-284q-138 -105 -210.5 -264.5t-72.5 -339.5q0 -178 71 -333q75 -165 212 -265z" />
    <glyph glyph-name="parenright" unicode=")" horiz-adv-x="778" 
d="M76 1227v284q122 -30 233 -131q94 -84 171.5 -207t118.5 -262q20 -72 30 -140t10 -144q0 -308 -168 -568q-76 -117 -168 -199q-110 -98 -227 -122v287q135 97 211 265q71 157 71 333q0 180 -70 335q-73 162 -212 269z" />
    <glyph glyph-name="asterisk" unicode="*" horiz-adv-x="901" 
d="M365 934l-127 61l110 187l-205 -15v142l205 -13l-110 183l124 61l93 -184l94 186l117 -72l-111 -174l205 15v-144l-209 13l115 -172l-115 -74l-96 188z" />
    <glyph glyph-name="plus" unicode="+" horiz-adv-x="1229" 
d="M502 776v391h237v-391h398v-237h-398v-406h-237v406h-398v237h398z" />
    <glyph glyph-name="comma" unicode="," horiz-adv-x="573" 
d="M147 0v272h273v-262q0 -84 -10 -120q-15 -54 -64 -103q-36 -36 -89 -55q-25 -9 -52 -14t-55 -5v137q56 9 84 33q34 29 34 82v35h-121z" />
    <glyph glyph-name="hyphen" unicode="-" horiz-adv-x="860" 
d="M152 530v242h567v-242h-567z" />
    <glyph glyph-name="period" unicode="." horiz-adv-x="573" 
d="M147 0v272h273v-272h-273z" />
    <glyph glyph-name="slash" unicode="/" horiz-adv-x="942" 
d="M53 -262l662 1775h192l-661 -1775h-193z" />
    <glyph glyph-name="zero" unicode="0" horiz-adv-x="1147" 
d="M1075 1010v-514q0 -112 -24 -195q-27 -98 -96 -174.5t-169.5 -120t-205.5 -43.5q-108 0 -204.5 36.5t-175.5 111.5t-113 182q-26 86 -26 215v502q0 111 25.5 202t93 167.5t172.5 119.5q52 21 105.5 32t109.5 11q104 0 199.5 -36.5t170 -109t108.5 -178.5q30 -92 30 -208z
M334 1006v-490q0 -89 12.5 -132t42 -77t78.5 -56q23 -10 48 -16t50 -6q53 0 102.5 21.5t82 62t44.5 94.5q9 41 9 105v504q0 113 -61 184q-65 76 -177 76q-52 0 -100 -23t-80 -61q-28 -38 -40 -85q-5 -21 -8 -46.5t-3 -54.5z" />
    <glyph glyph-name="one" unicode="1" horiz-adv-x="1147" 
d="M504 0v1255h-191v258h463v-1513h-272z" />
    <glyph glyph-name="two" unicode="2" horiz-adv-x="1147" 
d="M86 0v258l522 485q59 55 89 89q46 54 69 101q27 57 27 122q0 96 -61 158.5t-157 62.5q-115 0 -177 -86q-56 -77 -56 -199h-272v56q0 205 143.5 350t345.5 145q216 0 361 -142t145 -358q0 -89 -30 -169t-89 -156l-190 -201l-289 -258h598v-258h-979z" />
    <glyph glyph-name="three" unicode="3" horiz-adv-x="1147" 
d="M444 725v258h19q101 0 150 29q67 38 67 129q0 61 -40.5 98t-102.5 37q-53 0 -88 -37t-35 -92h-273q0 159 117 277t279 118q168 0 291.5 -117.5t123.5 -285.5q0 -86 -31.5 -155t-99.5 -116q115 -39 181 -159q59 -109 59 -244q0 -217 -155 -362q-151 -140 -371 -140
q-203 0 -353.5 142.5t-150.5 343.5h274q0 -93 73.5 -156.5t172.5 -63.5t168 69.5t69 168.5q0 137 -106 209q-43 29 -96 39q-22 4 -53.5 7t-61.5 3h-27z" />
    <glyph glyph-name="four" unicode="4" horiz-adv-x="1147" 
d="M0 449l696 1064h230v-1030h159v-258h-159v-225h-273v225h-653v224zM653 483v570l-362 -570h362z" />
    <glyph glyph-name="five" unicode="5" horiz-adv-x="1147" 
d="M920 1513v-258h-482l-47 -278q94 43 189 43q208 0 350 -161q135 -153 135 -365q0 -215 -153.5 -373t-368.5 -158q-201 0 -357 143q-161 147 -161 343h272q12 -94 77.5 -157t157.5 -63q114 0 186.5 75.5t72.5 193.5q0 104 -76 180t-180 76q-57 0 -109 -26t-90 -75l-244 68
l144 792h684z" />
    <glyph glyph-name="six" unicode="6" horiz-adv-x="1147" 
d="M586 1513h321l-338 -514l76 7q89 0 169 -37.5t145.5 -107t99 -160t33.5 -199.5q0 -223 -151 -381t-372 -158q-225 0 -375.5 156.5t-150.5 384.5q0 93 30 186q26 82 81 164zM565 754q-105 0 -177.5 -73t-72.5 -183q0 -111 71 -190t181 -79q104 0 178 75.5t74 180.5
q0 111 -73 190t-181 79z" />
    <glyph glyph-name="seven" unicode="7" horiz-adv-x="1147" 
d="M174 0l565 1255h-606v258h891v-258l-547 -1255h-303z" />
    <glyph glyph-name="eight" unicode="8" horiz-adv-x="1147" 
d="M287 842q-67 67 -95 127t-28 151q0 176 111 298q58 62 129.5 93t160.5 31q174 0 292 -121t118 -295q0 -45 -7 -84t-22 -73q-27 -66 -94 -127q107 -55 164 -157q27 -50 41 -107.5t14 -124.5q0 -201 -149 -345.5t-353 -144.5q-215 0 -360.5 146t-145.5 360q0 121 59 223
q63 108 165 150zM571 1276q-67 0 -114 -45.5t-47 -110.5q0 -66 48 -112.5t113 -46.5t111.5 46.5t46.5 112.5q0 64 -46.5 110t-111.5 46zM567 694q-95 0 -163 -69t-68 -168q0 -95 67.5 -161.5t163.5 -66.5q95 0 163.5 66t68.5 162q0 100 -67 168.5t-165 68.5z" />
    <glyph glyph-name="nine" unicode="9" horiz-adv-x="1147" 
d="M227 0l334 508h-51q-203 0 -337 144q-128 139 -128 345q0 228 145 385q149 160 375 160q105 0 206 -41.5t174.5 -118t109 -173.5t35.5 -210q0 -37 -4 -72t-13 -67q-16 -62 -51 -130q-27 -55 -74 -124l-401 -606h-320zM561 1276q-100 0 -172 -76.5t-72 -177.5
q0 -113 70.5 -188.5t181.5 -75.5q105 0 176.5 78.5t71.5 183.5q0 108 -74 182t-182 74z" />
    <glyph glyph-name="colon" unicode=":" horiz-adv-x="573" 
d="M147 0v272h273v-272h-273zM147 756v272h273v-272h-273z" />
    <glyph glyph-name="semicolon" unicode=";" horiz-adv-x="573" 
d="M147 0v272h273v-262q0 -84 -10 -120q-15 -54 -64 -103q-36 -36 -89 -55q-25 -9 -52 -14t-55 -5v137q56 9 84 33q34 29 34 82v35h-121zM147 756v272h273v-272h-273z" />
    <glyph glyph-name="less" unicode="&#x3c;" horiz-adv-x="1229" 
d="M1143 313v-227l-1043 461v203l1043 464v-227l-742 -342z" />
    <glyph glyph-name="equal" unicode="=" horiz-adv-x="1229" 
d="M1137 969v-236h-1033v236h1033zM1137 569v-235h-1033v235h1033z" />
    <glyph glyph-name="greater" unicode="&#x3e;" horiz-adv-x="1229" 
d="M98 313l742 332l-742 342v227l1043 -464v-203l-1043 -461v227z" />
    <glyph glyph-name="question" unicode="?" horiz-adv-x="1147" 
d="M338 1069h-272q0 77 24 155t72 138q62 79 168.5 129.5t210.5 50.5q43 0 82.5 -8t82.5 -27q83 -35 144 -94q69 -68 106 -160.5t37 -191.5q0 -73 -27.5 -135t-76.5 -120q-36 -42 -104.5 -101.5t-95.5 -107.5q-32 -58 -32 -142v-70h-272v59q0 62 12 123t39.5 119.5
t67.5 104.5q22 25 94 86q58 46 86 84q17 24 27 53t10 59q0 91 -51.5 144t-141.5 53q-91 0 -140.5 -55.5t-49.5 -145.5zM385 0v260h272v-260h-272z" />
    <glyph glyph-name="at" unicode="@" horiz-adv-x="1516" 
d="M1243 291h195q-117 -159 -273.5 -243.5t-349.5 -84.5q-339 0 -572 223q-237 227 -237 566q0 335 230.5 562.5t566.5 227.5q142 0 263.5 -42t230 -134t166.5 -205q63 -120 63 -260q0 -129 -38 -235t-124 -193q-66 -67 -165 -120q-111 -58 -195 -58q-54 0 -86 26
q-35 29 -35 82q-41 -45 -97.5 -71.5t-115.5 -26.5q-157 0 -251 107q-89 103 -89 262q0 192 115 331q124 148 311 148q80 0 145 -30t111 -93l20 107h197l-103 -609l-4 -29l-2 -16q0 -11 9 -22q8 -6 24 -8q34 0 78 32q38 27 65 62q38 54 61 134.5t23 152.5q0 256 -164 408
q-159 147 -419 147q-277 0 -456 -180t-179 -457q0 -286 193 -464q186 -171 476 -171q118 0 222 47q96 42 190 127zM580 707q0 -76 42 -129.5t117 -53.5q94 0 153.5 68.5t59.5 163.5q0 76 -47 127t-123 51q-81 0 -141.5 -71.5t-60.5 -155.5z" />
    <glyph glyph-name="A" unicode="A" horiz-adv-x="1516" 
d="M14 0l631 1513h219l637 -1513h-309l-164 391h-536l-168 -391h-310zM594 664h324l-162 458z" />
    <glyph glyph-name="B" unicode="B" horiz-adv-x="1188" 
d="M139 0v1513h275h62q73 0 123.5 -3t88.5 -11q73 -14 129 -43q94 -48 153.5 -142t59.5 -198q0 -94 -41 -169q-44 -80 -125 -120q123 -39 190.5 -137t67.5 -229q0 -109 -47.5 -201.5t-136.5 -159.5q-81 -59 -200 -83q-90 -17 -220 -17h-379zM420 272h117q46 0 81.5 3
t60.5 10q48 12 87 39t57.5 63.5t18.5 85.5q0 54 -24.5 90.5t-76.5 65.5q-35 19 -77 24.5t-96 5.5h-25h-123v-387zM420 932h53h23h14h11q43 0 71 4q18 0 35 4.5t37 13.5q39 18 62.5 56.5t23.5 83.5t-24.5 79t-70.5 54q-21 9 -45 12l-55 4l-44 -1l-40 -1h-51v-309z" />
    <glyph glyph-name="C" unicode="C" horiz-adv-x="1597" 
d="M1223 412h325q-84 -203 -284 -328q-194 -121 -418 -121q-324 0 -554.5 234.5t-230.5 560.5q0 321 230 552.5t547 231.5q232 0 431.5 -124.5t286.5 -336.5h-319q-70 87 -176 138t-221 51q-205 0 -351.5 -154t-146.5 -368q0 -205 149 -358.5t351 -153.5q107 0 204 45
t177 131z" />
    <glyph glyph-name="D" unicode="D" horiz-adv-x="1434" 
d="M139 0v1513h318q142 0 225 -11q119 -15 220 -52t190 -113q120 -102 192 -265q34 -78 51 -157.5t17 -164.5q0 -159 -69.5 -316t-190.5 -260q-86 -72 -193 -114q-92 -35 -211 -50q-38 -4 -99 -7t-126 -3h-324zM420 272h35q182 0 281 28q83 23 153 75q87 68 134.5 165
t47.5 210q0 120 -51.5 227.5t-149.5 173.5q-82 56 -207 77q-86 13 -223 13h-20v-969z" />
    <glyph glyph-name="E" unicode="E" horiz-adv-x="1065" 
d="M139 0v1513h813v-272h-532v-348h510v-272h-510v-349h532v-272h-813z" />
    <glyph glyph-name="F" unicode="F" horiz-adv-x="983" 
d="M139 0v1513h770v-272h-489v-348h467v-272h-467v-621h-281z" />
    <glyph glyph-name="G" unicode="G" horiz-adv-x="1720" 
d="M1599 1069h-335q-66 93 -174.5 147t-223.5 54q-97 0 -187 -33.5t-163 -97.5q-79 -70 -126.5 -173.5t-47.5 -207.5q0 -48 9 -94.5t28.5 -93.5t46.5 -88t61 -76q77 -82 179.5 -126t212.5 -44q132 0 255.5 75t186.5 197h-633v264h987v-33q0 -326 -240 -554
q-234 -222 -565 -222t-568 225q-241 229 -241 560t237.5 562.5t567.5 231.5q236 0 439 -127q210 -132 294 -346z" />
    <glyph glyph-name="H" unicode="H" horiz-adv-x="1393" 
d="M139 0v1513h281v-606h541v606h280v-1513h-280v635h-541v-635h-281z" />
    <glyph glyph-name="I" unicode="I" horiz-adv-x="573" 
d="M139 0v1513h281v-1513h-281z" />
    <glyph glyph-name="J" unicode="J" horiz-adv-x="983" 
d="M567 1513h281v-1067q0 -109 -10 -159q-15 -79 -64 -150q-53 -79 -143 -126.5t-191 -47.5q-172 0 -294 106q-128 110 -128 279h281q9 -48 43 -76t86 -28q79 0 113 55q26 43 26 129v1085z" />
    <glyph glyph-name="K" unicode="K" horiz-adv-x="1270" 
d="M139 0v1513h281v-655l471 655h336l-572 -743l572 -770h-336l-471 664v-664h-281z" />
    <glyph glyph-name="L" unicode="L" horiz-adv-x="901" 
d="M139 0v1513h281v-1241h463v-272h-744z" />
    <glyph glyph-name="M" unicode="M" horiz-adv-x="1843" 
d="M139 0v1513h383l406 -1157l411 1157h381v-1513h-280v1135l-391 -1135h-238l-391 1135v-1135h-281z" />
    <glyph glyph-name="N" unicode="N" horiz-adv-x="1516" 
d="M139 0v1513h316l630 -1105v1105h281v-1513h-311l-635 1102v-1102h-281z" />
    <glyph glyph-name="O" unicode="O" horiz-adv-x="1720" 
d="M850 1542q326 0 557 -231.5t231 -560.5q0 -327 -232 -557t-556 -230t-556.5 229.5t-232.5 557.5q0 329 231 560.5t558 231.5zM850 1270q-211 0 -359.5 -150.5t-148.5 -363.5q0 -210 150.5 -365t357.5 -155t357.5 155t150.5 365q0 214 -148.5 364t-359.5 150z" />
    <glyph glyph-name="P" unicode="P" horiz-adv-x="1147" 
d="M420 0h-281v1513h357q59 0 98 -1q38 -1 72 -2q23 0 51.5 -4.5t62.5 -14.5q63 -15 125 -57q93 -63 147 -165.5t54 -215.5q0 -115 -46 -216.5t-134 -170.5q-57 -47 -139 -69q-34 -10 -66 -15.5t-65 -5.5q-53 0 -97 -1t-84 -2h-55v-573zM420 846h51h54q19 0 50 1q30 1 41 1
q17 0 34.5 3.5t37.5 10.5q62 20 99.5 71t37.5 116q0 67 -39.5 114.5t-105.5 65.5q-23 5 -35.5 7t-30.5 2l-84 3h-59h-51v-395z" />
    <glyph glyph-name="Q" unicode="Q" horiz-adv-x="1720" 
d="M1696 215v-252q-112 0 -210 27.5t-183 87.5q-86 -53 -203.5 -84t-231.5 -31q-330 0 -567 225q-240 228 -240 560q0 166 55 306t167 251.5t263.5 174t311.5 62.5q334 0 570 -226q241 -232 241 -568q0 -146 -42.5 -264t-137.5 -228q34 -19 77 -30q19 -5 41.5 -8t43.5 -3h45
zM1067 285q-121 90 -231 138q-135 60 -261 60q-37 0 -72 -6q-32 -4 -67 -18q81 -112 201 -170q114 -53 258 -53q54 0 108 21zM342 766l4 -82q41 12 102 20q28 3 55 5t56 2q123 0 225 -27q50 -13 104 -34.5t109 -51.5q91 -47 141 -80q69 -44 128 -100q58 61 90.5 147.5
t32.5 177.5q0 217 -152.5 372t-368.5 155q-105 0 -201 -41t-175 -121q-66 -66 -108 -158.5t-42 -183.5z" />
    <glyph glyph-name="R" unicode="R" horiz-adv-x="1188" 
d="M139 0v1513h439q64 0 116 -4t91 -13q107 -24 186.5 -90t127.5 -166t48 -206q0 -44 -8 -86t-27 -91q-34 -92 -88.5 -150.5t-124.5 -95.5q-62 -32 -145 -52l409 -559h-346l-397 580v-580h-281zM420 793h153q73 0 118 11q66 15 106 52q69 66 69 164q0 51 -20 95t-62 75.5
t-99 43.5q-18 3 -45 5t-65 2h-155v-448z" />
    <glyph glyph-name="S" unicode="S" horiz-adv-x="1065" 
d="M29 426h293q0 -86 63 -140q59 -50 147 -50q40 0 75 13t64 40q58 55 58 137q0 78 -40 131q-32 41 -100 77q-43 21 -124 48q-101 33 -140 52q-69 33 -122.5 87t-86.5 134q-16 39 -24 77.5t-8 79.5q0 183 131 306.5t315 123.5q177 0 310 -127t133 -303h-289q0 66 -51 112
t-119 46q-67 0 -108 -45.5t-41 -114.5q0 -57 36 -99q42 -48 154 -85q131 -45 155 -56q79 -34 140 -84q160 -127 160 -344q0 -200 -144.5 -339.5t-347.5 -139.5q-195 0 -342 134t-147 329z" />
    <glyph glyph-name="T" unicode="T" horiz-adv-x="860" 
d="M293 0v1241h-279v272h842v-272h-283v-1241h-280z" />
    <glyph glyph-name="U" unicode="U" 
d="M139 1513h281v-944v-39q0 -28 1 -51t5 -50.5t23 -63.5q30 -59 83 -94t117 -35q56 0 106.5 27t84.5 79q27 45 36 109q5 43 5 118v944h280v-944q0 -133 -18 -216q-24 -112 -92 -193q-73 -87 -180.5 -142t-221.5 -55q-105 0 -209.5 51t-178 134.5t-102.5 197.5
q-10 42 -15 95.5t-5 127.5v944z" />
    <glyph glyph-name="V" unicode="V" horiz-adv-x="1434" 
d="M604 0l-588 1513h295l408 -1151l407 1151h295l-585 -1513h-232z" />
    <glyph glyph-name="W" unicode="W" horiz-adv-x="1843" 
d="M455 0l-441 1513h287l264 -1058l260 1058h205l256 -1058l266 1058h287l-440 -1513h-223l-246 1001l-252 -1001h-223z" />
    <glyph glyph-name="X" unicode="X" horiz-adv-x="1393" 
d="M10 0l522 754l-522 759h328l358 -520l361 520h327l-524 -759l524 -754h-327l-361 516l-358 -516h-328z" />
    <glyph glyph-name="Y" unicode="Y" horiz-adv-x="1270" 
d="M504 0v559l-498 954h309l330 -696l330 696h307l-498 -954v-559h-280z" />
    <glyph glyph-name="Z" unicode="Z" horiz-adv-x="1024" 
d="M37 240l575 1001h-542v272h874v-253l-571 -988h610v-272h-946v240z" />
    <glyph glyph-name="bracketleft" unicode="[" horiz-adv-x="655" 
d="M598 1513v-292q-103 -33 -142 -158q-24 -78 -24 -223v-465q0 -165 48 -249q38 -68 118 -95v-291q-94 0 -189 66q-78 55 -144 148.5t-93 222.5q-10 49 -15 108t-5 137v473q0 135 21 219q27 104 98 194.5t144 140.5q93 64 183 64z" />
    <glyph glyph-name="backslash" unicode="\" 
d="M817 0l-645 1513h213l645 -1513h-213z" />
    <glyph glyph-name="bracketright" unicode="]" horiz-adv-x="655" 
d="M522 895v-473q0 -153 -19 -245q-26 -127 -95 -224q-65 -93 -143 -147q-93 -66 -189 -66v291q99 33 138 140q14 39 21 88t7 116v465q0 143 -24 223q-37 122 -142 158v292q91 0 183 -64q72 -51 142 -138t99 -197q22 -90 22 -219z" />
    <glyph glyph-name="asciicircum" unicode="^" horiz-adv-x="1229" 
d="M342 645l-213 96l369 772h245l369 -772l-213 -96l-278 572z" />
    <glyph glyph-name="underscore" unicode="_" horiz-adv-x="1024" 
d="M1024 -283h-1024v185h1024v-185z" />
    <glyph glyph-name="grave" unicode="`" horiz-adv-x="860" 
d="M152 1511l116 209l455 -276l-109 -189z" />
    <glyph glyph-name="a" unicode="a" horiz-adv-x="1352" 
d="M1260 1135v-1135h-250v154q-63 -85 -172.5 -138t-216.5 -53q-131 0 -235.5 49t-182.5 142q-68 82 -105 189.5t-37 223.5q0 123 33.5 221.5t112.5 186.5q86 100 192 148t230 48q118 0 215.5 -50t165.5 -146v160h250zM1001 569q0 145 -91 240.5t-236 95.5
q-147 0 -243.5 -98.5t-96.5 -249.5q0 -138 98 -233t238 -95q145 0 238 96t93 244z" />
    <glyph glyph-name="b" unicode="b" horiz-adv-x="1352" 
d="M111 0v1513h272v-497q56 77 158 119q90 36 196 36q243 0 409 -182q161 -178 161 -422q0 -106 -39.5 -220t-106.5 -193q-74 -90 -184.5 -140.5t-231.5 -50.5q-120 0 -216 45q-102 48 -169 146v-154h-249zM709 905q-140 0 -241 -92t-101 -231q0 -151 95 -252t247 -101
q143 0 234 96t91 240q0 145 -89 241q-92 99 -236 99z" />
    <glyph glyph-name="c" unicode="c" 
d="M924 369h307q-54 -179 -213 -292.5t-350 -113.5q-113 0 -226.5 45.5t-195.5 124.5q-91 88 -138 201t-47 241q0 247 177.5 421.5t427.5 174.5q188 0 351 -115t214 -298h-307q-87 147 -262 147q-144 0 -236 -95t-92 -239q0 -150 96 -246t246 -96q77 0 141 37.5t107 102.5z
" />
    <glyph glyph-name="d" unicode="d" horiz-adv-x="1352" 
d="M1255 1513v-1513h-249v154q-60 -90 -164 -140.5t-217 -50.5q-123 0 -227.5 50.5t-182.5 140.5q-72 83 -113 191t-41 218q0 60 9 114.5t29 108.5q39 106 116 192.5t190 139.5t228 53q100 0 193.5 -39.5t156.5 -113.5v495h272zM1001 569q0 140 -99.5 238t-239.5 98
q-131 0 -229.5 -99.5t-98.5 -230.5q0 -143 95.5 -244.5t236.5 -101.5q139 0 237 99.5t98 240.5z" />
    <glyph glyph-name="e" unicode="e" 
d="M1231 446h-881q30 -99 112.5 -158t186.5 -59q79 0 146.5 26.5t107.5 72.5h301q-51 -153 -208 -259t-337 -106q-246 0 -423 174q-87 87 -131 192t-44 230q0 252 174 432t429 180q240 0 410.5 -177.5t170.5 -418.5v-39q-3 -17 -4 -25zM346 688h625q-33 98 -118 157.5
t-191 59.5q-104 0 -195 -60t-121 -157z" />
    <glyph glyph-name="f" unicode="f" horiz-adv-x="573" 
d="M117 0v893h-97v242h97q0 167 99 284q105 123 271 123l74 -4v-270q-96 0 -128 -19q-44 -27 -44 -114h158v-242h-158v-893h-272z" />
    <glyph glyph-name="g" unicode="g" horiz-adv-x="1352" 
d="M1001 1135h250v-963q0 -138 -33 -236q-36 -108 -125 -201t-208 -144.5t-244 -51.5q-184 0 -342 102t-221 273h309q44 -47 116 -78t138 -31q69 0 137 24.5t117 70.5q44 39 66 85t43 173q-75 -94 -160 -141q-95 -54 -207 -54q-105 0 -216 49t-190 129q-82 86 -127 202
q-21 59 -32 118t-11 123q0 110 39 210.5t113 184.5q81 90 192 141t238 51q117 0 208 -46q98 -50 150 -146v156zM995 563q0 146 -96.5 244t-243.5 98q-62 0 -123.5 -26t-108.5 -75q-43 -46 -68 -105q-21 -56 -21 -126q0 -148 97.5 -246t244.5 -98q132 0 225.5 99.5
t93.5 234.5z" />
    <glyph glyph-name="h" unicode="h" horiz-adv-x="1229" 
d="M111 0v1513h272v-464q42 59 126 90.5t165 31.5q94 0 184 -41t150 -110q51 -58 80 -145q14 -43 21 -106.5t7 -154.5v-614h-272v555q0 208 -64 284q-56 66 -168 66q-121 0 -186 -98q-27 -43 -38 -125q-5 -48 -5 -131v-551h-272z" />
    <glyph glyph-name="i" unicode="i" horiz-adv-x="492" 
d="M111 0v1135h272v-1135h-272zM111 1266v247h272v-247h-272z" />
    <glyph glyph-name="j" unicode="j" horiz-adv-x="532" 
d="M147 1135h273v-1065q0 -101 -21 -176q-24 -89 -86 -156q-47 -53 -124 -86q-38 -15 -75.5 -23t-78.5 -8v264q55 0 81 26q31 31 31 126v41v1057zM147 1266v247h273v-247h-273z" />
    <glyph glyph-name="k" unicode="k" horiz-adv-x="1188" 
d="M111 0v1513h272v-913l365 535h321l-410 -555l478 -580h-365l-389 530v-530h-272z" />
    <glyph glyph-name="l" unicode="l" horiz-adv-x="492" 
d="M111 0v1513h272v-1513h-272z" />
    <glyph glyph-name="m" unicode="m" horiz-adv-x="1925" 
d="M111 0v1135h249v-105q36 70 130 109q79 32 169 32q89 0 170 -36.5t134 -104.5l14 -16l12 -19q6 12 13 19l16 16q56 66 148 103.5t184 37.5q109 0 194 -32.5t153.5 -108t95.5 -183.5q19 -82 19 -210v-637h-272v604v18v15v12q0 20 -1 37t-4 30q-9 66 -35 104.5t-72.5 61.5
t-98.5 23q-59 0 -107 -24t-81 -74q-18 -29 -32 -85q-5 -24 -8 -62t-3 -87v-32v-541h-273v604v18v15v12q0 44 -5 63q-9 58 -37.5 100.5t-77 67.5t-101.5 25q-100 0 -153 -59q-44 -47 -59 -139q-9 -56 -9 -166v-541h-272z" />
    <glyph glyph-name="n" unicode="n" horiz-adv-x="1229" 
d="M111 0v1135h251v-105q53 69 136.5 105t177.5 36q90 0 176 -37t147 -104l17 -17q5 -3 12 -16q59 -81 78 -196q12 -72 12 -213v-588h-272v535v24v19v16v13v11q0 40 -5 59q-9 83 -41 129q-30 48 -79.5 73.5t-102.5 25.5q-54 0 -108 -27.5t-82 -72t-37 -110.5
q-4 -33 -6 -66.5t-2 -79.5v-35v-514h-272z" />
    <glyph glyph-name="o" unicode="o" 
d="M674 1171q247 0 421 -178q87 -89 130 -195t43 -233q0 -250 -178 -426t-428 -176q-245 0 -423 177t-178 425q0 254 179 430t434 176zM662 905q-30 0 -62 -7t-64 -22q-62 -27 -108 -73.5t-70 -108t-24 -129.5q0 -139 95 -237.5t233 -98.5q142 0 237.5 96.5t95.5 239.5
q0 142 -97 241t-236 99z" />
    <glyph glyph-name="p" unicode="p" horiz-adv-x="1352" 
d="M111 -379v1514h249v-148q66 93 160 138.5t209 45.5q128 0 225.5 -42.5t186.5 -141.5q37 -38 66 -85.5t50 -103.5q41 -111 41 -231q0 -246 -160 -422q-165 -182 -409 -182q-111 0 -193.5 37.5t-152.5 122.5v-502h-272zM700 905q-141 0 -237 -97.5t-96 -240.5
q0 -75 25 -138.5t81 -113.5q42 -39 102 -62.5t115 -23.5q145 0 240.5 98t95.5 242q0 139 -93.5 237.5t-232.5 98.5z" />
    <glyph glyph-name="q" unicode="q" horiz-adv-x="1352" 
d="M1001 1135h250v-1514h-272v502q-64 -80 -152 -120t-194 -40q-245 0 -412 186q-160 181 -160 429q0 116 43.5 222t121 188.5t184.5 132.5t221 50q118 0 213 -44.5t157 -139.5v148zM670 905q-145 0 -240.5 -95t-95.5 -239q0 -147 94 -244.5t242 -97.5q135 0 229 101t94 237
q0 135 -94 236.5t-229 101.5z" />
    <glyph glyph-name="r" unicode="r" horiz-adv-x="655" 
d="M111 0v1135h247v-103q49 73 108 106t140 33h21v-264q-23 0 -44 -3t-45 -11q-40 -12 -77 -39q-50 -41 -68 -109q-10 -45 -10 -133v-612h-272z" />
    <glyph glyph-name="s" unicode="s" horiz-adv-x="901" 
d="M829 823h-266q-6 40 -35.5 61t-68.5 21q-45 0 -76 -25t-31 -71q0 -48 56 -77q17 -8 98 -34q121 -37 172 -62q85 -42 130 -103q52 -73 52 -179q0 -158 -115 -272q-56 -53 -135.5 -86t-158.5 -33q-177 0 -294.5 110t-117.5 283h278q12 -58 47 -90q40 -37 97 -37
q52 0 89.5 28.5t37.5 80.5q0 59 -69 100q-12 7 -41 17.5t-83 29.5q-86 28 -108 38q-50 21 -97 61q-110 92 -110 237q0 153 116 254q111 96 267 96q142 0 254 -103t112 -245z" />
    <glyph glyph-name="t" unicode="t" horiz-adv-x="614" 
d="M152 0v893h-134v242h134v378h272v-378h164v-242h-164v-893h-272z" />
    <glyph glyph-name="u" unicode="u" horiz-adv-x="1229" 
d="M848 1135h272v-1135h-250v121q-43 -78 -119 -118t-173 -40q-105 0 -196 39t-161 114.5t-94 176.5q-8 37 -12 84t-4 117v641h272v-557q0 -70 6 -129t29 -103q27 -53 79.5 -85t114.5 -32q138 0 195 113q41 84 41 236v557z" />
    <glyph glyph-name="v" unicode="v" horiz-adv-x="1147" 
d="M461 0l-459 1135h303l264 -746l260 746h304l-459 -1135h-213z" />
    <glyph glyph-name="w" unicode="w" horiz-adv-x="1638" 
d="M430 0l-410 1135h289l211 -693l187 693h215l188 -693l209 693h289l-412 -1135h-168l-215 735l-215 -735h-168z" />
    <glyph glyph-name="x" unicode="x" horiz-adv-x="1147" 
d="M2 0l404 586l-353 549h316l198 -312l193 312h317l-350 -549l406 -586h-336l-230 367l-229 -367h-336z" />
    <glyph glyph-name="y" unicode="y" horiz-adv-x="1188" 
d="M219 -379l209 485l-416 1029h310l260 -727l272 727h309l-651 -1514h-293z" />
    <glyph glyph-name="z" unicode="z" horiz-adv-x="942" 
d="M41 0v242l504 651h-447v242h772v-242l-503 -651h538v-242h-864z" />
    <glyph glyph-name="braceleft" unicode="{" horiz-adv-x="696" 
d="M455 367v-392q0 -100 34 -153t129 -82h-57q-81 0 -117 7q-61 11 -113.5 45t-72.5 97q-14 47 -14 125v389v14v12q0 42 -5 57q-4 18 -13.5 37.5t-24.5 37.5q-48 54 -125 70q32 5 58.5 17t49.5 30q39 31 53 81q7 32 7 99v346q0 86 8 125q14 71 56.5 113.5t119.5 58.5
q22 4 59 7t80 3h51q-87 -24 -125 -81t-38 -152v-365q0 -126 -32 -183q-40 -73 -153 -99q107 -24 149 -91q36 -57 36 -173z" />
    <glyph glyph-name="bar" unicode="|" horiz-adv-x="1229" 
d="M498 0v1513h243v-1513h-243z" />
    <glyph glyph-name="braceright" unicode="}" horiz-adv-x="696" 
d="M242 913v365q0 97 -36 151.5t-128 81.5h53q115 0 168 -17t91.5 -54.5t53.5 -109.5q9 -45 9 -126v-346q0 -70 7 -98q12 -47 55.5 -82.5t105.5 -46.5q-37 -7 -68 -25q-29 -15 -56.5 -46.5t-36.5 -66.5q-3 -16 -5 -39t-2 -51v-389q0 -103 -23 -152q-18 -41 -63 -69
q-51 -33 -115 -45q-46 -8 -120 -8h-54q93 27 128.5 81t35.5 154v392q0 115 35 172q40 65 149 92q-110 24 -152 99q-32 59 -32 183z" />
    <glyph glyph-name="asciitilde" unicode="~" horiz-adv-x="1229" 
d="M1006 862l131 -149q-17 -26 -33 -52q-24 -38 -41 -59q-47 -62 -92 -91q-59 -38 -129 -38q-44 0 -97 15q-19 5 -92 34l-82 35l-76 32q-51 19 -81 19q-62 0 -110 -57q-12 -14 -68 -111l-132 152q40 73 74 117q48 63 100 97q63 40 132 40q66 0 156 -35l155 -67
q80 -33 119 -33q44 0 79 31q15 14 87 120z" />
    <glyph glyph-name="dieresis" unicode="&#xa8;" horiz-adv-x="1024" 
 />
    <glyph glyph-name="onequarter" unicode="&#xbc;" horiz-adv-x="1780" 
 />
    <glyph glyph-name="onehalf" unicode="&#xbd;" horiz-adv-x="1780" 
 />
    <glyph glyph-name="threequarters" unicode="&#xbe;" horiz-adv-x="1780" 
 />
    <glyph glyph-name=".notdef.106" unicode="&#xc0;" horiz-adv-x="1516" 
d="M14 0l631 1513h219l637 -1513h-309l-164 391h-536l-168 -391h-310zM479 1890l117 209l455 -276l-109 -189zM594 664h324l-162 458z" />
    <glyph glyph-name=".notdef.107" unicode="&#xc1;" horiz-adv-x="1516" 
d="M14 0l631 1513h219l637 -1513h-309l-164 391h-536l-168 -391h-310zM582 1634l-103 189l461 272l109 -213zM594 664h324l-162 458z" />
    <glyph glyph-name=".notdef.111" unicode="&#xc2;" horiz-adv-x="1516" 
d="M14 0l631 1513h219l637 -1513h-309l-164 391h-536l-168 -391h-310zM356 1649l303 282h215l300 -282h-297l-111 131l-113 -131h-297zM594 664h324l-162 458z" />
    <glyph glyph-name=".notdef.109" unicode="&#xc3;" horiz-adv-x="1516" 
d="M14 0l631 1513h219l637 -1513h-309l-164 391h-536l-168 -391h-310zM594 664h324l-162 458zM514 1654l-100 180q36 34 92 55t112 21q44 0 98 -18q115 -38 132 -40q36 0 73 15t68 43l103 -175q-47 -42 -94 -66t-103 -24q-44 0 -123.5 27t-122.5 27q-34 0 -68.5 -11
t-66.5 -34z" />
    <glyph glyph-name=".notdef.123" unicode="&#xc8;" horiz-adv-x="1065" 
d="M139 0v1513h813v-272h-532v-348h510v-272h-510v-349h532v-272h-813zM209 1890l117 209l454 -276l-108 -189z" />
    <glyph glyph-name=".notdef.124" unicode="&#xc9;" horiz-adv-x="1065" 
d="M139 0v1513h813v-272h-532v-348h510v-272h-510v-349h532v-272h-813zM356 1634l-102 189l461 272l108 -213z" />
    <glyph glyph-name=".notdef.128" unicode="&#xca;" horiz-adv-x="1065" 
d="M139 0v1513h813v-272h-532v-348h510v-272h-510v-349h532v-272h-813zM131 1649l303 282h215l299 -282h-297l-110 131l-113 -131h-297z" />
    <glyph glyph-name=".notdef.104" unicode="&#xcc;" horiz-adv-x="573" 
d="M139 0v1513h281v-1513h-281zM8 1890l117 209l455 -276l-109 -189z" />
    <glyph glyph-name=".notdef.103" unicode="&#xcd;" horiz-adv-x="573" 
d="M139 0v1513h281v-1513h-281zM111 1634l-103 189l461 272l109 -213z" />
    <glyph glyph-name=".notdef.099" unicode="&#xd2;" horiz-adv-x="1720" 
d="M850 1542q325 0 556.5 -231.5t231.5 -560.5q0 -326 -232 -556.5t-556 -230.5t-556.5 229.5t-232.5 557.5q0 327 231.5 559.5t557.5 232.5zM582 1890l116 209l455 -276l-109 -189zM850 1270q-210 0 -359 -151t-149 -363q0 -209 150 -364.5t358 -155.5t358 155.5t150 364.5
q0 214 -148 364t-360 150z" />
    <glyph glyph-name=".notdef.098" unicode="&#xd3;" horiz-adv-x="1720" 
d="M850 1542q325 0 556.5 -231.5t231.5 -560.5q0 -326 -232 -556.5t-556 -230.5t-556.5 229.5t-232.5 557.5q0 327 231.5 559.5t557.5 232.5zM684 1634l-102 189l460 272l109 -213zM850 1270q-210 0 -359 -151t-149 -363q0 -209 150 -364.5t358 -155.5t358 155.5t150 364.5
q0 214 -148 364t-360 150z" />
    <glyph glyph-name=".notdef.094" unicode="&#xd4;" horiz-adv-x="1720" 
d="M850 1542q326 0 557 -231.5t231 -560.5q0 -327 -232 -557t-556 -230t-556.5 229.5t-232.5 557.5q0 329 231 560.5t558 231.5zM459 1649l303 282h215l299 -282h-297l-111 131l-112 -131h-297zM850 1270q-211 0 -359.5 -150.5t-148.5 -363.5q0 -210 150.5 -365t357.5 -155
t357.5 155t150.5 365q0 214 -148.5 364t-359.5 150z" />
    <glyph glyph-name=".notdef.096" unicode="&#xd5;" horiz-adv-x="1720" 
d="M850 1542q326 0 557 -231.5t231 -560.5q0 -327 -232 -557t-556 -230t-556.5 229.5t-232.5 557.5q0 329 231 560.5t558 231.5zM850 1270q-211 0 -359.5 -150.5t-148.5 -363.5q0 -210 150.5 -365t357.5 -155t357.5 155t150.5 365q0 214 -148.5 364t-359.5 150zM612 1654
l-100 180q36 34 92 55t112 21q44 0 98 -18q115 -38 132 -40q36 0 73 15t68 43l103 -175q-47 -42 -94 -66t-103 -24q-44 0 -123.5 27t-122.5 27q-34 0 -68.5 -11t-66.5 -34z" />
    <glyph glyph-name=".notdef.088" unicode="&#xd9;" 
d="M139 1513h281v-944v-39l1 -51q0 -11 1 -24t4 -27q3 -29 23 -63q30 -59 83 -94t117 -35q55 0 106 27t85 79q27 45 36 109q5 47 5 118v944h280v-944q0 -132 -18 -216q-24 -112 -92 -193q-72 -87 -180.5 -142t-221.5 -55q-105 0 -209.5 51t-177.5 134.5t-103 197.5
q-9 43 -15 95q0 22 -2.5 67t-2.5 61v944zM377 1890l117 209l454 -276l-108 -189z" />
    <glyph glyph-name=".notdef.087" unicode="&#xda;" 
d="M139 1513h281v-944v-39l1 -51q0 -11 1 -24t4 -27q3 -29 23 -63q30 -59 83 -94t117 -35q55 0 106 27t85 79q27 45 36 109q5 47 5 118v944h280v-944q0 -132 -18 -216q-24 -112 -92 -193q-72 -87 -180.5 -142t-221.5 -55q-105 0 -209.5 51t-177.5 134.5t-103 197.5
q-9 43 -15 95q0 22 -2.5 67t-2.5 61v944zM479 1634l-102 189l461 272l108 -213z" />
    <glyph glyph-name=".notdef.070" unicode="&#xdd;" horiz-adv-x="1270" 
d="M504 0v559l-498 954h309l330 -696l330 696h307l-498 -954v-559h-280zM467 1634l-103 189l461 272l109 -213z" />
    <glyph glyph-name=".notdef.066" unicode="&#xe0;" horiz-adv-x="1352" 
d="M1260 1135v-1135h-250v154q-63 -85 -172.5 -138t-216.5 -53q-131 0 -235.5 49t-182.5 142q-68 82 -105 189.5t-37 223.5q0 123 33.5 221.5t112.5 186.5q86 100 192 148t230 48q118 0 215.5 -50t165.5 -146v160h250zM397 1511l117 209l455 -276l-109 -189zM1001 569
q0 145 -91 240.5t-236 95.5q-147 0 -243.5 -98.5t-96.5 -249.5q0 -138 98 -233t238 -95q145 0 238 96t93 244z" />
    <glyph glyph-name=".notdef.065" unicode="&#xe1;" horiz-adv-x="1352" 
d="M1260 1135v-1135h-250v154q-63 -85 -172.5 -138t-216.5 -53q-131 0 -235.5 49t-182.5 142q-68 82 -105 189.5t-37 223.5q0 123 33.5 221.5t112.5 186.5q86 100 192 148t230 48q118 0 215.5 -50t165.5 -146v160h250zM500 1255l-103 189l461 272l109 -213zM1001 569
q0 145 -91 240.5t-236 95.5q-147 0 -243.5 -98.5t-96.5 -249.5q0 -138 98 -233t238 -95q145 0 238 96t93 244z" />
    <glyph glyph-name=".notdef.061" unicode="&#xe2;" horiz-adv-x="1352" 
d="M1260 1135v-1135h-250v154q-63 -85 -172.5 -138t-216.5 -53q-131 0 -235.5 49t-182.5 142q-68 82 -105 189.5t-37 223.5q0 123 33.5 221.5t112.5 186.5q86 100 192 148t230 48q118 0 215.5 -50t165.5 -146v160h250zM274 1270l304 282h215l299 -282h-297l-111 131
l-113 -131h-297zM1001 569q0 145 -91 240.5t-236 95.5q-147 0 -243.5 -98.5t-96.5 -249.5q0 -138 98 -233t238 -95q145 0 238 96t93 244z" />
    <glyph glyph-name=".notdef.063" unicode="&#xe3;" horiz-adv-x="1352" 
d="M1260 1135v-1135h-250v154q-63 -85 -172.5 -138t-216.5 -53q-131 0 -235.5 49t-182.5 142q-68 82 -105 189.5t-37 223.5q0 123 33.5 221.5t112.5 186.5q86 100 192 148t230 48q118 0 215.5 -50t165.5 -146v160h250zM436 1278l-100 180q37 34 92.5 55t112.5 21
q42 0 98 -18q116 -39 131 -39q41 0 76 14.5t65 42.5l103 -174q-47 -42 -94 -66t-103 -24q-24 0 -55 6t-72 20q-78 27 -119 27q-73 0 -135 -45zM1001 569q0 145 -91 240.5t-236 95.5q-147 0 -243.5 -98.5t-96.5 -249.5q0 -138 98 -233t238 -95q145 0 238 96t93 244z" />
    <glyph glyph-name=".notdef.049" unicode="&#xe8;" 
d="M1231 446h-881q30 -99 112.5 -158t186.5 -59q79 0 146.5 26.5t107.5 72.5h301q-51 -153 -208 -259t-337 -106q-246 0 -423 174q-87 87 -131 192t-44 230q0 252 174 432t429 180q240 0 410.5 -177.5t170.5 -418.5v-39q-3 -17 -4 -25zM377 1511l117 209l454 -276l-108 -189
zM346 688h625q-33 98 -118 157.5t-191 59.5q-104 0 -195 -60t-121 -157z" />
    <glyph glyph-name=".notdef.048" unicode="&#xe9;" 
d="M1231 446h-881q30 -99 112.5 -158t186.5 -59q79 0 146.5 26.5t107.5 72.5h301q-51 -153 -208 -259t-337 -106q-246 0 -423 174q-87 87 -131 192t-44 230q0 252 174 432t429 180q240 0 410.5 -177.5t170.5 -418.5v-39q-3 -17 -4 -25zM479 1255l-102 189l461 272l108 -213z
M346 688h625q-33 98 -118 157.5t-191 59.5q-104 0 -195 -60t-121 -157z" />
    <glyph glyph-name=".notdef.044" unicode="&#xea;" 
d="M1231 446h-881q30 -99 112.5 -158t186.5 -59q79 0 146.5 26.5t107.5 72.5h301q-51 -153 -208 -259t-337 -106q-246 0 -423 174q-87 87 -131 192t-44 230q0 252 174 432t429 180q240 0 410.5 -177.5t170.5 -418.5v-39q-3 -17 -4 -25zM254 1270l303 282h215l299 -282h-297
l-110 131l-113 -131h-297zM346 688h625q-33 98 -118 157.5t-191 59.5q-104 0 -195 -60t-121 -157z" />
    <glyph glyph-name=".notdef.038" unicode="&#xec;" horiz-adv-x="492" 
d="M111 0v1135h272v-1135h-272zM-33 1511l117 209l455 -276l-109 -189z" />
    <glyph glyph-name=".notdef.037" unicode="&#xed;" horiz-adv-x="492" 
d="M111 0v1135h272v-1135h-272zM70 1255l-103 189l461 272l109 -213z" />
    <glyph glyph-name=".notdef.033" unicode="&#xf2;" 
d="M674 1171q247 0 421 -178q87 -89 130 -195t43 -233q0 -250 -178 -426t-428 -176q-245 0 -423 177t-178 425q0 254 179 430t434 176zM377 1511l117 209l454 -276l-108 -189zM662 905q-30 0 -62 -7t-64 -22q-62 -27 -108 -73.5t-70 -108t-24 -129.5q0 -139 95 -237.5
t233 -98.5q142 0 237.5 96.5t95.5 239.5q0 142 -97 241t-236 99z" />
    <glyph glyph-name=".notdef.032" unicode="&#xf3;" 
d="M674 1171q247 0 421 -178q87 -89 130 -195t43 -233q0 -250 -178 -426t-428 -176q-245 0 -423 177t-178 425q0 254 179 430t434 176zM479 1255l-102 189l461 272l108 -213zM662 905q-30 0 -62 -7t-64 -22q-62 -27 -108 -73.5t-70 -108t-24 -129.5q0 -139 95 -237.5
t233 -98.5q142 0 237.5 96.5t95.5 239.5q0 142 -97 241t-236 99z" />
    <glyph glyph-name=".notdef.028" unicode="&#xf4;" 
d="M674 1171q247 0 421 -178q87 -89 130 -195t43 -233q0 -250 -178 -426t-428 -176q-245 0 -423 177t-178 425q0 254 179 430t434 176zM254 1270l303 282h215l299 -282h-297l-110 131l-113 -131h-297zM662 905q-30 0 -62 -7t-64 -22q-62 -27 -108 -73.5t-70 -108t-24 -129.5
q0 -139 95 -237.5t233 -98.5q142 0 237.5 96.5t95.5 239.5q0 142 -97 241t-236 99z" />
    <glyph glyph-name=".notdef.030" unicode="&#xf5;" 
d="M674 1171q247 0 421 -178q87 -89 130 -195t43 -233q0 -250 -178 -426t-428 -176q-245 0 -423 177t-178 425q0 254 179 430t434 176zM416 1278l-101 180q37 34 92.5 55t112.5 21q42 0 98 -18q116 -39 132 -39q41 0 76 14.5t65 42.5l102 -174q-45 -41 -92.5 -65.5
t-103.5 -24.5q-24 0 -55 6t-72 20q-78 27 -119 27q-73 0 -135 -45zM662 905q-30 0 -62 -7t-64 -22q-62 -27 -108 -73.5t-70 -108t-24 -129.5q0 -139 95 -237.5t233 -98.5q142 0 237.5 96.5t95.5 239.5q0 142 -97 241t-236 99z" />
    <glyph glyph-name="divide" unicode="&#xf7;" horiz-adv-x="1706" 
 />
    <glyph glyph-name=".notdef.022" unicode="&#xf9;" horiz-adv-x="1229" 
d="M848 1135h272v-1135h-250v121q-43 -78 -119 -118t-173 -40q-105 0 -196 39t-161 114.5t-94 176.5q-8 37 -12 84t-4 117v641h272v-557q0 -70 6 -129t29 -103q27 -53 79.5 -85t114.5 -32q138 0 195 113q41 84 41 236v557zM336 1511l117 209l454 -276l-108 -189z" />
    <glyph glyph-name=".notdef.021" unicode="&#xfa;" horiz-adv-x="1229" 
d="M848 1135h272v-1135h-250v121q-43 -78 -119 -118t-173 -40q-105 0 -196 39t-161 114.5t-94 176.5q-8 37 -12 84t-4 117v641h272v-557q0 -70 6 -129t29 -103q27 -53 79.5 -85t114.5 -32q138 0 195 113q41 84 41 236v557zM438 1255l-102 189l461 272l108 -213z" />
    <glyph glyph-name=".notdef.004" unicode="&#xfd;" horiz-adv-x="1188" 
d="M219 -379l209 485l-416 1029h310l260 -727l272 727h309l-651 -1514h-293zM418 1255l-103 189l461 272l109 -213z" />
    <glyph glyph-name=".notdef.117" unicode="&#x102;" horiz-adv-x="1516" 
d="M14 0l631 1513h219l637 -1513h-309l-164 391h-536l-168 -391h-310zM594 664h324l-162 458zM590 1899q13 -32 32.5 -56t39.5 -36q18 -8 42.5 -11.5t50 -3.5t49 4t40.5 12q19 12 37 35.5t30 55.5h201q-27 -126 -136 -212q-44 -33 -100 -49.5t-122 -16.5t-122 16.5
t-100 49.5q-109 86 -136 212h194z" />
    <glyph glyph-name=".notdef.055" unicode="&#x103;" horiz-adv-x="1352" 
d="M1260 1135v-1135h-250v154q-63 -85 -172.5 -138t-216.5 -53q-131 0 -235.5 49t-182.5 142q-68 82 -105 189.5t-37 223.5q0 123 33.5 221.5t112.5 186.5q86 100 192 148t230 48q118 0 215.5 -50t165.5 -146v160h250zM1001 569q0 145 -91 240.5t-236 95.5
q-147 0 -243.5 -98.5t-96.5 -249.5q0 -138 98 -233t238 -95q145 0 238 96t93 244zM554 1535q13 -32 32.5 -56t39.5 -36q18 -8 42.5 -11.5t50 -3.5t49 4t40.5 12q19 12 37 35.5t30 55.5h201q-27 -126 -136 -212q-44 -33 -100 -49.5t-122 -16.5t-122 16.5t-100 49.5
q-109 86 -136 212h194z" />
    <glyph glyph-name="Ccaron" unicode="&#x10c;" horiz-adv-x="1274" 
 />
    <glyph glyph-name="ccaron" unicode="&#x10d;" horiz-adv-x="922" 
 />
    <glyph glyph-name="Dslash" unicode="&#x110;" horiz-adv-x="1520" 
d="M549 0h-324v655h-196v217h196v641h318q142 0 225 -11q119 -15 220 -52t190 -113q120 -102 192 -265q34 -78 51 -157.5t17 -164.5q0 -159 -69.5 -316t-190.5 -260q-86 -72 -193 -114q-92 -35 -211 -50q-38 -4 -99 -7t-126 -3zM743 872v-217h-237v-383h35q182 0 281 28
q83 23 153 75q87 68 134.5 165t47.5 210q0 120 -51.5 227.5t-149.5 173.5q-82 56 -207 77q-86 13 -223 13h-20v-369h237z" />
    <glyph glyph-name="dcroat" unicode="&#x111;" horiz-adv-x="1352" 
d="M1001 569q0 140 -99.5 238t-239.5 98q-131 0 -229.5 -99.5t-98.5 -230.5q0 -143 95.5 -244.5t236.5 -101.5q139 0 237 99.5t98 240.5zM727 1484h256v106h272v-104l98 -1v-176l-98 -4v-1305h-249v154q-60 -90 -164 -140.5t-217 -50.5q-123 0 -227.5 50.5t-182.5 140.5
q-72 83 -113 191t-41 218q0 60 9 114.5t29 108.5q39 106 116 192.5t190 139.5t228 53q100 0 193.5 -39.5t156.5 -113.5v287h-254z" />
    <glyph glyph-name=".notdef.101" unicode="&#x128;" horiz-adv-x="573" 
d="M139 0v1513h281v-1513h-281zM49 1654l-100 180q36 34 92 55t112 21q44 0 98 -18q115 -38 132 -40q36 0 73 15t68 43l103 -175q-47 -42 -94 -66t-103 -24q-44 0 -123.5 27t-122.5 27q-34 0 -68.5 -11t-66.5 -34z" />
    <glyph glyph-name=".notdef.035" unicode="&#x129;" horiz-adv-x="492" 
d="M111 0v1135h272v-1135h-272zM0 1303l-100 180q36 34 92 55t112 21q44 0 98 -18q115 -38 132 -40q36 0 73 15t68 43l103 -175q-47 -42 -94 -66t-103 -24q-44 0 -123.5 27t-122.5 27q-34 0 -68.5 -11t-66.5 -34z" />
    <glyph glyph-name=".notdef.085" unicode="&#x168;" 
d="M139 1513h281v-944v-39l1 -51q0 -11 1 -24t4 -27q3 -29 23 -63q30 -59 83 -94t117 -35q55 0 106 27t85 79q27 45 36 109q5 47 5 118v944h280v-944q0 -132 -18 -216q-24 -112 -92 -193q-72 -87 -180.5 -142t-221.5 -55q-105 0 -209.5 51t-177.5 134.5t-103 197.5
q-9 43 -15 95q0 22 -2.5 67t-2.5 61v944zM400 1654l-100 180q36 34 92 55t112 21q44 0 98 -18q115 -38 132 -40q36 0 73 15t68 43l103 -175q-47 -42 -94 -66t-103 -24q-44 0 -123.5 27t-122.5 27q-34 0 -68.5 -11t-66.5 -34z" />
    <glyph glyph-name=".notdef.019" unicode="&#x169;" horiz-adv-x="1229" 
d="M848 1135h272v-1135h-250v121q-43 -78 -119 -118t-173 -40q-105 0 -196 39t-161 114.5t-94 176.5q-8 37 -12 84t-4 117v641h272v-557q0 -70 6 -129t29 -103q27 -53 79.5 -85t114.5 -32q138 0 195 113q41 84 41 236v557zM379 1298l-100 181q37 35 92.5 55t111.5 20
q42 0 98 -18q116 -39 132 -39q40 0 73.5 14.5t67.5 42.5l102 -174q-45 -41 -92.5 -65.5t-103.5 -24.5q-24 0 -55 6t-72 20q-78 27 -119 27q-73 0 -135 -45z" />
    <glyph glyph-name=".notdef.077" unicode="&#x1a0;" horiz-adv-x="1720" 
d="M850 1270q-211 0 -359.5 -150.5t-148.5 -363.5q0 -210 150.5 -365t357.5 -155t357.5 155t150.5 365q0 214 -148.5 364t-359.5 150zM1217 1452v184h272v-247h-170q146 -109 232.5 -276.5t86.5 -362.5q0 -327 -232 -557t-556 -230t-556.5 229.5t-232.5 557.5
q0 329 231 560.5t558 231.5q54 0 97.5 -5t93.5 -18q90 -21 176 -67z" />
    <glyph glyph-name=".notdef.011" unicode="&#x1a1;" 
d="M662 905q-30 0 -62 -7t-64 -22q-62 -27 -108 -73.5t-70 -108t-24 -129.5q0 -139 95 -237.5t233 -98.5q142 0 237.5 96.5t95.5 239.5q0 142 -97 241t-236 99zM936 1110v160h272v-248h-143q93 -84 148 -204t55 -253q0 -250 -178 -426t-428 -176q-245 0 -423 177t-178 425
q0 254 179 430t434 176q71 0 136.5 -15.5t125.5 -45.5z" />
    <glyph glyph-name=".notdef.083" unicode="&#x1af;" 
d="M1161 1389v-820q0 -133 -18 -216q-24 -112 -92 -193q-73 -87 -180.5 -142t-221.5 -55q-105 0 -209.5 51t-178 134.5t-102.5 197.5q-10 42 -15 95.5t-5 127.5v944h281v-983q0 -28 1 -51t5 -50.5t23 -63.5q30 -59 83 -94t117 -35q56 0 106.5 27t84.5 79q27 45 36 109
q5 43 5 118v944h155v123h273v-247h-148z" />
    <glyph glyph-name=".notdef.017" unicode="&#x1b0;" horiz-adv-x="1229" 
d="M1120 1024v-1024h-250v121q-43 -78 -119 -118t-173 -40q-105 0 -196 39t-161 114.5t-94 176.5q-8 37 -12 84t-4 117v641h272v-557q0 -70 6 -129t29 -103q27 -53 79.5 -85t114.5 -32q138 0 195 113q41 84 41 236v557h151v137h273v-248h-152z" />
    <glyph glyph-name=".notdef.110" unicode="&#x1ea0;" horiz-adv-x="1516" 
d="M14 0l631 1513h219l637 -1513h-309l-164 391h-536l-168 -391h-310zM594 664h324l-162 458zM614 -408v273h273v-273h-273z" />
    <glyph glyph-name=".notdef.062" unicode="&#x1ea1;" horiz-adv-x="1352" 
d="M1260 1135v-1135h-250v154q-63 -85 -172.5 -138t-216.5 -53q-131 0 -235.5 49t-182.5 142q-68 82 -105 189.5t-37 223.5q0 123 33.5 221.5t112.5 186.5q86 100 192 148t230 48q118 0 215.5 -50t165.5 -146v160h250zM1001 569q0 145 -91 240.5t-236 95.5
q-147 0 -243.5 -98.5t-96.5 -249.5q0 -138 98 -233t238 -95q145 0 238 96t93 244zM545 -414v248h272v-248h-272z" />
    <glyph glyph-name=".notdef.108" unicode="&#x1ea2;" horiz-adv-x="1516" 
d="M14 0l631 1513h219l637 -1513h-309l-164 391h-536l-168 -391h-310zM594 664h324l-162 458zM512 1912v33l4 42q0 1 0.5 1.5t0.5 2.5q2 6 4.5 12.5t11.5 21.5h-1q7 19 20 37.5t31 38.5q14 14 33 26.5t45 23.5q60 22 103 22q51 0 92 -17t75 -52q67 -67 67 -163
q0 -38 -21.5 -77t-61.5 -74q-34 -32 -52 -68t-18 -74h-180q0 35 12.5 73t38.5 77l87 102q16 15 16 48q0 30 -17 49t-41 19q-26 0 -41 -15q-14 -11 -20.5 -34t-6.5 -55h-181z" />
    <glyph glyph-name=".notdef.064" unicode="&#x1ea3;" horiz-adv-x="1352" 
d="M1260 1135v-1135h-250v154q-63 -85 -172.5 -138t-216.5 -53q-131 0 -235.5 49t-182.5 142q-68 82 -105 189.5t-37 223.5q0 123 33.5 221.5t112.5 186.5q86 100 192 148t230 48q118 0 215.5 -50t165.5 -146v160h250zM1001 569q0 145 -91 240.5t-236 95.5
q-147 0 -243.5 -98.5t-96.5 -249.5q0 -138 98 -233t238 -95q145 0 238 96t93 244zM459 1518v33l4 42q0 1 0.5 1.5t0.5 2.5q2 6 4.5 12.5t11.5 21.5h-1q7 19 20 37.5t31 38.5q14 14 33 26.5t45 23.5q60 22 103 22q51 0 92 -17t75 -52q67 -67 67 -163q0 -38 -21.5 -77
t-61.5 -74q-34 -32 -52 -68t-18 -74h-180q0 35 12.5 73t38.5 77l87 102q16 15 16 48q0 30 -17 49t-41 19q-26 0 -41 -15q-14 -11 -20.5 -34t-6.5 -55h-181z" />
    <glyph glyph-name=".notdef.113" unicode="&#x1ea4;" horiz-adv-x="1516" 
d="M14 0l631 1513h219l637 -1513h-309l-164 391h-536l-168 -391h-310zM356 1649l303 282h215l300 -282h-297l-111 131l-113 -131h-297zM594 664h324l-162 458zM1116 1824l-103 189l461 272l109 -213z" />
    <glyph glyph-name=".notdef.059" unicode="&#x1ea5;" horiz-adv-x="1352" 
d="M1260 1135v-1135h-250v154q-63 -85 -172.5 -138t-216.5 -53q-131 0 -235.5 49t-182.5 142q-68 82 -105 189.5t-37 223.5q0 123 33.5 221.5t112.5 186.5q86 100 192 148t230 48q118 0 215.5 -50t165.5 -146v160h250zM274 1270l304 282h215l299 -282h-297l-111 131
l-113 -131h-297zM1001 569q0 145 -91 240.5t-236 95.5q-147 0 -243.5 -98.5t-96.5 -249.5q0 -138 98 -233t238 -95q145 0 238 96t93 244zM1036 1445l-103 189l461 272l109 -213z" />
    <glyph glyph-name=".notdef.112" unicode="&#x1ea6;" horiz-adv-x="1516" 
d="M14 0l631 1513h219l637 -1513h-309l-164 391h-536l-168 -391h-310zM356 1649l303 282h215l300 -282h-297l-111 131l-113 -131h-297zM594 664h324l-162 458zM847 2080l117 209l455 -276l-109 -189z" />
    <glyph glyph-name=".notdef.060" unicode="&#x1ea7;" horiz-adv-x="1352" 
d="M1260 1135v-1135h-250v154q-63 -85 -172.5 -138t-216.5 -53q-131 0 -235.5 49t-182.5 142q-68 82 -105 189.5t-37 223.5q0 123 33.5 221.5t112.5 186.5q86 100 192 148t230 48q118 0 215.5 -50t165.5 -146v160h250zM274 1270l304 282h215l299 -282h-297l-111 131
l-113 -131h-297zM1001 569q0 145 -91 240.5t-236 95.5q-147 0 -243.5 -98.5t-96.5 -249.5q0 -138 98 -233t238 -95q145 0 238 96t93 244zM766 1701l117 209l455 -276l-109 -189z" />
    <glyph glyph-name=".notdef.114" unicode="&#x1ea8;" horiz-adv-x="1516" 
d="M14 0l631 1513h219l637 -1513h-309l-164 391h-536l-168 -391h-310zM356 1649l303 282h215l300 -282h-297l-111 131l-113 -131h-297zM594 664h324l-162 458zM947 2087v33l4 42q0 1 0.5 1.5t0.5 2.5q2 6 4.5 12.5t11.5 21.5h-1q7 19 20 37.5t31 38.5q14 14 33 26.5t45 23.5
q60 22 103 22q51 0 92 -17t75 -52q67 -67 67 -163q0 -38 -21.5 -77t-61.5 -74q-34 -32 -52 -68t-18 -74h-180q0 35 12.5 73t38.5 77l87 102q16 15 16 48q0 30 -17 49t-41 19q-26 0 -41 -15q-14 -11 -20.5 -34t-6.5 -55h-181z" />
    <glyph glyph-name=".notdef.058" unicode="&#x1ea9;" horiz-adv-x="1352" 
d="M1260 1135v-1135h-250v154q-63 -85 -172.5 -138t-216.5 -53q-131 0 -235.5 49t-182.5 142q-68 82 -105 189.5t-37 223.5q0 123 33.5 221.5t112.5 186.5q86 100 192 148t230 48q118 0 215.5 -50t165.5 -146v160h250zM274 1270l304 282h215l299 -282h-297l-111 131
l-113 -131h-297zM1001 569q0 145 -91 240.5t-236 95.5q-147 0 -243.5 -98.5t-96.5 -249.5q0 -138 98 -233t238 -95q145 0 238 96t93 244zM864 1708v33l4 42q0 1 0.5 1.5t0.5 2.5q2 6 4.5 12.5t11.5 21.5h-1q7 19 20 37.5t31 38.5q14 14 33 26.5t45 23.5q60 22 103 22
q51 0 92 -17t75 -52q67 -67 67 -163q0 -38 -21.5 -77t-61.5 -74q-34 -32 -52 -68t-18 -74h-180q0 35 12.5 73t38.5 77l87 102q16 15 16 48q0 30 -17 49t-41 19q-26 0 -41 -15q-14 -11 -20.5 -34t-6.5 -55h-181z" />
    <glyph glyph-name=".notdef.115" unicode="&#x1eaa;" horiz-adv-x="1516" 
d="M14 0l631 1513h219l637 -1513h-309l-164 391h-536l-168 -391h-310zM356 1649l303 282h215l300 -282h-297l-111 131l-113 -131h-297zM594 664h324l-162 458zM520 2014l-100 180q36 34 92 55t112 21q44 0 98 -18q115 -38 132 -40q36 0 73 15t68 43l103 -175
q-47 -42 -94 -66t-103 -24q-44 0 -123.5 27t-122.5 27q-34 0 -68.5 -11t-66.5 -34z" />
    <glyph glyph-name=".notdef.057" unicode="&#x1eab;" horiz-adv-x="1352" 
d="M1260 1135v-1135h-250v154q-63 -85 -172.5 -138t-216.5 -53q-131 0 -235.5 49t-182.5 142q-68 82 -105 189.5t-37 223.5q0 123 33.5 221.5t112.5 186.5q86 100 192 148t230 48q118 0 215.5 -50t165.5 -146v160h250zM274 1270l304 282h215l299 -282h-297l-111 131
l-113 -131h-297zM1001 569q0 145 -91 240.5t-236 95.5q-147 0 -243.5 -98.5t-96.5 -249.5q0 -138 98 -233t238 -95q145 0 238 96t93 244zM439 1635l-100 180q36 34 92 55t112 21q44 0 98 -18q115 -38 132 -40q36 0 73 15t68 43l103 -175q-47 -42 -94 -66t-103 -24
q-44 0 -123.5 27t-122.5 27q-34 0 -68.5 -11t-66.5 -34z" />
    <glyph glyph-name=".notdef.116" unicode="&#x1eac;" horiz-adv-x="1516" 
d="M14 0l631 1513h219l637 -1513h-309l-164 391h-536l-168 -391h-310zM356 1649l303 282h215l300 -282h-297l-111 131l-113 -131h-297zM594 664h324l-162 458zM614 -408v273h273v-273h-273z" />
    <glyph glyph-name=".notdef.056" unicode="&#x1ead;" horiz-adv-x="1352" 
d="M1260 1135v-1135h-250v154q-63 -85 -172.5 -138t-216.5 -53q-131 0 -235.5 49t-182.5 142q-68 82 -105 189.5t-37 223.5q0 123 33.5 221.5t112.5 186.5q86 100 192 148t230 48q118 0 215.5 -50t165.5 -146v160h250zM274 1270l304 282h215l299 -282h-297l-111 131
l-113 -131h-297zM1001 569q0 145 -91 240.5t-236 95.5q-147 0 -243.5 -98.5t-96.5 -249.5q0 -138 98 -233t238 -95q145 0 238 96t93 244zM545 -414v248h272v-248h-272z" />
    <glyph glyph-name=".notdef.119" unicode="&#x1eae;" horiz-adv-x="1516" 
d="M14 0l631 1513h219l637 -1513h-309l-164 391h-536l-168 -391h-310zM594 664h324l-162 458zM590 1899q13 -32 32.5 -56t39.5 -36q18 -8 42.5 -11.5t50 -3.5t49 4t40.5 12q19 12 37 35.5t30 55.5h201q-27 -126 -136 -212q-44 -33 -100 -49.5t-122 -16.5t-122 16.5
t-100 49.5q-109 86 -136 212h194zM646 1918l-103 189l461 272l109 -213z" />
    <glyph glyph-name=".notdef.053" unicode="&#x1eaf;" horiz-adv-x="1352" 
d="M1260 1135v-1135h-250v154q-63 -85 -172.5 -138t-216.5 -53q-131 0 -235.5 49t-182.5 142q-68 82 -105 189.5t-37 223.5q0 123 33.5 221.5t112.5 186.5q86 100 192 148t230 48q118 0 215.5 -50t165.5 -146v160h250zM1001 569q0 145 -91 240.5t-236 95.5
q-147 0 -243.5 -98.5t-96.5 -249.5q0 -138 98 -233t238 -95q145 0 238 96t93 244zM554 1535q13 -32 32.5 -56t39.5 -36q18 -8 42.5 -11.5t50 -3.5t49 4t40.5 12q19 12 37 35.5t30 55.5h201q-27 -126 -136 -212q-44 -33 -100 -49.5t-122 -16.5t-122 16.5t-100 49.5
q-109 86 -136 212h194zM610 1554l-103 189l461 272l109 -213z" />
    <glyph glyph-name=".notdef.118" unicode="&#x1eb0;" horiz-adv-x="1516" 
d="M14 0l631 1513h219l637 -1513h-309l-164 391h-536l-168 -391h-310zM594 664h324l-162 458zM590 1899q13 -32 32.5 -56t39.5 -36q18 -8 42.5 -11.5t50 -3.5t49 4t40.5 12q19 12 37 35.5t30 55.5h201q-27 -126 -136 -212q-44 -33 -100 -49.5t-122 -16.5t-122 16.5
t-100 49.5q-109 86 -136 212h194zM389 2173l117 209l455 -276l-109 -189z" />
    <glyph glyph-name=".notdef.054" unicode="&#x1eb1;" horiz-adv-x="1352" 
d="M1260 1135v-1135h-250v154q-63 -85 -172.5 -138t-216.5 -53q-131 0 -235.5 49t-182.5 142q-68 82 -105 189.5t-37 223.5q0 123 33.5 221.5t112.5 186.5q86 100 192 148t230 48q118 0 215.5 -50t165.5 -146v160h250zM1001 569q0 145 -91 240.5t-236 95.5
q-147 0 -243.5 -98.5t-96.5 -249.5q0 -138 98 -233t238 -95q145 0 238 96t93 244zM554 1535q13 -32 32.5 -56t39.5 -36q18 -8 42.5 -11.5t50 -3.5t49 4t40.5 12q19 12 37 35.5t30 55.5h201q-27 -126 -136 -212q-44 -33 -100 -49.5t-122 -16.5t-122 16.5t-100 49.5
q-109 86 -136 212h194zM353 1809l117 209l455 -276l-109 -189z" />
    <glyph glyph-name=".notdef.120" unicode="&#x1eb2;" horiz-adv-x="1516" 
d="M14 0l631 1513h219l637 -1513h-309l-164 391h-536l-168 -391h-310zM594 664h324l-162 458zM589 1872q13 -30 32.5 -53.5t39.5 -34.5q18 -7 42.5 -10.5t49.5 -3.5t48.5 3.5t40.5 11.5q19 11 37 34t30 53h200q-27 -119 -135 -203q-44 -32 -100 -47.5t-122 -15.5
t-121.5 15.5t-99.5 47.5q-108 84 -135 203h193zM503 2135v33l4 42q0 1 0.5 1.5t0.5 2.5q2 6 4.5 12.5t11.5 21.5h-1q7 19 20 37.5t31 38.5q14 14 33 26.5t45 23.5q60 22 103 22q51 0 92 -17t75 -52q67 -67 67 -163q0 -38 -21.5 -77t-61.5 -74q-34 -32 -52 -68t-18 -74h-180
q0 35 12.5 73t38.5 77l87 102q16 15 16 48q0 30 -17 49t-41 19q-26 0 -41 -15q-14 -11 -20.5 -34t-6.5 -55h-181z" />
    <glyph glyph-name=".notdef.052" unicode="&#x1eb3;" horiz-adv-x="1352" 
d="M1260 1135v-1135h-250v154q-63 -85 -172.5 -138t-216.5 -53q-131 0 -235.5 49t-182.5 142q-68 82 -105 189.5t-37 223.5q0 123 33.5 221.5t112.5 186.5q86 100 192 148t230 48q118 0 215.5 -50t165.5 -146v160h250zM1001 569q0 145 -91 240.5t-236 95.5
q-147 0 -243.5 -98.5t-96.5 -249.5q0 -138 98 -233t238 -95q145 0 238 96t93 244zM555 1525q13 -30 32.5 -53.5t39.5 -34.5q18 -7 42.5 -10.5t49.5 -3.5t48.5 3.5t40.5 11.5q19 11 37 34t30 53h200q-27 -119 -135 -203q-44 -32 -100 -47.5t-122 -15.5t-121.5 15.5
t-99.5 47.5q-108 84 -135 203h193zM474 1802v33l4 42q0 1 0.5 1.5t0.5 2.5q2 6 4.5 12.5t11.5 21.5h-1q7 19 20 37.5t31 38.5q14 14 33 26.5t45 23.5q60 22 103 22q51 0 92 -17t75 -52q67 -67 67 -163q0 -38 -21.5 -77t-61.5 -74q-34 -32 -52 -68t-18 -74h-180q0 35 12.5 73
t38.5 77l87 102q16 15 16 48q0 30 -17 49t-41 19q-26 0 -41 -15q-14 -11 -20.5 -34t-6.5 -55h-181z" />
    <glyph glyph-name=".notdef.121" unicode="&#x1eb4;" horiz-adv-x="1516" 
d="M14 0l631 1513h219l637 -1513h-309l-164 391h-536l-168 -391h-310zM594 664h324l-162 458zM590 1899q13 -32 32.5 -56t39.5 -36q18 -8 42.5 -11.5t50 -3.5t49 4t40.5 12q19 12 37 35.5t30 55.5h201q-27 -126 -136 -212q-44 -33 -100 -49.5t-122 -16.5t-122 16.5
t-100 49.5q-109 86 -136 212h194zM507 1972l-100 180q36 34 92 55t112 21q44 0 98 -18q115 -38 132 -40q36 0 73 15t68 43l103 -175q-47 -42 -94 -66t-103 -24q-44 0 -123.5 27t-122.5 27q-34 0 -68.5 -11t-66.5 -34z" />
    <glyph glyph-name=".notdef.051" unicode="&#x1eb5;" horiz-adv-x="1352" 
d="M1260 1135v-1135h-250v154q-63 -85 -172.5 -138t-216.5 -53q-131 0 -235.5 49t-182.5 142q-68 82 -105 189.5t-37 223.5q0 123 33.5 221.5t112.5 186.5q86 100 192 148t230 48q118 0 215.5 -50t165.5 -146v160h250zM1001 569q0 145 -91 240.5t-236 95.5
q-147 0 -243.5 -98.5t-96.5 -249.5q0 -138 98 -233t238 -95q145 0 238 96t93 244zM554 1535q13 -32 32.5 -56t39.5 -36q18 -8 42.5 -11.5t50 -3.5t49 4t40.5 12q19 12 37 35.5t30 55.5h201q-27 -126 -136 -212q-44 -33 -100 -49.5t-122 -16.5t-122 16.5t-100 49.5
q-109 86 -136 212h194zM471 1608l-100 180q36 34 92 55t112 21q44 0 98 -18q115 -38 132 -40q36 0 73 15t68 43l103 -175q-47 -42 -94 -66t-103 -24q-44 0 -123.5 27t-122.5 27q-34 0 -68.5 -11t-66.5 -34z" />
    <glyph glyph-name=".notdef.122" unicode="&#x1eb6;" horiz-adv-x="1516" 
d="M14 0l631 1513h219l637 -1513h-309l-164 391h-536l-168 -391h-310zM594 664h324l-162 458zM590 1899q13 -32 32.5 -56t39.5 -36q18 -8 42.5 -11.5t50 -3.5t49 4t40.5 12q19 12 37 35.5t30 55.5h201q-27 -126 -136 -212q-44 -33 -100 -49.5t-122 -16.5t-122 16.5
t-100 49.5q-109 86 -136 212h194zM614 -408v273h273v-273h-273z" />
    <glyph glyph-name=".notdef.050" unicode="&#x1eb7;" horiz-adv-x="1352" 
d="M1260 1135v-1135h-250v154q-63 -85 -172.5 -138t-216.5 -53q-131 0 -235.5 49t-182.5 142q-68 82 -105 189.5t-37 223.5q0 123 33.5 221.5t112.5 186.5q86 100 192 148t230 48q118 0 215.5 -50t165.5 -146v160h250zM1001 569q0 145 -91 240.5t-236 95.5
q-147 0 -243.5 -98.5t-96.5 -249.5q0 -138 98 -233t238 -95q145 0 238 96t93 244zM554 1535q13 -32 32.5 -56t39.5 -36q18 -8 42.5 -11.5t50 -3.5t49 4t40.5 12q19 12 37 35.5t30 55.5h201q-27 -126 -136 -212q-44 -33 -100 -49.5t-122 -16.5t-122 16.5t-100 49.5
q-109 86 -136 212h194zM545 -414v248h272v-248h-272z" />
    <glyph glyph-name=".notdef.127" unicode="&#x1eb8;" horiz-adv-x="1065" 
d="M139 0v1513h813v-272h-532v-348h510v-272h-510v-349h532v-272h-813zM393 -395v272h273v-272h-273z" />
    <glyph glyph-name=".notdef.045" unicode="&#x1eb9;" 
d="M1231 446h-881q30 -99 112.5 -158t186.5 -59q79 0 146.5 26.5t107.5 72.5h301q-51 -153 -208 -259t-337 -106q-246 0 -423 174q-87 87 -131 192t-44 230q0 252 174 432t429 180q240 0 410.5 -177.5t170.5 -418.5v-39q-3 -17 -4 -25zM346 688h625q-33 98 -118 157.5
t-191 59.5q-104 0 -195 -60t-121 -157zM524 -397v272h273v-272h-273z" />
    <glyph glyph-name=".notdef.125" unicode="&#x1eba;" horiz-adv-x="1065" 
d="M139 0v1513h813v-272h-532v-348h510v-272h-510v-349h532v-272h-813zM307 1912v33l4 42q0 1 0.5 1.5t0.5 2.5q2 6 4.5 12.5t11.5 21.5h-1q7 19 20 37.5t31 38.5q14 14 33 26.5t45 23.5q60 22 103 22q51 0 92 -17t75 -52q67 -67 67 -163q0 -38 -21.5 -77t-61.5 -74
q-34 -32 -52 -68t-18 -74h-180q0 35 12.5 73t38.5 77l87 102q16 15 16 48q0 30 -17 49t-41 19q-26 0 -41 -15q-14 -11 -20.5 -34t-6.5 -55h-181z" />
    <glyph glyph-name=".notdef.047" unicode="&#x1ebb;" 
d="M1231 446h-881q30 -99 112.5 -158t186.5 -59q79 0 146.5 26.5t107.5 72.5h301q-51 -153 -208 -259t-337 -106q-246 0 -423 174q-87 87 -131 192t-44 230q0 252 174 432t429 180q240 0 410.5 -177.5t170.5 -418.5v-39q-3 -17 -4 -25zM346 688h625q-33 98 -118 157.5
t-191 59.5q-104 0 -195 -60t-121 -157zM442 1518v33l4 42q0 1 0.5 1.5t0.5 2.5q2 6 4.5 12.5t11.5 21.5h-1q7 19 20 37.5t31 38.5q14 14 33 26.5t45 23.5q60 22 103 22q51 0 92 -17t75 -52q67 -67 67 -163q0 -38 -21.5 -77t-61.5 -74q-34 -32 -52 -68t-18 -74h-180
q0 35 12.5 73t38.5 77l87 102q16 15 16 48q0 30 -17 49t-41 19q-26 0 -41 -15q-14 -11 -20.5 -34t-6.5 -55h-181z" />
    <glyph glyph-name=".notdef.126" unicode="&#x1ebc;" horiz-adv-x="1065" 
d="M139 0v1513h813v-272h-532v-348h510v-272h-510v-349h532v-272h-813zM317 1654l-100 180q36 34 92 55t112 21q44 0 98 -18q115 -38 132 -40q36 0 73 15t68 43l103 -175q-47 -42 -94 -66t-103 -24q-44 0 -123.5 27t-122.5 27q-34 0 -68.5 -11t-66.5 -34z" />
    <glyph glyph-name=".notdef.046" unicode="&#x1ebd;" 
d="M1231 446h-881q30 -99 112.5 -158t186.5 -59q79 0 146.5 26.5t107.5 72.5h301q-51 -153 -208 -259t-337 -106q-246 0 -423 174q-87 87 -131 192t-44 230q0 252 174 432t429 180q240 0 410.5 -177.5t170.5 -418.5v-39q-3 -17 -4 -25zM346 688h625q-33 98 -118 157.5
t-191 59.5q-104 0 -195 -60t-121 -157zM436 1278l-100 180q37 34 92.5 55t112.5 21q42 0 98 -18q116 -39 131 -39q41 0 76 14.5t65 42.5l103 -174q-47 -42 -94 -66t-103 -24q-24 0 -55 6t-72 20q-78 27 -119 27q-73 0 -135 -45z" />
    <glyph glyph-name=".notdef.130" unicode="&#x1ebe;" horiz-adv-x="1065" 
d="M139 0v1513h813v-272h-532v-348h510v-272h-510v-349h532v-272h-813zM131 1649l303 282h215l299 -282h-297l-110 131l-113 -131h-297zM891 1824l-103 189l461 272l109 -213z" />
    <glyph glyph-name=".notdef.042" unicode="&#x1ebf;" 
d="M1231 446h-881q30 -99 112.5 -158t186.5 -59q79 0 146.5 26.5t107.5 72.5h301q-51 -153 -208 -259t-337 -106q-246 0 -423 174q-87 87 -131 192t-44 230q0 252 174 432t429 180q240 0 410.5 -177.5t170.5 -418.5v-39q-3 -17 -4 -25zM254 1270l303 282h215l299 -282h-297
l-110 131l-113 -131h-297zM346 688h625q-33 98 -118 157.5t-191 59.5q-104 0 -195 -60t-121 -157zM1014 1445l-103 189l461 272l109 -213z" />
    <glyph glyph-name=".notdef.129" unicode="&#x1ec0;" horiz-adv-x="1065" 
d="M139 0v1513h813v-272h-532v-348h510v-272h-510v-349h532v-272h-813zM131 1649l303 282h215l299 -282h-297l-110 131l-113 -131h-297zM622 2080l117 209l455 -276l-109 -189z" />
    <glyph glyph-name=".notdef.043" unicode="&#x1ec1;" 
d="M1231 446h-881q30 -99 112.5 -158t186.5 -59q79 0 146.5 26.5t107.5 72.5h301q-51 -153 -208 -259t-337 -106q-246 0 -423 174q-87 87 -131 192t-44 230q0 252 174 432t429 180q240 0 410.5 -177.5t170.5 -418.5v-39q-3 -17 -4 -25zM254 1270l303 282h215l299 -282h-297
l-110 131l-113 -131h-297zM346 688h625q-33 98 -118 157.5t-191 59.5q-104 0 -195 -60t-121 -157zM745 1701l117 209l455 -276l-109 -189z" />
    <glyph glyph-name=".notdef.131" unicode="&#x1ec2;" horiz-adv-x="1065" 
d="M139 0v1513h813v-272h-532v-348h510v-272h-510v-349h532v-272h-813zM131 1649l303 282h215l299 -282h-297l-110 131l-113 -131h-297zM722 2087v33l4 42q0 1 0.5 1.5t0.5 2.5q2 6 4.5 12.5t11.5 21.5h-1q7 19 20 37.5t31 38.5q14 14 33 26.5t45 23.5q60 22 103 22
q51 0 92 -17t75 -52q67 -67 67 -163q0 -38 -21.5 -77t-61.5 -74q-34 -32 -52 -68t-18 -74h-180q0 35 12.5 73t38.5 77l87 102q16 15 16 48q0 30 -17 49t-41 19q-26 0 -41 -15q-14 -11 -20.5 -34t-6.5 -55h-181z" />
    <glyph glyph-name=".notdef.041" unicode="&#x1ec3;" 
d="M1231 446h-881q30 -99 112.5 -158t186.5 -59q79 0 146.5 26.5t107.5 72.5h301q-51 -153 -208 -259t-337 -106q-246 0 -423 174q-87 87 -131 192t-44 230q0 252 174 432t429 180q240 0 410.5 -177.5t170.5 -418.5v-39q-3 -17 -4 -25zM254 1270l303 282h215l299 -282h-297
l-110 131l-113 -131h-297zM346 688h625q-33 98 -118 157.5t-191 59.5q-104 0 -195 -60t-121 -157zM844 1708v33l4 42q0 1 0.5 1.5t0.5 2.5q2 6 4.5 12.5t11.5 21.5h-1q7 19 20 37.5t31 38.5q14 14 33 26.5t45 23.5q60 22 103 22q51 0 92 -17t75 -52q67 -67 67 -163
q0 -38 -21.5 -77t-61.5 -74q-34 -32 -52 -68t-18 -74h-180q0 35 12.5 73t38.5 77l87 102q16 15 16 48q0 30 -17 49t-41 19q-26 0 -41 -15q-14 -11 -20.5 -34t-6.5 -55h-181z" />
    <glyph glyph-name=".notdef.132" unicode="&#x1ec4;" horiz-adv-x="1065" 
d="M139 0v1513h813v-272h-532v-348h510v-272h-510v-349h532v-272h-813zM131 1649l303 282h215l299 -282h-297l-110 131l-113 -131h-297zM295 2014l-100 180q36 34 92 55t112 21q44 0 98 -18q115 -38 132 -40q36 0 73 15t68 43l103 -175q-47 -42 -94 -66t-103 -24
q-44 0 -123.5 27t-122.5 27q-34 0 -68.5 -11t-66.5 -34z" />
    <glyph glyph-name=".notdef.040" unicode="&#x1ec5;" 
d="M1231 446h-881q30 -99 112.5 -158t186.5 -59q79 0 146.5 26.5t107.5 72.5h301q-51 -153 -208 -259t-337 -106q-246 0 -423 174q-87 87 -131 192t-44 230q0 252 174 432t429 180q240 0 410.5 -177.5t170.5 -418.5v-39q-3 -17 -4 -25zM254 1270l303 282h215l299 -282h-297
l-110 131l-113 -131h-297zM346 688h625q-33 98 -118 157.5t-191 59.5q-104 0 -195 -60t-121 -157zM418 1635l-100 180q36 34 92 55t112 21q44 0 98 -18q115 -38 132 -40q36 0 73 15t68 43l103 -175q-47 -42 -94 -66t-103 -24q-44 0 -123.5 27t-122.5 27q-34 0 -68.5 -11
t-66.5 -34z" />
    <glyph glyph-name=".notdef.105" unicode="&#x1ec6;" horiz-adv-x="1065" 
d="M139 0v1513h813v-272h-532v-348h510v-272h-510v-349h532v-272h-813zM131 1649l303 282h215l299 -282h-297l-110 131l-113 -131h-297zM393 -395v272h273v-272h-273z" />
    <glyph glyph-name=".notdef.039" unicode="&#x1ec7;" 
d="M1231 446h-881q30 -99 112.5 -158t186.5 -59q79 0 146.5 26.5t107.5 72.5h301q-51 -153 -208 -259t-337 -106q-246 0 -423 174q-87 87 -131 192t-44 230q0 252 174 432t429 180q240 0 410.5 -177.5t170.5 -418.5v-39q-3 -17 -4 -25zM254 1270l303 282h215l299 -282h-297
l-110 131l-113 -131h-297zM346 688h625q-33 98 -118 157.5t-191 59.5q-104 0 -195 -60t-121 -157zM524 -397v272h273v-272h-273z" />
    <glyph glyph-name=".notdef.102" unicode="&#x1ec8;" horiz-adv-x="573" 
d="M139 0v1513h281v-1513h-281zM29 1914v33l4 42q0 1 0.5 1.5t0.5 2.5q2 6 4.5 12.5t11.5 21.5h-1q7 19 20 37.5t31 38.5q14 14 33 26.5t45 23.5q60 22 103 22q51 0 92 -17t75 -52q67 -67 67 -163q0 -38 -21.5 -77t-61.5 -74q-34 -32 -52 -68t-18 -74h-180q0 35 12.5 73
t38.5 77l87 102q16 15 16 48q0 30 -17 49t-41 19q-26 0 -41 -15q-14 -11 -20.5 -34t-6.5 -55h-181z" />
    <glyph glyph-name=".notdef.036" unicode="&#x1ec9;" horiz-adv-x="492" 
d="M111 0v1135h272v-1135h-272zM10 1519v33l4 42q0 1 0.5 1.5t0.5 2.5q2 6 4.5 12.5t11.5 21.5h-1q7 19 20 37.5t31 38.5q14 14 33 26.5t45 23.5q60 22 103 22q51 0 92 -17t75 -52q67 -67 67 -163q0 -38 -21.5 -77t-61.5 -74q-34 -32 -52 -68t-18 -74h-180q0 35 12.5 73
t38.5 77l87 102q16 15 16 48q0 30 -17 49t-41 19q-26 0 -41 -15q-14 -11 -20.5 -34t-6.5 -55h-181z" />
    <glyph glyph-name=".notdef.100" unicode="&#x1eca;" horiz-adv-x="573" 
d="M139 0v1513h281v-1513h-281zM135 -403v272h273v-272h-273zM135 1604v272h273v-272h-273z" />
    <glyph glyph-name=".notdef.034" unicode="&#x1ecb;" horiz-adv-x="492" 
d="M111 0v1135h272v-1135h-272zM111 1266v247h272v-247h-272zM111 -414v248h272v-248h-272z" />
    <glyph glyph-name=".notdef.095" unicode="&#x1ecc;" horiz-adv-x="1720" 
d="M850 1542q325 0 556.5 -231.5t231.5 -560.5q0 -326 -232 -556.5t-556 -230.5t-556.5 229.5t-232.5 557.5q0 327 231.5 559.5t557.5 232.5zM850 1270q-210 0 -359 -151t-149 -363q0 -209 150 -364.5t358 -155.5t358 155.5t150 364.5q0 214 -148 364t-360 150zM713 -414
v273h272v-273h-272z" />
    <glyph glyph-name=".notdef.029" unicode="&#x1ecd;" 
d="M674 1171q247 0 421 -178q87 -89 130 -195t43 -233q0 -250 -178 -426t-428 -176q-245 0 -423 177t-178 425q0 254 179 430t434 176zM662 905q-30 0 -62 -7t-64 -22q-62 -27 -108 -73.5t-70 -108t-24 -129.5q0 -139 95 -237.5t233 -98.5q142 0 237.5 96.5t95.5 239.5
q0 142 -97 241t-236 99zM528 -410v248h273v-248h-273z" />
    <glyph glyph-name=".notdef.097" unicode="&#x1ece;" horiz-adv-x="1720" 
d="M850 1542q325 0 556.5 -231.5t231.5 -560.5q0 -326 -232 -556.5t-556 -230.5t-556.5 229.5t-232.5 557.5q0 327 231.5 559.5t557.5 232.5zM850 1270q-210 0 -359 -151t-149 -363q0 -209 150 -364.5t358 -155.5t358 155.5t150 364.5q0 214 -148 364t-360 150zM605 1912v33
l4 42q0 1 0.5 1.5t0.5 2.5q2 6 4.5 12.5t11.5 21.5h-1q7 19 20 37.5t31 38.5q14 14 33 26.5t45 23.5q60 22 103 22q51 0 92 -17t75 -52q67 -67 67 -163q0 -38 -21.5 -77t-61.5 -74q-34 -32 -52 -68t-18 -74h-180q0 35 12.5 73t38.5 77l87 102q16 15 16 48q0 30 -17 49
t-41 19q-26 0 -41 -15q-14 -11 -20.5 -34t-6.5 -55h-181z" />
    <glyph glyph-name=".notdef.031" unicode="&#x1ecf;" 
d="M674 1171q247 0 421 -178q87 -89 130 -195t43 -233q0 -250 -178 -426t-428 -176q-245 0 -423 177t-178 425q0 254 179 430t434 176zM662 905q-30 0 -62 -7t-64 -22q-62 -27 -108 -73.5t-70 -108t-24 -129.5q0 -139 95 -237.5t233 -98.5q142 0 237.5 96.5t95.5 239.5
q0 142 -97 241t-236 99zM435 1518v33l4 42q0 1 0.5 1.5t0.5 2.5q2 6 4.5 12.5t11.5 21.5h-1q7 19 20 37.5t31 38.5q14 14 33 26.5t45 23.5q60 22 103 22q51 0 92 -17t75 -52q67 -67 67 -163q0 -38 -21.5 -77t-61.5 -74q-34 -32 -52 -68t-18 -74h-180q0 35 12.5 73t38.5 77
l87 102q16 15 16 48q0 30 -17 49t-41 19q-26 0 -41 -15q-14 -11 -20.5 -34t-6.5 -55h-181z" />
    <glyph glyph-name=".notdef.092" unicode="&#x1ed0;" horiz-adv-x="1720" 
d="M850 1542q326 0 557 -231.5t231 -560.5q0 -327 -232 -557t-556 -230t-556.5 229.5t-232.5 557.5q0 329 231 560.5t558 231.5zM459 1649l303 282h215l299 -282h-297l-111 131l-112 -131h-297zM850 1270q-211 0 -359.5 -150.5t-148.5 -363.5q0 -210 150.5 -365t357.5 -155
t357.5 155t150.5 365q0 214 -148.5 364t-359.5 150zM1219 1824l-103 189l461 272l109 -213z" />
    <glyph glyph-name=".notdef.026" unicode="&#x1ed1;" 
d="M674 1171q247 0 421 -178q87 -89 130 -195t43 -233q0 -250 -178 -426t-428 -176q-245 0 -423 177t-178 425q0 254 179 430t434 176zM254 1270l303 282h215l299 -282h-297l-110 131l-113 -131h-297zM662 905q-30 0 -62 -7t-64 -22q-62 -27 -108 -73.5t-70 -108t-24 -129.5
q0 -139 95 -237.5t233 -98.5q142 0 237.5 96.5t95.5 239.5q0 142 -97 241t-236 99zM1014 1445l-103 189l461 272l109 -213z" />
    <glyph glyph-name=".notdef.093" unicode="&#x1ed2;" horiz-adv-x="1720" 
d="M850 1542q326 0 557 -231.5t231 -560.5q0 -327 -232 -557t-556 -230t-556.5 229.5t-232.5 557.5q0 329 231 560.5t558 231.5zM459 1649l303 282h215l299 -282h-297l-111 131l-112 -131h-297zM850 1270q-211 0 -359.5 -150.5t-148.5 -363.5q0 -210 150.5 -365t357.5 -155
t357.5 155t150.5 365q0 214 -148.5 364t-359.5 150zM949 2080l117 209l455 -276l-109 -189z" />
    <glyph glyph-name=".notdef.027" unicode="&#x1ed3;" 
d="M674 1171q247 0 421 -178q87 -89 130 -195t43 -233q0 -250 -178 -426t-428 -176q-245 0 -423 177t-178 425q0 254 179 430t434 176zM254 1270l303 282h215l299 -282h-297l-110 131l-113 -131h-297zM662 905q-30 0 -62 -7t-64 -22q-62 -27 -108 -73.5t-70 -108t-24 -129.5
q0 -139 95 -237.5t233 -98.5q142 0 237.5 96.5t95.5 239.5q0 142 -97 241t-236 99zM745 1701l117 209l455 -276l-109 -189z" />
    <glyph glyph-name=".notdef.091" unicode="&#x1ed4;" horiz-adv-x="1720" 
d="M850 1542q326 0 557 -231.5t231 -560.5q0 -327 -232 -557t-556 -230t-556.5 229.5t-232.5 557.5q0 329 231 560.5t558 231.5zM459 1649l303 282h215l299 -282h-297l-111 131l-112 -131h-297zM850 1270q-211 0 -359.5 -150.5t-148.5 -363.5q0 -210 150.5 -365t357.5 -155
t357.5 155t150.5 365q0 214 -148.5 364t-359.5 150zM1049 2087v33l4 42q0 1 0.5 1.5t0.5 2.5q2 6 4.5 12.5t11.5 21.5h-1q7 19 20 37.5t31 38.5q14 14 33 26.5t45 23.5q60 22 103 22q51 0 92 -17t75 -52q67 -67 67 -163q0 -38 -21.5 -77t-61.5 -74q-34 -32 -52 -68t-18 -74
h-180q0 35 12.5 73t38.5 77l87 102q16 15 16 48q0 30 -17 49t-41 19q-26 0 -41 -15q-14 -11 -20.5 -34t-6.5 -55h-181z" />
    <glyph glyph-name=".notdef.025" unicode="&#x1ed5;" 
d="M674 1171q247 0 421 -178q87 -89 130 -195t43 -233q0 -250 -178 -426t-428 -176q-245 0 -423 177t-178 425q0 254 179 430t434 176zM254 1270l303 282h215l299 -282h-297l-110 131l-113 -131h-297zM662 905q-30 0 -62 -7t-64 -22q-62 -27 -108 -73.5t-70 -108t-24 -129.5
q0 -139 95 -237.5t233 -98.5q142 0 237.5 96.5t95.5 239.5q0 142 -97 241t-236 99zM844 1708v33l4 42q0 1 0.5 1.5t0.5 2.5q2 6 4.5 12.5t11.5 21.5h-1q7 19 20 37.5t31 38.5q14 14 33 26.5t45 23.5q60 22 103 22q51 0 92 -17t75 -52q67 -67 67 -163q0 -38 -21.5 -77
t-61.5 -74q-34 -32 -52 -68t-18 -74h-180q0 35 12.5 73t38.5 77l87 102q16 15 16 48q0 30 -17 49t-41 19q-26 0 -41 -15q-14 -11 -20.5 -34t-6.5 -55h-181z" />
    <glyph glyph-name=".notdef.090" unicode="&#x1ed6;" horiz-adv-x="1720" 
d="M850 1542q326 0 557 -231.5t231 -560.5q0 -327 -232 -557t-556 -230t-556.5 229.5t-232.5 557.5q0 329 231 560.5t558 231.5zM459 1649l303 282h215l299 -282h-297l-111 131l-112 -131h-297zM850 1270q-211 0 -359.5 -150.5t-148.5 -363.5q0 -210 150.5 -365t357.5 -155
t357.5 155t150.5 365q0 214 -148.5 364t-359.5 150zM622 2014l-100 180q36 34 92 55t112 21q44 0 98 -18q115 -38 132 -40q36 0 73 15t68 43l103 -175q-47 -42 -94 -66t-103 -24q-44 0 -123.5 27t-122.5 27q-34 0 -68.5 -11t-66.5 -34z" />
    <glyph glyph-name=".notdef.024" unicode="&#x1ed7;" 
d="M674 1171q247 0 421 -178q87 -89 130 -195t43 -233q0 -250 -178 -426t-428 -176q-245 0 -423 177t-178 425q0 254 179 430t434 176zM254 1270l303 282h215l299 -282h-297l-110 131l-113 -131h-297zM662 905q-30 0 -62 -7t-64 -22q-62 -27 -108 -73.5t-70 -108t-24 -129.5
q0 -139 95 -237.5t233 -98.5q142 0 237.5 96.5t95.5 239.5q0 142 -97 241t-236 99zM418 1635l-100 180q36 34 92 55t112 21q44 0 98 -18q115 -38 132 -40q36 0 73 15t68 43l103 -175q-47 -42 -94 -66t-103 -24q-44 0 -123.5 27t-122.5 27q-34 0 -68.5 -11t-66.5 -34z" />
    <glyph glyph-name=".notdef.089" unicode="&#x1ed8;" horiz-adv-x="1720" 
d="M850 1542q326 0 557 -231.5t231 -560.5q0 -327 -232 -557t-556 -230t-556.5 229.5t-232.5 557.5q0 329 231 560.5t558 231.5zM459 1649l303 282h215l299 -282h-297l-111 131l-112 -131h-297zM850 1270q-211 0 -359.5 -150.5t-148.5 -363.5q0 -210 150.5 -365t357.5 -155
t357.5 155t150.5 365q0 214 -148.5 364t-359.5 150zM713 -414v273h272v-273h-272z" />
    <glyph glyph-name=".notdef.023" unicode="&#x1ed9;" 
d="M674 1171q247 0 421 -178q87 -89 130 -195t43 -233q0 -250 -178 -426t-428 -176q-245 0 -423 177t-178 425q0 254 179 430t434 176zM254 1270l303 282h215l299 -282h-297l-110 131l-113 -131h-297zM662 905q-30 0 -62 -7t-64 -22q-62 -27 -108 -73.5t-70 -108t-24 -129.5
q0 -139 95 -237.5t233 -98.5q142 0 237.5 96.5t95.5 239.5q0 142 -97 241t-236 99zM528 -401v247h273v-247h-273z" />
    <glyph glyph-name=".notdef.075" unicode="&#x1eda;" horiz-adv-x="1720" 
d="M850 1270q-211 0 -359.5 -150.5t-148.5 -363.5q0 -210 150.5 -365t357.5 -155t357.5 155t150.5 365q0 214 -148.5 364t-359.5 150zM1217 1452v184h272v-247h-170q146 -109 232.5 -276.5t86.5 -362.5q0 -327 -232 -557t-556 -230t-556.5 229.5t-232.5 557.5
q0 329 231 560.5t558 231.5q54 0 97.5 -5t93.5 -18q90 -21 176 -67zM684 1634l-102 189l460 272l109 -213z" />
    <glyph glyph-name=".notdef.009" unicode="&#x1edb;" 
d="M662 905q-30 0 -62 -7t-64 -22q-62 -27 -108 -73.5t-70 -108t-24 -129.5q0 -139 95 -237.5t233 -98.5q142 0 237.5 96.5t95.5 239.5q0 142 -97 241t-236 99zM936 1110v160h272v-248h-143q93 -84 148 -204t55 -253q0 -250 -178 -426t-428 -176q-245 0 -423 177t-178 425
q0 254 179 430t434 176q71 0 136.5 -15.5t125.5 -45.5zM479 1255l-102 189l461 272l108 -213z" />
    <glyph glyph-name=".notdef.076" unicode="&#x1edc;" horiz-adv-x="1720" 
d="M850 1270q-211 0 -359.5 -150.5t-148.5 -363.5q0 -210 150.5 -365t357.5 -155t357.5 155t150.5 365q0 214 -148.5 364t-359.5 150zM1217 1452v184h272v-247h-170q146 -109 232.5 -276.5t86.5 -362.5q0 -327 -232 -557t-556 -230t-556.5 229.5t-232.5 557.5
q0 329 231 560.5t558 231.5q54 0 97.5 -5t93.5 -18q90 -21 176 -67zM582 1890l116 209l455 -276l-109 -189z" />
    <glyph glyph-name=".notdef.010" unicode="&#x1edd;" 
d="M662 905q-30 0 -62 -7t-64 -22q-62 -27 -108 -73.5t-70 -108t-24 -129.5q0 -139 95 -237.5t233 -98.5q142 0 237.5 96.5t95.5 239.5q0 142 -97 241t-236 99zM936 1110v160h272v-248h-143q93 -84 148 -204t55 -253q0 -250 -178 -426t-428 -176q-245 0 -423 177t-178 425
q0 254 179 430t434 176q71 0 136.5 -15.5t125.5 -45.5zM377 1511l117 209l454 -276l-108 -189z" />
    <glyph glyph-name=".notdef.074" unicode="&#x1ede;" horiz-adv-x="1720" 
d="M1217 1452v184h272v-247h-170q146 -109 232.5 -276.5t86.5 -362.5q0 -327 -232 -557t-556 -230t-556.5 229.5t-232.5 557.5q0 329 231 560.5t558 231.5q54 0 97.5 -5t93.5 -18q90 -21 176 -67zM850 1270q-211 0 -359.5 -150.5t-148.5 -363.5q0 -210 150.5 -365
t357.5 -155t357.5 155t150.5 365q0 214 -148.5 364t-359.5 150zM601 1912v33l4 42v1q1 1 1 3q2 6 4.5 12.5t11.5 21.5h-1q7 19 20 37.5t31 38.5q14 14 33 26.5t45 23.5q60 22 103 22q51 0 92 -17t75 -52q67 -67 67 -163q0 -38 -21.5 -77t-61.5 -74q-34 -32 -52 -68t-18 -74
h-180q0 35 12.5 73t38.5 77l87 102q16 15 16 48q0 30 -17 49t-41 19q-26 0 -41 -15q-14 -11 -20.5 -34t-6.5 -55h-181z" />
    <glyph glyph-name=".notdef.008" unicode="&#x1edf;" 
d="M936 1110v160h272v-248h-143q93 -84 148 -204t55 -253q0 -250 -178 -426t-428 -176q-245 0 -423 177t-178 425q0 254 179 430t434 176q71 0 136.5 -15.5t125.5 -45.5zM662 905q-30 0 -62 -7t-64 -22q-62 -27 -108 -73.5t-70 -108t-24 -129.5q0 -139 95 -237.5t233 -98.5
q142 0 237.5 96.5t95.5 239.5q0 142 -97 241t-236 99zM435 1518v33l4 42v1q1 1 1 3q2 6 4.5 12.5t11.5 21.5h-1q7 19 20 37.5t31 38.5q14 14 33 26.5t45 23.5q60 22 103 22q51 0 92 -17t75 -52q67 -67 67 -163q0 -38 -21.5 -77t-61.5 -74q-34 -32 -52 -68t-18 -74h-180
q0 35 12.5 73t38.5 77l87 102q16 15 16 48q0 30 -17 49t-41 19q-26 0 -41 -15q-14 -11 -20.5 -34t-6.5 -55h-181z" />
    <glyph glyph-name=".notdef.073" unicode="&#x1ee0;" horiz-adv-x="1720" 
d="M850 1270q-211 0 -359.5 -150.5t-148.5 -363.5q0 -210 150.5 -365t357.5 -155t357.5 155t150.5 365q0 214 -148.5 364t-359.5 150zM1217 1452v184h272v-247h-170q146 -109 232.5 -276.5t86.5 -362.5q0 -327 -232 -557t-556 -230t-556.5 229.5t-232.5 557.5
q0 329 231 560.5t558 231.5q54 0 97.5 -5t93.5 -18q90 -21 176 -67zM612 1654l-100 180q36 34 92 55t112 21q44 0 98 -18q115 -38 132 -40q36 0 73 15t68 43l103 -175q-47 -42 -94 -66t-103 -24q-44 0 -123.5 27t-122.5 27q-34 0 -68.5 -11t-66.5 -34z" />
    <glyph glyph-name=".notdef.007" unicode="&#x1ee1;" 
d="M662 905q-30 0 -62 -7t-64 -22q-62 -27 -108 -73.5t-70 -108t-24 -129.5q0 -139 95 -237.5t233 -98.5q142 0 237.5 96.5t95.5 239.5q0 142 -97 241t-236 99zM936 1110v160h272v-248h-143q93 -84 148 -204t55 -253q0 -250 -178 -426t-428 -176q-245 0 -423 177t-178 425
q0 254 179 430t434 176q71 0 136.5 -15.5t125.5 -45.5zM416 1278l-101 180q37 34 92.5 55t112.5 21q42 0 98 -18q116 -39 132 -39q41 0 76 14.5t65 42.5l102 -174q-45 -41 -92.5 -65.5t-103.5 -24.5q-24 0 -55 6t-72 20q-78 27 -119 27q-73 0 -135 -45z" />
    <glyph glyph-name=".notdef.072" unicode="&#x1ee2;" horiz-adv-x="1720" 
d="M850 1270q-211 0 -359.5 -150.5t-148.5 -363.5q0 -210 150.5 -365t357.5 -155t357.5 155t150.5 365q0 214 -148.5 364t-359.5 150zM1217 1452v184h272v-247h-170q146 -109 232.5 -276.5t86.5 -362.5q0 -327 -232 -557t-556 -230t-556.5 229.5t-232.5 557.5
q0 329 231 560.5t558 231.5q54 0 97.5 -5t93.5 -18q90 -21 176 -67zM713 -414v273h272v-273h-272z" />
    <glyph glyph-name=".notdef.006" unicode="&#x1ee3;" 
d="M528 -410v248h273v-248h-273zM662 905q-30 0 -62 -7t-64 -22q-62 -27 -108 -73.5t-70 -108t-24 -129.5q0 -139 95 -237.5t233 -98.5q142 0 237.5 96.5t95.5 239.5q0 142 -97 241t-236 99zM936 1110v160h272v-248h-143q93 -84 148 -204t55 -253q0 -250 -178 -426
t-428 -176q-245 0 -423 177t-178 425q0 254 179 430t434 176q71 0 136.5 -15.5t125.5 -45.5z" />
    <glyph glyph-name=".notdef.084" unicode="&#x1ee4;" 
d="M139 1513h281v-944v-39l1 -51q0 -11 1 -24t4 -27q3 -29 23 -63q30 -59 83 -94t117 -35q55 0 106 27t85 79q27 45 36 109q5 47 5 118v944h280v-944q0 -132 -18 -216q-24 -112 -92 -193q-72 -87 -180.5 -142t-221.5 -55q-105 0 -209.5 51t-177.5 134.5t-103 197.5
q-9 43 -15 95q0 22 -2.5 67t-2.5 61v944zM516 -412v273h272v-273h-272z" />
    <glyph glyph-name=".notdef.018" unicode="&#x1ee5;" horiz-adv-x="1229" 
d="M848 1135h272v-1135h-250v121q-43 -78 -119 -118t-173 -40q-105 0 -196 39t-161 114.5t-94 176.5q-8 37 -12 84t-4 117v641h272v-557q0 -70 6 -129t29 -103q27 -53 79.5 -85t114.5 -32q138 0 195 113q41 84 41 236v557zM500 -145h272v-261h-272v261z" />
    <glyph glyph-name=".notdef.086" unicode="&#x1ee6;" 
d="M139 1513h281v-944v-39l1 -51q0 -11 1 -24t4 -27q3 -29 23 -63q30 -59 83 -94t117 -35q55 0 106 27t85 79q27 45 36 109q5 47 5 118v944h280v-944q0 -132 -18 -216q-24 -112 -92 -193q-72 -87 -180.5 -142t-221.5 -55q-105 0 -209.5 51t-177.5 134.5t-103 197.5
q-9 43 -15 95q0 22 -2.5 67t-2.5 61v944zM405 1912v33l4 42q0 1 0.5 1.5t0.5 2.5q2 6 4.5 12.5t11.5 21.5h-1q7 19 20 37.5t31 38.5q14 14 33 26.5t45 23.5q60 22 103 22q51 0 92 -17t75 -52q67 -67 67 -163q0 -38 -21.5 -77t-61.5 -74q-34 -32 -52 -68t-18 -74h-180
q0 35 12.5 73t38.5 77l87 102q16 15 16 48q0 30 -17 49t-41 19q-26 0 -41 -15q-14 -11 -20.5 -34t-6.5 -55h-181z" />
    <glyph glyph-name=".notdef.020" unicode="&#x1ee7;" horiz-adv-x="1229" 
d="M848 1135h272v-1135h-250v121q-43 -78 -119 -118t-173 -40q-105 0 -196 39t-161 114.5t-94 176.5q-8 37 -12 84t-4 117v641h272v-557q0 -70 6 -129t29 -103q27 -53 79.5 -85t114.5 -32q138 0 195 113q41 84 41 236v557zM371 1520v33l4 42q0 1 0.5 1.5t0.5 2.5
q2 6 4.5 12.5t11.5 21.5h-1q7 19 20 37.5t31 38.5q14 14 33 26.5t45 23.5q60 22 103 22q51 0 92 -17t75 -52q67 -67 67 -163q0 -38 -21.5 -77t-61.5 -74q-34 -32 -52 -68t-18 -74h-180q0 35 12.5 73t38.5 77l87 102q16 15 16 48q0 30 -17 49t-41 19q-26 0 -41 -15
q-14 -11 -20.5 -34t-6.5 -55h-181z" />
    <glyph glyph-name=".notdef.081" unicode="&#x1ee8;" 
d="M1161 1389v-820q0 -133 -18 -216q-24 -112 -92 -193q-73 -87 -180.5 -142t-221.5 -55q-105 0 -209.5 51t-178 134.5t-102.5 197.5q-10 42 -15 95.5t-5 127.5v944h281v-983q0 -28 1 -51t5 -50.5t23 -63.5q30 -59 83 -94t117 -35q56 0 106.5 27t84.5 79q27 45 36 109
q5 43 5 118v944h155v123h273v-247h-148zM479 1634l-102 189l461 272l108 -213z" />
    <glyph glyph-name=".notdef.015" unicode="&#x1ee9;" horiz-adv-x="1229" 
d="M438 1255l-102 189l461 272l108 -213zM1120 1024v-1024h-250v121q-43 -78 -119 -118t-173 -40q-105 0 -196 39t-161 114.5t-94 176.5q-8 37 -12 84t-4 117v641h272v-557q0 -70 6 -129t29 -103q27 -53 79.5 -85t114.5 -32q138 0 195 113q41 84 41 236v557h151v137h273
v-248h-152z" />
    <glyph glyph-name=".notdef.082" unicode="&#x1eea;" 
d="M1161 1389v-820q0 -133 -18 -216q-24 -112 -92 -193q-73 -87 -180.5 -142t-221.5 -55q-105 0 -209.5 51t-178 134.5t-102.5 197.5q-10 42 -15 95.5t-5 127.5v944h281v-983q0 -28 1 -51t5 -50.5t23 -63.5q30 -59 83 -94t117 -35q56 0 106.5 27t84.5 79q27 45 36 109
q5 43 5 118v944h155v123h273v-247h-148zM377 1890l117 209l454 -276l-108 -189z" />
    <glyph glyph-name=".notdef.016" unicode="&#x1eeb;" horiz-adv-x="1229" 
d="M336 1511l117 209l454 -276l-108 -189zM1120 1024v-1024h-250v121q-43 -78 -119 -118t-173 -40q-105 0 -196 39t-161 114.5t-94 176.5q-8 37 -12 84t-4 117v641h272v-557q0 -70 6 -129t29 -103q27 -53 79.5 -85t114.5 -32q138 0 195 113q41 84 41 236v557h151v137h273
v-248h-152z" />
    <glyph glyph-name=".notdef.080" unicode="&#x1eec;" 
d="M1161 1389v-820q0 -133 -18 -216q-24 -112 -92 -193q-73 -87 -180.5 -142t-221.5 -55q-105 0 -209.5 51t-178 134.5t-102.5 197.5q-10 42 -15 95.5t-5 127.5v944h281v-983q0 -28 1 -51t5 -50.5t23 -63.5q30 -59 83 -94t117 -35q56 0 106.5 27t84.5 79q27 45 36 109
q5 43 5 118v944h155v123h273v-247h-148zM405 1912v33l4 42v1q1 1 1 3q2 6 4.5 12.5t11.5 21.5h-1q7 19 20 37.5t31 38.5q14 14 33 26.5t45 23.5q60 22 103 22q51 0 92 -17t75 -52q67 -67 67 -163q0 -38 -21.5 -77t-61.5 -74q-34 -32 -52 -68t-18 -74h-180q0 35 12.5 73
t38.5 77l87 102q16 15 16 48q0 30 -17 49t-41 19q-26 0 -41 -15q-14 -11 -20.5 -34t-6.5 -55h-181z" />
    <glyph glyph-name=".notdef.014" unicode="&#x1eed;" horiz-adv-x="1229" 
d="M1120 1024v-1024h-250v121q-43 -78 -119 -118t-173 -40q-105 0 -196 39t-161 114.5t-94 176.5q-8 37 -12 84t-4 117v641h272v-557q0 -70 6 -129t29 -103q27 -53 79.5 -85t114.5 -32q138 0 195 113q41 84 41 236v557h151v137h273v-248h-152zM371 1520v33l4 42v1q1 1 1 3
q2 6 4.5 12.5t11.5 21.5h-1q7 19 20 37.5t31 38.5q14 14 33 26.5t45 23.5q60 22 103 22q51 0 92 -17t75 -52q67 -67 67 -163q0 -38 -21.5 -77t-61.5 -74q-34 -32 -52 -68t-18 -74h-180q0 35 12.5 73t38.5 77l87 102q16 15 16 48q0 30 -17 49t-41 19q-26 0 -41 -15
q-14 -11 -20.5 -34t-6.5 -55h-181z" />
    <glyph glyph-name=".notdef.079" unicode="&#x1eee;" 
d="M1161 1389v-820q0 -133 -18 -216q-24 -112 -92 -193q-73 -87 -180.5 -142t-221.5 -55q-105 0 -209.5 51t-178 134.5t-102.5 197.5q-10 42 -15 95.5t-5 127.5v944h281v-983q0 -28 1 -51t5 -50.5t23 -63.5q30 -59 83 -94t117 -35q56 0 106.5 27t84.5 79q27 45 36 109
q5 43 5 118v944h155v123h273v-247h-148zM400 1654l-100 180q36 34 92 55t112 21q44 0 98 -18q115 -38 132 -40q36 0 73 15t68 43l103 -175q-47 -42 -94 -66t-103 -24q-44 0 -123.5 27t-122.5 27q-34 0 -68.5 -11t-66.5 -34z" />
    <glyph glyph-name=".notdef.013" unicode="&#x1eef;" horiz-adv-x="1229" 
d="M1120 1024v-1024h-250v121q-43 -78 -119 -118t-173 -40q-105 0 -196 39t-161 114.5t-94 176.5q-8 37 -12 84t-4 117v641h272v-557q0 -70 6 -129t29 -103q27 -53 79.5 -85t114.5 -32q138 0 195 113q41 84 41 236v557h271v137h237v-252zM379 1298l-100 181q37 35 92.5 55
t111.5 20q42 0 98 -18q116 -39 132 -39q40 0 73.5 14.5t67.5 42.5l102 -174q-45 -41 -92.5 -65.5t-103.5 -24.5q-24 0 -55 6t-72 20q-78 27 -119 27q-73 0 -135 -45z" />
    <glyph glyph-name=".notdef.078" unicode="&#x1ef0;" 
d="M1161 1389v-820q0 -132 -18 -216q-24 -112 -92 -193q-72 -87 -180.5 -142t-221.5 -55q-105 0 -209.5 51t-177.5 134.5t-103 197.5q-9 43 -15 95q0 22 -2.5 67t-2.5 61v944h281v-983l1 -51q0 -11 1 -24t4 -27q3 -29 23 -63q30 -59 83 -94t117 -35q55 0 106 27t85 79
q27 45 36 109q5 47 5 118v944h155v123h273v-247h-148zM516 -412v273h273v-273h-273z" />
    <glyph glyph-name=".notdef.012" unicode="&#x1ef1;" horiz-adv-x="1229" 
d="M500 -145h272v-261h-272v261zM1120 1024v-1024h-250v121q-43 -78 -119 -118t-173 -40q-105 0 -196 39t-161 114.5t-94 176.5q-8 37 -12 84t-4 117v641h272v-557q0 -70 6 -129t29 -103q27 -53 79.5 -85t114.5 -32q138 0 195 113q41 84 41 236v557h151v137h273v-248h-152z
" />
    <glyph glyph-name=".notdef.071" unicode="&#x1ef2;" horiz-adv-x="1270" 
d="M504 0v559l-498 954h309l330 -696l330 696h307l-498 -954v-559h-280zM315 1878l117 209l455 -277l-109 -188z" />
    <glyph glyph-name=".notdef.005" unicode="&#x1ef3;" horiz-adv-x="1188" 
d="M219 -379l209 485l-416 1029h310l260 -727l272 727h309l-651 -1514h-293zM295 1511l117 209l454 -276l-108 -189z" />
    <glyph glyph-name=".notdef.067" unicode="&#x1ef4;" horiz-adv-x="1270" 
d="M504 0v559l-498 954h309l330 -696l330 696h307l-498 -954v-559h-280zM516 -412v273h272v-273h-272z" />
    <glyph glyph-name=".notdef.001" unicode="&#x1ef5;" horiz-adv-x="1188" 
d="M219 -379l209 485l-416 1029h310l260 -727l272 727h309l-651 -1514h-293zM711 -145h272v-261h-272v261z" />
    <glyph glyph-name=".notdef.069" unicode="&#x1ef6;" horiz-adv-x="1270" 
d="M504 0v559l-498 954h309l330 -696l330 696h307l-498 -954v-559h-280zM416 1912v33l4 42q0 1 0.5 1.5t0.5 2.5q2 6 4.5 12.5t11.5 21.5h-1q7 19 20 37.5t31 38.5q14 14 33 26.5t45 23.5q60 22 103 22q51 0 92 -17t75 -52q67 -67 67 -163q0 -38 -21.5 -77t-61.5 -74
q-34 -32 -52 -68t-18 -74h-180q0 35 12.5 73t38.5 77l87 102q16 15 16 48q0 30 -17 49t-41 19q-26 0 -41 -15q-14 -11 -20.5 -34t-6.5 -55h-181z" />
    <glyph glyph-name=".notdef.003" unicode="&#x1ef7;" horiz-adv-x="1188" 
d="M219 -379l209 485l-416 1029h310l260 -727l272 727h309l-651 -1514h-293zM337 1518v33l4 42q0 1 0.5 1.5t0.5 2.5q2 6 4.5 12.5t11.5 21.5h-1q7 19 20 37.5t31 38.5q14 14 33 26.5t45 23.5q60 22 103 22q51 0 92 -17t75 -52q67 -67 67 -163q0 -38 -21.5 -77t-61.5 -74
q-34 -32 -52 -68t-18 -74h-180q0 35 12.5 73t38.5 77l87 102q16 15 16 48q0 30 -17 49t-41 19q-26 0 -41 -15q-14 -11 -20.5 -34t-6.5 -55h-181z" />
    <glyph glyph-name=".notdef.068" unicode="&#x1ef8;" horiz-adv-x="1270" 
d="M504 0v559l-498 954h309l330 -696l330 696h307l-498 -954v-559h-280zM400 1654l-100 180q36 34 92 55t112 21q44 0 98 -18q115 -38 132 -40q36 0 73 15t68 43l103 -175q-47 -42 -94 -66t-103 -24q-44 0 -123.5 27t-122.5 27q-34 0 -68.5 -11t-66.5 -34z" />
    <glyph glyph-name=".notdef.002" unicode="&#x1ef9;" horiz-adv-x="1188" 
d="M219 -379l209 485l-416 1029h310l260 -727l272 727h309l-651 -1514h-293zM379 1298l-100 181q37 35 92.5 55t111.5 20q42 0 98 -18q116 -39 132 -39q40 0 73.5 14.5t67.5 42.5l102 -174q-45 -41 -92.5 -65.5t-103.5 -24.5q-24 0 -55 6t-72 20q-78 27 -119 27
q-73 0 -135 -45z" />
    <glyph glyph-name="quoteleft" unicode="&#x2018;" horiz-adv-x="451" 
d="M152 1051v462h155v-462h-155z" />
    <glyph glyph-name="quoteright" unicode="&#x2019;" horiz-adv-x="451" 
d="M152 1051v462h155v-462h-155z" />
    <glyph glyph-name="quotedblleft" unicode="&#x201c;" horiz-adv-x="737" 
d="M152 1051v462h153v-462h-153zM426 1051v462h154v-462h-154z" />
    <glyph glyph-name="quotedblright" unicode="&#x201d;" horiz-adv-x="737" 
d="M152 1051v462h153v-462h-153zM426 1051v462h154v-462h-154z" />
    <glyph glyph-name="ellipsis" unicode="&#x2026;" horiz-adv-x="1719" 
d="M147 0v272h273v-272h-273zM720 0v272h273v-272h-273zM1293 0v272h273v-272h-273z" />
    <glyph glyph-name="ugrave" horiz-adv-x="582" 
 />
    <glyph glyph-name="uacute" horiz-adv-x="580" 
 />
    <glyph glyph-name="yacute" horiz-adv-x="629" 
 />
  </font>
</defs>
</svg>
