<svg id="total-revenue" width="100%" height="100%" x="12.5" y="10">
    <g id="Group_1639" data-name="Group 1639" transform="translate(-450 -449.846)">
        <g id="Group_1638" data-name="Group 1638" transform="translate(450 449.846)">
            <path id="Path_4153" data-name="Path 4153" d="M462.08,479.041a12.072,12.072,0,0,1,9.526-4.639,12.338,12.338,0,0,1,1.71.118v-2.581c-1.749,1.573-6.283,2.693-11.61,2.693-5.294,0-9.815-1.107-11.584-2.673v3.322C451.007,478.9,461.956,479.048,462.08,479.041Z" transform="translate(-450.084 -464.897)" fill="#5eb858"></path>
            <path id="Path_4154" data-name="Path 4154" d="M450.088,490.489l-.006,3.374c.426,1.874,4.377,3.394,9.494,3.728a11.91,11.91,0,0,1,1.468-4.429C456.018,493.077,451.779,492,450.088,490.489Z" transform="translate(-450.056 -477.535)" fill="#5eb858"></path>
            <path id="Path_4155" data-name="Path 4155" d="M450.068,509.224l-.007,3.211a.414.414,0,0,1,.059-.052c.124,2.07,4.547,3.767,10.228,4.01a12,12,0,0,1-.878-4.534v-.007C455.132,511.583,451.575,510.574,450.068,509.224Z" transform="translate(-450.042 -490.298)" fill="#5eb858"></path>
            <path id="Path_4156" data-name="Path 4156" d="M461.088,530.519c-5.124-.085-9.428-1.219-11.04-2.765l-.006,3.027c0,2.28,5.2,4.128,11.61,4.128a31.546,31.546,0,0,0,3.512-.19A12.2,12.2,0,0,1,461.088,530.519Z" transform="translate(-450.028 -502.922)" fill="#5eb858"></path>
            <ellipse id="Ellipse_8" data-name="Ellipse 8" cx="11.623" cy="4.121" rx="11.623" ry="4.121" fill="#5eb858"></ellipse>
            <path id="Path_4157" data-name="Path 4157" d="M495,484.7a10.473,10.473,0,1,0,10.477,10.47A10.477,10.477,0,0,0,495,484.7Zm.957,16.066v.662a.957.957,0,0,1-1.913,0v-.662a3.393,3.393,0,0,1-1.481-.911.959.959,0,0,1,.039-1.35.978.978,0,0,1,1.349.039,2.016,2.016,0,0,0,1.147.445,1.434,1.434,0,0,0-.1-2.863,3.343,3.343,0,0,1-.956-6.545v-.662a.957.957,0,1,1,1.913,0v.662a3.387,3.387,0,0,1,1.481.911.959.959,0,0,1-.039,1.35.93.93,0,0,1-1.35-.039,1.642,1.642,0,0,0-1.147-.445,1.433,1.433,0,0,0,.1,2.863,3.343,3.343,0,0,1,.957,6.546Z" transform="translate(-473.474 -473.642)" fill="#5eb858"></path>
        </g>
    </g>
</svg>